G04 #@! TF.GenerationSoftware,KiCad,Pcbnew,(5.1.2-1)-1*
G04 #@! TF.CreationDate,2020-06-07T15:36:17+02:00*
G04 #@! TF.ProjectId,ElkWifi,456c6b57-6966-4692-9e6b-696361645f70,rev?*
G04 #@! TF.SameCoordinates,Original*
G04 #@! TF.FileFunction,Copper,L4,Bot*
G04 #@! TF.FilePolarity,Positive*
%FSLAX46Y46*%
G04 Gerber Fmt 4.6, Leading zero omitted, Abs format (unit mm)*
G04 Created by KiCad (PCBNEW (5.1.2-1)-1) date 2020-06-07 15:36:17*
%MOMM*%
%LPD*%
G04 APERTURE LIST*
%ADD10C,0.300000*%
%ADD11C,1.600000*%
%ADD12R,1.600000X1.600000*%
%ADD13C,1.524000*%
%ADD14R,1.524000X1.524000*%
%ADD15C,1.422400*%
%ADD16R,1.422400X1.422400*%
%ADD17R,1.270000X11.000000*%
%ADD18R,1.270000X10.000000*%
%ADD19O,1.200000X4.500000*%
%ADD20O,1.700000X1.700000*%
%ADD21R,1.700000X1.700000*%
%ADD22C,1.800000*%
%ADD23R,1.800000X1.800000*%
%ADD24C,0.800000*%
%ADD25C,0.250000*%
%ADD26C,1.250000*%
G04 APERTURE END LIST*
D10*
X72174491Y-31156180D02*
X71460205Y-30656180D01*
X72174491Y-30299037D02*
X70674491Y-30299037D01*
X70674491Y-30870465D01*
X70745920Y-31013322D01*
X70817348Y-31084751D01*
X70960205Y-31156180D01*
X71174491Y-31156180D01*
X71317348Y-31084751D01*
X71388777Y-31013322D01*
X71460205Y-30870465D01*
X71460205Y-30299037D01*
X72103062Y-32370465D02*
X72174491Y-32227608D01*
X72174491Y-31941894D01*
X72103062Y-31799037D01*
X71960205Y-31727608D01*
X71388777Y-31727608D01*
X71245920Y-31799037D01*
X71174491Y-31941894D01*
X71174491Y-32227608D01*
X71245920Y-32370465D01*
X71388777Y-32441894D01*
X71531634Y-32441894D01*
X71674491Y-31727608D01*
X71174491Y-32941894D02*
X72174491Y-33299037D01*
X71174491Y-33656180D01*
X72031634Y-34227608D02*
X72103062Y-34299037D01*
X72174491Y-34227608D01*
X72103062Y-34156180D01*
X72031634Y-34227608D01*
X72174491Y-34227608D01*
X72174491Y-36870465D02*
X72174491Y-36013322D01*
X72174491Y-36441894D02*
X70674491Y-36441894D01*
X70888777Y-36299037D01*
X71031634Y-36156180D01*
X71103062Y-36013322D01*
X72031634Y-37513322D02*
X72103062Y-37584751D01*
X72174491Y-37513322D01*
X72103062Y-37441894D01*
X72031634Y-37513322D01*
X72174491Y-37513322D01*
X72174491Y-39013322D02*
X72174491Y-38156180D01*
X72174491Y-38584751D02*
X70674491Y-38584751D01*
X70888777Y-38441894D01*
X71031634Y-38299037D01*
X71103062Y-38156180D01*
X72031634Y-39656180D02*
X72103062Y-39727608D01*
X72174491Y-39656180D01*
X72103062Y-39584751D01*
X72031634Y-39656180D01*
X72174491Y-39656180D01*
X72174491Y-41156180D02*
X72174491Y-40299037D01*
X72174491Y-40727608D02*
X70674491Y-40727608D01*
X70888777Y-40584751D01*
X71031634Y-40441894D01*
X71103062Y-40299037D01*
X72031634Y-41799037D02*
X72103062Y-41870465D01*
X72174491Y-41799037D01*
X72103062Y-41727608D01*
X72031634Y-41799037D01*
X72174491Y-41799037D01*
X71174491Y-43513322D02*
X72174491Y-43870465D01*
X71174491Y-44227608D01*
X72103062Y-45370465D02*
X72174491Y-45227608D01*
X72174491Y-44941894D01*
X72103062Y-44799037D01*
X71960205Y-44727608D01*
X71388777Y-44727608D01*
X71245920Y-44799037D01*
X71174491Y-44941894D01*
X71174491Y-45227608D01*
X71245920Y-45370465D01*
X71388777Y-45441894D01*
X71531634Y-45441894D01*
X71674491Y-44727608D01*
X72174491Y-46084751D02*
X71174491Y-46084751D01*
X71460205Y-46084751D02*
X71317348Y-46156180D01*
X71245920Y-46227608D01*
X71174491Y-46370465D01*
X71174491Y-46513322D01*
X72103062Y-46941894D02*
X72174491Y-47084751D01*
X72174491Y-47370465D01*
X72103062Y-47513322D01*
X71960205Y-47584751D01*
X71888777Y-47584751D01*
X71745920Y-47513322D01*
X71674491Y-47370465D01*
X71674491Y-47156180D01*
X71603062Y-47013322D01*
X71460205Y-46941894D01*
X71388777Y-46941894D01*
X71245920Y-47013322D01*
X71174491Y-47156180D01*
X71174491Y-47370465D01*
X71245920Y-47513322D01*
X72174491Y-48227608D02*
X71174491Y-48227608D01*
X70674491Y-48227608D02*
X70745920Y-48156180D01*
X70817348Y-48227608D01*
X70745920Y-48299037D01*
X70674491Y-48227608D01*
X70817348Y-48227608D01*
X72174491Y-49156180D02*
X72103062Y-49013322D01*
X72031634Y-48941894D01*
X71888777Y-48870465D01*
X71460205Y-48870465D01*
X71317348Y-48941894D01*
X71245920Y-49013322D01*
X71174491Y-49156180D01*
X71174491Y-49370465D01*
X71245920Y-49513322D01*
X71317348Y-49584751D01*
X71460205Y-49656180D01*
X71888777Y-49656180D01*
X72031634Y-49584751D01*
X72103062Y-49513322D01*
X72174491Y-49370465D01*
X72174491Y-49156180D01*
X71174491Y-50299037D02*
X72174491Y-50299037D01*
X71317348Y-50299037D02*
X71245920Y-50370465D01*
X71174491Y-50513322D01*
X71174491Y-50727608D01*
X71245920Y-50870465D01*
X71388777Y-50941894D01*
X72174491Y-50941894D01*
X70817348Y-52727608D02*
X70745920Y-52799037D01*
X70674491Y-52941894D01*
X70674491Y-53299037D01*
X70745920Y-53441894D01*
X70817348Y-53513322D01*
X70960205Y-53584751D01*
X71103062Y-53584751D01*
X71317348Y-53513322D01*
X72174491Y-52656179D01*
X72174491Y-53584751D01*
X70674491Y-54513322D02*
X70674491Y-54656179D01*
X70745920Y-54799037D01*
X70817348Y-54870465D01*
X70960205Y-54941894D01*
X71245920Y-55013322D01*
X71603062Y-55013322D01*
X71888777Y-54941894D01*
X72031634Y-54870465D01*
X72103062Y-54799037D01*
X72174491Y-54656179D01*
X72174491Y-54513322D01*
X72103062Y-54370465D01*
X72031634Y-54299037D01*
X71888777Y-54227608D01*
X71603062Y-54156179D01*
X71245920Y-54156179D01*
X70960205Y-54227608D01*
X70817348Y-54299037D01*
X70745920Y-54370465D01*
X70674491Y-54513322D01*
X70817348Y-55584751D02*
X70745920Y-55656179D01*
X70674491Y-55799037D01*
X70674491Y-56156179D01*
X70745920Y-56299037D01*
X70817348Y-56370465D01*
X70960205Y-56441894D01*
X71103062Y-56441894D01*
X71317348Y-56370465D01*
X72174491Y-55513322D01*
X72174491Y-56441894D01*
X70674491Y-57370465D02*
X70674491Y-57513322D01*
X70745920Y-57656179D01*
X70817348Y-57727608D01*
X70960205Y-57799037D01*
X71245920Y-57870465D01*
X71603062Y-57870465D01*
X71888777Y-57799037D01*
X72031634Y-57727608D01*
X72103062Y-57656179D01*
X72174491Y-57513322D01*
X72174491Y-57370465D01*
X72103062Y-57227608D01*
X72031634Y-57156179D01*
X71888777Y-57084751D01*
X71603062Y-57013322D01*
X71245920Y-57013322D01*
X70960205Y-57084751D01*
X70817348Y-57156179D01*
X70745920Y-57227608D01*
X70674491Y-57370465D01*
X70674491Y-58799037D02*
X70674491Y-58941894D01*
X70745920Y-59084751D01*
X70817348Y-59156179D01*
X70960205Y-59227608D01*
X71245920Y-59299037D01*
X71603062Y-59299037D01*
X71888777Y-59227608D01*
X72031634Y-59156179D01*
X72103062Y-59084751D01*
X72174491Y-58941894D01*
X72174491Y-58799037D01*
X72103062Y-58656179D01*
X72031634Y-58584751D01*
X71888777Y-58513322D01*
X71603062Y-58441894D01*
X71245920Y-58441894D01*
X70960205Y-58513322D01*
X70817348Y-58584751D01*
X70745920Y-58656179D01*
X70674491Y-58799037D01*
X70674491Y-60584751D02*
X70674491Y-60299037D01*
X70745920Y-60156179D01*
X70817348Y-60084751D01*
X71031634Y-59941894D01*
X71317348Y-59870465D01*
X71888777Y-59870465D01*
X72031634Y-59941894D01*
X72103062Y-60013322D01*
X72174491Y-60156179D01*
X72174491Y-60441894D01*
X72103062Y-60584751D01*
X72031634Y-60656179D01*
X71888777Y-60727608D01*
X71531634Y-60727608D01*
X71388777Y-60656179D01*
X71317348Y-60584751D01*
X71245920Y-60441894D01*
X71245920Y-60156179D01*
X71317348Y-60013322D01*
X71388777Y-59941894D01*
X71531634Y-59870465D01*
X70674491Y-61656179D02*
X70674491Y-61799037D01*
X70745920Y-61941894D01*
X70817348Y-62013322D01*
X70960205Y-62084751D01*
X71245920Y-62156179D01*
X71603062Y-62156179D01*
X71888777Y-62084751D01*
X72031634Y-62013322D01*
X72103062Y-61941894D01*
X72174491Y-61799037D01*
X72174491Y-61656179D01*
X72103062Y-61513322D01*
X72031634Y-61441894D01*
X71888777Y-61370465D01*
X71603062Y-61299037D01*
X71245920Y-61299037D01*
X70960205Y-61370465D01*
X70817348Y-61441894D01*
X70745920Y-61513322D01*
X70674491Y-61656179D01*
X70817348Y-62727608D02*
X70745920Y-62799037D01*
X70674491Y-62941894D01*
X70674491Y-63299037D01*
X70745920Y-63441894D01*
X70817348Y-63513322D01*
X70960205Y-63584751D01*
X71103062Y-63584751D01*
X71317348Y-63513322D01*
X72174491Y-62656179D01*
X72174491Y-63584751D01*
X163877151Y-92894957D02*
X163377151Y-92894957D01*
X163162865Y-93680671D02*
X163877151Y-93680671D01*
X163877151Y-92180671D01*
X163162865Y-92180671D01*
X162305722Y-93680671D02*
X162448580Y-93609242D01*
X162520008Y-93466385D01*
X162520008Y-92180671D01*
X161734294Y-93680671D02*
X161734294Y-92180671D01*
X161591437Y-93109242D02*
X161162865Y-93680671D01*
X161162865Y-92680671D02*
X161734294Y-93252100D01*
X159520008Y-92180671D02*
X159162865Y-93680671D01*
X158877151Y-92609242D01*
X158591437Y-93680671D01*
X158234294Y-92180671D01*
X157662865Y-93680671D02*
X157662865Y-92680671D01*
X157662865Y-92180671D02*
X157734294Y-92252100D01*
X157662865Y-92323528D01*
X157591437Y-92252100D01*
X157662865Y-92180671D01*
X157662865Y-92323528D01*
X156448580Y-92894957D02*
X156948580Y-92894957D01*
X156948580Y-93680671D02*
X156948580Y-92180671D01*
X156234294Y-92180671D01*
X155662865Y-93680671D02*
X155662865Y-92680671D01*
X155662865Y-92180671D02*
X155734294Y-92252100D01*
X155662865Y-92323528D01*
X155591437Y-92252100D01*
X155662865Y-92180671D01*
X155662865Y-92323528D01*
X153805722Y-93680671D02*
X153805722Y-92180671D01*
X152948580Y-93680671D02*
X153591437Y-92823528D01*
X152948580Y-92180671D02*
X153805722Y-93037814D01*
X151734294Y-93609242D02*
X151877151Y-93680671D01*
X152162865Y-93680671D01*
X152305722Y-93609242D01*
X152377151Y-93466385D01*
X152377151Y-92894957D01*
X152305722Y-92752100D01*
X152162865Y-92680671D01*
X151877151Y-92680671D01*
X151734294Y-92752100D01*
X151662865Y-92894957D01*
X151662865Y-93037814D01*
X152377151Y-93180671D01*
X151162865Y-92680671D02*
X150805722Y-93680671D01*
X150448580Y-92680671D02*
X150805722Y-93680671D01*
X150948580Y-94037814D01*
X151020008Y-94109242D01*
X151162865Y-94180671D01*
X149877151Y-93680671D02*
X149877151Y-92180671D01*
X149877151Y-92752100D02*
X149734294Y-92680671D01*
X149448580Y-92680671D01*
X149305722Y-92752100D01*
X149234294Y-92823528D01*
X149162865Y-92966385D01*
X149162865Y-93394957D01*
X149234294Y-93537814D01*
X149305722Y-93609242D01*
X149448580Y-93680671D01*
X149734294Y-93680671D01*
X149877151Y-93609242D01*
X148305722Y-93680671D02*
X148448580Y-93609242D01*
X148520008Y-93537814D01*
X148591437Y-93394957D01*
X148591437Y-92966385D01*
X148520008Y-92823528D01*
X148448580Y-92752100D01*
X148305722Y-92680671D01*
X148091437Y-92680671D01*
X147948580Y-92752100D01*
X147877151Y-92823528D01*
X147805722Y-92966385D01*
X147805722Y-93394957D01*
X147877151Y-93537814D01*
X147948580Y-93609242D01*
X148091437Y-93680671D01*
X148305722Y-93680671D01*
X146520008Y-93680671D02*
X146520008Y-92894957D01*
X146591437Y-92752100D01*
X146734294Y-92680671D01*
X147020008Y-92680671D01*
X147162865Y-92752100D01*
X146520008Y-93609242D02*
X146662865Y-93680671D01*
X147020008Y-93680671D01*
X147162865Y-93609242D01*
X147234294Y-93466385D01*
X147234294Y-93323528D01*
X147162865Y-93180671D01*
X147020008Y-93109242D01*
X146662865Y-93109242D01*
X146520008Y-93037814D01*
X145805722Y-93680671D02*
X145805722Y-92680671D01*
X145805722Y-92966385D02*
X145734294Y-92823528D01*
X145662865Y-92752100D01*
X145520008Y-92680671D01*
X145377151Y-92680671D01*
X144234294Y-93680671D02*
X144234294Y-92180671D01*
X144234294Y-93609242D02*
X144377151Y-93680671D01*
X144662865Y-93680671D01*
X144805722Y-93609242D01*
X144877151Y-93537814D01*
X144948580Y-93394957D01*
X144948580Y-92966385D01*
X144877151Y-92823528D01*
X144805722Y-92752100D01*
X144662865Y-92680671D01*
X144377151Y-92680671D01*
X144234294Y-92752100D01*
X142448580Y-93609242D02*
X142305722Y-93680671D01*
X142020008Y-93680671D01*
X141877151Y-93609242D01*
X141805722Y-93466385D01*
X141805722Y-93394957D01*
X141877151Y-93252100D01*
X142020008Y-93180671D01*
X142234294Y-93180671D01*
X142377151Y-93109242D01*
X142448580Y-92966385D01*
X142448580Y-92894957D01*
X142377151Y-92752100D01*
X142234294Y-92680671D01*
X142020008Y-92680671D01*
X141877151Y-92752100D01*
X141162865Y-93680671D02*
X141162865Y-92680671D01*
X141162865Y-92180671D02*
X141234294Y-92252100D01*
X141162865Y-92323528D01*
X141091437Y-92252100D01*
X141162865Y-92180671D01*
X141162865Y-92323528D01*
X139805722Y-93680671D02*
X139805722Y-92180671D01*
X139805722Y-93609242D02*
X139948580Y-93680671D01*
X140234294Y-93680671D01*
X140377151Y-93609242D01*
X140448580Y-93537814D01*
X140520008Y-93394957D01*
X140520008Y-92966385D01*
X140448580Y-92823528D01*
X140377151Y-92752100D01*
X140234294Y-92680671D01*
X139948580Y-92680671D01*
X139805722Y-92752100D01*
X138520008Y-93609242D02*
X138662865Y-93680671D01*
X138948580Y-93680671D01*
X139091437Y-93609242D01*
X139162865Y-93466385D01*
X139162865Y-92894957D01*
X139091437Y-92752100D01*
X138948580Y-92680671D01*
X138662865Y-92680671D01*
X138520008Y-92752100D01*
X138448580Y-92894957D01*
X138448580Y-93037814D01*
X139162865Y-93180671D01*
D11*
X76947400Y-49580800D03*
D12*
X74447400Y-49580800D03*
D13*
X157078680Y-69100700D03*
X159618680Y-69100700D03*
X157078680Y-71640700D03*
X159618680Y-71640700D03*
X157078680Y-74180700D03*
X159618680Y-74180700D03*
X157078680Y-76720700D03*
D14*
X159618680Y-76720700D03*
D15*
X155702000Y-45466000D03*
X155702000Y-48006000D03*
X155702000Y-50546000D03*
X155702000Y-53086000D03*
X155702000Y-55626000D03*
X153162000Y-42926000D03*
X153162000Y-48006000D03*
X153162000Y-50546000D03*
X153162000Y-53086000D03*
X153162000Y-55626000D03*
X153162000Y-58166000D03*
X153162000Y-60706000D03*
X150622000Y-60706000D03*
X148082000Y-60706000D03*
X145542000Y-60706000D03*
X143002000Y-60706000D03*
X140462000Y-60706000D03*
X155702000Y-58166000D03*
X150622000Y-58166000D03*
X148082000Y-58166000D03*
X145542000Y-58166000D03*
X143002000Y-58166000D03*
X140462000Y-58166000D03*
X137922000Y-58166000D03*
X137922000Y-55626000D03*
X137922000Y-53086000D03*
X137922000Y-50546000D03*
X137922000Y-48006000D03*
X137922000Y-45466000D03*
X140462000Y-55626000D03*
X140462000Y-53086000D03*
X140462000Y-50546000D03*
X140462000Y-48006000D03*
X140462000Y-45466000D03*
X150622000Y-42926000D03*
X148082000Y-42926000D03*
X140462000Y-42926000D03*
X143002000Y-42926000D03*
X145542000Y-42926000D03*
X153162000Y-45466000D03*
X150622000Y-45466000D03*
X143002000Y-45466000D03*
X145542000Y-45466000D03*
D16*
X148082000Y-45466000D03*
D17*
X139748260Y-101861620D03*
X137208260Y-101861620D03*
X134668260Y-101861620D03*
X132128260Y-101861620D03*
X129588260Y-101861620D03*
X127048260Y-101861620D03*
X124508260Y-101861620D03*
X121968260Y-101861620D03*
X119428260Y-101861620D03*
X116888260Y-101861620D03*
X114348260Y-101861620D03*
X111808260Y-101861620D03*
X109268260Y-101861620D03*
X106728260Y-101861620D03*
X104188260Y-101861620D03*
X101648260Y-101861620D03*
X99108260Y-101861620D03*
X96568260Y-101861620D03*
X94028260Y-101861620D03*
X91488260Y-101861620D03*
X88948260Y-101861620D03*
D18*
X86357460Y-101345620D03*
D19*
X86347300Y-30683200D03*
X93205300Y-30683200D03*
D20*
X86357460Y-93454220D03*
D21*
X86357460Y-90914220D03*
D20*
X83195160Y-34274760D03*
X83195160Y-31734760D03*
D21*
X83195160Y-29194760D03*
D22*
X102661720Y-29885640D03*
D23*
X100121720Y-29885640D03*
D22*
X102692200Y-48387000D03*
X102692200Y-50927000D03*
X102692200Y-53467000D03*
X102692200Y-56007000D03*
X102692200Y-58547000D03*
X100152200Y-50927000D03*
X100152200Y-53467000D03*
X100152200Y-56007000D03*
X100152200Y-61087000D03*
X97612200Y-61087000D03*
X95072200Y-61087000D03*
X92532200Y-61087000D03*
X100152200Y-58547000D03*
X97612200Y-58547000D03*
X95072200Y-58547000D03*
X92532200Y-58547000D03*
X89992200Y-58547000D03*
X89992200Y-56007000D03*
X89992200Y-53467000D03*
X89992200Y-50927000D03*
X89992200Y-48387000D03*
X92532200Y-56007000D03*
X92532200Y-53467000D03*
X92532200Y-50927000D03*
X92532200Y-48387000D03*
X100152200Y-45847000D03*
X97612200Y-45847000D03*
X92532200Y-45847000D03*
X95072200Y-45847000D03*
X102692200Y-48387000D03*
X100152200Y-48387000D03*
X95072200Y-48387000D03*
D23*
X97612200Y-48387000D03*
D20*
X130263900Y-34483040D03*
D21*
X132803900Y-34483040D03*
D20*
X152290780Y-30883860D03*
X152290780Y-33423860D03*
X149750780Y-30883860D03*
X149750780Y-33423860D03*
X147210780Y-30883860D03*
X147210780Y-33423860D03*
X144670780Y-30883860D03*
X144670780Y-33423860D03*
X142130780Y-30883860D03*
D21*
X142130780Y-33423860D03*
D20*
X83804760Y-72069960D03*
X83804760Y-74609960D03*
X83804760Y-77149960D03*
X83804760Y-79689960D03*
X83804760Y-82229960D03*
D21*
X83804760Y-84769960D03*
D20*
X166293800Y-81549240D03*
X166293800Y-79009240D03*
D21*
X166293800Y-76469240D03*
D20*
X166293800Y-71338440D03*
X166293800Y-68798440D03*
D21*
X166293800Y-66258440D03*
D22*
X132897880Y-29885640D03*
D23*
X130357880Y-29885640D03*
D22*
X126547880Y-29885640D03*
D23*
X124007880Y-29885640D03*
D22*
X120705880Y-29885640D03*
D23*
X118165880Y-29885640D03*
D22*
X114686080Y-29855160D03*
D23*
X112146080Y-29855160D03*
D22*
X108590080Y-29855160D03*
D23*
X106050080Y-29855160D03*
D24*
X139743180Y-95227140D03*
X150080980Y-90418920D03*
X150073400Y-85278000D03*
X154091640Y-68668900D03*
X152437000Y-37397447D03*
X131688840Y-40568880D03*
X107840780Y-59461400D03*
X92121820Y-70279260D03*
X118831360Y-68056760D03*
X132567680Y-67409060D03*
X96243140Y-40187880D03*
X115073260Y-78864460D03*
X158369000Y-56652160D03*
X97586800Y-88942080D03*
X105382060Y-81569560D03*
X85899160Y-79186576D03*
X107045760Y-84358480D03*
X144193260Y-37409120D03*
X130230880Y-45247560D03*
X125768100Y-40393620D03*
X132986780Y-60855860D03*
X122775980Y-66880740D03*
X103002080Y-40175180D03*
X157680660Y-53086000D03*
X167845740Y-34704020D03*
X95039180Y-70228460D03*
X92949860Y-87678260D03*
X99880420Y-80779620D03*
X101170740Y-74945240D03*
X104834370Y-88252639D03*
X105194661Y-76284381D03*
X105537000Y-39890700D03*
X107490261Y-71794540D03*
X106227880Y-85862160D03*
X109111881Y-37532479D03*
X107170220Y-82127260D03*
X110758139Y-37461021D03*
X107998260Y-79169260D03*
X113395691Y-42334249D03*
X166287281Y-93429921D03*
X168668700Y-92539820D03*
X165097460Y-94228920D03*
X80965040Y-83413600D03*
X81871820Y-80987900D03*
X79855060Y-85953600D03*
X79855060Y-77160120D03*
X85628480Y-83192620D03*
X145714720Y-85305900D03*
X145745200Y-70012560D03*
X107792520Y-75006200D03*
X111630460Y-85305900D03*
X148348700Y-63980060D03*
X98366480Y-75483820D03*
X98369120Y-93429920D03*
X110667800Y-93429920D03*
X110694700Y-81832220D03*
X150647400Y-51879500D03*
X156713939Y-32248859D03*
X155067000Y-80556100D03*
X147045680Y-50523140D03*
X155702000Y-35172820D03*
X142725140Y-86263480D03*
X142746561Y-67763221D03*
X154792680Y-29263340D03*
X145752820Y-49532540D03*
X132798820Y-41148000D03*
X159131000Y-39128700D03*
X153169620Y-86669880D03*
X137933260Y-83380580D03*
X109258100Y-95237300D03*
X91343480Y-85115400D03*
X91343480Y-89667080D03*
X109237780Y-89702640D03*
X130339000Y-53555900D03*
X131231640Y-88983820D03*
X148313140Y-79222600D03*
X149128480Y-40490140D03*
X138805920Y-40467280D03*
X138783060Y-31854140D03*
X146580860Y-76255880D03*
X129700020Y-49182020D03*
X82049620Y-47109380D03*
X106580940Y-36954460D03*
X106586020Y-54376320D03*
X115100100Y-55088620D03*
X115100100Y-55088620D03*
X115105180Y-57035700D03*
X129588260Y-58718620D03*
X82049620Y-38138100D03*
X94401640Y-76372720D03*
X93967300Y-67231260D03*
X82910680Y-67228720D03*
X125257560Y-62704980D03*
X107609640Y-62704980D03*
X107647740Y-53101240D03*
X139415540Y-62689740D03*
X105211880Y-75194160D03*
X105222040Y-71794540D03*
X121010680Y-51836320D03*
X85172720Y-54825900D03*
X85176360Y-69354700D03*
X107655360Y-37805360D03*
X107586780Y-51918700D03*
X123623260Y-63856680D03*
X138690540Y-63856680D03*
X85187621Y-39054723D03*
X119453660Y-50512980D03*
X85899160Y-68460620D03*
X85897720Y-53497480D03*
X119999760Y-38646100D03*
X120889861Y-64017059D03*
X85912621Y-39997380D03*
X119390160Y-82852260D03*
X119390160Y-79768849D03*
X99886940Y-68460280D03*
X107490260Y-68460620D03*
X140456920Y-65059560D03*
X107490260Y-65791081D03*
X94363540Y-83520280D03*
X99875340Y-77487780D03*
X94363540Y-77470000D03*
X98897440Y-43578780D03*
X137231120Y-44203620D03*
X136898380Y-59606180D03*
X96837500Y-64211200D03*
X96855280Y-79976980D03*
X104432100Y-51193700D03*
X146814540Y-52021740D03*
X96537780Y-63233300D03*
X104038400Y-57228740D03*
X96105980Y-79197200D03*
X79928720Y-75971400D03*
X166385240Y-62636400D03*
X143471561Y-65465960D03*
X124503180Y-92001340D03*
X95534480Y-50088800D03*
X92213600Y-91978932D03*
X124513340Y-94635320D03*
X93342460Y-76776580D03*
X114358420Y-46763940D03*
X87348060Y-49669700D03*
X86964520Y-42705020D03*
X105128060Y-42705020D03*
X105140760Y-46763940D03*
X87594440Y-74846180D03*
X112565180Y-45991780D03*
X98381820Y-67106800D03*
X112542320Y-67053460D03*
X103492300Y-45468540D03*
X98383260Y-71569580D03*
X116916200Y-48000920D03*
X85899160Y-76934060D03*
X84462620Y-50919380D03*
X84460080Y-41960800D03*
X104300020Y-41945560D03*
X104300020Y-48148240D03*
X93242300Y-75294259D03*
X117627400Y-49296320D03*
X83722719Y-52202080D03*
X117623759Y-40933539D03*
X83722719Y-40740839D03*
X95387499Y-76019259D03*
X85778340Y-78193900D03*
X101216291Y-65765679D03*
X105613200Y-65778380D03*
X105948480Y-78381860D03*
X104076500Y-35897820D03*
X157817820Y-35897820D03*
X112387380Y-41658540D03*
X112377220Y-37617400D03*
X141439900Y-37637720D03*
X100611940Y-69410580D03*
X104843580Y-64223900D03*
X108386880Y-64254380D03*
X111483140Y-64254380D03*
X111664398Y-53691180D03*
X125356620Y-54223920D03*
X125818900Y-47490380D03*
X104834371Y-69387823D03*
X109844840Y-78083580D03*
X104119680Y-61668660D03*
X119026940Y-60192920D03*
X119065040Y-56983621D03*
X135176260Y-57821250D03*
X135392160Y-45481240D03*
X108386880Y-60333142D03*
X108189519Y-73848216D03*
X109855000Y-76949300D03*
X109862620Y-61107320D03*
X134528560Y-54663340D03*
X134528560Y-46520100D03*
X125417580Y-61107320D03*
X103362760Y-64295020D03*
X100119180Y-64249300D03*
X109862620Y-72519540D03*
X125409960Y-55293260D03*
X103377559Y-72530141D03*
X106728260Y-87520780D03*
X120164860Y-87579200D03*
X120162320Y-74444860D03*
X120114060Y-58158380D03*
X120142000Y-61846460D03*
X135996680Y-61849000D03*
X136428480Y-42938700D03*
X115953540Y-58183780D03*
X115968780Y-71876920D03*
X134666739Y-72523601D03*
X142021560Y-72542400D03*
X82854800Y-59758580D03*
X115935760Y-45028619D03*
X82854800Y-45257720D03*
X113525300Y-55986680D03*
X113525300Y-65892680D03*
X130459480Y-65885060D03*
X88679020Y-66400680D03*
X143780799Y-56951880D03*
X115158520Y-73149460D03*
X115176300Y-59461400D03*
X89597400Y-67735280D03*
X131064000Y-59461400D03*
X131064000Y-47281000D03*
X89593420Y-61716920D03*
X115158520Y-68786840D03*
X137177780Y-77566520D03*
X144546320Y-77612240D03*
X106530140Y-56875680D03*
X106545380Y-70606920D03*
X92547440Y-65026540D03*
X106530140Y-65059560D03*
X144505799Y-70121899D03*
X128757680Y-46733460D03*
X128757680Y-69326760D03*
X126011940Y-70205600D03*
X126456440Y-48498760D03*
X127175260Y-51833780D03*
X127100500Y-71809497D03*
X127825500Y-49283620D03*
X127825500Y-73174860D03*
X119283480Y-44303619D03*
X119207280Y-73400920D03*
X125846840Y-45488860D03*
X124353320Y-75666600D03*
X109111880Y-73461880D03*
X111813340Y-42853619D03*
X118828820Y-41676320D03*
X118414800Y-78229460D03*
X88625680Y-93421200D03*
X88026240Y-73337420D03*
X99886940Y-78620620D03*
X121432320Y-53103780D03*
X122809000Y-94830900D03*
X118339700Y-79562960D03*
X119926100Y-94729300D03*
X93781880Y-92704920D03*
X93545660Y-80802480D03*
X101516180Y-47099220D03*
X101475540Y-94787720D03*
X99118420Y-95059500D03*
X97581720Y-63093600D03*
X105681780Y-63093600D03*
X105686860Y-52268120D03*
X84167980Y-92275660D03*
X80487520Y-63411100D03*
X95087779Y-63395860D03*
X96287308Y-52185288D03*
X104904540Y-53411120D03*
X104894380Y-60093860D03*
X102956360Y-60086240D03*
X102384860Y-94154920D03*
X95647888Y-94313788D03*
X95092520Y-78417420D03*
X94084140Y-94310200D03*
X92941140Y-94272100D03*
X92949860Y-88940640D03*
X86624160Y-57299860D03*
X127043180Y-94777560D03*
X88204040Y-70985380D03*
X88806020Y-91211400D03*
X127043180Y-91226640D03*
X104178100Y-95067120D03*
X104167940Y-90392080D03*
X90347800Y-90406650D03*
X90347800Y-86339680D03*
X87584280Y-86344760D03*
X87584280Y-75879960D03*
X148889720Y-85944880D03*
D25*
X139748260Y-95232220D02*
X139743180Y-95227140D01*
D26*
X139748260Y-101861620D02*
X139748260Y-95232220D01*
D25*
X104657059Y-76821983D02*
X105194661Y-76284381D01*
X104657059Y-87509643D02*
X104657059Y-76821983D01*
X104834370Y-87686954D02*
X104657059Y-87509643D01*
X104834370Y-88252639D02*
X104834370Y-87686954D01*
X106050080Y-31366460D02*
X106050080Y-29855160D01*
X105537000Y-31879540D02*
X106050080Y-31366460D01*
X105537000Y-39890700D02*
X105537000Y-31879540D01*
X106673481Y-72611320D02*
X107490261Y-71794540D01*
X106673481Y-78729861D02*
X106673481Y-72611320D01*
X106226661Y-79176681D02*
X106673481Y-78729861D01*
X106226661Y-85444261D02*
X106226661Y-79176681D01*
X106226661Y-85860941D02*
X106227880Y-85862160D01*
X106226661Y-85444261D02*
X106226661Y-85860941D01*
X109111881Y-37532479D02*
X109111881Y-34743559D01*
X112146080Y-31709360D02*
X112146080Y-29855160D01*
X109111881Y-34743559D02*
X112146080Y-31709360D01*
X111158138Y-37061022D02*
X111158138Y-34414342D01*
X110758139Y-37461021D02*
X111158138Y-37061022D01*
X111158138Y-34414342D02*
X113657380Y-31915100D01*
X113657380Y-31915100D02*
X117591840Y-31915100D01*
X118165880Y-31341060D02*
X118165880Y-29885640D01*
X117591840Y-31915100D02*
X118165880Y-31341060D01*
X113395691Y-42334249D02*
X113395691Y-33497589D01*
X113395691Y-33497589D02*
X114084100Y-32809180D01*
X114084100Y-32809180D02*
X123240800Y-32809180D01*
X124007880Y-32042100D02*
X124007880Y-29885640D01*
X123240800Y-32809180D02*
X124007880Y-32042100D01*
X167495881Y-71338440D02*
X168132760Y-71975319D01*
X166293800Y-71338440D02*
X167495881Y-71338440D01*
X168132760Y-71975319D02*
X168132760Y-81282540D01*
X167866060Y-81549240D02*
X166293800Y-81549240D01*
X168132760Y-81282540D02*
X167866060Y-81549240D01*
X166287281Y-81555759D02*
X166293800Y-81549240D01*
X166287281Y-93429921D02*
X166287281Y-81555759D01*
X168661080Y-69963639D02*
X168668700Y-92539820D01*
X167495881Y-68798440D02*
X168661080Y-69963639D01*
X166293800Y-68798440D02*
X167495881Y-68798440D01*
X165097460Y-78466578D02*
X165097460Y-94228920D01*
X165097460Y-76565580D02*
X165097460Y-78466578D01*
X165193800Y-76469240D02*
X165097460Y-76565580D01*
X166293800Y-76469240D02*
X165193800Y-76469240D01*
X86347300Y-30683200D02*
X93205300Y-30683200D01*
X82085180Y-72069960D02*
X83804760Y-72069960D01*
X80965040Y-73190100D02*
X82085180Y-72069960D01*
X80965040Y-83413600D02*
X80965040Y-73190100D01*
X82387440Y-74609960D02*
X83804760Y-74609960D01*
X81871820Y-75125580D02*
X82387440Y-74609960D01*
X81871820Y-80987900D02*
X81871820Y-75125580D01*
X79855060Y-85953600D02*
X79855060Y-77160120D01*
X85628480Y-81513680D02*
X85625940Y-81511140D01*
X85625940Y-81511140D02*
X85625940Y-80131920D01*
X85183980Y-79689960D02*
X83804760Y-79689960D01*
X85625940Y-80131920D02*
X85183980Y-79689960D01*
X85628480Y-83192620D02*
X85628480Y-81513680D01*
X145714720Y-70043040D02*
X145745200Y-70012560D01*
X145714720Y-85305900D02*
X145714720Y-70043040D01*
X107792520Y-75006200D02*
X107792520Y-77104262D01*
X111630460Y-80942202D02*
X111630460Y-85305900D01*
X107792520Y-77104262D02*
X111630460Y-80942202D01*
X149118201Y-63210559D02*
X148348700Y-63980060D01*
X148082000Y-59172422D02*
X149118201Y-60208623D01*
X149118201Y-60208623D02*
X149118201Y-63210559D01*
X148082000Y-58166000D02*
X148082000Y-59172422D01*
X98366480Y-93427280D02*
X98369120Y-93429920D01*
X98366480Y-75483820D02*
X98366480Y-93427280D01*
X110667800Y-93429920D02*
X110667800Y-81859120D01*
X110667800Y-81859120D02*
X110694700Y-81832220D01*
X150622000Y-51854100D02*
X150647400Y-51879500D01*
X150622000Y-45466000D02*
X150622000Y-51854100D01*
X149910801Y-44754801D02*
X150622000Y-45466000D01*
X149568211Y-42514209D02*
X149568211Y-44412211D01*
X149568211Y-44412211D02*
X149910801Y-44754801D01*
X150925781Y-41156639D02*
X149568211Y-42514209D01*
X150925781Y-32058861D02*
X150925781Y-41156639D01*
X149750780Y-30883860D02*
X150925781Y-32058861D01*
X156413199Y-47294801D02*
X155702000Y-48006000D01*
X156738201Y-44968623D02*
X156738201Y-46969799D01*
X156713939Y-44944361D02*
X156738201Y-44968623D01*
X156738201Y-46969799D02*
X156413199Y-47294801D01*
X156713939Y-32248859D02*
X156713939Y-44944361D01*
X147210780Y-30883860D02*
X149219920Y-28874720D01*
X153873199Y-30727277D02*
X153873199Y-36360101D01*
X152020642Y-28874720D02*
X153873199Y-30727277D01*
X149219920Y-28874720D02*
X152020642Y-28874720D01*
X153162000Y-37071300D02*
X153162000Y-42926000D01*
X153873199Y-36360101D02*
X153162000Y-37071300D01*
X152115950Y-46959950D02*
X153162000Y-48006000D01*
X153542418Y-44079160D02*
X152587960Y-44079160D01*
X152115950Y-44551170D02*
X152115950Y-46959950D01*
X152587960Y-44079160D02*
X152115950Y-44551170D01*
X154323208Y-43298370D02*
X153542418Y-44079160D01*
X146035779Y-31447861D02*
X146035779Y-30319859D01*
X147930928Y-28424710D02*
X152207042Y-28424710D01*
X147210780Y-32622862D02*
X146035779Y-31447861D01*
X154323208Y-30540876D02*
X154323208Y-43298370D01*
X147210780Y-33423860D02*
X147210780Y-32622862D01*
X146035779Y-30319859D02*
X147930928Y-28424710D01*
X152207042Y-28424710D02*
X154323208Y-30540876D01*
X153873199Y-48717199D02*
X153162000Y-48006000D01*
X154485340Y-66006980D02*
X154665799Y-65826521D01*
X154485340Y-49329340D02*
X153162000Y-48006000D01*
X155067000Y-68571258D02*
X154485340Y-67989598D01*
X155067000Y-80556100D02*
X155067000Y-68571258D01*
X154485340Y-63497460D02*
X154485340Y-49329340D01*
X154485340Y-67989598D02*
X154485340Y-63497460D01*
X154485340Y-66006980D02*
X154485340Y-63497460D01*
X146035779Y-32248859D02*
X146035779Y-37118039D01*
X144670780Y-30883860D02*
X146035779Y-32248859D01*
X147045680Y-38127940D02*
X147045680Y-50523140D01*
X146035779Y-37118039D02*
X147045680Y-38127940D01*
X155702000Y-35172820D02*
X155702000Y-45466000D01*
X142725140Y-72911822D02*
X142746561Y-72890401D01*
X142725140Y-86263480D02*
X142725140Y-72911822D01*
X142746561Y-72890401D02*
X142746561Y-67763221D01*
X154792680Y-43835320D02*
X153162000Y-45466000D01*
X154792680Y-29263340D02*
X154792680Y-43835320D01*
X146578201Y-41703019D02*
X146578201Y-48707159D01*
X142130780Y-37255598D02*
X146578201Y-41703019D01*
X146578201Y-48707159D02*
X145752820Y-49532540D01*
X142130780Y-33423860D02*
X142130780Y-37255598D01*
X132803900Y-41142920D02*
X132798820Y-41148000D01*
X132803900Y-34483040D02*
X132803900Y-41142920D01*
X159131000Y-39128700D02*
X159131000Y-54145180D01*
X157650180Y-55626000D02*
X155702000Y-55626000D01*
X159131000Y-54145180D02*
X157650180Y-55626000D01*
X152450801Y-53797199D02*
X153162000Y-53086000D01*
X152125799Y-61203377D02*
X152125799Y-54122201D01*
X153169620Y-62247198D02*
X152125799Y-61203377D01*
X152125799Y-54122201D02*
X152450801Y-53797199D01*
X153169620Y-86669880D02*
X153169620Y-62247198D01*
X137922000Y-83369320D02*
X137933260Y-83380580D01*
X137922000Y-58166000D02*
X137922000Y-83369320D01*
X91343480Y-85115400D02*
X91343480Y-89667080D01*
X109247940Y-95227140D02*
X109258100Y-95237300D01*
X109237780Y-89702640D02*
X109247940Y-95227140D01*
X131200760Y-65553338D02*
X131200760Y-82557220D01*
X131200760Y-65198860D02*
X131200760Y-65553338D01*
X130339000Y-64337100D02*
X131200760Y-65198860D01*
X130339000Y-53555900D02*
X130339000Y-64337100D01*
X131231640Y-82588100D02*
X131200760Y-82557220D01*
X131231640Y-88983820D02*
X131231640Y-82588100D01*
X149585799Y-77949941D02*
X148313140Y-79222600D01*
X149585799Y-59202201D02*
X149585799Y-77949941D01*
X150622000Y-58166000D02*
X149585799Y-59202201D01*
X149118201Y-40500419D02*
X149128480Y-40490140D01*
X149118201Y-58734603D02*
X149118201Y-40500419D01*
X149585799Y-59202201D02*
X149118201Y-58734603D01*
X138805920Y-31877000D02*
X138783060Y-31854140D01*
X138805920Y-40467280D02*
X138805920Y-31877000D01*
X145542000Y-59171788D02*
X145542000Y-58166000D01*
X146578201Y-60207989D02*
X145542000Y-59171788D01*
X146578201Y-74772401D02*
X146580860Y-74775060D01*
X146580860Y-74775060D02*
X146580860Y-76255880D01*
X146578201Y-75158719D02*
X146578201Y-74772401D01*
X146578201Y-74772401D02*
X146578201Y-60207989D01*
X129588260Y-49293780D02*
X129700020Y-49182020D01*
X129588260Y-54991000D02*
X129588260Y-49293780D01*
X106580940Y-54371240D02*
X106586020Y-54376320D01*
X106580940Y-36954460D02*
X106580940Y-54371240D01*
X82049620Y-47675065D02*
X82049620Y-47109380D01*
X82049620Y-60026402D02*
X82049620Y-47675065D01*
X82910680Y-60887462D02*
X82049620Y-60026402D01*
X115100100Y-57030620D02*
X115105180Y-57035700D01*
X115100100Y-55088620D02*
X115100100Y-57030620D01*
X129588260Y-95074740D02*
X129588260Y-54991000D01*
X82049620Y-47109380D02*
X82049620Y-38138100D01*
X129588260Y-95074740D02*
X129588260Y-101861620D01*
X93967300Y-70229582D02*
X93967300Y-67231260D01*
X93967300Y-75938380D02*
X93967300Y-70229582D01*
X94401640Y-76372720D02*
X93967300Y-75938380D01*
X82910680Y-67228720D02*
X82910680Y-60887462D01*
X91217201Y-57232001D02*
X90892199Y-56906999D01*
X90892199Y-56906999D02*
X89992200Y-56007000D01*
X91217201Y-61585003D02*
X91217201Y-57232001D01*
X91396820Y-61764622D02*
X91217201Y-61585003D01*
X139415540Y-54132460D02*
X140462000Y-53086000D01*
X139415540Y-62689740D02*
X139415540Y-54132460D01*
X107609640Y-53139340D02*
X107647740Y-53101240D01*
X106980150Y-57964910D02*
X107609640Y-57335420D01*
X106980150Y-59832670D02*
X106980150Y-57964910D01*
X107609640Y-60462160D02*
X106980150Y-59832670D01*
X107609640Y-57335420D02*
X107609640Y-53139340D01*
X107609640Y-62704980D02*
X107609640Y-60462160D01*
X127048260Y-96111620D02*
X127048260Y-101861620D01*
X125257560Y-94320920D02*
X127048260Y-96111620D01*
X125257560Y-92519500D02*
X125257560Y-94320920D01*
X125257560Y-94016682D02*
X125257560Y-92519500D01*
X125257560Y-92519500D02*
X125257560Y-62704980D01*
X105211880Y-71804700D02*
X105222040Y-71794540D01*
X105211880Y-75194160D02*
X105211880Y-71804700D01*
X123623260Y-54221718D02*
X121237862Y-51836320D01*
X121237862Y-51836320D02*
X121010680Y-51836320D01*
X85176360Y-68810822D02*
X85176360Y-69354700D01*
X85172720Y-68807182D02*
X85176360Y-68810822D01*
X85172720Y-54825900D02*
X85172720Y-68807182D01*
X85172720Y-51282282D02*
X85187621Y-51267381D01*
X85187621Y-51267381D02*
X85187621Y-39054723D01*
X85172720Y-54825900D02*
X85172720Y-51282282D01*
X107655360Y-51850120D02*
X107586780Y-51918700D01*
X107655360Y-37805360D02*
X107655360Y-51850120D01*
X123623260Y-63387160D02*
X123623260Y-63856680D01*
X123623260Y-63387160D02*
X123623260Y-54221718D01*
X138633199Y-56337199D02*
X137922000Y-55626000D01*
X138958201Y-56662201D02*
X138633199Y-56337199D01*
X138958201Y-58663377D02*
X138958201Y-56662201D01*
X138690540Y-58931038D02*
X138958201Y-58663377D01*
X138690540Y-63856680D02*
X138690540Y-58931038D01*
X124508260Y-96032320D02*
X124508260Y-101861620D01*
X123623260Y-95147320D02*
X124508260Y-96032320D01*
X123623260Y-63387160D02*
X123623260Y-95147320D01*
X120889861Y-53634323D02*
X119453660Y-52198122D01*
X119453660Y-52198122D02*
X119453660Y-50512980D01*
X85899160Y-67894935D02*
X85897720Y-67893495D01*
X85899160Y-68460620D02*
X85899160Y-67894935D01*
X85897720Y-67893495D02*
X85897720Y-53497480D01*
X120008481Y-49958159D02*
X119453660Y-50512980D01*
X120008481Y-43955618D02*
X120008481Y-49958159D01*
X119999760Y-43946897D02*
X120008481Y-43955618D01*
X119999760Y-38646100D02*
X119999760Y-43946897D01*
X120889861Y-64017059D02*
X120889861Y-53634323D01*
X85897720Y-53497480D02*
X85912621Y-39997380D01*
X121968260Y-96111620D02*
X121968260Y-101861620D01*
X120889861Y-95033221D02*
X121968260Y-96111620D01*
X120889861Y-64017059D02*
X120889861Y-95033221D01*
X119390160Y-82852260D02*
X119390160Y-79768849D01*
X140456920Y-60711080D02*
X140462000Y-60706000D01*
X140456920Y-65059560D02*
X140456920Y-60711080D01*
X107490260Y-68460620D02*
X107490260Y-65791081D01*
X99880420Y-68466800D02*
X99886940Y-68460280D01*
X99880420Y-75293220D02*
X99880420Y-68466800D01*
X99880420Y-77482700D02*
X99875340Y-77487780D01*
X99880420Y-75293220D02*
X99880420Y-77482700D01*
X94363540Y-83520280D02*
X94363540Y-77470000D01*
X98897440Y-47132240D02*
X100152200Y-48387000D01*
X98897440Y-43578780D02*
X98897440Y-47132240D01*
X136885799Y-59593599D02*
X136898380Y-59606180D01*
X136885799Y-44548941D02*
X136885799Y-59593599D01*
X137231120Y-44203620D02*
X136885799Y-44548941D01*
X96855280Y-64228980D02*
X96837500Y-64211200D01*
X96855280Y-79976980D02*
X96855280Y-64228980D01*
X104023160Y-53219498D02*
X104023160Y-54703980D01*
X104023160Y-51602640D02*
X104023160Y-53219498D01*
X104432100Y-51193700D02*
X104023160Y-51602640D01*
X146814540Y-59438540D02*
X148082000Y-60706000D01*
X146814540Y-52021740D02*
X146814540Y-59438540D01*
X96112499Y-63658581D02*
X96537780Y-63233300D01*
X96112499Y-66125259D02*
X96112499Y-63658581D01*
X104038400Y-54719220D02*
X104023160Y-54703980D01*
X104038400Y-57228740D02*
X104038400Y-54719220D01*
X96112499Y-78624996D02*
X96112499Y-66125259D01*
X96105980Y-78631515D02*
X96112499Y-78624996D01*
X96105980Y-79197200D02*
X96105980Y-78631515D01*
X79928720Y-71254620D02*
X81241900Y-69941440D01*
X79928720Y-75971400D02*
X79928720Y-71254620D01*
X82130218Y-27974700D02*
X157725520Y-27974700D01*
X81241900Y-28863018D02*
X82130218Y-27974700D01*
X81241900Y-69941440D02*
X81241900Y-28863018D01*
X157725520Y-27974700D02*
X157793240Y-27906980D01*
X157793240Y-27906980D02*
X165602920Y-27906980D01*
X166385240Y-28689300D02*
X166385240Y-62636400D01*
X165602920Y-27906980D02*
X166385240Y-28689300D01*
X143713199Y-58877199D02*
X143002000Y-58166000D01*
X144038201Y-59202201D02*
X143713199Y-58877199D01*
X144038201Y-64899320D02*
X144038201Y-59202201D01*
X143471561Y-65465960D02*
X144038201Y-64899320D01*
X92224860Y-90938694D02*
X92224860Y-79733140D01*
X92224860Y-90938694D02*
X92227400Y-90941234D01*
X93842840Y-54422040D02*
X95534480Y-52730400D01*
X92951300Y-69798882D02*
X92951300Y-65695682D01*
X93842840Y-64804142D02*
X93842840Y-54422040D01*
X92951141Y-69799041D02*
X92951300Y-69798882D01*
X92951141Y-70522941D02*
X92951141Y-69799041D01*
X92951300Y-65695682D02*
X93842840Y-64804142D01*
X92224860Y-71249222D02*
X92951141Y-70522941D01*
X95534480Y-52730400D02*
X95534480Y-50088800D01*
X92224860Y-91967672D02*
X92213600Y-91978932D01*
X92224860Y-90938694D02*
X92224860Y-91967672D01*
X124503180Y-92001340D02*
X124503180Y-94591846D01*
X92776775Y-76776580D02*
X92224860Y-76776580D01*
X93342460Y-76776580D02*
X92776775Y-76776580D01*
X92224860Y-76776580D02*
X92224860Y-71249222D01*
X92224860Y-76776580D02*
X92224860Y-79733140D01*
X114348260Y-46774100D02*
X114358420Y-46763940D01*
X87349161Y-57647861D02*
X87349161Y-50458201D01*
X87074170Y-57922852D02*
X87349161Y-57647861D01*
X87348060Y-50457100D02*
X87348060Y-49669700D01*
X87349161Y-50458201D02*
X87348060Y-50457100D01*
X86948061Y-42721479D02*
X86964520Y-42705020D01*
X86948061Y-49269701D02*
X86948061Y-42721479D01*
X87348060Y-49669700D02*
X86948061Y-49269701D01*
X105128060Y-46751240D02*
X105140760Y-46763940D01*
X105128060Y-42705020D02*
X105128060Y-46751240D01*
X114348260Y-94787720D02*
X114348260Y-46774100D01*
X114348260Y-95353405D02*
X114348260Y-101861620D01*
X114348260Y-94787720D02*
X114348260Y-95353405D01*
X87074170Y-74177730D02*
X87074170Y-57922852D01*
X87074170Y-74325910D02*
X87594440Y-74846180D01*
X87074170Y-74177730D02*
X87074170Y-74325910D01*
X112539780Y-66860420D02*
X112565180Y-45991780D01*
X89992200Y-47114208D02*
X89984580Y-47106588D01*
X89992200Y-48387000D02*
X89992200Y-47114208D01*
X89984580Y-47106588D02*
X89984580Y-43383200D01*
X89984580Y-43383200D02*
X90606880Y-42760900D01*
X90606880Y-42760900D02*
X102481380Y-42760900D01*
X103492300Y-43771820D02*
X103492300Y-45468540D01*
X102481380Y-42760900D02*
X103492300Y-43771820D01*
X112539780Y-94500700D02*
X112539780Y-66860420D01*
X111808260Y-95232220D02*
X111808260Y-101861620D01*
X112539780Y-94500700D02*
X111808260Y-95232220D01*
X98383260Y-67108240D02*
X98381820Y-67106800D01*
X98383260Y-71569580D02*
X98383260Y-67108240D01*
X116888260Y-48028860D02*
X116916200Y-48000920D01*
X84447719Y-50934281D02*
X84462620Y-50919380D01*
X84447719Y-69699061D02*
X84447719Y-50934281D01*
X85899160Y-71150502D02*
X84447719Y-69699061D01*
X85899160Y-76934060D02*
X85899160Y-71150502D01*
X84462620Y-41963340D02*
X84460080Y-41960800D01*
X84462620Y-50919380D02*
X84462620Y-41963340D01*
X104300020Y-41945560D02*
X104300020Y-48148240D01*
X116888260Y-93911420D02*
X116888260Y-48028860D01*
X116888260Y-94759780D02*
X116908580Y-94780100D01*
X116908580Y-101841300D02*
X116888260Y-101861620D01*
X116908580Y-94780100D02*
X116908580Y-101841300D01*
X116888260Y-93911420D02*
X116888260Y-94759780D01*
X83722719Y-52767765D02*
X83722719Y-52202080D01*
X83722719Y-69610471D02*
X83722719Y-52767765D01*
X85064600Y-70952352D02*
X83722719Y-69610471D01*
X85064600Y-76144120D02*
X85064600Y-70952352D01*
X117627400Y-48730635D02*
X117627400Y-49296320D01*
X117641201Y-48716834D02*
X117627400Y-48730635D01*
X117641201Y-41516666D02*
X117641201Y-48716834D01*
X117623759Y-41499224D02*
X117641201Y-41516666D01*
X117623759Y-40933539D02*
X117623759Y-41499224D01*
X83722719Y-52202080D02*
X83722719Y-40740839D01*
X119428260Y-96111620D02*
X119428260Y-101861620D01*
X117614700Y-93728509D02*
X119428260Y-95542069D01*
X117614700Y-49874705D02*
X117614700Y-93728509D01*
X117627400Y-49862005D02*
X117614700Y-49874705D01*
X119428260Y-95542069D02*
X119428260Y-96111620D01*
X117627400Y-49296320D02*
X117627400Y-49862005D01*
X85064600Y-77480160D02*
X85778340Y-78193900D01*
X85064600Y-76144120D02*
X85064600Y-77480160D01*
X100152200Y-58710970D02*
X100152200Y-58547000D01*
X101491281Y-60050051D02*
X100152200Y-58710970D01*
X101491281Y-64925004D02*
X101491281Y-60050051D01*
X101216291Y-65199994D02*
X101491281Y-64925004D01*
X101216291Y-65765679D02*
X101216291Y-65199994D01*
X105948480Y-71083022D02*
X105948480Y-78381860D01*
X105613200Y-70747742D02*
X105948480Y-71083022D01*
X105613200Y-65778380D02*
X105613200Y-70747742D01*
X89404199Y-49612001D02*
X88767199Y-48975001D01*
X88767199Y-48975001D02*
X88767199Y-42469521D01*
X93847199Y-49612001D02*
X89404199Y-49612001D01*
X95072200Y-48387000D02*
X93847199Y-49612001D01*
X88767199Y-42469521D02*
X89344500Y-41892220D01*
X89344500Y-41892220D02*
X102694740Y-41892220D01*
X102694740Y-41892220D02*
X104084120Y-40502840D01*
X104084120Y-40502840D02*
X104084120Y-37035740D01*
X104084120Y-37035740D02*
X104076500Y-37028120D01*
X104076500Y-37028120D02*
X104076500Y-35897820D01*
X157817820Y-35897820D02*
X157817820Y-50027840D01*
X157299660Y-50546000D02*
X155702000Y-50546000D01*
X157817820Y-50027840D02*
X157299660Y-50546000D01*
X112387380Y-41658540D02*
X112387380Y-37579300D01*
X141173199Y-57454801D02*
X140462000Y-58166000D01*
X141498201Y-38261706D02*
X141498201Y-57129799D01*
X141498201Y-57129799D02*
X141173199Y-57454801D01*
X141439900Y-38203405D02*
X141498201Y-38261706D01*
X141439900Y-37637720D02*
X141439900Y-38203405D01*
X111483140Y-53872438D02*
X111664398Y-53691180D01*
X111483140Y-64254380D02*
X111483140Y-53872438D01*
X125356620Y-48219360D02*
X125356620Y-54223920D01*
X125818900Y-47490380D02*
X125356620Y-48219360D01*
X111483140Y-64254380D02*
X111483140Y-77873860D01*
X111273420Y-78083580D02*
X109844840Y-78083580D01*
X111483140Y-77873860D02*
X111273420Y-78083580D01*
X104834371Y-64233109D02*
X104843580Y-64223900D01*
X104834371Y-69387823D02*
X104834371Y-64233109D01*
X103592199Y-59446999D02*
X102692200Y-58547000D01*
X103681361Y-59536161D02*
X103592199Y-59446999D01*
X104844681Y-61320659D02*
X103681361Y-60157339D01*
X104844681Y-63657114D02*
X104844681Y-61320659D01*
X104843580Y-63658215D02*
X104844681Y-63657114D01*
X103681361Y-60157339D02*
X103681361Y-59536161D01*
X104843580Y-64223900D02*
X104843580Y-63658215D01*
X100611940Y-94607940D02*
X100611940Y-94396560D01*
X99108260Y-96111620D02*
X100611940Y-94607940D01*
X99108260Y-101861620D02*
X99108260Y-96111620D01*
X100611940Y-94396560D02*
X100611940Y-75732640D01*
X100611940Y-69976265D02*
X100611940Y-69410580D01*
X100339855Y-70248350D02*
X100611940Y-69976265D01*
X100330430Y-70248350D02*
X100339855Y-70248350D01*
X100330430Y-75484150D02*
X100330430Y-70248350D01*
X100578920Y-75732640D02*
X100330430Y-75484150D01*
X100611940Y-75732640D02*
X100578920Y-75732640D01*
X135392160Y-54872742D02*
X135392160Y-45481240D01*
X135176260Y-55088642D02*
X135392160Y-54872742D01*
X135176260Y-57821250D02*
X135176260Y-55088642D01*
X118840241Y-57208420D02*
X119065040Y-56983621D01*
X118751949Y-57208420D02*
X118840241Y-57208420D01*
X118751949Y-59712189D02*
X118751949Y-57208420D01*
X119026940Y-59987180D02*
X118751949Y-59712189D01*
X119026940Y-60192920D02*
X119026940Y-59987180D01*
X108386880Y-63181378D02*
X108386880Y-60333142D01*
X107661879Y-64602381D02*
X107661879Y-63906379D01*
X108215261Y-65155763D02*
X107661879Y-64602381D01*
X108215261Y-73837434D02*
X108215261Y-65155763D01*
X107661879Y-63906379D02*
X108386880Y-63181378D01*
X108200301Y-73837434D02*
X108189519Y-73848216D01*
X108215261Y-73837434D02*
X108200301Y-73837434D01*
X104903101Y-95415121D02*
X104903101Y-89652941D01*
X104188260Y-96129962D02*
X104903101Y-95415121D01*
X104188260Y-101861620D02*
X104188260Y-96129962D01*
X104119680Y-62234345D02*
X104119680Y-61668660D01*
X104109370Y-62244655D02*
X104119680Y-62234345D01*
X104903101Y-89652941D02*
X104109370Y-88859210D01*
X104109370Y-88859210D02*
X104109370Y-75633730D01*
X104109370Y-75633730D02*
X104109370Y-62244655D01*
X134528560Y-46725840D02*
X134569200Y-46685200D01*
X134528560Y-54663340D02*
X134528560Y-46725840D01*
X100119180Y-61120020D02*
X100152200Y-61087000D01*
X100119180Y-64249300D02*
X100119180Y-61120020D01*
X109862620Y-72519540D02*
X109862620Y-76941680D01*
X109862620Y-72519540D02*
X109862620Y-61107320D01*
X109862620Y-76941680D02*
X109855000Y-76949300D01*
X125417580Y-55930800D02*
X125417580Y-61107320D01*
X125409960Y-55293260D02*
X125417580Y-55930800D01*
X103378000Y-94381880D02*
X103378000Y-94221300D01*
X101648260Y-101861620D02*
X101648260Y-96111620D01*
X101648260Y-96111620D02*
X103378000Y-94381880D01*
X103378000Y-72776080D02*
X103378000Y-94221300D01*
X103377559Y-72530141D02*
X103362760Y-64295020D01*
X103378000Y-72776080D02*
X103377559Y-72530141D01*
X120142000Y-87556340D02*
X120164860Y-87579200D01*
X120142000Y-73207880D02*
X120142000Y-87556340D01*
X120142000Y-73207880D02*
X120142000Y-61846460D01*
X136428480Y-43504385D02*
X136428480Y-42938700D01*
X136428480Y-45517922D02*
X136428480Y-43504385D01*
X135996680Y-45949722D02*
X136428480Y-45517922D01*
X135996680Y-61849000D02*
X135996680Y-45949722D01*
X120439851Y-61548609D02*
X120142000Y-61846460D01*
X120114060Y-58158380D02*
X120114060Y-58366660D01*
X120439851Y-58717851D02*
X120439851Y-61548609D01*
X120434100Y-58712100D02*
X120439851Y-58717851D01*
X120434100Y-58686700D02*
X120434100Y-58712100D01*
X120114060Y-58366660D02*
X120434100Y-58686700D01*
X106728260Y-95112840D02*
X106728260Y-87520780D01*
X106728260Y-95112840D02*
X106728260Y-101861620D01*
X115953540Y-71861680D02*
X115968780Y-71876920D01*
X115953540Y-58183780D02*
X115953540Y-71861680D01*
X134666739Y-72523601D02*
X134668260Y-75270360D01*
X141965799Y-72486639D02*
X142021560Y-72542400D01*
X141965799Y-43962201D02*
X141965799Y-72486639D01*
X143002000Y-42926000D02*
X141965799Y-43962201D01*
X115935760Y-58166000D02*
X115953540Y-58183780D01*
X115935760Y-45028619D02*
X115935760Y-58166000D01*
X82854800Y-59758580D02*
X82854800Y-45257720D01*
X134668260Y-75270360D02*
X134668260Y-95112840D01*
X134668260Y-95112840D02*
X134668260Y-101861620D01*
X113525300Y-55986680D02*
X113525300Y-65892680D01*
X144830801Y-43637199D02*
X145542000Y-42926000D01*
X144055789Y-44412211D02*
X144830801Y-43637199D01*
X130462020Y-78488540D02*
X130454400Y-78496160D01*
X130454400Y-78496160D02*
X130454400Y-78188820D01*
X130462020Y-69997320D02*
X130462020Y-78488540D01*
X130454400Y-94437760D02*
X130454400Y-78496160D01*
X89992200Y-58547000D02*
X88679020Y-59860180D01*
X130459480Y-65885060D02*
X130459480Y-69994780D01*
X88679020Y-59860180D02*
X88679020Y-66400680D01*
X143780799Y-56951880D02*
X143780799Y-56386195D01*
X144055789Y-55160869D02*
X144055789Y-44412211D01*
X144055789Y-56111205D02*
X144055789Y-55160869D01*
X143780799Y-56386195D02*
X144055789Y-56111205D01*
X144055789Y-55392631D02*
X144055789Y-55160869D01*
X131235170Y-95218530D02*
X130454400Y-94437760D01*
X132128260Y-96111620D02*
X132128260Y-101861620D01*
X131235170Y-95218530D02*
X132128260Y-96111620D01*
X115158520Y-59479180D02*
X115176300Y-59461400D01*
X89597400Y-89806780D02*
X89597400Y-67735280D01*
X115158520Y-69969380D02*
X115158520Y-59479180D01*
X115158520Y-73149460D02*
X115158520Y-69969380D01*
X131064000Y-59461400D02*
X131064000Y-47281000D01*
X89593420Y-61716920D02*
X89597400Y-67735280D01*
X89597400Y-89806780D02*
X89597400Y-93114960D01*
X89597400Y-93114960D02*
X89597400Y-93221640D01*
X89597399Y-94284821D02*
X90354298Y-95041720D01*
X89597400Y-93114960D02*
X89597399Y-94284821D01*
X90354298Y-95041720D02*
X90932000Y-95041720D01*
X91488260Y-95597980D02*
X91488260Y-101861620D01*
X90932000Y-95041720D02*
X91488260Y-95597980D01*
X137208260Y-77597000D02*
X137177780Y-77566520D01*
X144505799Y-77571719D02*
X144546320Y-77612240D01*
X145542000Y-45466000D02*
X144505799Y-46502201D01*
X106530140Y-70591680D02*
X106545380Y-70606920D01*
X106530140Y-65059560D02*
X106530140Y-70591680D01*
X106530140Y-56875680D02*
X106530140Y-65059560D01*
X144505799Y-72572761D02*
X144505799Y-77571719D01*
X144505799Y-70121899D02*
X144505799Y-72572761D01*
X144505799Y-46502201D02*
X144505799Y-70121899D01*
X92532200Y-65011300D02*
X92547440Y-65026540D01*
X92532200Y-61087000D02*
X92532200Y-65011300D01*
X137208260Y-95117920D02*
X137208260Y-77597000D01*
X137208260Y-95117920D02*
X137208260Y-101861620D01*
X128757680Y-46733460D02*
X128757680Y-69326760D01*
X126011940Y-70205600D02*
X126011940Y-62009020D01*
X126371181Y-48584019D02*
X126456440Y-48498760D01*
X126371181Y-61649779D02*
X126371181Y-48584019D01*
X126011940Y-62009020D02*
X126371181Y-61649779D01*
X127175260Y-71734737D02*
X127100500Y-71809497D01*
X127175260Y-51833780D02*
X127175260Y-71734737D01*
X127825500Y-50901600D02*
X128234440Y-51310540D01*
X127825500Y-53385720D02*
X127825500Y-73174860D01*
X128234440Y-52976780D02*
X127825500Y-53385720D01*
X128234440Y-51310540D02*
X128234440Y-52976780D01*
X127825500Y-49283620D02*
X127825500Y-50901600D01*
X118728659Y-52109531D02*
X118728659Y-50164979D01*
X119790041Y-53170913D02*
X118728659Y-52109531D01*
X119389059Y-57708622D02*
X119790041Y-57307640D01*
X119984090Y-60931368D02*
X119984090Y-59509230D01*
X119389059Y-58914199D02*
X119389059Y-57708622D01*
X119207280Y-61708178D02*
X119984090Y-60931368D01*
X119674640Y-62539880D02*
X119207280Y-62072520D01*
X119790041Y-57307640D02*
X119790041Y-53170913D01*
X119674640Y-63728600D02*
X119674640Y-62539880D01*
X119984090Y-59509230D02*
X119389059Y-58914199D01*
X119654320Y-63748920D02*
X119674640Y-63728600D01*
X119207280Y-62072520D02*
X119207280Y-61708178D01*
X119283480Y-49610158D02*
X119283480Y-44303619D01*
X119654320Y-71983600D02*
X119654320Y-63748920D01*
X118728659Y-50164979D02*
X119283480Y-49610158D01*
X119654320Y-72388195D02*
X119654320Y-71983600D01*
X119207280Y-72835235D02*
X119654320Y-72388195D01*
X119207280Y-73400920D02*
X119207280Y-72835235D01*
X125846840Y-45488860D02*
X124353320Y-46982380D01*
X124353320Y-46982380D02*
X124353320Y-75666600D01*
X109111880Y-73461880D02*
X109111880Y-54296480D01*
X111813340Y-51595020D02*
X111813340Y-42853619D01*
X109111880Y-54296480D02*
X111813340Y-51595020D01*
X118366540Y-42138600D02*
X118828820Y-41676320D01*
X118064710Y-50061105D02*
X118077409Y-50048406D01*
X118366540Y-49759275D02*
X118366540Y-49423320D01*
X118064710Y-50061105D02*
X118366540Y-49759275D01*
X118064710Y-50410950D02*
X118064710Y-50061105D01*
X118366540Y-49423320D02*
X118366540Y-42138600D01*
X118366540Y-49630182D02*
X118366540Y-49423320D01*
X118064710Y-77363385D02*
X118064710Y-50410950D01*
X118064710Y-77879370D02*
X118414800Y-78229460D01*
X118064710Y-77363385D02*
X118064710Y-77879370D01*
X88625680Y-93421200D02*
X88081019Y-92876539D01*
X88356010Y-90588408D02*
X88356010Y-79559990D01*
X88081019Y-90863399D02*
X88356010Y-90588408D01*
X88081019Y-92876539D02*
X88081019Y-90863399D01*
X88356010Y-73667190D02*
X88026240Y-73337420D01*
X88356010Y-79559990D02*
X88356010Y-73667190D01*
X121432320Y-54033420D02*
X121965720Y-54566820D01*
X121432320Y-53103780D02*
X121432320Y-54033420D01*
X121965720Y-93987620D02*
X122809000Y-94830900D01*
X121965720Y-93751400D02*
X121965720Y-93987620D01*
X121965720Y-54566820D02*
X121965720Y-93751400D01*
X118339700Y-79562960D02*
X118339700Y-93170840D01*
X119498161Y-94329301D02*
X118339700Y-93170840D01*
X119526101Y-94329301D02*
X119498161Y-94329301D01*
X119926100Y-94729300D02*
X119526101Y-94329301D01*
X93545660Y-83775402D02*
X93545660Y-80802480D01*
X93781880Y-84011622D02*
X93545660Y-83775402D01*
X93781880Y-92704920D02*
X93781880Y-84011622D01*
X101467199Y-94779379D02*
X101475540Y-94787720D01*
X101467199Y-93999579D02*
X101467199Y-94779379D01*
X101950256Y-93516522D02*
X101467199Y-93999579D01*
X101941291Y-59820471D02*
X101941291Y-92919211D01*
X101950256Y-92928176D02*
X101950256Y-93516522D01*
X101664939Y-59587299D02*
X101708119Y-59587299D01*
X101708119Y-59587299D02*
X101941291Y-59820471D01*
X101516180Y-47099220D02*
X101467199Y-47148201D01*
X101467199Y-59389559D02*
X101664939Y-59587299D01*
X101941291Y-92919211D02*
X101950256Y-92928176D01*
X101467199Y-47148201D02*
X101467199Y-59389559D01*
X99108260Y-61856062D02*
X99108260Y-94678500D01*
X98927199Y-52152001D02*
X98927199Y-61675001D01*
X98927199Y-61675001D02*
X99108260Y-61856062D01*
X100152200Y-50927000D02*
X98927199Y-52152001D01*
X99108260Y-95049340D02*
X99118420Y-95059500D01*
X99108260Y-94678500D02*
X99108260Y-95049340D01*
X105681780Y-52273200D02*
X105686860Y-52268120D01*
X105681780Y-63093600D02*
X105681780Y-52273200D01*
X96568260Y-96111620D02*
X96568260Y-101861620D01*
X96396979Y-95940339D02*
X96568260Y-96111620D01*
X96396979Y-88594079D02*
X96396979Y-95940339D01*
X97581720Y-87409338D02*
X96396979Y-88594079D01*
X97581720Y-63093600D02*
X97581720Y-87409338D01*
X84167980Y-92275660D02*
X79321660Y-92275660D01*
X79321660Y-92275660D02*
X79171800Y-92125800D01*
X79130059Y-92084059D02*
X79130059Y-70877261D01*
X79171800Y-92125800D02*
X79130059Y-92084059D01*
X80487520Y-69519800D02*
X80487520Y-63411100D01*
X79130059Y-70877261D02*
X80487520Y-69519800D01*
X95087779Y-63395860D02*
X96297201Y-62186438D01*
X96297201Y-52195181D02*
X96287308Y-52185288D01*
X96297201Y-62186438D02*
X96297201Y-52195181D01*
X104881680Y-59992260D02*
X104904540Y-53411120D01*
X102956360Y-60086240D02*
X102956360Y-63628418D01*
X102956360Y-63628418D02*
X102400266Y-64184512D01*
X102400266Y-64184512D02*
X102400266Y-64823506D01*
X102400266Y-94139514D02*
X102384860Y-94154920D01*
X102400266Y-64823506D02*
X102400266Y-94139514D01*
X94028260Y-95470980D02*
X94028260Y-101861620D01*
X94785453Y-94713787D02*
X94028260Y-95470980D01*
X95247889Y-94713787D02*
X94785453Y-94713787D01*
X95647888Y-94313788D02*
X95247889Y-94713787D01*
X94519699Y-93910201D02*
X95092520Y-93337380D01*
X94084140Y-94310200D02*
X94484139Y-93910201D01*
X94484139Y-93910201D02*
X94519699Y-93910201D01*
X95092520Y-78417420D02*
X95092520Y-93337380D01*
X92938600Y-94269560D02*
X92941140Y-94272100D01*
X92938600Y-94005400D02*
X92938600Y-94269560D01*
X92941140Y-88949360D02*
X92949860Y-88940640D01*
X92941140Y-94272100D02*
X92941140Y-88949360D01*
X88948260Y-96111620D02*
X88948260Y-101861620D01*
X88919760Y-96083120D02*
X88948260Y-96111620D01*
X88902540Y-96083120D02*
X88919760Y-96083120D01*
X87586820Y-94767400D02*
X88902540Y-96083120D01*
X86624160Y-57299860D02*
X86624160Y-88249760D01*
X87586820Y-89212420D02*
X87586820Y-94767400D01*
X86624160Y-88249760D02*
X87586820Y-89212420D01*
D26*
X86408260Y-93370400D02*
X86408260Y-101861620D01*
D25*
X88806020Y-74733298D02*
X88806020Y-91211400D01*
X88806020Y-71587360D02*
X88806020Y-74733298D01*
X88204040Y-70985380D02*
X88806020Y-71587360D01*
X127043180Y-91226640D02*
X127043180Y-94777560D01*
X104178100Y-94724220D02*
X104178100Y-95067120D01*
X104178100Y-90402240D02*
X104167940Y-90392080D01*
X104178100Y-95067120D02*
X104178100Y-90402240D01*
X90347800Y-90406650D02*
X90347800Y-86339680D01*
X87584280Y-75879960D02*
X87074170Y-76390070D01*
X87074170Y-85834650D02*
X87584280Y-86344760D01*
X87074170Y-76390070D02*
X87074170Y-85834650D01*
X149348399Y-78823751D02*
X150035809Y-78136341D01*
X149348399Y-85486201D02*
X149348399Y-78823751D01*
X148889720Y-85944880D02*
X149348399Y-85486201D01*
X150035809Y-78136341D02*
X150035809Y-64159851D01*
X150622000Y-63573660D02*
X150622000Y-60706000D01*
X150035809Y-64159851D02*
X150622000Y-63573660D01*
M02*
