G04 #@! TF.GenerationSoftware,KiCad,Pcbnew,(5.1.2-1)-1*
G04 #@! TF.CreationDate,2020-06-07T15:36:17+02:00*
G04 #@! TF.ProjectId,ElkWifi,456c6b57-6966-4692-9e6b-696361645f70,rev?*
G04 #@! TF.SameCoordinates,Original*
G04 #@! TF.FileFunction,Legend,Top*
G04 #@! TF.FilePolarity,Positive*
%FSLAX46Y46*%
G04 Gerber Fmt 4.6, Leading zero omitted, Abs format (unit mm)*
G04 Created by KiCad (PCBNEW (5.1.2-1)-1) date 2020-06-07 15:36:17*
%MOMM*%
%LPD*%
G04 APERTURE LIST*
%ADD10C,0.150000*%
%ADD11C,0.300000*%
%ADD12C,0.120000*%
G04 APERTURE END LIST*
D10*
X86704761Y-84585714D02*
X85942857Y-84871428D01*
X86704761Y-85157142D01*
X87704761Y-85252380D02*
X87133333Y-85252380D01*
X87419047Y-85252380D02*
X87419047Y-84252380D01*
X87323809Y-84395238D01*
X87228571Y-84490476D01*
X87133333Y-84538095D01*
X79638095Y-81800000D02*
X79542857Y-81752380D01*
X79400000Y-81752380D01*
X79257142Y-81800000D01*
X79161904Y-81895238D01*
X79114285Y-81990476D01*
X79066666Y-82180952D01*
X79066666Y-82323809D01*
X79114285Y-82514285D01*
X79161904Y-82609523D01*
X79257142Y-82704761D01*
X79400000Y-82752380D01*
X79495238Y-82752380D01*
X79638095Y-82704761D01*
X79685714Y-82657142D01*
X79685714Y-82323809D01*
X79495238Y-82323809D01*
X80114285Y-82752380D02*
X80114285Y-81752380D01*
X80685714Y-82752380D01*
X80685714Y-81752380D01*
X81161904Y-82752380D02*
X81161904Y-81752380D01*
X81400000Y-81752380D01*
X81542857Y-81800000D01*
X81638095Y-81895238D01*
X81685714Y-81990476D01*
X81733333Y-82180952D01*
X81733333Y-82323809D01*
X81685714Y-82514285D01*
X81638095Y-82609523D01*
X81542857Y-82704761D01*
X81400000Y-82752380D01*
X81161904Y-82752380D01*
X78990476Y-76552380D02*
X79561904Y-76552380D01*
X79276190Y-77552380D02*
X79276190Y-76552380D01*
X79895238Y-77552380D02*
X79895238Y-76552380D01*
X80133333Y-76552380D01*
X80276190Y-76600000D01*
X80371428Y-76695238D01*
X80419047Y-76790476D01*
X80466666Y-76980952D01*
X80466666Y-77123809D01*
X80419047Y-77314285D01*
X80371428Y-77409523D01*
X80276190Y-77504761D01*
X80133333Y-77552380D01*
X79895238Y-77552380D01*
X81085714Y-76552380D02*
X81276190Y-76552380D01*
X81371428Y-76600000D01*
X81466666Y-76695238D01*
X81514285Y-76885714D01*
X81514285Y-77219047D01*
X81466666Y-77409523D01*
X81371428Y-77504761D01*
X81276190Y-77552380D01*
X81085714Y-77552380D01*
X80990476Y-77504761D01*
X80895238Y-77409523D01*
X80847619Y-77219047D01*
X80847619Y-76885714D01*
X80895238Y-76695238D01*
X80990476Y-76600000D01*
X81085714Y-76552380D01*
X79076190Y-74052380D02*
X79647619Y-74052380D01*
X79361904Y-75052380D02*
X79361904Y-74052380D01*
X79980952Y-75052380D02*
X79980952Y-74052380D01*
X80219047Y-74052380D01*
X80361904Y-74100000D01*
X80457142Y-74195238D01*
X80504761Y-74290476D01*
X80552380Y-74480952D01*
X80552380Y-74623809D01*
X80504761Y-74814285D01*
X80457142Y-74909523D01*
X80361904Y-75004761D01*
X80219047Y-75052380D01*
X79980952Y-75052380D01*
X80980952Y-75052380D02*
X80980952Y-74052380D01*
X79066666Y-71552380D02*
X79638095Y-71552380D01*
X79352380Y-72552380D02*
X79352380Y-71552380D01*
X79971428Y-72552380D02*
X79971428Y-71552380D01*
X80304761Y-72266666D01*
X80638095Y-71552380D01*
X80638095Y-72552380D01*
X81066666Y-72504761D02*
X81209523Y-72552380D01*
X81447619Y-72552380D01*
X81542857Y-72504761D01*
X81590476Y-72457142D01*
X81638095Y-72361904D01*
X81638095Y-72266666D01*
X81590476Y-72171428D01*
X81542857Y-72123809D01*
X81447619Y-72076190D01*
X81257142Y-72028571D01*
X81161904Y-71980952D01*
X81114285Y-71933333D01*
X81066666Y-71838095D01*
X81066666Y-71742857D01*
X81114285Y-71647619D01*
X81161904Y-71600000D01*
X81257142Y-71552380D01*
X81495238Y-71552380D01*
X81638095Y-71600000D01*
X79114285Y-79152380D02*
X79685714Y-79152380D01*
X79400000Y-80152380D02*
X79400000Y-79152380D01*
X80590476Y-80057142D02*
X80542857Y-80104761D01*
X80400000Y-80152380D01*
X80304761Y-80152380D01*
X80161904Y-80104761D01*
X80066666Y-80009523D01*
X80019047Y-79914285D01*
X79971428Y-79723809D01*
X79971428Y-79580952D01*
X80019047Y-79390476D01*
X80066666Y-79295238D01*
X80161904Y-79200000D01*
X80304761Y-79152380D01*
X80400000Y-79152380D01*
X80542857Y-79200000D01*
X80590476Y-79247619D01*
X81019047Y-80152380D02*
X81019047Y-79152380D01*
X81590476Y-80152380D02*
X81161904Y-79580952D01*
X81590476Y-79152380D02*
X81019047Y-79723809D01*
D11*
X131000000Y-73542857D02*
X128619047Y-71161904D01*
X131000000Y-68780952D01*
X133380952Y-71161904D01*
X131000000Y-73542857D01*
X131000000Y-68780952D01*
X131000000Y-71809523D02*
X131000000Y-77761904D01*
X125047619Y-75380952D02*
X131000000Y-77761904D01*
X136952380Y-75380952D01*
X127428571Y-82523809D02*
X131000000Y-77761904D01*
X134571428Y-82523809D01*
X88699720Y-75763511D02*
X87842577Y-75763511D01*
X88271148Y-75763511D02*
X88271148Y-74263511D01*
X88128291Y-74477797D01*
X87985434Y-74620654D01*
X87842577Y-74692082D01*
X89342577Y-74763511D02*
X90485434Y-75192082D01*
X89342577Y-75620654D01*
D10*
X88468515Y-91177100D02*
X88468515Y-90177100D01*
X88849467Y-90177100D01*
X88944705Y-90224720D01*
X88992324Y-90272339D01*
X89039943Y-90367577D01*
X89039943Y-90510434D01*
X88992324Y-90605672D01*
X88944705Y-90653291D01*
X88849467Y-90700910D01*
X88468515Y-90700910D01*
X89611372Y-91177100D02*
X89516134Y-91129481D01*
X89468515Y-91081862D01*
X89420896Y-90986624D01*
X89420896Y-90700910D01*
X89468515Y-90605672D01*
X89516134Y-90558053D01*
X89611372Y-90510434D01*
X89754229Y-90510434D01*
X89849467Y-90558053D01*
X89897086Y-90605672D01*
X89944705Y-90700910D01*
X89944705Y-90986624D01*
X89897086Y-91081862D01*
X89849467Y-91129481D01*
X89754229Y-91177100D01*
X89611372Y-91177100D01*
X90278039Y-90510434D02*
X90468515Y-91177100D01*
X90658991Y-90700910D01*
X90849467Y-91177100D01*
X91039943Y-90510434D01*
X91801848Y-91129481D02*
X91706610Y-91177100D01*
X91516134Y-91177100D01*
X91420896Y-91129481D01*
X91373277Y-91034243D01*
X91373277Y-90653291D01*
X91420896Y-90558053D01*
X91516134Y-90510434D01*
X91706610Y-90510434D01*
X91801848Y-90558053D01*
X91849467Y-90653291D01*
X91849467Y-90748529D01*
X91373277Y-90843767D01*
X92278039Y-91177100D02*
X92278039Y-90510434D01*
X92278039Y-90700910D02*
X92325658Y-90605672D01*
X92373277Y-90558053D01*
X92468515Y-90510434D01*
X92563753Y-90510434D01*
X88325658Y-92160434D02*
X88706610Y-92160434D01*
X88468515Y-92827100D02*
X88468515Y-91969958D01*
X88516134Y-91874720D01*
X88611372Y-91827100D01*
X88706610Y-91827100D01*
X89039943Y-92827100D02*
X89039943Y-92160434D01*
X89039943Y-92350910D02*
X89087562Y-92255672D01*
X89135181Y-92208053D01*
X89230420Y-92160434D01*
X89325658Y-92160434D01*
X89801848Y-92827100D02*
X89706610Y-92779481D01*
X89658991Y-92731862D01*
X89611372Y-92636624D01*
X89611372Y-92350910D01*
X89658991Y-92255672D01*
X89706610Y-92208053D01*
X89801848Y-92160434D01*
X89944705Y-92160434D01*
X90039943Y-92208053D01*
X90087562Y-92255672D01*
X90135181Y-92350910D01*
X90135181Y-92636624D01*
X90087562Y-92731862D01*
X90039943Y-92779481D01*
X89944705Y-92827100D01*
X89801848Y-92827100D01*
X90563753Y-92827100D02*
X90563753Y-92160434D01*
X90563753Y-92255672D02*
X90611372Y-92208053D01*
X90706610Y-92160434D01*
X90849467Y-92160434D01*
X90944705Y-92208053D01*
X90992324Y-92303291D01*
X90992324Y-92827100D01*
X90992324Y-92303291D02*
X91039943Y-92208053D01*
X91135181Y-92160434D01*
X91278039Y-92160434D01*
X91373277Y-92208053D01*
X91420896Y-92303291D01*
X91420896Y-92827100D01*
X88468515Y-93953291D02*
X88801848Y-93953291D01*
X88944705Y-94477100D02*
X88468515Y-94477100D01*
X88468515Y-93477100D01*
X88944705Y-93477100D01*
X89516134Y-94477100D02*
X89420896Y-94429481D01*
X89373277Y-94334243D01*
X89373277Y-93477100D01*
X90278039Y-94429481D02*
X90182800Y-94477100D01*
X89992324Y-94477100D01*
X89897086Y-94429481D01*
X89849467Y-94334243D01*
X89849467Y-93953291D01*
X89897086Y-93858053D01*
X89992324Y-93810434D01*
X90182800Y-93810434D01*
X90278039Y-93858053D01*
X90325658Y-93953291D01*
X90325658Y-94048529D01*
X89849467Y-94143767D01*
X91182800Y-94429481D02*
X91087562Y-94477100D01*
X90897086Y-94477100D01*
X90801848Y-94429481D01*
X90754229Y-94381862D01*
X90706610Y-94286624D01*
X90706610Y-94000910D01*
X90754229Y-93905672D01*
X90801848Y-93858053D01*
X90897086Y-93810434D01*
X91087562Y-93810434D01*
X91182800Y-93858053D01*
X91468515Y-93810434D02*
X91849467Y-93810434D01*
X91611372Y-93477100D02*
X91611372Y-94334243D01*
X91658991Y-94429481D01*
X91754229Y-94477100D01*
X91849467Y-94477100D01*
X92182800Y-94477100D02*
X92182800Y-93810434D01*
X92182800Y-94000910D02*
X92230420Y-93905672D01*
X92278039Y-93858053D01*
X92373277Y-93810434D01*
X92468515Y-93810434D01*
X92944705Y-94477100D02*
X92849467Y-94429481D01*
X92801848Y-94381862D01*
X92754229Y-94286624D01*
X92754229Y-94000910D01*
X92801848Y-93905672D01*
X92849467Y-93858053D01*
X92944705Y-93810434D01*
X93087562Y-93810434D01*
X93182800Y-93858053D01*
X93230420Y-93905672D01*
X93278039Y-94000910D01*
X93278039Y-94286624D01*
X93230420Y-94381862D01*
X93182800Y-94429481D01*
X93087562Y-94477100D01*
X92944705Y-94477100D01*
X93706610Y-93810434D02*
X93706610Y-94477100D01*
X93706610Y-93905672D02*
X93754229Y-93858053D01*
X93849467Y-93810434D01*
X93992324Y-93810434D01*
X94087562Y-93858053D01*
X94135181Y-93953291D01*
X94135181Y-94477100D01*
X79831962Y-28773500D02*
X79736724Y-28725880D01*
X79593867Y-28725880D01*
X79451010Y-28773500D01*
X79355772Y-28868738D01*
X79308153Y-28963976D01*
X79260534Y-29154452D01*
X79260534Y-29297309D01*
X79308153Y-29487785D01*
X79355772Y-29583023D01*
X79451010Y-29678261D01*
X79593867Y-29725880D01*
X79689105Y-29725880D01*
X79831962Y-29678261D01*
X79879581Y-29630642D01*
X79879581Y-29297309D01*
X79689105Y-29297309D01*
X80308153Y-29059214D02*
X80308153Y-29725880D01*
X80308153Y-29154452D02*
X80355772Y-29106833D01*
X80451010Y-29059214D01*
X80593867Y-29059214D01*
X80689105Y-29106833D01*
X80736724Y-29202071D01*
X80736724Y-29725880D01*
X81641486Y-29725880D02*
X81641486Y-28725880D01*
X81641486Y-29678261D02*
X81546248Y-29725880D01*
X81355772Y-29725880D01*
X81260534Y-29678261D01*
X81212915Y-29630642D01*
X81165296Y-29535404D01*
X81165296Y-29249690D01*
X81212915Y-29154452D01*
X81260534Y-29106833D01*
X81355772Y-29059214D01*
X81546248Y-29059214D01*
X81641486Y-29106833D01*
X160076140Y-79251133D02*
X160076140Y-79822561D01*
X160076140Y-79536847D02*
X159076140Y-79536847D01*
X159218998Y-79632085D01*
X159314236Y-79727323D01*
X159361855Y-79822561D01*
X159409474Y-78822561D02*
X159695188Y-78060657D01*
X159980902Y-78822561D01*
X114794236Y-92709002D02*
X114746617Y-92756621D01*
X114603759Y-92804240D01*
X114508521Y-92804240D01*
X114365664Y-92756621D01*
X114270426Y-92661383D01*
X114222807Y-92566145D01*
X114175188Y-92375669D01*
X114175188Y-92232812D01*
X114222807Y-92042336D01*
X114270426Y-91947098D01*
X114365664Y-91851860D01*
X114508521Y-91804240D01*
X114603759Y-91804240D01*
X114746617Y-91851860D01*
X114794236Y-91899479D01*
X115365664Y-92804240D02*
X115270426Y-92756621D01*
X115222807Y-92709002D01*
X115175188Y-92613764D01*
X115175188Y-92328050D01*
X115222807Y-92232812D01*
X115270426Y-92185193D01*
X115365664Y-92137574D01*
X115508521Y-92137574D01*
X115603759Y-92185193D01*
X115651379Y-92232812D01*
X115698998Y-92328050D01*
X115698998Y-92613764D01*
X115651379Y-92709002D01*
X115603759Y-92756621D01*
X115508521Y-92804240D01*
X115365664Y-92804240D01*
X116127569Y-92137574D02*
X116127569Y-93137574D01*
X116127569Y-92185193D02*
X116222807Y-92137574D01*
X116413283Y-92137574D01*
X116508521Y-92185193D01*
X116556140Y-92232812D01*
X116603759Y-92328050D01*
X116603759Y-92613764D01*
X116556140Y-92709002D01*
X116508521Y-92756621D01*
X116413283Y-92804240D01*
X116222807Y-92804240D01*
X116127569Y-92756621D01*
X116937093Y-92137574D02*
X117175188Y-92804240D01*
X117413283Y-92137574D02*
X117175188Y-92804240D01*
X117079950Y-93042336D01*
X117032331Y-93089955D01*
X116937093Y-93137574D01*
X117794236Y-92804240D02*
X117794236Y-92137574D01*
X117794236Y-92328050D02*
X117841855Y-92232812D01*
X117889474Y-92185193D01*
X117984712Y-92137574D01*
X118079950Y-92137574D01*
X118413283Y-92804240D02*
X118413283Y-92137574D01*
X118413283Y-91804240D02*
X118365664Y-91851860D01*
X118413283Y-91899479D01*
X118460902Y-91851860D01*
X118413283Y-91804240D01*
X118413283Y-91899479D01*
X119318045Y-92137574D02*
X119318045Y-92947098D01*
X119270426Y-93042336D01*
X119222807Y-93089955D01*
X119127569Y-93137574D01*
X118984712Y-93137574D01*
X118889474Y-93089955D01*
X119318045Y-92756621D02*
X119222807Y-92804240D01*
X119032331Y-92804240D01*
X118937093Y-92756621D01*
X118889474Y-92709002D01*
X118841855Y-92613764D01*
X118841855Y-92328050D01*
X118889474Y-92232812D01*
X118937093Y-92185193D01*
X119032331Y-92137574D01*
X119222807Y-92137574D01*
X119318045Y-92185193D01*
X119794236Y-92804240D02*
X119794236Y-91804240D01*
X120222807Y-92804240D02*
X120222807Y-92280431D01*
X120175188Y-92185193D01*
X120079950Y-92137574D01*
X119937093Y-92137574D01*
X119841855Y-92185193D01*
X119794236Y-92232812D01*
X120556140Y-92137574D02*
X120937093Y-92137574D01*
X120698998Y-91804240D02*
X120698998Y-92661383D01*
X120746617Y-92756621D01*
X120841855Y-92804240D01*
X120937093Y-92804240D01*
X122318045Y-93185193D02*
X122270426Y-93137574D01*
X122175188Y-92994717D01*
X122127569Y-92899479D01*
X122079950Y-92756621D01*
X122032331Y-92518526D01*
X122032331Y-92328050D01*
X122079950Y-92089955D01*
X122127569Y-91947098D01*
X122175188Y-91851860D01*
X122270426Y-91709002D01*
X122318045Y-91661383D01*
X123127569Y-92756621D02*
X123032331Y-92804240D01*
X122841855Y-92804240D01*
X122746617Y-92756621D01*
X122698998Y-92709002D01*
X122651379Y-92613764D01*
X122651379Y-92328050D01*
X122698998Y-92232812D01*
X122746617Y-92185193D01*
X122841855Y-92137574D01*
X123032331Y-92137574D01*
X123127569Y-92185193D01*
X123460902Y-93185193D02*
X123508521Y-93137574D01*
X123603759Y-92994717D01*
X123651379Y-92899479D01*
X123698998Y-92756621D01*
X123746617Y-92518526D01*
X123746617Y-92328050D01*
X123698998Y-92089955D01*
X123651379Y-91947098D01*
X123603759Y-91851860D01*
X123508521Y-91709002D01*
X123460902Y-91661383D01*
X125556140Y-92804240D02*
X125222807Y-92328050D01*
X124984712Y-92804240D02*
X124984712Y-91804240D01*
X125365664Y-91804240D01*
X125460902Y-91851860D01*
X125508521Y-91899479D01*
X125556140Y-91994717D01*
X125556140Y-92137574D01*
X125508521Y-92232812D01*
X125460902Y-92280431D01*
X125365664Y-92328050D01*
X124984712Y-92328050D01*
X126127569Y-92804240D02*
X126032331Y-92756621D01*
X125984712Y-92709002D01*
X125937093Y-92613764D01*
X125937093Y-92328050D01*
X125984712Y-92232812D01*
X126032331Y-92185193D01*
X126127569Y-92137574D01*
X126270426Y-92137574D01*
X126365664Y-92185193D01*
X126413283Y-92232812D01*
X126460902Y-92328050D01*
X126460902Y-92613764D01*
X126413283Y-92709002D01*
X126365664Y-92756621D01*
X126270426Y-92804240D01*
X126127569Y-92804240D01*
X127032331Y-92804240D02*
X126937093Y-92756621D01*
X126889474Y-92661383D01*
X126889474Y-91804240D01*
X127841855Y-92804240D02*
X127841855Y-92280431D01*
X127794236Y-92185193D01*
X127698998Y-92137574D01*
X127508521Y-92137574D01*
X127413283Y-92185193D01*
X127841855Y-92756621D02*
X127746617Y-92804240D01*
X127508521Y-92804240D01*
X127413283Y-92756621D01*
X127365664Y-92661383D01*
X127365664Y-92566145D01*
X127413283Y-92470907D01*
X127508521Y-92423288D01*
X127746617Y-92423288D01*
X127841855Y-92375669D01*
X128318045Y-92137574D02*
X128318045Y-92804240D01*
X128318045Y-92232812D02*
X128365664Y-92185193D01*
X128460902Y-92137574D01*
X128603759Y-92137574D01*
X128698998Y-92185193D01*
X128746617Y-92280431D01*
X128746617Y-92804240D01*
X129651379Y-92804240D02*
X129651379Y-91804240D01*
X129651379Y-92756621D02*
X129556140Y-92804240D01*
X129365664Y-92804240D01*
X129270426Y-92756621D01*
X129222807Y-92709002D01*
X129175188Y-92613764D01*
X129175188Y-92328050D01*
X129222807Y-92232812D01*
X129270426Y-92185193D01*
X129365664Y-92137574D01*
X129556140Y-92137574D01*
X129651379Y-92185193D01*
X131365664Y-92804240D02*
X130889474Y-92804240D01*
X130889474Y-91804240D01*
X132079950Y-92756621D02*
X131984712Y-92804240D01*
X131794236Y-92804240D01*
X131698998Y-92756621D01*
X131651379Y-92661383D01*
X131651379Y-92280431D01*
X131698998Y-92185193D01*
X131794236Y-92137574D01*
X131984712Y-92137574D01*
X132079950Y-92185193D01*
X132127569Y-92280431D01*
X132127569Y-92375669D01*
X131651379Y-92470907D01*
X132984712Y-92137574D02*
X132984712Y-92804240D01*
X132556140Y-92137574D02*
X132556140Y-92661383D01*
X132603760Y-92756621D01*
X132698998Y-92804240D01*
X132841855Y-92804240D01*
X132937093Y-92756621D01*
X132984712Y-92709002D01*
X133460902Y-92804240D02*
X133460902Y-92137574D01*
X133460902Y-92328050D02*
X133508521Y-92232812D01*
X133556140Y-92185193D01*
X133651379Y-92137574D01*
X133746617Y-92137574D01*
X134032331Y-92756621D02*
X134127569Y-92804240D01*
X134318045Y-92804240D01*
X134413283Y-92756621D01*
X134460902Y-92661383D01*
X134460902Y-92613764D01*
X134413283Y-92518526D01*
X134318045Y-92470907D01*
X134175188Y-92470907D01*
X134079950Y-92423288D01*
X134032331Y-92328050D01*
X134032331Y-92280431D01*
X134079950Y-92185193D01*
X134175188Y-92137574D01*
X134318045Y-92137574D01*
X134413283Y-92185193D01*
X135603760Y-91899479D02*
X135651379Y-91851860D01*
X135746617Y-91804240D01*
X135984712Y-91804240D01*
X136079950Y-91851860D01*
X136127569Y-91899479D01*
X136175188Y-91994717D01*
X136175188Y-92089955D01*
X136127569Y-92232812D01*
X135556140Y-92804240D01*
X136175188Y-92804240D01*
X136794236Y-91804240D02*
X136889474Y-91804240D01*
X136984712Y-91851860D01*
X137032331Y-91899479D01*
X137079950Y-91994717D01*
X137127569Y-92185193D01*
X137127569Y-92423288D01*
X137079950Y-92613764D01*
X137032331Y-92709002D01*
X136984712Y-92756621D01*
X136889474Y-92804240D01*
X136794236Y-92804240D01*
X136698998Y-92756621D01*
X136651379Y-92709002D01*
X136603760Y-92613764D01*
X136556140Y-92423288D01*
X136556140Y-92185193D01*
X136603760Y-91994717D01*
X136651379Y-91899479D01*
X136698998Y-91851860D01*
X136794236Y-91804240D01*
X137508521Y-91899479D02*
X137556140Y-91851860D01*
X137651379Y-91804240D01*
X137889474Y-91804240D01*
X137984712Y-91851860D01*
X138032331Y-91899479D01*
X138079950Y-91994717D01*
X138079950Y-92089955D01*
X138032331Y-92232812D01*
X137460902Y-92804240D01*
X138079950Y-92804240D01*
X138698998Y-91804240D02*
X138794236Y-91804240D01*
X138889474Y-91851860D01*
X138937093Y-91899479D01*
X138984712Y-91994717D01*
X139032331Y-92185193D01*
X139032331Y-92423288D01*
X138984712Y-92613764D01*
X138937093Y-92709002D01*
X138889474Y-92756621D01*
X138794236Y-92804240D01*
X138698998Y-92804240D01*
X138603760Y-92756621D01*
X138556140Y-92709002D01*
X138508521Y-92613764D01*
X138460902Y-92423288D01*
X138460902Y-92185193D01*
X138508521Y-91994717D01*
X138556140Y-91899479D01*
X138603760Y-91851860D01*
X138698998Y-91804240D01*
X113234866Y-86147466D02*
X114425342Y-86147466D01*
X112996771Y-86861752D02*
X113830104Y-84361752D01*
X114663438Y-86861752D01*
X116568200Y-86742704D02*
X116330104Y-86861752D01*
X115853914Y-86861752D01*
X115615819Y-86742704D01*
X115496771Y-86623657D01*
X115377723Y-86385561D01*
X115377723Y-85671276D01*
X115496771Y-85433180D01*
X115615819Y-85314133D01*
X115853914Y-85195085D01*
X116330104Y-85195085D01*
X116568200Y-85314133D01*
X117996771Y-86861752D02*
X117758676Y-86742704D01*
X117639628Y-86623657D01*
X117520580Y-86385561D01*
X117520580Y-85671276D01*
X117639628Y-85433180D01*
X117758676Y-85314133D01*
X117996771Y-85195085D01*
X118353914Y-85195085D01*
X118592009Y-85314133D01*
X118711057Y-85433180D01*
X118830104Y-85671276D01*
X118830104Y-86385561D01*
X118711057Y-86623657D01*
X118592009Y-86742704D01*
X118353914Y-86861752D01*
X117996771Y-86861752D01*
X119901533Y-86861752D02*
X119901533Y-85195085D01*
X119901533Y-85671276D02*
X120020580Y-85433180D01*
X120139628Y-85314133D01*
X120377723Y-85195085D01*
X120615819Y-85195085D01*
X121449152Y-85195085D02*
X121449152Y-86861752D01*
X121449152Y-85433180D02*
X121568200Y-85314133D01*
X121806295Y-85195085D01*
X122163438Y-85195085D01*
X122401533Y-85314133D01*
X122520580Y-85552228D01*
X122520580Y-86861752D01*
X125615819Y-85552228D02*
X126449152Y-85552228D01*
X126806295Y-86861752D02*
X125615819Y-86861752D01*
X125615819Y-84361752D01*
X126806295Y-84361752D01*
X128234866Y-86861752D02*
X127996771Y-86742704D01*
X127877723Y-86504609D01*
X127877723Y-84361752D01*
X130139628Y-86742704D02*
X129901533Y-86861752D01*
X129425342Y-86861752D01*
X129187247Y-86742704D01*
X129068200Y-86504609D01*
X129068200Y-85552228D01*
X129187247Y-85314133D01*
X129425342Y-85195085D01*
X129901533Y-85195085D01*
X130139628Y-85314133D01*
X130258676Y-85552228D01*
X130258676Y-85790323D01*
X129068200Y-86028419D01*
X132401533Y-86742704D02*
X132163438Y-86861752D01*
X131687247Y-86861752D01*
X131449152Y-86742704D01*
X131330104Y-86623657D01*
X131211057Y-86385561D01*
X131211057Y-85671276D01*
X131330104Y-85433180D01*
X131449152Y-85314133D01*
X131687247Y-85195085D01*
X132163438Y-85195085D01*
X132401533Y-85314133D01*
X133115819Y-85195085D02*
X134068200Y-85195085D01*
X133472961Y-84361752D02*
X133472961Y-86504609D01*
X133592009Y-86742704D01*
X133830104Y-86861752D01*
X134068200Y-86861752D01*
X134901533Y-86861752D02*
X134901533Y-85195085D01*
X134901533Y-85671276D02*
X135020580Y-85433180D01*
X135139628Y-85314133D01*
X135377723Y-85195085D01*
X135615819Y-85195085D01*
X136806295Y-86861752D02*
X136568200Y-86742704D01*
X136449152Y-86623657D01*
X136330104Y-86385561D01*
X136330104Y-85671276D01*
X136449152Y-85433180D01*
X136568200Y-85314133D01*
X136806295Y-85195085D01*
X137163438Y-85195085D01*
X137401533Y-85314133D01*
X137520580Y-85433180D01*
X137639628Y-85671276D01*
X137639628Y-86385561D01*
X137520580Y-86623657D01*
X137401533Y-86742704D01*
X137163438Y-86861752D01*
X136806295Y-86861752D01*
X138711057Y-85195085D02*
X138711057Y-86861752D01*
X138711057Y-85433180D02*
X138830104Y-85314133D01*
X139068200Y-85195085D01*
X139425342Y-85195085D01*
X139663438Y-85314133D01*
X139782485Y-85552228D01*
X139782485Y-86861752D01*
X114187247Y-89452228D02*
X115020580Y-89452228D01*
X115377723Y-90761752D02*
X114187247Y-90761752D01*
X114187247Y-88261752D01*
X115377723Y-88261752D01*
X116330104Y-90642704D02*
X116687247Y-90761752D01*
X117282485Y-90761752D01*
X117520580Y-90642704D01*
X117639628Y-90523657D01*
X117758676Y-90285561D01*
X117758676Y-90047466D01*
X117639628Y-89809371D01*
X117520580Y-89690323D01*
X117282485Y-89571276D01*
X116806295Y-89452228D01*
X116568200Y-89333180D01*
X116449152Y-89214133D01*
X116330104Y-88976038D01*
X116330104Y-88737942D01*
X116449152Y-88499847D01*
X116568200Y-88380800D01*
X116806295Y-88261752D01*
X117401533Y-88261752D01*
X117758676Y-88380800D01*
X118830104Y-90761752D02*
X118830104Y-88261752D01*
X119782485Y-88261752D01*
X120020580Y-88380800D01*
X120139628Y-88499847D01*
X120258676Y-88737942D01*
X120258676Y-89095085D01*
X120139628Y-89333180D01*
X120020580Y-89452228D01*
X119782485Y-89571276D01*
X118830104Y-89571276D01*
X121687247Y-89333180D02*
X121449152Y-89214133D01*
X121330104Y-89095085D01*
X121211057Y-88856990D01*
X121211057Y-88737942D01*
X121330104Y-88499847D01*
X121449152Y-88380800D01*
X121687247Y-88261752D01*
X122163438Y-88261752D01*
X122401533Y-88380800D01*
X122520580Y-88499847D01*
X122639628Y-88737942D01*
X122639628Y-88856990D01*
X122520580Y-89095085D01*
X122401533Y-89214133D01*
X122163438Y-89333180D01*
X121687247Y-89333180D01*
X121449152Y-89452228D01*
X121330104Y-89571276D01*
X121211057Y-89809371D01*
X121211057Y-90285561D01*
X121330104Y-90523657D01*
X121449152Y-90642704D01*
X121687247Y-90761752D01*
X122163438Y-90761752D01*
X122401533Y-90642704D01*
X122520580Y-90523657D01*
X122639628Y-90285561D01*
X122639628Y-89809371D01*
X122520580Y-89571276D01*
X122401533Y-89452228D01*
X122163438Y-89333180D01*
X123592009Y-88499847D02*
X123711057Y-88380800D01*
X123949152Y-88261752D01*
X124544390Y-88261752D01*
X124782485Y-88380800D01*
X124901533Y-88499847D01*
X125020580Y-88737942D01*
X125020580Y-88976038D01*
X124901533Y-89333180D01*
X123472961Y-90761752D01*
X125020580Y-90761752D01*
X127163438Y-88261752D02*
X126687247Y-88261752D01*
X126449152Y-88380800D01*
X126330104Y-88499847D01*
X126092009Y-88856990D01*
X125972961Y-89333180D01*
X125972961Y-90285561D01*
X126092009Y-90523657D01*
X126211057Y-90642704D01*
X126449152Y-90761752D01*
X126925342Y-90761752D01*
X127163438Y-90642704D01*
X127282485Y-90523657D01*
X127401533Y-90285561D01*
X127401533Y-89690323D01*
X127282485Y-89452228D01*
X127163438Y-89333180D01*
X126925342Y-89214133D01*
X126449152Y-89214133D01*
X126211057Y-89333180D01*
X126092009Y-89452228D01*
X125972961Y-89690323D01*
X129544390Y-88261752D02*
X129068200Y-88261752D01*
X128830104Y-88380800D01*
X128711057Y-88499847D01*
X128472961Y-88856990D01*
X128353914Y-89333180D01*
X128353914Y-90285561D01*
X128472961Y-90523657D01*
X128592009Y-90642704D01*
X128830104Y-90761752D01*
X129306295Y-90761752D01*
X129544390Y-90642704D01*
X129663438Y-90523657D01*
X129782485Y-90285561D01*
X129782485Y-89690323D01*
X129663438Y-89452228D01*
X129544390Y-89333180D01*
X129306295Y-89214133D01*
X128830104Y-89214133D01*
X128592009Y-89333180D01*
X128472961Y-89452228D01*
X128353914Y-89690323D01*
X132520580Y-88261752D02*
X133115819Y-90761752D01*
X133592009Y-88976038D01*
X134068200Y-90761752D01*
X134663438Y-88261752D01*
X135615819Y-90761752D02*
X135615819Y-89095085D01*
X135615819Y-88261752D02*
X135496771Y-88380800D01*
X135615819Y-88499847D01*
X135734866Y-88380800D01*
X135615819Y-88261752D01*
X135615819Y-88499847D01*
X137639628Y-89452228D02*
X136806295Y-89452228D01*
X136806295Y-90761752D02*
X136806295Y-88261752D01*
X137996771Y-88261752D01*
X138949152Y-90761752D02*
X138949152Y-89095085D01*
X138949152Y-88261752D02*
X138830104Y-88380800D01*
X138949152Y-88499847D01*
X139068200Y-88380800D01*
X138949152Y-88261752D01*
X138949152Y-88499847D01*
X79142857Y-84270600D02*
X79476190Y-85270600D01*
X79809523Y-84270600D01*
X80142857Y-85270600D02*
X80142857Y-84603934D01*
X80142857Y-84794410D02*
X80190476Y-84699172D01*
X80238095Y-84651553D01*
X80333333Y-84603934D01*
X80428571Y-84603934D01*
X81142857Y-85222981D02*
X81047619Y-85270600D01*
X80857142Y-85270600D01*
X80761904Y-85222981D01*
X80714285Y-85127743D01*
X80714285Y-84746791D01*
X80761904Y-84651553D01*
X80857142Y-84603934D01*
X81047619Y-84603934D01*
X81142857Y-84651553D01*
X81190476Y-84746791D01*
X81190476Y-84842029D01*
X80714285Y-84937267D01*
X81476190Y-84603934D02*
X81857142Y-84603934D01*
X81619047Y-85270600D02*
X81619047Y-84413458D01*
X81666666Y-84318220D01*
X81761904Y-84270600D01*
X81857142Y-84270600D01*
X79819262Y-33800160D02*
X79724024Y-33752540D01*
X79581167Y-33752540D01*
X79438310Y-33800160D01*
X79343072Y-33895398D01*
X79295453Y-33990636D01*
X79247834Y-34181112D01*
X79247834Y-34323969D01*
X79295453Y-34514445D01*
X79343072Y-34609683D01*
X79438310Y-34704921D01*
X79581167Y-34752540D01*
X79676405Y-34752540D01*
X79819262Y-34704921D01*
X79866881Y-34657302D01*
X79866881Y-34323969D01*
X79676405Y-34323969D01*
X80295453Y-34085874D02*
X80295453Y-34752540D01*
X80295453Y-34181112D02*
X80343072Y-34133493D01*
X80438310Y-34085874D01*
X80581167Y-34085874D01*
X80676405Y-34133493D01*
X80724024Y-34228731D01*
X80724024Y-34752540D01*
X81628786Y-34752540D02*
X81628786Y-33752540D01*
X81628786Y-34704921D02*
X81533548Y-34752540D01*
X81343072Y-34752540D01*
X81247834Y-34704921D01*
X81200215Y-34657302D01*
X81152596Y-34562064D01*
X81152596Y-34276350D01*
X81200215Y-34181112D01*
X81247834Y-34133493D01*
X81343072Y-34085874D01*
X81533548Y-34085874D01*
X81628786Y-34133493D01*
X79342763Y-31161740D02*
X79676097Y-32161740D01*
X80009430Y-31161740D01*
X80771335Y-32114121D02*
X80676097Y-32161740D01*
X80485620Y-32161740D01*
X80390382Y-32114121D01*
X80342763Y-32066502D01*
X80295144Y-31971264D01*
X80295144Y-31685550D01*
X80342763Y-31590312D01*
X80390382Y-31542693D01*
X80485620Y-31495074D01*
X80676097Y-31495074D01*
X80771335Y-31542693D01*
X81628478Y-32114121D02*
X81533240Y-32161740D01*
X81342763Y-32161740D01*
X81247525Y-32114121D01*
X81199906Y-32066502D01*
X81152287Y-31971264D01*
X81152287Y-31685550D01*
X81199906Y-31590312D01*
X81247525Y-31542693D01*
X81342763Y-31495074D01*
X81533240Y-31495074D01*
X81628478Y-31542693D01*
X139039006Y-33805120D02*
X138467578Y-33805120D01*
X138753292Y-33805120D02*
X138753292Y-32805120D01*
X138658054Y-32947978D01*
X138562816Y-33043216D01*
X138467578Y-33090835D01*
X139467578Y-33138454D02*
X140229482Y-33424168D01*
X139467578Y-33709882D01*
X161214014Y-69258440D02*
X161214014Y-68258440D01*
X161690204Y-69258440D02*
X161690204Y-68258440D01*
X162261633Y-69258440D01*
X162261633Y-68258440D01*
X162594966Y-68258440D02*
X163166395Y-68258440D01*
X162880680Y-69258440D02*
X162880680Y-68258440D01*
X164214014Y-68972726D02*
X164690204Y-68972726D01*
X164118776Y-69258440D02*
X164452109Y-68258440D01*
X164785442Y-69258440D01*
X161157825Y-79504800D02*
X161157825Y-78504800D01*
X161634016Y-79504800D02*
X161634016Y-78504800D01*
X162205444Y-79504800D01*
X162205444Y-78504800D01*
X162538778Y-78504800D02*
X163110206Y-78504800D01*
X162824492Y-79504800D02*
X162824492Y-78504800D01*
X164538778Y-78980991D02*
X164681635Y-79028610D01*
X164729254Y-79076229D01*
X164776873Y-79171467D01*
X164776873Y-79314324D01*
X164729254Y-79409562D01*
X164681635Y-79457181D01*
X164586397Y-79504800D01*
X164205444Y-79504800D01*
X164205444Y-78504800D01*
X164538778Y-78504800D01*
X164634016Y-78552420D01*
X164681635Y-78600039D01*
X164729254Y-78695277D01*
X164729254Y-78790515D01*
X164681635Y-78885753D01*
X164634016Y-78933372D01*
X164538778Y-78980991D01*
X164205444Y-78980991D01*
X162097221Y-82166720D02*
X162097221Y-81166720D01*
X162668650Y-82166720D01*
X162668650Y-81166720D01*
X163144840Y-82166720D02*
X163144840Y-81166720D01*
X163478174Y-81881006D01*
X163811507Y-81166720D01*
X163811507Y-82166720D01*
X164287698Y-82166720D02*
X164287698Y-81166720D01*
X162018481Y-71877180D02*
X162018481Y-70877180D01*
X162589910Y-71877180D01*
X162589910Y-70877180D01*
X163066100Y-71877180D02*
X163066100Y-70877180D01*
X163399434Y-71591466D01*
X163732767Y-70877180D01*
X163732767Y-71877180D01*
X164208958Y-71877180D02*
X164208958Y-70877180D01*
X162039110Y-76931780D02*
X162039110Y-75931780D01*
X163086729Y-76931780D02*
X162753396Y-76455590D01*
X162515300Y-76931780D02*
X162515300Y-75931780D01*
X162896253Y-75931780D01*
X162991491Y-75979400D01*
X163039110Y-76027019D01*
X163086729Y-76122257D01*
X163086729Y-76265114D01*
X163039110Y-76360352D01*
X162991491Y-76407971D01*
X162896253Y-76455590D01*
X162515300Y-76455590D01*
X164181967Y-77027019D02*
X164086729Y-76979400D01*
X163991491Y-76884161D01*
X163848634Y-76741304D01*
X163753396Y-76693685D01*
X163658158Y-76693685D01*
X163705777Y-76931780D02*
X163610539Y-76884161D01*
X163515300Y-76788923D01*
X163467681Y-76598447D01*
X163467681Y-76265114D01*
X163515300Y-76074638D01*
X163610539Y-75979400D01*
X163705777Y-75931780D01*
X163896253Y-75931780D01*
X163991491Y-75979400D01*
X164086729Y-76074638D01*
X164134348Y-76265114D01*
X164134348Y-76598447D01*
X164086729Y-76788923D01*
X163991491Y-76884161D01*
X163896253Y-76931780D01*
X163705777Y-76931780D01*
X162064510Y-66754000D02*
X162064510Y-65754000D01*
X163112129Y-66754000D02*
X162778796Y-66277810D01*
X162540700Y-66754000D02*
X162540700Y-65754000D01*
X162921653Y-65754000D01*
X163016891Y-65801620D01*
X163064510Y-65849239D01*
X163112129Y-65944477D01*
X163112129Y-66087334D01*
X163064510Y-66182572D01*
X163016891Y-66230191D01*
X162921653Y-66277810D01*
X162540700Y-66277810D01*
X164207367Y-66849239D02*
X164112129Y-66801620D01*
X164016891Y-66706381D01*
X163874034Y-66563524D01*
X163778796Y-66515905D01*
X163683558Y-66515905D01*
X163731177Y-66754000D02*
X163635939Y-66706381D01*
X163540700Y-66611143D01*
X163493081Y-66420667D01*
X163493081Y-66087334D01*
X163540700Y-65896858D01*
X163635939Y-65801620D01*
X163731177Y-65754000D01*
X163921653Y-65754000D01*
X164016891Y-65801620D01*
X164112129Y-65896858D01*
X164159748Y-66087334D01*
X164159748Y-66420667D01*
X164112129Y-66611143D01*
X164016891Y-66706381D01*
X163921653Y-66754000D01*
X163731177Y-66754000D01*
X142488233Y-28692741D02*
X142631090Y-28740360D01*
X142869185Y-28740360D01*
X142964423Y-28692741D01*
X143012042Y-28645122D01*
X143059661Y-28549884D01*
X143059661Y-28454646D01*
X143012042Y-28359408D01*
X142964423Y-28311789D01*
X142869185Y-28264170D01*
X142678709Y-28216551D01*
X142583471Y-28168932D01*
X142535852Y-28121313D01*
X142488233Y-28026075D01*
X142488233Y-27930837D01*
X142535852Y-27835599D01*
X142583471Y-27787980D01*
X142678709Y-27740360D01*
X142916804Y-27740360D01*
X143059661Y-27787980D01*
X143869185Y-28692741D02*
X143773947Y-28740360D01*
X143583471Y-28740360D01*
X143488233Y-28692741D01*
X143440614Y-28597503D01*
X143440614Y-28216551D01*
X143488233Y-28121313D01*
X143583471Y-28073694D01*
X143773947Y-28073694D01*
X143869185Y-28121313D01*
X143916804Y-28216551D01*
X143916804Y-28311789D01*
X143440614Y-28407027D01*
X144345376Y-28740360D02*
X144345376Y-28073694D01*
X144345376Y-28264170D02*
X144392995Y-28168932D01*
X144440614Y-28121313D01*
X144535852Y-28073694D01*
X144631090Y-28073694D01*
X144964423Y-28740360D02*
X144964423Y-28073694D01*
X144964423Y-27740360D02*
X144916804Y-27787980D01*
X144964423Y-27835599D01*
X145012042Y-27787980D01*
X144964423Y-27740360D01*
X144964423Y-27835599D01*
X145869185Y-28740360D02*
X145869185Y-28216551D01*
X145821566Y-28121313D01*
X145726328Y-28073694D01*
X145535852Y-28073694D01*
X145440614Y-28121313D01*
X145869185Y-28692741D02*
X145773947Y-28740360D01*
X145535852Y-28740360D01*
X145440614Y-28692741D01*
X145392995Y-28597503D01*
X145392995Y-28502265D01*
X145440614Y-28407027D01*
X145535852Y-28359408D01*
X145773947Y-28359408D01*
X145869185Y-28311789D01*
X146488233Y-28740360D02*
X146392995Y-28692741D01*
X146345376Y-28597503D01*
X146345376Y-27740360D01*
X147631090Y-28073694D02*
X147631090Y-29073694D01*
X147631090Y-28121313D02*
X147726328Y-28073694D01*
X147916804Y-28073694D01*
X148012042Y-28121313D01*
X148059661Y-28168932D01*
X148107280Y-28264170D01*
X148107280Y-28549884D01*
X148059661Y-28645122D01*
X148012042Y-28692741D01*
X147916804Y-28740360D01*
X147726328Y-28740360D01*
X147631090Y-28692741D01*
X148678709Y-28740360D02*
X148583471Y-28692741D01*
X148535852Y-28645122D01*
X148488233Y-28549884D01*
X148488233Y-28264170D01*
X148535852Y-28168932D01*
X148583471Y-28121313D01*
X148678709Y-28073694D01*
X148821566Y-28073694D01*
X148916804Y-28121313D01*
X148964423Y-28168932D01*
X149012042Y-28264170D01*
X149012042Y-28549884D01*
X148964423Y-28645122D01*
X148916804Y-28692741D01*
X148821566Y-28740360D01*
X148678709Y-28740360D01*
X149440614Y-28740360D02*
X149440614Y-28073694D01*
X149440614Y-28264170D02*
X149488233Y-28168932D01*
X149535852Y-28121313D01*
X149631090Y-28073694D01*
X149726328Y-28073694D01*
X149916804Y-28073694D02*
X150297757Y-28073694D01*
X150059661Y-27740360D02*
X150059661Y-28597503D01*
X150107280Y-28692741D01*
X150202519Y-28740360D01*
X150297757Y-28740360D01*
X151345376Y-28454646D02*
X151821566Y-28454646D01*
X151250138Y-28740360D02*
X151583471Y-27740360D01*
X151916804Y-28740360D01*
X129128711Y-37485580D02*
X128795378Y-37009390D01*
X128557282Y-37485580D02*
X128557282Y-36485580D01*
X128938235Y-36485580D01*
X129033473Y-36533200D01*
X129081092Y-36580819D01*
X129128711Y-36676057D01*
X129128711Y-36818914D01*
X129081092Y-36914152D01*
X129033473Y-36961771D01*
X128938235Y-37009390D01*
X128557282Y-37009390D01*
X129509663Y-37199866D02*
X129985854Y-37199866D01*
X129414425Y-37485580D02*
X129747759Y-36485580D01*
X130081092Y-37485580D01*
X130414425Y-37485580D02*
X130414425Y-36485580D01*
X130747759Y-37199866D01*
X131081092Y-36485580D01*
X131081092Y-37485580D01*
X132319187Y-37485580D02*
X132319187Y-36485580D01*
X132557282Y-36485580D01*
X132700140Y-36533200D01*
X132795378Y-36628438D01*
X132842997Y-36723676D01*
X132890616Y-36914152D01*
X132890616Y-37057009D01*
X132842997Y-37247485D01*
X132795378Y-37342723D01*
X132700140Y-37437961D01*
X132557282Y-37485580D01*
X132319187Y-37485580D01*
X133319187Y-37485580D02*
X133319187Y-36485580D01*
X133747759Y-37437961D02*
X133890616Y-37485580D01*
X134128711Y-37485580D01*
X134223949Y-37437961D01*
X134271568Y-37390342D01*
X134319187Y-37295104D01*
X134319187Y-37199866D01*
X134271568Y-37104628D01*
X134223949Y-37057009D01*
X134128711Y-37009390D01*
X133938235Y-36961771D01*
X133842997Y-36914152D01*
X133795378Y-36866533D01*
X133747759Y-36771295D01*
X133747759Y-36676057D01*
X133795378Y-36580819D01*
X133842997Y-36533200D01*
X133938235Y-36485580D01*
X134176330Y-36485580D01*
X134319187Y-36533200D01*
X134700140Y-37199866D02*
X135176330Y-37199866D01*
X134604901Y-37485580D02*
X134938235Y-36485580D01*
X135271568Y-37485580D01*
X135938235Y-36961771D02*
X136081092Y-37009390D01*
X136128711Y-37057009D01*
X136176330Y-37152247D01*
X136176330Y-37295104D01*
X136128711Y-37390342D01*
X136081092Y-37437961D01*
X135985854Y-37485580D01*
X135604901Y-37485580D01*
X135604901Y-36485580D01*
X135938235Y-36485580D01*
X136033473Y-36533200D01*
X136081092Y-36580819D01*
X136128711Y-36676057D01*
X136128711Y-36771295D01*
X136081092Y-36866533D01*
X136033473Y-36914152D01*
X135938235Y-36961771D01*
X135604901Y-36961771D01*
X137081092Y-37485580D02*
X136604901Y-37485580D01*
X136604901Y-36485580D01*
X137414425Y-36961771D02*
X137747759Y-36961771D01*
X137890616Y-37485580D02*
X137414425Y-37485580D01*
X137414425Y-36485580D01*
X137890616Y-36485580D01*
D12*
X73142625Y-47855800D02*
X73142625Y-48355800D01*
X72892625Y-48105800D02*
X73392625Y-48105800D01*
X78298400Y-49296800D02*
X78298400Y-49864800D01*
X78258400Y-49062800D02*
X78258400Y-50098800D01*
X78218400Y-48903800D02*
X78218400Y-50257800D01*
X78178400Y-48775800D02*
X78178400Y-50385800D01*
X78138400Y-48665800D02*
X78138400Y-50495800D01*
X78098400Y-48569800D02*
X78098400Y-50591800D01*
X78058400Y-48482800D02*
X78058400Y-50678800D01*
X78018400Y-48402800D02*
X78018400Y-50758800D01*
X77978400Y-50620800D02*
X77978400Y-50831800D01*
X77978400Y-48329800D02*
X77978400Y-48540800D01*
X77938400Y-50620800D02*
X77938400Y-50899800D01*
X77938400Y-48261800D02*
X77938400Y-48540800D01*
X77898400Y-50620800D02*
X77898400Y-50963800D01*
X77898400Y-48197800D02*
X77898400Y-48540800D01*
X77858400Y-50620800D02*
X77858400Y-51023800D01*
X77858400Y-48137800D02*
X77858400Y-48540800D01*
X77818400Y-50620800D02*
X77818400Y-51080800D01*
X77818400Y-48080800D02*
X77818400Y-48540800D01*
X77778400Y-50620800D02*
X77778400Y-51134800D01*
X77778400Y-48026800D02*
X77778400Y-48540800D01*
X77738400Y-50620800D02*
X77738400Y-51185800D01*
X77738400Y-47975800D02*
X77738400Y-48540800D01*
X77698400Y-50620800D02*
X77698400Y-51233800D01*
X77698400Y-47927800D02*
X77698400Y-48540800D01*
X77658400Y-50620800D02*
X77658400Y-51279800D01*
X77658400Y-47881800D02*
X77658400Y-48540800D01*
X77618400Y-50620800D02*
X77618400Y-51323800D01*
X77618400Y-47837800D02*
X77618400Y-48540800D01*
X77578400Y-50620800D02*
X77578400Y-51365800D01*
X77578400Y-47795800D02*
X77578400Y-48540800D01*
X77538400Y-50620800D02*
X77538400Y-51406800D01*
X77538400Y-47754800D02*
X77538400Y-48540800D01*
X77498400Y-50620800D02*
X77498400Y-51444800D01*
X77498400Y-47716800D02*
X77498400Y-48540800D01*
X77458400Y-50620800D02*
X77458400Y-51481800D01*
X77458400Y-47679800D02*
X77458400Y-48540800D01*
X77418400Y-50620800D02*
X77418400Y-51517800D01*
X77418400Y-47643800D02*
X77418400Y-48540800D01*
X77378400Y-50620800D02*
X77378400Y-51551800D01*
X77378400Y-47609800D02*
X77378400Y-48540800D01*
X77338400Y-50620800D02*
X77338400Y-51584800D01*
X77338400Y-47576800D02*
X77338400Y-48540800D01*
X77298400Y-50620800D02*
X77298400Y-51615800D01*
X77298400Y-47545800D02*
X77298400Y-48540800D01*
X77258400Y-50620800D02*
X77258400Y-51645800D01*
X77258400Y-47515800D02*
X77258400Y-48540800D01*
X77218400Y-50620800D02*
X77218400Y-51675800D01*
X77218400Y-47485800D02*
X77218400Y-48540800D01*
X77178400Y-50620800D02*
X77178400Y-51702800D01*
X77178400Y-47458800D02*
X77178400Y-48540800D01*
X77138400Y-50620800D02*
X77138400Y-51729800D01*
X77138400Y-47431800D02*
X77138400Y-48540800D01*
X77098400Y-50620800D02*
X77098400Y-51755800D01*
X77098400Y-47405800D02*
X77098400Y-48540800D01*
X77058400Y-50620800D02*
X77058400Y-51780800D01*
X77058400Y-47380800D02*
X77058400Y-48540800D01*
X77018400Y-50620800D02*
X77018400Y-51804800D01*
X77018400Y-47356800D02*
X77018400Y-48540800D01*
X76978400Y-50620800D02*
X76978400Y-51827800D01*
X76978400Y-47333800D02*
X76978400Y-48540800D01*
X76938400Y-50620800D02*
X76938400Y-51848800D01*
X76938400Y-47312800D02*
X76938400Y-48540800D01*
X76898400Y-50620800D02*
X76898400Y-51870800D01*
X76898400Y-47290800D02*
X76898400Y-48540800D01*
X76858400Y-50620800D02*
X76858400Y-51890800D01*
X76858400Y-47270800D02*
X76858400Y-48540800D01*
X76818400Y-50620800D02*
X76818400Y-51909800D01*
X76818400Y-47251800D02*
X76818400Y-48540800D01*
X76778400Y-50620800D02*
X76778400Y-51928800D01*
X76778400Y-47232800D02*
X76778400Y-48540800D01*
X76738400Y-50620800D02*
X76738400Y-51945800D01*
X76738400Y-47215800D02*
X76738400Y-48540800D01*
X76698400Y-50620800D02*
X76698400Y-51962800D01*
X76698400Y-47198800D02*
X76698400Y-48540800D01*
X76658400Y-50620800D02*
X76658400Y-51978800D01*
X76658400Y-47182800D02*
X76658400Y-48540800D01*
X76618400Y-50620800D02*
X76618400Y-51994800D01*
X76618400Y-47166800D02*
X76618400Y-48540800D01*
X76578400Y-50620800D02*
X76578400Y-52008800D01*
X76578400Y-47152800D02*
X76578400Y-48540800D01*
X76538400Y-50620800D02*
X76538400Y-52022800D01*
X76538400Y-47138800D02*
X76538400Y-48540800D01*
X76498400Y-50620800D02*
X76498400Y-52035800D01*
X76498400Y-47125800D02*
X76498400Y-48540800D01*
X76458400Y-50620800D02*
X76458400Y-52048800D01*
X76458400Y-47112800D02*
X76458400Y-48540800D01*
X76418400Y-50620800D02*
X76418400Y-52060800D01*
X76418400Y-47100800D02*
X76418400Y-48540800D01*
X76377400Y-50620800D02*
X76377400Y-52071800D01*
X76377400Y-47089800D02*
X76377400Y-48540800D01*
X76337400Y-50620800D02*
X76337400Y-52081800D01*
X76337400Y-47079800D02*
X76337400Y-48540800D01*
X76297400Y-50620800D02*
X76297400Y-52091800D01*
X76297400Y-47069800D02*
X76297400Y-48540800D01*
X76257400Y-50620800D02*
X76257400Y-52100800D01*
X76257400Y-47060800D02*
X76257400Y-48540800D01*
X76217400Y-50620800D02*
X76217400Y-52108800D01*
X76217400Y-47052800D02*
X76217400Y-48540800D01*
X76177400Y-50620800D02*
X76177400Y-52116800D01*
X76177400Y-47044800D02*
X76177400Y-48540800D01*
X76137400Y-50620800D02*
X76137400Y-52123800D01*
X76137400Y-47037800D02*
X76137400Y-48540800D01*
X76097400Y-50620800D02*
X76097400Y-52130800D01*
X76097400Y-47030800D02*
X76097400Y-48540800D01*
X76057400Y-50620800D02*
X76057400Y-52136800D01*
X76057400Y-47024800D02*
X76057400Y-48540800D01*
X76017400Y-50620800D02*
X76017400Y-52141800D01*
X76017400Y-47019800D02*
X76017400Y-48540800D01*
X75977400Y-50620800D02*
X75977400Y-52145800D01*
X75977400Y-47015800D02*
X75977400Y-48540800D01*
X75937400Y-50620800D02*
X75937400Y-52149800D01*
X75937400Y-47011800D02*
X75937400Y-48540800D01*
X75897400Y-47007800D02*
X75897400Y-52153800D01*
X75857400Y-47004800D02*
X75857400Y-52156800D01*
X75817400Y-47002800D02*
X75817400Y-52158800D01*
X75777400Y-47001800D02*
X75777400Y-52159800D01*
X75737400Y-47000800D02*
X75737400Y-52160800D01*
X75697400Y-47000800D02*
X75697400Y-52160800D01*
X78317400Y-49580800D02*
G75*
G03X78317400Y-49580800I-2620000J0D01*
G01*
D10*
X160888680Y-65760700D02*
X160888680Y-80060700D01*
X136088680Y-65760700D02*
X160888680Y-65760700D01*
X136088680Y-80060700D02*
X136088680Y-65760700D01*
X160888680Y-80060700D02*
X136088680Y-80060700D01*
X142888680Y-78910700D02*
X142888680Y-66910700D01*
D12*
X166972064Y-47680200D02*
X165767936Y-47680200D01*
X166972064Y-49500200D02*
X165767936Y-49500200D01*
X158662000Y-39966000D02*
X147812000Y-39966000D01*
X158662000Y-63666000D02*
X158662000Y-39966000D01*
X134962000Y-63666000D02*
X158662000Y-63666000D01*
X134962000Y-40966000D02*
X134962000Y-63666000D01*
X135962000Y-39966000D02*
X134962000Y-40966000D01*
X145812000Y-39966000D02*
X135962000Y-39966000D01*
D10*
X84828260Y-81861620D02*
X141328260Y-81861620D01*
D12*
X91886300Y-34650200D02*
X87695300Y-34650200D01*
X86586300Y-34220200D02*
X86525100Y-34213800D01*
X85864700Y-34213800D02*
X86586300Y-34220200D01*
X85866300Y-24866600D02*
X85864700Y-34213800D01*
X93687900Y-24866600D02*
X93687900Y-24866600D01*
X92966300Y-34220200D02*
X92925900Y-34213800D01*
X93687900Y-34213800D02*
X92966300Y-34220200D01*
X93687900Y-24866600D02*
X93687900Y-34213800D01*
X87695300Y-34220200D02*
X87695300Y-34650200D01*
X85866300Y-24866600D02*
X93686300Y-24866600D01*
X87666300Y-34220200D02*
X86586300Y-34220200D01*
X92966300Y-34220200D02*
X91886300Y-34220200D01*
X91886300Y-34220200D02*
X91886300Y-34650200D01*
X85027460Y-89584220D02*
X86357460Y-89584220D01*
X85027460Y-90914220D02*
X85027460Y-89584220D01*
X85027460Y-92184220D02*
X87687460Y-92184220D01*
X87687460Y-92184220D02*
X87687460Y-94784220D01*
X85027460Y-92184220D02*
X85027460Y-94784220D01*
X85027460Y-94784220D02*
X87687460Y-94784220D01*
X81865160Y-27864760D02*
X83195160Y-27864760D01*
X81865160Y-29194760D02*
X81865160Y-27864760D01*
X81865160Y-30464760D02*
X84525160Y-30464760D01*
X84525160Y-30464760D02*
X84525160Y-35604760D01*
X81865160Y-30464760D02*
X81865160Y-35604760D01*
X81865160Y-35604760D02*
X84525160Y-35604760D01*
X136725576Y-30876920D02*
X137929704Y-30876920D01*
X136725576Y-29056920D02*
X137929704Y-29056920D01*
X96511700Y-30774556D02*
X96511700Y-31978684D01*
X98331700Y-30774556D02*
X98331700Y-31978684D01*
X99831720Y-30965640D02*
X99831720Y-31121640D01*
X99831720Y-28649640D02*
X99831720Y-28805640D01*
X102432850Y-30965477D02*
G75*
G02X100350759Y-30965640I-1041130J1079837D01*
G01*
X102432850Y-28805803D02*
G75*
G03X100350759Y-28805640I-1041130J-1079837D01*
G01*
X103064055Y-30964248D02*
G75*
G02X99831720Y-31121156I-1672335J1078608D01*
G01*
X103064055Y-28807032D02*
G75*
G03X99831720Y-28650124I-1672335J-1078608D01*
G01*
X78953444Y-53359640D02*
X77749316Y-53359640D01*
X78953444Y-55179640D02*
X77749316Y-55179640D01*
X154003280Y-85908000D02*
X152543280Y-85908000D01*
X154003280Y-82748000D02*
X151843280Y-82748000D01*
X154003280Y-82748000D02*
X154003280Y-83678000D01*
X154003280Y-85908000D02*
X154003280Y-84978000D01*
X154049000Y-91056580D02*
X152589000Y-91056580D01*
X154049000Y-87896580D02*
X151889000Y-87896580D01*
X154049000Y-87896580D02*
X154049000Y-88826580D01*
X154049000Y-91056580D02*
X154049000Y-90126580D01*
X87513076Y-74242340D02*
X88717204Y-74242340D01*
X87513076Y-72422340D02*
X88717204Y-72422340D01*
X105467200Y-43067000D02*
X97342200Y-43067000D01*
X105467200Y-63867000D02*
X105467200Y-43067000D01*
X87217200Y-63867000D02*
X105467200Y-63867000D01*
X87217200Y-44067000D02*
X87217200Y-63867000D01*
X88217200Y-43067000D02*
X87217200Y-44067000D01*
X95342200Y-43067000D02*
X88217200Y-43067000D01*
X111851380Y-39718620D02*
X108831380Y-39718620D01*
X108831380Y-60318620D02*
X124071380Y-60318620D01*
X111851380Y-39518620D02*
X124071380Y-39518620D01*
X111851380Y-39518620D02*
X111851380Y-39718620D01*
X113467680Y-67501840D02*
X111652680Y-67501840D01*
X113467680Y-67266840D02*
X113467680Y-67501840D01*
X117327680Y-67266840D02*
X113467680Y-67266840D01*
X121187680Y-67266840D02*
X121187680Y-67501840D01*
X117327680Y-67266840D02*
X121187680Y-67266840D01*
X113467680Y-80286840D02*
X113467680Y-80051840D01*
X117327680Y-80286840D02*
X113467680Y-80286840D01*
X121187680Y-80286840D02*
X121187680Y-80051840D01*
X117327680Y-80286840D02*
X121187680Y-80286840D01*
X152878200Y-76421064D02*
X152878200Y-75216936D01*
X151058200Y-76421064D02*
X151058200Y-75216936D01*
X152865500Y-70741624D02*
X152865500Y-69537496D01*
X151045500Y-70741624D02*
X151045500Y-69537496D01*
X149220600Y-76375344D02*
X149220600Y-75171216D01*
X147400600Y-76375344D02*
X147400600Y-75171216D01*
X149212980Y-70740684D02*
X149212980Y-69536556D01*
X147392980Y-70740684D02*
X147392980Y-69536556D01*
X124456436Y-35225400D02*
X125660564Y-35225400D01*
X124456436Y-33405400D02*
X125660564Y-33405400D01*
X118630616Y-35266040D02*
X119834744Y-35266040D01*
X118630616Y-33446040D02*
X119834744Y-33446040D01*
X112595576Y-35225400D02*
X113799704Y-35225400D01*
X112595576Y-33405400D02*
X113799704Y-33405400D01*
X106535136Y-35159360D02*
X107739264Y-35159360D01*
X106535136Y-33339360D02*
X107739264Y-33339360D01*
X133889160Y-58148304D02*
X133889160Y-56944176D01*
X132069160Y-58148304D02*
X132069160Y-56944176D01*
X132086940Y-51480636D02*
X132086940Y-52684764D01*
X133906940Y-51480636D02*
X133906940Y-52684764D01*
X80423340Y-91769176D02*
X80423340Y-92973304D01*
X82243340Y-91769176D02*
X82243340Y-92973304D01*
X146296464Y-82483280D02*
X145092336Y-82483280D01*
X146296464Y-84303280D02*
X145092336Y-84303280D01*
X146271064Y-87601380D02*
X145066936Y-87601380D01*
X146271064Y-89421380D02*
X145066936Y-89421380D01*
X87513076Y-71900460D02*
X88717204Y-71900460D01*
X87513076Y-70080460D02*
X88717204Y-70080460D01*
X134133900Y-33153040D02*
X134133900Y-34483040D01*
X132803900Y-33153040D02*
X134133900Y-33153040D01*
X131533900Y-33153040D02*
X131533900Y-35813040D01*
X131533900Y-35813040D02*
X128933900Y-35813040D01*
X131533900Y-33153040D02*
X128933900Y-33153040D01*
X128933900Y-33153040D02*
X128933900Y-35813040D01*
X140800780Y-34753860D02*
X140800780Y-33423860D01*
X142130780Y-34753860D02*
X140800780Y-34753860D01*
X140800780Y-32153860D02*
X140800780Y-29553860D01*
X143400780Y-32153860D02*
X140800780Y-32153860D01*
X143400780Y-34753860D02*
X143400780Y-32153860D01*
X140800780Y-29553860D02*
X153620780Y-29553860D01*
X143400780Y-34753860D02*
X153620780Y-34753860D01*
X153620780Y-34753860D02*
X153620780Y-29553860D01*
X85134760Y-86099960D02*
X83804760Y-86099960D01*
X85134760Y-84769960D02*
X85134760Y-86099960D01*
X85134760Y-83499960D02*
X82474760Y-83499960D01*
X82474760Y-83499960D02*
X82474760Y-70739960D01*
X85134760Y-83499960D02*
X85134760Y-70739960D01*
X85134760Y-70739960D02*
X82474760Y-70739960D01*
X164963800Y-75139240D02*
X166293800Y-75139240D01*
X164963800Y-76469240D02*
X164963800Y-75139240D01*
X164963800Y-77739240D02*
X167623800Y-77739240D01*
X167623800Y-77739240D02*
X167623800Y-82879240D01*
X164963800Y-77739240D02*
X164963800Y-82879240D01*
X164963800Y-82879240D02*
X167623800Y-82879240D01*
X164963800Y-64928440D02*
X166293800Y-64928440D01*
X164963800Y-66258440D02*
X164963800Y-64928440D01*
X164963800Y-67528440D02*
X167623800Y-67528440D01*
X167623800Y-67528440D02*
X167623800Y-72668440D01*
X164963800Y-67528440D02*
X164963800Y-72668440D01*
X164963800Y-72668440D02*
X167623800Y-72668440D01*
X130067880Y-30965640D02*
X130067880Y-31121640D01*
X130067880Y-28649640D02*
X130067880Y-28805640D01*
X132669010Y-30965477D02*
G75*
G02X130586919Y-30965640I-1041130J1079837D01*
G01*
X132669010Y-28805803D02*
G75*
G03X130586919Y-28805640I-1041130J-1079837D01*
G01*
X133300215Y-30964248D02*
G75*
G02X130067880Y-31121156I-1672335J1078608D01*
G01*
X133300215Y-28807032D02*
G75*
G03X130067880Y-28650124I-1672335J-1078608D01*
G01*
X123717880Y-30965640D02*
X123717880Y-31121640D01*
X123717880Y-28649640D02*
X123717880Y-28805640D01*
X126319010Y-30965477D02*
G75*
G02X124236919Y-30965640I-1041130J1079837D01*
G01*
X126319010Y-28805803D02*
G75*
G03X124236919Y-28805640I-1041130J-1079837D01*
G01*
X126950215Y-30964248D02*
G75*
G02X123717880Y-31121156I-1672335J1078608D01*
G01*
X126950215Y-28807032D02*
G75*
G03X123717880Y-28650124I-1672335J-1078608D01*
G01*
X117875880Y-30965640D02*
X117875880Y-31121640D01*
X117875880Y-28649640D02*
X117875880Y-28805640D01*
X120477010Y-30965477D02*
G75*
G02X118394919Y-30965640I-1041130J1079837D01*
G01*
X120477010Y-28805803D02*
G75*
G03X118394919Y-28805640I-1041130J-1079837D01*
G01*
X121108215Y-30964248D02*
G75*
G02X117875880Y-31121156I-1672335J1078608D01*
G01*
X121108215Y-28807032D02*
G75*
G03X117875880Y-28650124I-1672335J-1078608D01*
G01*
X111856080Y-30935160D02*
X111856080Y-31091160D01*
X111856080Y-28619160D02*
X111856080Y-28775160D01*
X114457210Y-30934997D02*
G75*
G02X112375119Y-30935160I-1041130J1079837D01*
G01*
X114457210Y-28775323D02*
G75*
G03X112375119Y-28775160I-1041130J-1079837D01*
G01*
X115088415Y-30933768D02*
G75*
G02X111856080Y-31090676I-1672335J1078608D01*
G01*
X115088415Y-28776552D02*
G75*
G03X111856080Y-28619644I-1672335J-1078608D01*
G01*
X105760080Y-30935160D02*
X105760080Y-31091160D01*
X105760080Y-28619160D02*
X105760080Y-28775160D01*
X108361210Y-30934997D02*
G75*
G02X106279119Y-30935160I-1041130J1079837D01*
G01*
X108361210Y-28775323D02*
G75*
G03X106279119Y-28775160I-1041130J-1079837D01*
G01*
X108992415Y-30933768D02*
G75*
G02X105760080Y-31090676I-1672335J1078608D01*
G01*
X108992415Y-28776552D02*
G75*
G03X105760080Y-28619644I-1672335J-1078608D01*
G01*
X95763164Y-69341320D02*
X94559036Y-69341320D01*
X95763164Y-71161320D02*
X94559036Y-71161320D01*
X95481056Y-88570480D02*
X96685184Y-88570480D01*
X95481056Y-86750480D02*
X96685184Y-86750480D01*
X107931540Y-82270516D02*
X107931540Y-83474644D01*
X109751540Y-82270516D02*
X109751540Y-83474644D01*
X148986156Y-38321660D02*
X150190284Y-38321660D01*
X148986156Y-36501660D02*
X150190284Y-36501660D01*
X100256424Y-39249940D02*
X99052296Y-39249940D01*
X100256424Y-41069940D02*
X99052296Y-41069940D01*
X159910100Y-53946976D02*
X159910100Y-55151104D01*
X161730100Y-53946976D02*
X161730100Y-55151104D01*
X126911016Y-68349540D02*
X128115144Y-68349540D01*
X126911016Y-66529540D02*
X128115144Y-66529540D01*
X128064176Y-41486500D02*
X129268304Y-41486500D01*
X128064176Y-39666500D02*
X129268304Y-39666500D01*
X166972064Y-38208540D02*
X165767936Y-38208540D01*
X166972064Y-40028540D02*
X165767936Y-40028540D01*
X166972064Y-58420680D02*
X165767936Y-58420680D01*
X166972064Y-56600680D02*
X165767936Y-56600680D01*
X166972064Y-53618720D02*
X165767936Y-53618720D01*
X166972064Y-55438720D02*
X165767936Y-55438720D01*
X166972064Y-61494080D02*
X165767936Y-61494080D01*
X166972064Y-59674080D02*
X165767936Y-59674080D01*
X166974604Y-52616780D02*
X165770476Y-52616780D01*
X166974604Y-50796780D02*
X165770476Y-50796780D01*
X166972064Y-44558540D02*
X165767936Y-44558540D01*
X166972064Y-46378540D02*
X165767936Y-46378540D01*
X166972064Y-43203540D02*
X165767936Y-43203540D01*
X166972064Y-41383540D02*
X165767936Y-41383540D01*
D10*
X92391480Y-73994260D02*
X92391480Y-74569260D01*
X102741480Y-73994260D02*
X102741480Y-74669260D01*
X102741480Y-84344260D02*
X102741480Y-83669260D01*
X92391480Y-84344260D02*
X92391480Y-83669260D01*
X92391480Y-73994260D02*
X93066480Y-73994260D01*
X92391480Y-84344260D02*
X93066480Y-84344260D01*
X102741480Y-84344260D02*
X102066480Y-84344260D01*
X102741480Y-73994260D02*
X102066480Y-73994260D01*
X92391480Y-74569260D02*
X91116480Y-74569260D01*
D12*
X73511360Y-63609140D02*
X74771360Y-63609140D01*
X80331360Y-63609140D02*
X79071360Y-63609140D01*
X73511360Y-59849140D02*
X73511360Y-63609140D01*
X80331360Y-57599140D02*
X80331360Y-63609140D01*
D10*
X75530733Y-46187942D02*
X75483114Y-46235561D01*
X75340257Y-46283180D01*
X75245019Y-46283180D01*
X75102161Y-46235561D01*
X75006923Y-46140323D01*
X74959304Y-46045085D01*
X74911685Y-45854609D01*
X74911685Y-45711752D01*
X74959304Y-45521276D01*
X75006923Y-45426038D01*
X75102161Y-45330800D01*
X75245019Y-45283180D01*
X75340257Y-45283180D01*
X75483114Y-45330800D01*
X75530733Y-45378419D01*
X75864066Y-45283180D02*
X76530733Y-45283180D01*
X76102161Y-46283180D01*
X147341060Y-73244033D02*
X148055346Y-73244033D01*
X148198203Y-73291652D01*
X148293441Y-73386890D01*
X148341060Y-73529747D01*
X148341060Y-73624985D01*
X147341060Y-72863080D02*
X147341060Y-72196414D01*
X148341060Y-72624985D01*
X155147971Y-77544346D02*
X155147971Y-77211013D01*
X155671780Y-77068156D02*
X155671780Y-77544346D01*
X154671780Y-77544346D01*
X154671780Y-77068156D01*
X155624161Y-76687203D02*
X155671780Y-76544346D01*
X155671780Y-76306251D01*
X155624161Y-76211013D01*
X155576542Y-76163394D01*
X155481304Y-76115775D01*
X155386066Y-76115775D01*
X155290828Y-76163394D01*
X155243209Y-76211013D01*
X155195590Y-76306251D01*
X155147971Y-76496727D01*
X155100352Y-76591965D01*
X155052733Y-76639584D01*
X154957495Y-76687203D01*
X154862257Y-76687203D01*
X154767019Y-76639584D01*
X154719400Y-76591965D01*
X154671780Y-76496727D01*
X154671780Y-76258632D01*
X154719400Y-76115775D01*
X155671780Y-75687203D02*
X154671780Y-75687203D01*
X154671780Y-75306251D01*
X154719400Y-75211013D01*
X154767019Y-75163394D01*
X154862257Y-75115775D01*
X155005114Y-75115775D01*
X155100352Y-75163394D01*
X155147971Y-75211013D01*
X155195590Y-75306251D01*
X155195590Y-75687203D01*
X155100352Y-74544346D02*
X155052733Y-74639584D01*
X155005114Y-74687203D01*
X154909876Y-74734822D01*
X154862257Y-74734822D01*
X154767019Y-74687203D01*
X154719400Y-74639584D01*
X154671780Y-74544346D01*
X154671780Y-74353870D01*
X154719400Y-74258632D01*
X154767019Y-74211013D01*
X154862257Y-74163394D01*
X154909876Y-74163394D01*
X155005114Y-74211013D01*
X155052733Y-74258632D01*
X155100352Y-74353870D01*
X155100352Y-74544346D01*
X155147971Y-74639584D01*
X155195590Y-74687203D01*
X155290828Y-74734822D01*
X155481304Y-74734822D01*
X155576542Y-74687203D01*
X155624161Y-74639584D01*
X155671780Y-74544346D01*
X155671780Y-74353870D01*
X155624161Y-74258632D01*
X155576542Y-74211013D01*
X155481304Y-74163394D01*
X155290828Y-74163394D01*
X155195590Y-74211013D01*
X155147971Y-74258632D01*
X155100352Y-74353870D01*
X154767019Y-73782441D02*
X154719400Y-73734822D01*
X154671780Y-73639584D01*
X154671780Y-73401489D01*
X154719400Y-73306251D01*
X154767019Y-73258632D01*
X154862257Y-73211013D01*
X154957495Y-73211013D01*
X155100352Y-73258632D01*
X155671780Y-73830060D01*
X155671780Y-73211013D01*
X154671780Y-72353870D02*
X154671780Y-72544346D01*
X154719400Y-72639584D01*
X154767019Y-72687203D01*
X154909876Y-72782441D01*
X155100352Y-72830060D01*
X155481304Y-72830060D01*
X155576542Y-72782441D01*
X155624161Y-72734822D01*
X155671780Y-72639584D01*
X155671780Y-72449108D01*
X155624161Y-72353870D01*
X155576542Y-72306251D01*
X155481304Y-72258632D01*
X155243209Y-72258632D01*
X155147971Y-72306251D01*
X155100352Y-72353870D01*
X155052733Y-72449108D01*
X155052733Y-72639584D01*
X155100352Y-72734822D01*
X155147971Y-72782441D01*
X155243209Y-72830060D01*
X154671780Y-71401489D02*
X154671780Y-71591965D01*
X154719400Y-71687203D01*
X154767019Y-71734822D01*
X154909876Y-71830060D01*
X155100352Y-71877680D01*
X155481304Y-71877680D01*
X155576542Y-71830060D01*
X155624161Y-71782441D01*
X155671780Y-71687203D01*
X155671780Y-71496727D01*
X155624161Y-71401489D01*
X155576542Y-71353870D01*
X155481304Y-71306251D01*
X155243209Y-71306251D01*
X155147971Y-71353870D01*
X155100352Y-71401489D01*
X155052733Y-71496727D01*
X155052733Y-71687203D01*
X155100352Y-71782441D01*
X155147971Y-71830060D01*
X155243209Y-71877680D01*
X155290828Y-70877680D02*
X155290828Y-70115775D01*
X154671780Y-69449108D02*
X154671780Y-69353870D01*
X154719400Y-69258632D01*
X154767019Y-69211013D01*
X154862257Y-69163394D01*
X155052733Y-69115775D01*
X155290828Y-69115775D01*
X155481304Y-69163394D01*
X155576542Y-69211013D01*
X155624161Y-69258632D01*
X155671780Y-69353870D01*
X155671780Y-69449108D01*
X155624161Y-69544346D01*
X155576542Y-69591965D01*
X155481304Y-69639584D01*
X155290828Y-69687203D01*
X155052733Y-69687203D01*
X154862257Y-69639584D01*
X154767019Y-69591965D01*
X154719400Y-69544346D01*
X154671780Y-69449108D01*
X155671780Y-68163394D02*
X155671780Y-68734822D01*
X155671780Y-68449108D02*
X154671780Y-68449108D01*
X154814638Y-68544346D01*
X154909876Y-68639584D01*
X154957495Y-68734822D01*
X163647380Y-49334657D02*
X163171190Y-49667990D01*
X163647380Y-49906085D02*
X162647380Y-49906085D01*
X162647380Y-49525133D01*
X162695000Y-49429895D01*
X162742619Y-49382276D01*
X162837857Y-49334657D01*
X162980714Y-49334657D01*
X163075952Y-49382276D01*
X163123571Y-49429895D01*
X163171190Y-49525133D01*
X163171190Y-49906085D01*
X162742619Y-48953704D02*
X162695000Y-48906085D01*
X162647380Y-48810847D01*
X162647380Y-48572752D01*
X162695000Y-48477514D01*
X162742619Y-48429895D01*
X162837857Y-48382276D01*
X162933095Y-48382276D01*
X163075952Y-48429895D01*
X163647380Y-49001323D01*
X163647380Y-48382276D01*
X162742619Y-48001323D02*
X162695000Y-47953704D01*
X162647380Y-47858466D01*
X162647380Y-47620371D01*
X162695000Y-47525133D01*
X162742619Y-47477514D01*
X162837857Y-47429895D01*
X162933095Y-47429895D01*
X163075952Y-47477514D01*
X163647380Y-48048942D01*
X163647380Y-47429895D01*
X157243875Y-37989260D02*
X157243875Y-38798784D01*
X157291494Y-38894022D01*
X157339113Y-38941641D01*
X157434351Y-38989260D01*
X157624827Y-38989260D01*
X157720065Y-38941641D01*
X157767684Y-38894022D01*
X157815303Y-38798784D01*
X157815303Y-37989260D01*
X158243875Y-38084499D02*
X158291494Y-38036880D01*
X158386732Y-37989260D01*
X158624827Y-37989260D01*
X158720065Y-38036880D01*
X158767684Y-38084499D01*
X158815303Y-38179737D01*
X158815303Y-38274975D01*
X158767684Y-38417832D01*
X158196256Y-38989260D01*
X158815303Y-38989260D01*
X137936646Y-94682060D02*
X137936646Y-95396346D01*
X137889027Y-95539203D01*
X137793789Y-95634441D01*
X137650932Y-95682060D01*
X137555694Y-95682060D01*
X138317599Y-94682060D02*
X138936646Y-94682060D01*
X138603313Y-95063013D01*
X138746170Y-95063013D01*
X138841408Y-95110632D01*
X138889027Y-95158251D01*
X138936646Y-95253489D01*
X138936646Y-95491584D01*
X138889027Y-95586822D01*
X138841408Y-95634441D01*
X138746170Y-95682060D01*
X138460456Y-95682060D01*
X138365218Y-95634441D01*
X138317599Y-95586822D01*
X89569966Y-22896580D02*
X89569966Y-23610866D01*
X89522347Y-23753723D01*
X89427109Y-23848961D01*
X89284252Y-23896580D01*
X89189014Y-23896580D01*
X90474728Y-23229914D02*
X90474728Y-23896580D01*
X90236633Y-22848961D02*
X89998538Y-23563247D01*
X90617585Y-23563247D01*
X85547936Y-88036600D02*
X85547936Y-88750886D01*
X85500317Y-88893743D01*
X85405079Y-88988981D01*
X85262221Y-89036600D01*
X85166983Y-89036600D01*
X86547936Y-89036600D02*
X85976507Y-89036600D01*
X86262221Y-89036600D02*
X86262221Y-88036600D01*
X86166983Y-88179458D01*
X86071745Y-88274696D01*
X85976507Y-88322315D01*
X87166983Y-88036600D02*
X87262221Y-88036600D01*
X87357460Y-88084220D01*
X87405079Y-88131839D01*
X87452698Y-88227077D01*
X87500317Y-88417553D01*
X87500317Y-88655648D01*
X87452698Y-88846124D01*
X87405079Y-88941362D01*
X87357460Y-88988981D01*
X87262221Y-89036600D01*
X87166983Y-89036600D01*
X87071745Y-88988981D01*
X87024126Y-88941362D01*
X86976507Y-88846124D01*
X86928888Y-88655648D01*
X86928888Y-88417553D01*
X86976507Y-88227077D01*
X87024126Y-88131839D01*
X87071745Y-88084220D01*
X87166983Y-88036600D01*
X82861826Y-26317140D02*
X82861826Y-27031426D01*
X82814207Y-27174283D01*
X82718969Y-27269521D01*
X82576112Y-27317140D01*
X82480874Y-27317140D01*
X83766588Y-26317140D02*
X83576112Y-26317140D01*
X83480874Y-26364760D01*
X83433255Y-26412379D01*
X83338017Y-26555236D01*
X83290398Y-26745712D01*
X83290398Y-27126664D01*
X83338017Y-27221902D01*
X83385636Y-27269521D01*
X83480874Y-27317140D01*
X83671350Y-27317140D01*
X83766588Y-27269521D01*
X83814207Y-27221902D01*
X83861826Y-27126664D01*
X83861826Y-26888569D01*
X83814207Y-26793331D01*
X83766588Y-26745712D01*
X83671350Y-26698093D01*
X83480874Y-26698093D01*
X83385636Y-26745712D01*
X83338017Y-26793331D01*
X83290398Y-26888569D01*
X136684782Y-28599300D02*
X136351449Y-28123110D01*
X136113354Y-28599300D02*
X136113354Y-27599300D01*
X136494306Y-27599300D01*
X136589544Y-27646920D01*
X136637163Y-27694539D01*
X136684782Y-27789777D01*
X136684782Y-27932634D01*
X136637163Y-28027872D01*
X136589544Y-28075491D01*
X136494306Y-28123110D01*
X136113354Y-28123110D01*
X137637163Y-28599300D02*
X137065735Y-28599300D01*
X137351449Y-28599300D02*
X137351449Y-27599300D01*
X137256211Y-27742158D01*
X137160973Y-27837396D01*
X137065735Y-27885015D01*
X138208592Y-28027872D02*
X138113354Y-27980253D01*
X138065735Y-27932634D01*
X138018116Y-27837396D01*
X138018116Y-27789777D01*
X138065735Y-27694539D01*
X138113354Y-27646920D01*
X138208592Y-27599300D01*
X138399068Y-27599300D01*
X138494306Y-27646920D01*
X138541925Y-27694539D01*
X138589544Y-27789777D01*
X138589544Y-27837396D01*
X138541925Y-27932634D01*
X138494306Y-27980253D01*
X138399068Y-28027872D01*
X138208592Y-28027872D01*
X138113354Y-28075491D01*
X138065735Y-28123110D01*
X138018116Y-28218348D01*
X138018116Y-28408824D01*
X138065735Y-28504062D01*
X138113354Y-28551681D01*
X138208592Y-28599300D01*
X138399068Y-28599300D01*
X138494306Y-28551681D01*
X138541925Y-28504062D01*
X138589544Y-28408824D01*
X138589544Y-28218348D01*
X138541925Y-28123110D01*
X138494306Y-28075491D01*
X138399068Y-28027872D01*
X96842342Y-34976060D02*
X96509009Y-34499870D01*
X96270914Y-34976060D02*
X96270914Y-33976060D01*
X96651866Y-33976060D01*
X96747104Y-34023680D01*
X96794723Y-34071299D01*
X96842342Y-34166537D01*
X96842342Y-34309394D01*
X96794723Y-34404632D01*
X96747104Y-34452251D01*
X96651866Y-34499870D01*
X96270914Y-34499870D01*
X97794723Y-34976060D02*
X97223295Y-34976060D01*
X97509009Y-34976060D02*
X97509009Y-33976060D01*
X97413771Y-34118918D01*
X97318533Y-34214156D01*
X97223295Y-34261775D01*
X98128057Y-33976060D02*
X98794723Y-33976060D01*
X98366152Y-34976060D01*
X99038184Y-32911040D02*
X99038184Y-31911040D01*
X99276280Y-31911040D01*
X99419137Y-31958660D01*
X99514375Y-32053898D01*
X99561994Y-32149136D01*
X99609613Y-32339612D01*
X99609613Y-32482469D01*
X99561994Y-32672945D01*
X99514375Y-32768183D01*
X99419137Y-32863421D01*
X99276280Y-32911040D01*
X99038184Y-32911040D01*
X100466756Y-31911040D02*
X100276280Y-31911040D01*
X100181041Y-31958660D01*
X100133422Y-32006279D01*
X100038184Y-32149136D01*
X99990565Y-32339612D01*
X99990565Y-32720564D01*
X100038184Y-32815802D01*
X100085803Y-32863421D01*
X100181041Y-32911040D01*
X100371518Y-32911040D01*
X100466756Y-32863421D01*
X100514375Y-32815802D01*
X100561994Y-32720564D01*
X100561994Y-32482469D01*
X100514375Y-32387231D01*
X100466756Y-32339612D01*
X100371518Y-32291993D01*
X100181041Y-32291993D01*
X100085803Y-32339612D01*
X100038184Y-32387231D01*
X99990565Y-32482469D01*
X79548693Y-52340782D02*
X79501074Y-52388401D01*
X79358217Y-52436020D01*
X79262979Y-52436020D01*
X79120121Y-52388401D01*
X79024883Y-52293163D01*
X78977264Y-52197925D01*
X78929645Y-52007449D01*
X78929645Y-51864592D01*
X78977264Y-51674116D01*
X79024883Y-51578878D01*
X79120121Y-51483640D01*
X79262979Y-51436020D01*
X79358217Y-51436020D01*
X79501074Y-51483640D01*
X79548693Y-51531259D01*
X80405836Y-51436020D02*
X80215360Y-51436020D01*
X80120121Y-51483640D01*
X80072502Y-51531259D01*
X79977264Y-51674116D01*
X79929645Y-51864592D01*
X79929645Y-52245544D01*
X79977264Y-52340782D01*
X80024883Y-52388401D01*
X80120121Y-52436020D01*
X80310598Y-52436020D01*
X80405836Y-52388401D01*
X80453455Y-52340782D01*
X80501074Y-52245544D01*
X80501074Y-52007449D01*
X80453455Y-51912211D01*
X80405836Y-51864592D01*
X80310598Y-51816973D01*
X80120121Y-51816973D01*
X80024883Y-51864592D01*
X79977264Y-51912211D01*
X79929645Y-52007449D01*
X150295621Y-85000079D02*
X150200383Y-84952460D01*
X150105145Y-84857221D01*
X149962288Y-84714364D01*
X149867050Y-84666745D01*
X149771812Y-84666745D01*
X149819431Y-84904840D02*
X149724193Y-84857221D01*
X149628955Y-84761983D01*
X149581336Y-84571507D01*
X149581336Y-84238174D01*
X149628955Y-84047698D01*
X149724193Y-83952460D01*
X149819431Y-83904840D01*
X150009907Y-83904840D01*
X150105145Y-83952460D01*
X150200383Y-84047698D01*
X150248002Y-84238174D01*
X150248002Y-84571507D01*
X150200383Y-84761983D01*
X150105145Y-84857221D01*
X150009907Y-84904840D01*
X149819431Y-84904840D01*
X150628955Y-84000079D02*
X150676574Y-83952460D01*
X150771812Y-83904840D01*
X151009907Y-83904840D01*
X151105145Y-83952460D01*
X151152764Y-84000079D01*
X151200383Y-84095317D01*
X151200383Y-84190555D01*
X151152764Y-84333412D01*
X150581336Y-84904840D01*
X151200383Y-84904840D01*
X150295621Y-90024199D02*
X150200383Y-89976580D01*
X150105145Y-89881341D01*
X149962288Y-89738484D01*
X149867050Y-89690865D01*
X149771812Y-89690865D01*
X149819431Y-89928960D02*
X149724193Y-89881341D01*
X149628955Y-89786103D01*
X149581336Y-89595627D01*
X149581336Y-89262294D01*
X149628955Y-89071818D01*
X149724193Y-88976580D01*
X149819431Y-88928960D01*
X150009907Y-88928960D01*
X150105145Y-88976580D01*
X150200383Y-89071818D01*
X150248002Y-89262294D01*
X150248002Y-89595627D01*
X150200383Y-89786103D01*
X150105145Y-89881341D01*
X150009907Y-89928960D01*
X149819431Y-89928960D01*
X151200383Y-89928960D02*
X150628955Y-89928960D01*
X150914669Y-89928960D02*
X150914669Y-88928960D01*
X150819431Y-89071818D01*
X150724193Y-89167056D01*
X150628955Y-89214675D01*
X86919060Y-76860637D02*
X86442870Y-77193970D01*
X86919060Y-77432065D02*
X85919060Y-77432065D01*
X85919060Y-77051113D01*
X85966680Y-76955875D01*
X86014299Y-76908256D01*
X86109537Y-76860637D01*
X86252394Y-76860637D01*
X86347632Y-76908256D01*
X86395251Y-76955875D01*
X86442870Y-77051113D01*
X86442870Y-77432065D01*
X86919060Y-75908256D02*
X86919060Y-76479684D01*
X86919060Y-76193970D02*
X85919060Y-76193970D01*
X86061918Y-76289208D01*
X86157156Y-76384446D01*
X86204775Y-76479684D01*
X85919060Y-75051113D02*
X85919060Y-75241589D01*
X85966680Y-75336827D01*
X86014299Y-75384446D01*
X86157156Y-75479684D01*
X86347632Y-75527303D01*
X86728584Y-75527303D01*
X86823822Y-75479684D01*
X86871441Y-75432065D01*
X86919060Y-75336827D01*
X86919060Y-75146351D01*
X86871441Y-75051113D01*
X86823822Y-75003494D01*
X86728584Y-74955875D01*
X86490489Y-74955875D01*
X86395251Y-75003494D01*
X86347632Y-75051113D01*
X86300013Y-75146351D01*
X86300013Y-75336827D01*
X86347632Y-75432065D01*
X86395251Y-75479684D01*
X86490489Y-75527303D01*
X95580295Y-41619380D02*
X95580295Y-42428904D01*
X95627914Y-42524142D01*
X95675533Y-42571761D01*
X95770771Y-42619380D01*
X95961247Y-42619380D01*
X96056485Y-42571761D01*
X96104104Y-42524142D01*
X96151723Y-42428904D01*
X96151723Y-41619380D01*
X97056485Y-41952714D02*
X97056485Y-42619380D01*
X96818390Y-41571761D02*
X96580295Y-42286047D01*
X97199342Y-42286047D01*
X111339475Y-38121000D02*
X111339475Y-38930524D01*
X111387094Y-39025762D01*
X111434713Y-39073381D01*
X111529951Y-39121000D01*
X111720427Y-39121000D01*
X111815665Y-39073381D01*
X111863284Y-39025762D01*
X111910903Y-38930524D01*
X111910903Y-38121000D01*
X112815665Y-38121000D02*
X112625189Y-38121000D01*
X112529951Y-38168620D01*
X112482332Y-38216239D01*
X112387094Y-38359096D01*
X112339475Y-38549572D01*
X112339475Y-38930524D01*
X112387094Y-39025762D01*
X112434713Y-39073381D01*
X112529951Y-39121000D01*
X112720427Y-39121000D01*
X112815665Y-39073381D01*
X112863284Y-39025762D01*
X112910903Y-38930524D01*
X112910903Y-38692429D01*
X112863284Y-38597191D01*
X112815665Y-38549572D01*
X112720427Y-38501953D01*
X112529951Y-38501953D01*
X112434713Y-38549572D01*
X112387094Y-38597191D01*
X112339475Y-38692429D01*
X116565775Y-65879220D02*
X116565775Y-66688744D01*
X116613394Y-66783982D01*
X116661013Y-66831601D01*
X116756251Y-66879220D01*
X116946727Y-66879220D01*
X117041965Y-66831601D01*
X117089584Y-66783982D01*
X117137203Y-66688744D01*
X117137203Y-65879220D01*
X118089584Y-65879220D02*
X117613394Y-65879220D01*
X117565775Y-66355411D01*
X117613394Y-66307792D01*
X117708632Y-66260173D01*
X117946727Y-66260173D01*
X118041965Y-66307792D01*
X118089584Y-66355411D01*
X118137203Y-66450649D01*
X118137203Y-66688744D01*
X118089584Y-66783982D01*
X118041965Y-66831601D01*
X117946727Y-66879220D01*
X117708632Y-66879220D01*
X117613394Y-66831601D01*
X117565775Y-66783982D01*
X151325342Y-79596240D02*
X150992009Y-79120050D01*
X150753914Y-79596240D02*
X150753914Y-78596240D01*
X151134866Y-78596240D01*
X151230104Y-78643860D01*
X151277723Y-78691479D01*
X151325342Y-78786717D01*
X151325342Y-78929574D01*
X151277723Y-79024812D01*
X151230104Y-79072431D01*
X151134866Y-79120050D01*
X150753914Y-79120050D01*
X152277723Y-79596240D02*
X151706295Y-79596240D01*
X151992009Y-79596240D02*
X151992009Y-78596240D01*
X151896771Y-78739098D01*
X151801533Y-78834336D01*
X151706295Y-78881955D01*
X153134866Y-78929574D02*
X153134866Y-79596240D01*
X152896771Y-78548621D02*
X152658676Y-79262907D01*
X153277723Y-79262907D01*
X151325342Y-67305180D02*
X150992009Y-66828990D01*
X150753914Y-67305180D02*
X150753914Y-66305180D01*
X151134866Y-66305180D01*
X151230104Y-66352800D01*
X151277723Y-66400419D01*
X151325342Y-66495657D01*
X151325342Y-66638514D01*
X151277723Y-66733752D01*
X151230104Y-66781371D01*
X151134866Y-66828990D01*
X150753914Y-66828990D01*
X152277723Y-67305180D02*
X151706295Y-67305180D01*
X151992009Y-67305180D02*
X151992009Y-66305180D01*
X151896771Y-66448038D01*
X151801533Y-66543276D01*
X151706295Y-66590895D01*
X152611057Y-66305180D02*
X153230104Y-66305180D01*
X152896771Y-66686133D01*
X153039628Y-66686133D01*
X153134866Y-66733752D01*
X153182485Y-66781371D01*
X153230104Y-66876609D01*
X153230104Y-67114704D01*
X153182485Y-67209942D01*
X153134866Y-67257561D01*
X153039628Y-67305180D01*
X152753914Y-67305180D01*
X152658676Y-67257561D01*
X152611057Y-67209942D01*
X147403582Y-79547980D02*
X147070249Y-79071790D01*
X146832154Y-79547980D02*
X146832154Y-78547980D01*
X147213106Y-78547980D01*
X147308344Y-78595600D01*
X147355963Y-78643219D01*
X147403582Y-78738457D01*
X147403582Y-78881314D01*
X147355963Y-78976552D01*
X147308344Y-79024171D01*
X147213106Y-79071790D01*
X146832154Y-79071790D01*
X148355963Y-79547980D02*
X147784535Y-79547980D01*
X148070249Y-79547980D02*
X148070249Y-78547980D01*
X147975011Y-78690838D01*
X147879773Y-78786076D01*
X147784535Y-78833695D01*
X148736916Y-78643219D02*
X148784535Y-78595600D01*
X148879773Y-78547980D01*
X149117868Y-78547980D01*
X149213106Y-78595600D01*
X149260725Y-78643219D01*
X149308344Y-78738457D01*
X149308344Y-78833695D01*
X149260725Y-78976552D01*
X148689297Y-79547980D01*
X149308344Y-79547980D01*
X147492482Y-67382980D02*
X147159149Y-66906790D01*
X146921054Y-67382980D02*
X146921054Y-66382980D01*
X147302006Y-66382980D01*
X147397244Y-66430600D01*
X147444863Y-66478219D01*
X147492482Y-66573457D01*
X147492482Y-66716314D01*
X147444863Y-66811552D01*
X147397244Y-66859171D01*
X147302006Y-66906790D01*
X146921054Y-66906790D01*
X148444863Y-67382980D02*
X147873435Y-67382980D01*
X148159149Y-67382980D02*
X148159149Y-66382980D01*
X148063911Y-66525838D01*
X147968673Y-66621076D01*
X147873435Y-66668695D01*
X149397244Y-67382980D02*
X148825816Y-67382980D01*
X149111530Y-67382980D02*
X149111530Y-66382980D01*
X149016292Y-66525838D01*
X148921054Y-66621076D01*
X148825816Y-66668695D01*
X124307362Y-36741360D02*
X123974029Y-36265170D01*
X123735934Y-36741360D02*
X123735934Y-35741360D01*
X124116886Y-35741360D01*
X124212124Y-35788980D01*
X124259743Y-35836599D01*
X124307362Y-35931837D01*
X124307362Y-36074694D01*
X124259743Y-36169932D01*
X124212124Y-36217551D01*
X124116886Y-36265170D01*
X123735934Y-36265170D01*
X125259743Y-36741360D02*
X124688315Y-36741360D01*
X124974029Y-36741360D02*
X124974029Y-35741360D01*
X124878791Y-35884218D01*
X124783553Y-35979456D01*
X124688315Y-36027075D01*
X125878791Y-35741360D02*
X125974029Y-35741360D01*
X126069267Y-35788980D01*
X126116886Y-35836599D01*
X126164505Y-35931837D01*
X126212124Y-36122313D01*
X126212124Y-36360408D01*
X126164505Y-36550884D01*
X126116886Y-36646122D01*
X126069267Y-36693741D01*
X125974029Y-36741360D01*
X125878791Y-36741360D01*
X125783553Y-36693741D01*
X125735934Y-36646122D01*
X125688315Y-36550884D01*
X125640696Y-36360408D01*
X125640696Y-36122313D01*
X125688315Y-35931837D01*
X125735934Y-35836599D01*
X125783553Y-35788980D01*
X125878791Y-35741360D01*
X119043153Y-36789620D02*
X118709820Y-36313430D01*
X118471724Y-36789620D02*
X118471724Y-35789620D01*
X118852677Y-35789620D01*
X118947915Y-35837240D01*
X118995534Y-35884859D01*
X119043153Y-35980097D01*
X119043153Y-36122954D01*
X118995534Y-36218192D01*
X118947915Y-36265811D01*
X118852677Y-36313430D01*
X118471724Y-36313430D01*
X119519343Y-36789620D02*
X119709820Y-36789620D01*
X119805058Y-36742001D01*
X119852677Y-36694382D01*
X119947915Y-36551525D01*
X119995534Y-36361049D01*
X119995534Y-35980097D01*
X119947915Y-35884859D01*
X119900296Y-35837240D01*
X119805058Y-35789620D01*
X119614581Y-35789620D01*
X119519343Y-35837240D01*
X119471724Y-35884859D01*
X119424105Y-35980097D01*
X119424105Y-36218192D01*
X119471724Y-36313430D01*
X119519343Y-36361049D01*
X119614581Y-36408668D01*
X119805058Y-36408668D01*
X119900296Y-36361049D01*
X119947915Y-36313430D01*
X119995534Y-36218192D01*
X113063993Y-36789620D02*
X112730660Y-36313430D01*
X112492564Y-36789620D02*
X112492564Y-35789620D01*
X112873517Y-35789620D01*
X112968755Y-35837240D01*
X113016374Y-35884859D01*
X113063993Y-35980097D01*
X113063993Y-36122954D01*
X113016374Y-36218192D01*
X112968755Y-36265811D01*
X112873517Y-36313430D01*
X112492564Y-36313430D01*
X113635421Y-36218192D02*
X113540183Y-36170573D01*
X113492564Y-36122954D01*
X113444945Y-36027716D01*
X113444945Y-35980097D01*
X113492564Y-35884859D01*
X113540183Y-35837240D01*
X113635421Y-35789620D01*
X113825898Y-35789620D01*
X113921136Y-35837240D01*
X113968755Y-35884859D01*
X114016374Y-35980097D01*
X114016374Y-36027716D01*
X113968755Y-36122954D01*
X113921136Y-36170573D01*
X113825898Y-36218192D01*
X113635421Y-36218192D01*
X113540183Y-36265811D01*
X113492564Y-36313430D01*
X113444945Y-36408668D01*
X113444945Y-36599144D01*
X113492564Y-36694382D01*
X113540183Y-36742001D01*
X113635421Y-36789620D01*
X113825898Y-36789620D01*
X113921136Y-36742001D01*
X113968755Y-36694382D01*
X114016374Y-36599144D01*
X114016374Y-36408668D01*
X113968755Y-36313430D01*
X113921136Y-36265811D01*
X113825898Y-36218192D01*
X107036573Y-36837880D02*
X106703240Y-36361690D01*
X106465144Y-36837880D02*
X106465144Y-35837880D01*
X106846097Y-35837880D01*
X106941335Y-35885500D01*
X106988954Y-35933119D01*
X107036573Y-36028357D01*
X107036573Y-36171214D01*
X106988954Y-36266452D01*
X106941335Y-36314071D01*
X106846097Y-36361690D01*
X106465144Y-36361690D01*
X107369906Y-35837880D02*
X108036573Y-35837880D01*
X107608001Y-36837880D01*
X130612853Y-59842660D02*
X130279520Y-59366470D01*
X130041424Y-59842660D02*
X130041424Y-58842660D01*
X130422377Y-58842660D01*
X130517615Y-58890280D01*
X130565234Y-58937899D01*
X130612853Y-59033137D01*
X130612853Y-59175994D01*
X130565234Y-59271232D01*
X130517615Y-59318851D01*
X130422377Y-59366470D01*
X130041424Y-59366470D01*
X131469996Y-58842660D02*
X131279520Y-58842660D01*
X131184281Y-58890280D01*
X131136662Y-58937899D01*
X131041424Y-59080756D01*
X130993805Y-59271232D01*
X130993805Y-59652184D01*
X131041424Y-59747422D01*
X131089043Y-59795041D01*
X131184281Y-59842660D01*
X131374758Y-59842660D01*
X131469996Y-59795041D01*
X131517615Y-59747422D01*
X131565234Y-59652184D01*
X131565234Y-59414089D01*
X131517615Y-59318851D01*
X131469996Y-59271232D01*
X131374758Y-59223613D01*
X131184281Y-59223613D01*
X131089043Y-59271232D01*
X131041424Y-59318851D01*
X130993805Y-59414089D01*
X130612853Y-54391820D02*
X130279520Y-53915630D01*
X130041424Y-54391820D02*
X130041424Y-53391820D01*
X130422377Y-53391820D01*
X130517615Y-53439440D01*
X130565234Y-53487059D01*
X130612853Y-53582297D01*
X130612853Y-53725154D01*
X130565234Y-53820392D01*
X130517615Y-53868011D01*
X130422377Y-53915630D01*
X130041424Y-53915630D01*
X131517615Y-53391820D02*
X131041424Y-53391820D01*
X130993805Y-53868011D01*
X131041424Y-53820392D01*
X131136662Y-53772773D01*
X131374758Y-53772773D01*
X131469996Y-53820392D01*
X131517615Y-53868011D01*
X131565234Y-53963249D01*
X131565234Y-54201344D01*
X131517615Y-54296582D01*
X131469996Y-54344201D01*
X131374758Y-54391820D01*
X131136662Y-54391820D01*
X131041424Y-54344201D01*
X130993805Y-54296582D01*
X81232713Y-96138320D02*
X80899380Y-95662130D01*
X80661284Y-96138320D02*
X80661284Y-95138320D01*
X81042237Y-95138320D01*
X81137475Y-95185940D01*
X81185094Y-95233559D01*
X81232713Y-95328797D01*
X81232713Y-95471654D01*
X81185094Y-95566892D01*
X81137475Y-95614511D01*
X81042237Y-95662130D01*
X80661284Y-95662130D01*
X82089856Y-95471654D02*
X82089856Y-96138320D01*
X81851760Y-95090701D02*
X81613665Y-95804987D01*
X82232713Y-95804987D01*
X141423093Y-83901540D02*
X141089760Y-83425350D01*
X140851664Y-83901540D02*
X140851664Y-82901540D01*
X141232617Y-82901540D01*
X141327855Y-82949160D01*
X141375474Y-82996779D01*
X141423093Y-83092017D01*
X141423093Y-83234874D01*
X141375474Y-83330112D01*
X141327855Y-83377731D01*
X141232617Y-83425350D01*
X140851664Y-83425350D01*
X141756426Y-82901540D02*
X142375474Y-82901540D01*
X142042140Y-83282493D01*
X142184998Y-83282493D01*
X142280236Y-83330112D01*
X142327855Y-83377731D01*
X142375474Y-83472969D01*
X142375474Y-83711064D01*
X142327855Y-83806302D01*
X142280236Y-83853921D01*
X142184998Y-83901540D01*
X141899283Y-83901540D01*
X141804045Y-83853921D01*
X141756426Y-83806302D01*
X141471353Y-88923120D02*
X141138020Y-88446930D01*
X140899924Y-88923120D02*
X140899924Y-87923120D01*
X141280877Y-87923120D01*
X141376115Y-87970740D01*
X141423734Y-88018359D01*
X141471353Y-88113597D01*
X141471353Y-88256454D01*
X141423734Y-88351692D01*
X141376115Y-88399311D01*
X141280877Y-88446930D01*
X140899924Y-88446930D01*
X141852305Y-88018359D02*
X141899924Y-87970740D01*
X141995162Y-87923120D01*
X142233258Y-87923120D01*
X142328496Y-87970740D01*
X142376115Y-88018359D01*
X142423734Y-88113597D01*
X142423734Y-88208835D01*
X142376115Y-88351692D01*
X141804686Y-88923120D01*
X142423734Y-88923120D01*
X86414313Y-69461640D02*
X86080980Y-68985450D01*
X85842884Y-69461640D02*
X85842884Y-68461640D01*
X86223837Y-68461640D01*
X86319075Y-68509260D01*
X86366694Y-68556879D01*
X86414313Y-68652117D01*
X86414313Y-68794974D01*
X86366694Y-68890212D01*
X86319075Y-68937831D01*
X86223837Y-68985450D01*
X85842884Y-68985450D01*
X87366694Y-69461640D02*
X86795265Y-69461640D01*
X87080980Y-69461640D02*
X87080980Y-68461640D01*
X86985741Y-68604498D01*
X86890503Y-68699736D01*
X86795265Y-68747355D01*
X135213766Y-32873700D02*
X135213766Y-33587986D01*
X135166147Y-33730843D01*
X135070909Y-33826081D01*
X134928052Y-33873700D01*
X134832814Y-33873700D01*
X135737576Y-33873700D02*
X135928052Y-33873700D01*
X136023290Y-33826081D01*
X136070909Y-33778462D01*
X136166147Y-33635605D01*
X136213766Y-33445129D01*
X136213766Y-33064177D01*
X136166147Y-32968939D01*
X136118528Y-32921320D01*
X136023290Y-32873700D01*
X135832814Y-32873700D01*
X135737576Y-32921320D01*
X135689957Y-32968939D01*
X135642338Y-33064177D01*
X135642338Y-33302272D01*
X135689957Y-33397510D01*
X135737576Y-33445129D01*
X135832814Y-33492748D01*
X136023290Y-33492748D01*
X136118528Y-33445129D01*
X136166147Y-33397510D01*
X136213766Y-33302272D01*
X140590946Y-35741360D02*
X140590946Y-36455646D01*
X140543327Y-36598503D01*
X140448089Y-36693741D01*
X140305232Y-36741360D01*
X140209994Y-36741360D01*
X141209994Y-36169932D02*
X141114756Y-36122313D01*
X141067137Y-36074694D01*
X141019518Y-35979456D01*
X141019518Y-35931837D01*
X141067137Y-35836599D01*
X141114756Y-35788980D01*
X141209994Y-35741360D01*
X141400470Y-35741360D01*
X141495708Y-35788980D01*
X141543327Y-35836599D01*
X141590946Y-35931837D01*
X141590946Y-35979456D01*
X141543327Y-36074694D01*
X141495708Y-36122313D01*
X141400470Y-36169932D01*
X141209994Y-36169932D01*
X141114756Y-36217551D01*
X141067137Y-36265170D01*
X141019518Y-36360408D01*
X141019518Y-36550884D01*
X141067137Y-36646122D01*
X141114756Y-36693741D01*
X141209994Y-36741360D01*
X141400470Y-36741360D01*
X141495708Y-36693741D01*
X141543327Y-36646122D01*
X141590946Y-36550884D01*
X141590946Y-36360408D01*
X141543327Y-36265170D01*
X141495708Y-36217551D01*
X141400470Y-36169932D01*
X83476506Y-87158580D02*
X83476506Y-87872866D01*
X83428887Y-88015723D01*
X83333649Y-88110961D01*
X83190792Y-88158580D01*
X83095554Y-88158580D01*
X84428887Y-87158580D02*
X83952697Y-87158580D01*
X83905078Y-87634771D01*
X83952697Y-87587152D01*
X84047935Y-87539533D01*
X84286030Y-87539533D01*
X84381268Y-87587152D01*
X84428887Y-87634771D01*
X84476506Y-87730009D01*
X84476506Y-87968104D01*
X84428887Y-88063342D01*
X84381268Y-88110961D01*
X84286030Y-88158580D01*
X84047935Y-88158580D01*
X83952697Y-88110961D01*
X83905078Y-88063342D01*
X165960466Y-73591620D02*
X165960466Y-74305906D01*
X165912847Y-74448763D01*
X165817609Y-74544001D01*
X165674752Y-74591620D01*
X165579514Y-74591620D01*
X166389038Y-73686859D02*
X166436657Y-73639240D01*
X166531895Y-73591620D01*
X166769990Y-73591620D01*
X166865228Y-73639240D01*
X166912847Y-73686859D01*
X166960466Y-73782097D01*
X166960466Y-73877335D01*
X166912847Y-74020192D01*
X166341419Y-74591620D01*
X166960466Y-74591620D01*
X165960466Y-63380820D02*
X165960466Y-64095106D01*
X165912847Y-64237963D01*
X165817609Y-64333201D01*
X165674752Y-64380820D01*
X165579514Y-64380820D01*
X166960466Y-64380820D02*
X166389038Y-64380820D01*
X166674752Y-64380820D02*
X166674752Y-63380820D01*
X166579514Y-63523678D01*
X166484276Y-63618916D01*
X166389038Y-63666535D01*
X160238095Y-84252380D02*
X160238095Y-83252380D01*
X160238095Y-83728571D02*
X160809523Y-83728571D01*
X160809523Y-84252380D02*
X160809523Y-83252380D01*
X161190476Y-83252380D02*
X161809523Y-83252380D01*
X161476190Y-83633333D01*
X161619047Y-83633333D01*
X161714285Y-83680952D01*
X161761904Y-83728571D01*
X161809523Y-83823809D01*
X161809523Y-84061904D01*
X161761904Y-84157142D01*
X161714285Y-84204761D01*
X161619047Y-84252380D01*
X161333333Y-84252380D01*
X161238095Y-84204761D01*
X161190476Y-84157142D01*
X128646964Y-32507180D02*
X128646964Y-31507180D01*
X128885060Y-31507180D01*
X129027917Y-31554800D01*
X129123155Y-31650038D01*
X129170774Y-31745276D01*
X129218393Y-31935752D01*
X129218393Y-32078609D01*
X129170774Y-32269085D01*
X129123155Y-32364323D01*
X129027917Y-32459561D01*
X128885060Y-32507180D01*
X128646964Y-32507180D01*
X130123155Y-31507180D02*
X129646964Y-31507180D01*
X129599345Y-31983371D01*
X129646964Y-31935752D01*
X129742202Y-31888133D01*
X129980298Y-31888133D01*
X130075536Y-31935752D01*
X130123155Y-31983371D01*
X130170774Y-32078609D01*
X130170774Y-32316704D01*
X130123155Y-32411942D01*
X130075536Y-32459561D01*
X129980298Y-32507180D01*
X129742202Y-32507180D01*
X129646964Y-32459561D01*
X129599345Y-32411942D01*
X123282484Y-32946600D02*
X123282484Y-31946600D01*
X123520580Y-31946600D01*
X123663437Y-31994220D01*
X123758675Y-32089458D01*
X123806294Y-32184696D01*
X123853913Y-32375172D01*
X123853913Y-32518029D01*
X123806294Y-32708505D01*
X123758675Y-32803743D01*
X123663437Y-32898981D01*
X123520580Y-32946600D01*
X123282484Y-32946600D01*
X124711056Y-32279934D02*
X124711056Y-32946600D01*
X124472960Y-31898981D02*
X124234865Y-32613267D01*
X124853913Y-32613267D01*
X117463344Y-32997400D02*
X117463344Y-31997400D01*
X117701440Y-31997400D01*
X117844297Y-32045020D01*
X117939535Y-32140258D01*
X117987154Y-32235496D01*
X118034773Y-32425972D01*
X118034773Y-32568829D01*
X117987154Y-32759305D01*
X117939535Y-32854543D01*
X117844297Y-32949781D01*
X117701440Y-32997400D01*
X117463344Y-32997400D01*
X118368106Y-31997400D02*
X118987154Y-31997400D01*
X118653820Y-32378353D01*
X118796678Y-32378353D01*
X118891916Y-32425972D01*
X118939535Y-32473591D01*
X118987154Y-32568829D01*
X118987154Y-32806924D01*
X118939535Y-32902162D01*
X118891916Y-32949781D01*
X118796678Y-32997400D01*
X118510963Y-32997400D01*
X118415725Y-32949781D01*
X118368106Y-32902162D01*
X111377504Y-32972000D02*
X111377504Y-31972000D01*
X111615600Y-31972000D01*
X111758457Y-32019620D01*
X111853695Y-32114858D01*
X111901314Y-32210096D01*
X111948933Y-32400572D01*
X111948933Y-32543429D01*
X111901314Y-32733905D01*
X111853695Y-32829143D01*
X111758457Y-32924381D01*
X111615600Y-32972000D01*
X111377504Y-32972000D01*
X112329885Y-32067239D02*
X112377504Y-32019620D01*
X112472742Y-31972000D01*
X112710838Y-31972000D01*
X112806076Y-32019620D01*
X112853695Y-32067239D01*
X112901314Y-32162477D01*
X112901314Y-32257715D01*
X112853695Y-32400572D01*
X112282266Y-32972000D01*
X112901314Y-32972000D01*
X105317064Y-32867860D02*
X105317064Y-31867860D01*
X105555160Y-31867860D01*
X105698017Y-31915480D01*
X105793255Y-32010718D01*
X105840874Y-32105956D01*
X105888493Y-32296432D01*
X105888493Y-32439289D01*
X105840874Y-32629765D01*
X105793255Y-32725003D01*
X105698017Y-32820241D01*
X105555160Y-32867860D01*
X105317064Y-32867860D01*
X106840874Y-32867860D02*
X106269445Y-32867860D01*
X106555160Y-32867860D02*
X106555160Y-31867860D01*
X106459921Y-32010718D01*
X106364683Y-32105956D01*
X106269445Y-32153575D01*
X98551762Y-69986162D02*
X98504143Y-70033781D01*
X98361286Y-70081400D01*
X98266048Y-70081400D01*
X98123191Y-70033781D01*
X98027953Y-69938543D01*
X97980334Y-69843305D01*
X97932715Y-69652829D01*
X97932715Y-69509972D01*
X97980334Y-69319496D01*
X98027953Y-69224258D01*
X98123191Y-69129020D01*
X98266048Y-69081400D01*
X98361286Y-69081400D01*
X98504143Y-69129020D01*
X98551762Y-69176639D01*
X99504143Y-70081400D02*
X98932715Y-70081400D01*
X99218429Y-70081400D02*
X99218429Y-69081400D01*
X99123191Y-69224258D01*
X99027953Y-69319496D01*
X98932715Y-69367115D01*
X100123191Y-69081400D02*
X100218429Y-69081400D01*
X100313667Y-69129020D01*
X100361286Y-69176639D01*
X100408905Y-69271877D01*
X100456524Y-69462353D01*
X100456524Y-69700448D01*
X100408905Y-69890924D01*
X100361286Y-69986162D01*
X100313667Y-70033781D01*
X100218429Y-70081400D01*
X100123191Y-70081400D01*
X100027953Y-70033781D01*
X99980334Y-69986162D01*
X99932715Y-69890924D01*
X99885096Y-69700448D01*
X99885096Y-69462353D01*
X99932715Y-69271877D01*
X99980334Y-69176639D01*
X100027953Y-69129020D01*
X100123191Y-69081400D01*
X96011373Y-90130902D02*
X95963754Y-90178521D01*
X95820897Y-90226140D01*
X95725659Y-90226140D01*
X95582801Y-90178521D01*
X95487563Y-90083283D01*
X95439944Y-89988045D01*
X95392325Y-89797569D01*
X95392325Y-89654712D01*
X95439944Y-89464236D01*
X95487563Y-89368998D01*
X95582801Y-89273760D01*
X95725659Y-89226140D01*
X95820897Y-89226140D01*
X95963754Y-89273760D01*
X96011373Y-89321379D01*
X96487563Y-90226140D02*
X96678040Y-90226140D01*
X96773278Y-90178521D01*
X96820897Y-90130902D01*
X96916135Y-89988045D01*
X96963754Y-89797569D01*
X96963754Y-89416617D01*
X96916135Y-89321379D01*
X96868516Y-89273760D01*
X96773278Y-89226140D01*
X96582801Y-89226140D01*
X96487563Y-89273760D01*
X96439944Y-89321379D01*
X96392325Y-89416617D01*
X96392325Y-89654712D01*
X96439944Y-89749950D01*
X96487563Y-89797569D01*
X96582801Y-89845188D01*
X96773278Y-89845188D01*
X96868516Y-89797569D01*
X96916135Y-89749950D01*
X96963754Y-89654712D01*
X108682493Y-86757782D02*
X108634874Y-86805401D01*
X108492017Y-86853020D01*
X108396779Y-86853020D01*
X108253921Y-86805401D01*
X108158683Y-86710163D01*
X108111064Y-86614925D01*
X108063445Y-86424449D01*
X108063445Y-86281592D01*
X108111064Y-86091116D01*
X108158683Y-85995878D01*
X108253921Y-85900640D01*
X108396779Y-85853020D01*
X108492017Y-85853020D01*
X108634874Y-85900640D01*
X108682493Y-85948259D01*
X109253921Y-86281592D02*
X109158683Y-86233973D01*
X109111064Y-86186354D01*
X109063445Y-86091116D01*
X109063445Y-86043497D01*
X109111064Y-85948259D01*
X109158683Y-85900640D01*
X109253921Y-85853020D01*
X109444398Y-85853020D01*
X109539636Y-85900640D01*
X109587255Y-85948259D01*
X109634874Y-86043497D01*
X109634874Y-86091116D01*
X109587255Y-86186354D01*
X109539636Y-86233973D01*
X109444398Y-86281592D01*
X109253921Y-86281592D01*
X109158683Y-86329211D01*
X109111064Y-86376830D01*
X109063445Y-86472068D01*
X109063445Y-86662544D01*
X109111064Y-86757782D01*
X109158683Y-86805401D01*
X109253921Y-86853020D01*
X109444398Y-86853020D01*
X109539636Y-86805401D01*
X109587255Y-86757782D01*
X109634874Y-86662544D01*
X109634874Y-86472068D01*
X109587255Y-86376830D01*
X109539636Y-86329211D01*
X109444398Y-86281592D01*
X153048673Y-37842462D02*
X153001054Y-37890081D01*
X152858197Y-37937700D01*
X152762959Y-37937700D01*
X152620101Y-37890081D01*
X152524863Y-37794843D01*
X152477244Y-37699605D01*
X152429625Y-37509129D01*
X152429625Y-37366272D01*
X152477244Y-37175796D01*
X152524863Y-37080558D01*
X152620101Y-36985320D01*
X152762959Y-36937700D01*
X152858197Y-36937700D01*
X153001054Y-36985320D01*
X153048673Y-37032939D01*
X153953435Y-36937700D02*
X153477244Y-36937700D01*
X153429625Y-37413891D01*
X153477244Y-37366272D01*
X153572482Y-37318653D01*
X153810578Y-37318653D01*
X153905816Y-37366272D01*
X153953435Y-37413891D01*
X154001054Y-37509129D01*
X154001054Y-37747224D01*
X153953435Y-37842462D01*
X153905816Y-37890081D01*
X153810578Y-37937700D01*
X153572482Y-37937700D01*
X153477244Y-37890081D01*
X153429625Y-37842462D01*
X101143773Y-38769562D02*
X101096154Y-38817181D01*
X100953297Y-38864800D01*
X100858059Y-38864800D01*
X100715201Y-38817181D01*
X100619963Y-38721943D01*
X100572344Y-38626705D01*
X100524725Y-38436229D01*
X100524725Y-38293372D01*
X100572344Y-38102896D01*
X100619963Y-38007658D01*
X100715201Y-37912420D01*
X100858059Y-37864800D01*
X100953297Y-37864800D01*
X101096154Y-37912420D01*
X101143773Y-37960039D01*
X102000916Y-38198134D02*
X102000916Y-38864800D01*
X101762820Y-37817181D02*
X101524725Y-38531467D01*
X102143773Y-38531467D01*
X161169622Y-58246306D02*
X161217241Y-58293925D01*
X161264860Y-58436782D01*
X161264860Y-58532020D01*
X161217241Y-58674878D01*
X161122003Y-58770116D01*
X161026765Y-58817735D01*
X160836289Y-58865354D01*
X160693432Y-58865354D01*
X160502956Y-58817735D01*
X160407718Y-58770116D01*
X160312480Y-58674878D01*
X160264860Y-58532020D01*
X160264860Y-58436782D01*
X160312480Y-58293925D01*
X160360099Y-58246306D01*
X160264860Y-57912973D02*
X160264860Y-57293925D01*
X160645813Y-57627259D01*
X160645813Y-57484401D01*
X160693432Y-57389163D01*
X160741051Y-57341544D01*
X160836289Y-57293925D01*
X161074384Y-57293925D01*
X161169622Y-57341544D01*
X161217241Y-57389163D01*
X161264860Y-57484401D01*
X161264860Y-57770116D01*
X161217241Y-57865354D01*
X161169622Y-57912973D01*
X127346413Y-65976682D02*
X127298794Y-66024301D01*
X127155937Y-66071920D01*
X127060699Y-66071920D01*
X126917841Y-66024301D01*
X126822603Y-65929063D01*
X126774984Y-65833825D01*
X126727365Y-65643349D01*
X126727365Y-65500492D01*
X126774984Y-65310016D01*
X126822603Y-65214778D01*
X126917841Y-65119540D01*
X127060699Y-65071920D01*
X127155937Y-65071920D01*
X127298794Y-65119540D01*
X127346413Y-65167159D01*
X127727365Y-65167159D02*
X127774984Y-65119540D01*
X127870222Y-65071920D01*
X128108318Y-65071920D01*
X128203556Y-65119540D01*
X128251175Y-65167159D01*
X128298794Y-65262397D01*
X128298794Y-65357635D01*
X128251175Y-65500492D01*
X127679746Y-66071920D01*
X128298794Y-66071920D01*
X128522433Y-42881822D02*
X128474814Y-42929441D01*
X128331957Y-42977060D01*
X128236719Y-42977060D01*
X128093861Y-42929441D01*
X127998623Y-42834203D01*
X127951004Y-42738965D01*
X127903385Y-42548489D01*
X127903385Y-42405632D01*
X127951004Y-42215156D01*
X127998623Y-42119918D01*
X128093861Y-42024680D01*
X128236719Y-41977060D01*
X128331957Y-41977060D01*
X128474814Y-42024680D01*
X128522433Y-42072299D01*
X129474814Y-42977060D02*
X128903385Y-42977060D01*
X129189100Y-42977060D02*
X129189100Y-41977060D01*
X129093861Y-42119918D01*
X128998623Y-42215156D01*
X128903385Y-42262775D01*
X163647380Y-39708057D02*
X163171190Y-40041390D01*
X163647380Y-40279485D02*
X162647380Y-40279485D01*
X162647380Y-39898533D01*
X162695000Y-39803295D01*
X162742619Y-39755676D01*
X162837857Y-39708057D01*
X162980714Y-39708057D01*
X163075952Y-39755676D01*
X163123571Y-39803295D01*
X163171190Y-39898533D01*
X163171190Y-40279485D01*
X163647380Y-38755676D02*
X163647380Y-39327104D01*
X163647380Y-39041390D02*
X162647380Y-39041390D01*
X162790238Y-39136628D01*
X162885476Y-39231866D01*
X162933095Y-39327104D01*
X162647380Y-37850914D02*
X162647380Y-38327104D01*
X163123571Y-38374723D01*
X163075952Y-38327104D01*
X163028333Y-38231866D01*
X163028333Y-37993771D01*
X163075952Y-37898533D01*
X163123571Y-37850914D01*
X163218809Y-37803295D01*
X163456904Y-37803295D01*
X163552142Y-37850914D01*
X163599761Y-37898533D01*
X163647380Y-37993771D01*
X163647380Y-38231866D01*
X163599761Y-38327104D01*
X163552142Y-38374723D01*
X163647380Y-58257677D02*
X163171190Y-58591010D01*
X163647380Y-58829105D02*
X162647380Y-58829105D01*
X162647380Y-58448153D01*
X162695000Y-58352915D01*
X162742619Y-58305296D01*
X162837857Y-58257677D01*
X162980714Y-58257677D01*
X163075952Y-58305296D01*
X163123571Y-58352915D01*
X163171190Y-58448153D01*
X163171190Y-58829105D01*
X163647380Y-57305296D02*
X163647380Y-57876724D01*
X163647380Y-57591010D02*
X162647380Y-57591010D01*
X162790238Y-57686248D01*
X162885476Y-57781486D01*
X162933095Y-57876724D01*
X163647380Y-56829105D02*
X163647380Y-56638629D01*
X163599761Y-56543391D01*
X163552142Y-56495772D01*
X163409285Y-56400534D01*
X163218809Y-56352915D01*
X162837857Y-56352915D01*
X162742619Y-56400534D01*
X162695000Y-56448153D01*
X162647380Y-56543391D01*
X162647380Y-56733867D01*
X162695000Y-56829105D01*
X162742619Y-56876724D01*
X162837857Y-56924343D01*
X163075952Y-56924343D01*
X163171190Y-56876724D01*
X163218809Y-56829105D01*
X163266428Y-56733867D01*
X163266428Y-56543391D01*
X163218809Y-56448153D01*
X163171190Y-56400534D01*
X163075952Y-56352915D01*
X163647380Y-55229997D02*
X163171190Y-55563330D01*
X163647380Y-55801425D02*
X162647380Y-55801425D01*
X162647380Y-55420473D01*
X162695000Y-55325235D01*
X162742619Y-55277616D01*
X162837857Y-55229997D01*
X162980714Y-55229997D01*
X163075952Y-55277616D01*
X163123571Y-55325235D01*
X163171190Y-55420473D01*
X163171190Y-55801425D01*
X162742619Y-54849044D02*
X162695000Y-54801425D01*
X162647380Y-54706187D01*
X162647380Y-54468092D01*
X162695000Y-54372854D01*
X162742619Y-54325235D01*
X162837857Y-54277616D01*
X162933095Y-54277616D01*
X163075952Y-54325235D01*
X163647380Y-54896663D01*
X163647380Y-54277616D01*
X162647380Y-53658568D02*
X162647380Y-53563330D01*
X162695000Y-53468092D01*
X162742619Y-53420473D01*
X162837857Y-53372854D01*
X163028333Y-53325235D01*
X163266428Y-53325235D01*
X163456904Y-53372854D01*
X163552142Y-53420473D01*
X163599761Y-53468092D01*
X163647380Y-53563330D01*
X163647380Y-53658568D01*
X163599761Y-53753806D01*
X163552142Y-53801425D01*
X163456904Y-53849044D01*
X163266428Y-53896663D01*
X163028333Y-53896663D01*
X162837857Y-53849044D01*
X162742619Y-53801425D01*
X162695000Y-53753806D01*
X162647380Y-53658568D01*
X163647380Y-61221857D02*
X163171190Y-61555190D01*
X163647380Y-61793285D02*
X162647380Y-61793285D01*
X162647380Y-61412333D01*
X162695000Y-61317095D01*
X162742619Y-61269476D01*
X162837857Y-61221857D01*
X162980714Y-61221857D01*
X163075952Y-61269476D01*
X163123571Y-61317095D01*
X163171190Y-61412333D01*
X163171190Y-61793285D01*
X162742619Y-60840904D02*
X162695000Y-60793285D01*
X162647380Y-60698047D01*
X162647380Y-60459952D01*
X162695000Y-60364714D01*
X162742619Y-60317095D01*
X162837857Y-60269476D01*
X162933095Y-60269476D01*
X163075952Y-60317095D01*
X163647380Y-60888523D01*
X163647380Y-60269476D01*
X163647380Y-59317095D02*
X163647380Y-59888523D01*
X163647380Y-59602809D02*
X162647380Y-59602809D01*
X162790238Y-59698047D01*
X162885476Y-59793285D01*
X162933095Y-59888523D01*
X163649920Y-52314077D02*
X163173730Y-52647410D01*
X163649920Y-52885505D02*
X162649920Y-52885505D01*
X162649920Y-52504553D01*
X162697540Y-52409315D01*
X162745159Y-52361696D01*
X162840397Y-52314077D01*
X162983254Y-52314077D01*
X163078492Y-52361696D01*
X163126111Y-52409315D01*
X163173730Y-52504553D01*
X163173730Y-52885505D01*
X162745159Y-51933124D02*
X162697540Y-51885505D01*
X162649920Y-51790267D01*
X162649920Y-51552172D01*
X162697540Y-51456934D01*
X162745159Y-51409315D01*
X162840397Y-51361696D01*
X162935635Y-51361696D01*
X163078492Y-51409315D01*
X163649920Y-51980743D01*
X163649920Y-51361696D01*
X162649920Y-51028362D02*
X162649920Y-50409315D01*
X163030873Y-50742648D01*
X163030873Y-50599791D01*
X163078492Y-50504553D01*
X163126111Y-50456934D01*
X163221349Y-50409315D01*
X163459444Y-50409315D01*
X163554682Y-50456934D01*
X163602301Y-50504553D01*
X163649920Y-50599791D01*
X163649920Y-50885505D01*
X163602301Y-50980743D01*
X163554682Y-51028362D01*
X163647380Y-46177437D02*
X163171190Y-46510770D01*
X163647380Y-46748865D02*
X162647380Y-46748865D01*
X162647380Y-46367913D01*
X162695000Y-46272675D01*
X162742619Y-46225056D01*
X162837857Y-46177437D01*
X162980714Y-46177437D01*
X163075952Y-46225056D01*
X163123571Y-46272675D01*
X163171190Y-46367913D01*
X163171190Y-46748865D01*
X162742619Y-45796484D02*
X162695000Y-45748865D01*
X162647380Y-45653627D01*
X162647380Y-45415532D01*
X162695000Y-45320294D01*
X162742619Y-45272675D01*
X162837857Y-45225056D01*
X162933095Y-45225056D01*
X163075952Y-45272675D01*
X163647380Y-45844103D01*
X163647380Y-45225056D01*
X162980714Y-44367913D02*
X163647380Y-44367913D01*
X162599761Y-44606008D02*
X163314047Y-44844103D01*
X163314047Y-44225056D01*
X163647380Y-42969417D02*
X163171190Y-43302750D01*
X163647380Y-43540845D02*
X162647380Y-43540845D01*
X162647380Y-43159893D01*
X162695000Y-43064655D01*
X162742619Y-43017036D01*
X162837857Y-42969417D01*
X162980714Y-42969417D01*
X163075952Y-43017036D01*
X163123571Y-43064655D01*
X163171190Y-43159893D01*
X163171190Y-43540845D01*
X162742619Y-42588464D02*
X162695000Y-42540845D01*
X162647380Y-42445607D01*
X162647380Y-42207512D01*
X162695000Y-42112274D01*
X162742619Y-42064655D01*
X162837857Y-42017036D01*
X162933095Y-42017036D01*
X163075952Y-42064655D01*
X163647380Y-42636083D01*
X163647380Y-42017036D01*
X162647380Y-41112274D02*
X162647380Y-41588464D01*
X163123571Y-41636083D01*
X163075952Y-41588464D01*
X163028333Y-41493226D01*
X163028333Y-41255131D01*
X163075952Y-41159893D01*
X163123571Y-41112274D01*
X163218809Y-41064655D01*
X163456904Y-41064655D01*
X163552142Y-41112274D01*
X163599761Y-41159893D01*
X163647380Y-41255131D01*
X163647380Y-41493226D01*
X163599761Y-41588464D01*
X163552142Y-41636083D01*
X102430675Y-70940680D02*
X102430675Y-71750204D01*
X102478294Y-71845442D01*
X102525913Y-71893061D01*
X102621151Y-71940680D01*
X102811627Y-71940680D01*
X102906865Y-71893061D01*
X102954484Y-71845442D01*
X103002103Y-71750204D01*
X103002103Y-70940680D01*
X104002103Y-71940680D02*
X103430675Y-71940680D01*
X103716389Y-71940680D02*
X103716389Y-70940680D01*
X103621151Y-71083538D01*
X103525913Y-71178776D01*
X103430675Y-71226395D01*
X78785815Y-55794660D02*
X78785815Y-56604184D01*
X78833434Y-56699422D01*
X78881053Y-56747041D01*
X78976291Y-56794660D01*
X79166767Y-56794660D01*
X79262005Y-56747041D01*
X79309624Y-56699422D01*
X79357243Y-56604184D01*
X79357243Y-55794660D01*
X79738196Y-55794660D02*
X80357243Y-55794660D01*
X80023910Y-56175613D01*
X80166767Y-56175613D01*
X80262005Y-56223232D01*
X80309624Y-56270851D01*
X80357243Y-56366089D01*
X80357243Y-56604184D01*
X80309624Y-56699422D01*
X80262005Y-56747041D01*
X80166767Y-56794660D01*
X79881053Y-56794660D01*
X79785815Y-56747041D01*
X79738196Y-56699422D01*
M02*
