G04 #@! TF.GenerationSoftware,KiCad,Pcbnew,(5.1.2-1)-1*
G04 #@! TF.CreationDate,2020-06-07T15:36:17+02:00*
G04 #@! TF.ProjectId,ElkWifi,456c6b57-6966-4692-9e6b-696361645f70,rev?*
G04 #@! TF.SameCoordinates,Original*
G04 #@! TF.FileFunction,Soldermask,Top*
G04 #@! TF.FilePolarity,Negative*
%FSLAX46Y46*%
G04 Gerber Fmt 4.6, Leading zero omitted, Abs format (unit mm)*
G04 Created by KiCad (PCBNEW (5.1.2-1)-1) date 2020-06-07 15:36:17*
%MOMM*%
%LPD*%
G04 APERTURE LIST*
%ADD10C,1.600000*%
%ADD11R,1.600000X1.600000*%
%ADD12C,1.524000*%
%ADD13R,1.524000X1.524000*%
%ADD14C,0.100000*%
%ADD15C,1.425000*%
%ADD16C,1.422400*%
%ADD17R,1.422400X1.422400*%
%ADD18R,1.270000X11.000000*%
%ADD19R,1.270000X10.000000*%
%ADD20O,1.200000X4.500000*%
%ADD21R,0.500000X2.500000*%
%ADD22O,1.700000X1.700000*%
%ADD23R,1.700000X1.700000*%
%ADD24C,1.800000*%
%ADD25R,1.800000X1.800000*%
%ADD26R,1.900000X0.800000*%
%ADD27R,2.600000X0.600000*%
%ADD28C,0.600000*%
%ADD29C,3.200000*%
%ADD30R,2.000000X0.550000*%
%ADD31R,0.550000X2.000000*%
%ADD32R,3.800000X2.000000*%
%ADD33R,1.500000X2.000000*%
G04 APERTURE END LIST*
D10*
X76947400Y-49580800D03*
D11*
X74447400Y-49580800D03*
D12*
X157078680Y-69100700D03*
X159618680Y-69100700D03*
X157078680Y-71640700D03*
X159618680Y-71640700D03*
X157078680Y-74180700D03*
X159618680Y-74180700D03*
X157078680Y-76720700D03*
D13*
X159618680Y-76720700D03*
D14*
G36*
X165369504Y-47716404D02*
G01*
X165393773Y-47720004D01*
X165417571Y-47725965D01*
X165440671Y-47734230D01*
X165462849Y-47744720D01*
X165483893Y-47757333D01*
X165503598Y-47771947D01*
X165521777Y-47788423D01*
X165538253Y-47806602D01*
X165552867Y-47826307D01*
X165565480Y-47847351D01*
X165575970Y-47869529D01*
X165584235Y-47892629D01*
X165590196Y-47916427D01*
X165593796Y-47940696D01*
X165595000Y-47965200D01*
X165595000Y-49215200D01*
X165593796Y-49239704D01*
X165590196Y-49263973D01*
X165584235Y-49287771D01*
X165575970Y-49310871D01*
X165565480Y-49333049D01*
X165552867Y-49354093D01*
X165538253Y-49373798D01*
X165521777Y-49391977D01*
X165503598Y-49408453D01*
X165483893Y-49423067D01*
X165462849Y-49435680D01*
X165440671Y-49446170D01*
X165417571Y-49454435D01*
X165393773Y-49460396D01*
X165369504Y-49463996D01*
X165345000Y-49465200D01*
X164420000Y-49465200D01*
X164395496Y-49463996D01*
X164371227Y-49460396D01*
X164347429Y-49454435D01*
X164324329Y-49446170D01*
X164302151Y-49435680D01*
X164281107Y-49423067D01*
X164261402Y-49408453D01*
X164243223Y-49391977D01*
X164226747Y-49373798D01*
X164212133Y-49354093D01*
X164199520Y-49333049D01*
X164189030Y-49310871D01*
X164180765Y-49287771D01*
X164174804Y-49263973D01*
X164171204Y-49239704D01*
X164170000Y-49215200D01*
X164170000Y-47965200D01*
X164171204Y-47940696D01*
X164174804Y-47916427D01*
X164180765Y-47892629D01*
X164189030Y-47869529D01*
X164199520Y-47847351D01*
X164212133Y-47826307D01*
X164226747Y-47806602D01*
X164243223Y-47788423D01*
X164261402Y-47771947D01*
X164281107Y-47757333D01*
X164302151Y-47744720D01*
X164324329Y-47734230D01*
X164347429Y-47725965D01*
X164371227Y-47720004D01*
X164395496Y-47716404D01*
X164420000Y-47715200D01*
X165345000Y-47715200D01*
X165369504Y-47716404D01*
X165369504Y-47716404D01*
G37*
D15*
X164882500Y-48590200D03*
D14*
G36*
X168344504Y-47716404D02*
G01*
X168368773Y-47720004D01*
X168392571Y-47725965D01*
X168415671Y-47734230D01*
X168437849Y-47744720D01*
X168458893Y-47757333D01*
X168478598Y-47771947D01*
X168496777Y-47788423D01*
X168513253Y-47806602D01*
X168527867Y-47826307D01*
X168540480Y-47847351D01*
X168550970Y-47869529D01*
X168559235Y-47892629D01*
X168565196Y-47916427D01*
X168568796Y-47940696D01*
X168570000Y-47965200D01*
X168570000Y-49215200D01*
X168568796Y-49239704D01*
X168565196Y-49263973D01*
X168559235Y-49287771D01*
X168550970Y-49310871D01*
X168540480Y-49333049D01*
X168527867Y-49354093D01*
X168513253Y-49373798D01*
X168496777Y-49391977D01*
X168478598Y-49408453D01*
X168458893Y-49423067D01*
X168437849Y-49435680D01*
X168415671Y-49446170D01*
X168392571Y-49454435D01*
X168368773Y-49460396D01*
X168344504Y-49463996D01*
X168320000Y-49465200D01*
X167395000Y-49465200D01*
X167370496Y-49463996D01*
X167346227Y-49460396D01*
X167322429Y-49454435D01*
X167299329Y-49446170D01*
X167277151Y-49435680D01*
X167256107Y-49423067D01*
X167236402Y-49408453D01*
X167218223Y-49391977D01*
X167201747Y-49373798D01*
X167187133Y-49354093D01*
X167174520Y-49333049D01*
X167164030Y-49310871D01*
X167155765Y-49287771D01*
X167149804Y-49263973D01*
X167146204Y-49239704D01*
X167145000Y-49215200D01*
X167145000Y-47965200D01*
X167146204Y-47940696D01*
X167149804Y-47916427D01*
X167155765Y-47892629D01*
X167164030Y-47869529D01*
X167174520Y-47847351D01*
X167187133Y-47826307D01*
X167201747Y-47806602D01*
X167218223Y-47788423D01*
X167236402Y-47771947D01*
X167256107Y-47757333D01*
X167277151Y-47744720D01*
X167299329Y-47734230D01*
X167322429Y-47725965D01*
X167346227Y-47720004D01*
X167370496Y-47716404D01*
X167395000Y-47715200D01*
X168320000Y-47715200D01*
X168344504Y-47716404D01*
X168344504Y-47716404D01*
G37*
D15*
X167857500Y-48590200D03*
D16*
X155702000Y-45466000D03*
X155702000Y-48006000D03*
X155702000Y-50546000D03*
X155702000Y-53086000D03*
X155702000Y-55626000D03*
X153162000Y-42926000D03*
X153162000Y-48006000D03*
X153162000Y-50546000D03*
X153162000Y-53086000D03*
X153162000Y-55626000D03*
X153162000Y-58166000D03*
X153162000Y-60706000D03*
X150622000Y-60706000D03*
X148082000Y-60706000D03*
X145542000Y-60706000D03*
X143002000Y-60706000D03*
X140462000Y-60706000D03*
X155702000Y-58166000D03*
X150622000Y-58166000D03*
X148082000Y-58166000D03*
X145542000Y-58166000D03*
X143002000Y-58166000D03*
X140462000Y-58166000D03*
X137922000Y-58166000D03*
X137922000Y-55626000D03*
X137922000Y-53086000D03*
X137922000Y-50546000D03*
X137922000Y-48006000D03*
X137922000Y-45466000D03*
X140462000Y-55626000D03*
X140462000Y-53086000D03*
X140462000Y-50546000D03*
X140462000Y-48006000D03*
X140462000Y-45466000D03*
X150622000Y-42926000D03*
X148082000Y-42926000D03*
X140462000Y-42926000D03*
X143002000Y-42926000D03*
X145542000Y-42926000D03*
X153162000Y-45466000D03*
X150622000Y-45466000D03*
X143002000Y-45466000D03*
X145542000Y-45466000D03*
D17*
X148082000Y-45466000D03*
D18*
X139748260Y-101861620D03*
X137208260Y-101861620D03*
X134668260Y-101861620D03*
X132128260Y-101861620D03*
X129588260Y-101861620D03*
X127048260Y-101861620D03*
X124508260Y-101861620D03*
X121968260Y-101861620D03*
X119428260Y-101861620D03*
X116888260Y-101861620D03*
X114348260Y-101861620D03*
X111808260Y-101861620D03*
X109268260Y-101861620D03*
X106728260Y-101861620D03*
X104188260Y-101861620D03*
X101648260Y-101861620D03*
X99108260Y-101861620D03*
X96568260Y-101861620D03*
X94028260Y-101861620D03*
X91488260Y-101861620D03*
X88948260Y-101861620D03*
D19*
X86357460Y-101345620D03*
D20*
X86347300Y-30683200D03*
X93205300Y-30683200D03*
D21*
X88176300Y-33604200D03*
X91376300Y-33604200D03*
X89776300Y-33604200D03*
X90538300Y-33604200D03*
X88976300Y-33604200D03*
D22*
X86357460Y-93454220D03*
D23*
X86357460Y-90914220D03*
D22*
X83195160Y-34274760D03*
X83195160Y-31734760D03*
D23*
X83195160Y-29194760D03*
D14*
G36*
X139302144Y-29093124D02*
G01*
X139326413Y-29096724D01*
X139350211Y-29102685D01*
X139373311Y-29110950D01*
X139395489Y-29121440D01*
X139416533Y-29134053D01*
X139436238Y-29148667D01*
X139454417Y-29165143D01*
X139470893Y-29183322D01*
X139485507Y-29203027D01*
X139498120Y-29224071D01*
X139508610Y-29246249D01*
X139516875Y-29269349D01*
X139522836Y-29293147D01*
X139526436Y-29317416D01*
X139527640Y-29341920D01*
X139527640Y-30591920D01*
X139526436Y-30616424D01*
X139522836Y-30640693D01*
X139516875Y-30664491D01*
X139508610Y-30687591D01*
X139498120Y-30709769D01*
X139485507Y-30730813D01*
X139470893Y-30750518D01*
X139454417Y-30768697D01*
X139436238Y-30785173D01*
X139416533Y-30799787D01*
X139395489Y-30812400D01*
X139373311Y-30822890D01*
X139350211Y-30831155D01*
X139326413Y-30837116D01*
X139302144Y-30840716D01*
X139277640Y-30841920D01*
X138352640Y-30841920D01*
X138328136Y-30840716D01*
X138303867Y-30837116D01*
X138280069Y-30831155D01*
X138256969Y-30822890D01*
X138234791Y-30812400D01*
X138213747Y-30799787D01*
X138194042Y-30785173D01*
X138175863Y-30768697D01*
X138159387Y-30750518D01*
X138144773Y-30730813D01*
X138132160Y-30709769D01*
X138121670Y-30687591D01*
X138113405Y-30664491D01*
X138107444Y-30640693D01*
X138103844Y-30616424D01*
X138102640Y-30591920D01*
X138102640Y-29341920D01*
X138103844Y-29317416D01*
X138107444Y-29293147D01*
X138113405Y-29269349D01*
X138121670Y-29246249D01*
X138132160Y-29224071D01*
X138144773Y-29203027D01*
X138159387Y-29183322D01*
X138175863Y-29165143D01*
X138194042Y-29148667D01*
X138213747Y-29134053D01*
X138234791Y-29121440D01*
X138256969Y-29110950D01*
X138280069Y-29102685D01*
X138303867Y-29096724D01*
X138328136Y-29093124D01*
X138352640Y-29091920D01*
X139277640Y-29091920D01*
X139302144Y-29093124D01*
X139302144Y-29093124D01*
G37*
D15*
X138815140Y-29966920D03*
D14*
G36*
X136327144Y-29093124D02*
G01*
X136351413Y-29096724D01*
X136375211Y-29102685D01*
X136398311Y-29110950D01*
X136420489Y-29121440D01*
X136441533Y-29134053D01*
X136461238Y-29148667D01*
X136479417Y-29165143D01*
X136495893Y-29183322D01*
X136510507Y-29203027D01*
X136523120Y-29224071D01*
X136533610Y-29246249D01*
X136541875Y-29269349D01*
X136547836Y-29293147D01*
X136551436Y-29317416D01*
X136552640Y-29341920D01*
X136552640Y-30591920D01*
X136551436Y-30616424D01*
X136547836Y-30640693D01*
X136541875Y-30664491D01*
X136533610Y-30687591D01*
X136523120Y-30709769D01*
X136510507Y-30730813D01*
X136495893Y-30750518D01*
X136479417Y-30768697D01*
X136461238Y-30785173D01*
X136441533Y-30799787D01*
X136420489Y-30812400D01*
X136398311Y-30822890D01*
X136375211Y-30831155D01*
X136351413Y-30837116D01*
X136327144Y-30840716D01*
X136302640Y-30841920D01*
X135377640Y-30841920D01*
X135353136Y-30840716D01*
X135328867Y-30837116D01*
X135305069Y-30831155D01*
X135281969Y-30822890D01*
X135259791Y-30812400D01*
X135238747Y-30799787D01*
X135219042Y-30785173D01*
X135200863Y-30768697D01*
X135184387Y-30750518D01*
X135169773Y-30730813D01*
X135157160Y-30709769D01*
X135146670Y-30687591D01*
X135138405Y-30664491D01*
X135132444Y-30640693D01*
X135128844Y-30616424D01*
X135127640Y-30591920D01*
X135127640Y-29341920D01*
X135128844Y-29317416D01*
X135132444Y-29293147D01*
X135138405Y-29269349D01*
X135146670Y-29246249D01*
X135157160Y-29224071D01*
X135169773Y-29203027D01*
X135184387Y-29183322D01*
X135200863Y-29165143D01*
X135219042Y-29148667D01*
X135238747Y-29134053D01*
X135259791Y-29121440D01*
X135281969Y-29110950D01*
X135305069Y-29102685D01*
X135328867Y-29096724D01*
X135353136Y-29093124D01*
X135377640Y-29091920D01*
X136302640Y-29091920D01*
X136327144Y-29093124D01*
X136327144Y-29093124D01*
G37*
D15*
X135840140Y-29966920D03*
D14*
G36*
X98071204Y-32152824D02*
G01*
X98095473Y-32156424D01*
X98119271Y-32162385D01*
X98142371Y-32170650D01*
X98164549Y-32181140D01*
X98185593Y-32193753D01*
X98205298Y-32208367D01*
X98223477Y-32224843D01*
X98239953Y-32243022D01*
X98254567Y-32262727D01*
X98267180Y-32283771D01*
X98277670Y-32305949D01*
X98285935Y-32329049D01*
X98291896Y-32352847D01*
X98295496Y-32377116D01*
X98296700Y-32401620D01*
X98296700Y-33326620D01*
X98295496Y-33351124D01*
X98291896Y-33375393D01*
X98285935Y-33399191D01*
X98277670Y-33422291D01*
X98267180Y-33444469D01*
X98254567Y-33465513D01*
X98239953Y-33485218D01*
X98223477Y-33503397D01*
X98205298Y-33519873D01*
X98185593Y-33534487D01*
X98164549Y-33547100D01*
X98142371Y-33557590D01*
X98119271Y-33565855D01*
X98095473Y-33571816D01*
X98071204Y-33575416D01*
X98046700Y-33576620D01*
X96796700Y-33576620D01*
X96772196Y-33575416D01*
X96747927Y-33571816D01*
X96724129Y-33565855D01*
X96701029Y-33557590D01*
X96678851Y-33547100D01*
X96657807Y-33534487D01*
X96638102Y-33519873D01*
X96619923Y-33503397D01*
X96603447Y-33485218D01*
X96588833Y-33465513D01*
X96576220Y-33444469D01*
X96565730Y-33422291D01*
X96557465Y-33399191D01*
X96551504Y-33375393D01*
X96547904Y-33351124D01*
X96546700Y-33326620D01*
X96546700Y-32401620D01*
X96547904Y-32377116D01*
X96551504Y-32352847D01*
X96557465Y-32329049D01*
X96565730Y-32305949D01*
X96576220Y-32283771D01*
X96588833Y-32262727D01*
X96603447Y-32243022D01*
X96619923Y-32224843D01*
X96638102Y-32208367D01*
X96657807Y-32193753D01*
X96678851Y-32181140D01*
X96701029Y-32170650D01*
X96724129Y-32162385D01*
X96747927Y-32156424D01*
X96772196Y-32152824D01*
X96796700Y-32151620D01*
X98046700Y-32151620D01*
X98071204Y-32152824D01*
X98071204Y-32152824D01*
G37*
D15*
X97421700Y-32864120D03*
D14*
G36*
X98071204Y-29177824D02*
G01*
X98095473Y-29181424D01*
X98119271Y-29187385D01*
X98142371Y-29195650D01*
X98164549Y-29206140D01*
X98185593Y-29218753D01*
X98205298Y-29233367D01*
X98223477Y-29249843D01*
X98239953Y-29268022D01*
X98254567Y-29287727D01*
X98267180Y-29308771D01*
X98277670Y-29330949D01*
X98285935Y-29354049D01*
X98291896Y-29377847D01*
X98295496Y-29402116D01*
X98296700Y-29426620D01*
X98296700Y-30351620D01*
X98295496Y-30376124D01*
X98291896Y-30400393D01*
X98285935Y-30424191D01*
X98277670Y-30447291D01*
X98267180Y-30469469D01*
X98254567Y-30490513D01*
X98239953Y-30510218D01*
X98223477Y-30528397D01*
X98205298Y-30544873D01*
X98185593Y-30559487D01*
X98164549Y-30572100D01*
X98142371Y-30582590D01*
X98119271Y-30590855D01*
X98095473Y-30596816D01*
X98071204Y-30600416D01*
X98046700Y-30601620D01*
X96796700Y-30601620D01*
X96772196Y-30600416D01*
X96747927Y-30596816D01*
X96724129Y-30590855D01*
X96701029Y-30582590D01*
X96678851Y-30572100D01*
X96657807Y-30559487D01*
X96638102Y-30544873D01*
X96619923Y-30528397D01*
X96603447Y-30510218D01*
X96588833Y-30490513D01*
X96576220Y-30469469D01*
X96565730Y-30447291D01*
X96557465Y-30424191D01*
X96551504Y-30400393D01*
X96547904Y-30376124D01*
X96546700Y-30351620D01*
X96546700Y-29426620D01*
X96547904Y-29402116D01*
X96551504Y-29377847D01*
X96557465Y-29354049D01*
X96565730Y-29330949D01*
X96576220Y-29308771D01*
X96588833Y-29287727D01*
X96603447Y-29268022D01*
X96619923Y-29249843D01*
X96638102Y-29233367D01*
X96657807Y-29218753D01*
X96678851Y-29206140D01*
X96701029Y-29195650D01*
X96724129Y-29187385D01*
X96747927Y-29181424D01*
X96772196Y-29177824D01*
X96796700Y-29176620D01*
X98046700Y-29176620D01*
X98071204Y-29177824D01*
X98071204Y-29177824D01*
G37*
D15*
X97421700Y-29889120D03*
D24*
X102661720Y-29885640D03*
D25*
X100121720Y-29885640D03*
D14*
G36*
X77350884Y-53395844D02*
G01*
X77375153Y-53399444D01*
X77398951Y-53405405D01*
X77422051Y-53413670D01*
X77444229Y-53424160D01*
X77465273Y-53436773D01*
X77484978Y-53451387D01*
X77503157Y-53467863D01*
X77519633Y-53486042D01*
X77534247Y-53505747D01*
X77546860Y-53526791D01*
X77557350Y-53548969D01*
X77565615Y-53572069D01*
X77571576Y-53595867D01*
X77575176Y-53620136D01*
X77576380Y-53644640D01*
X77576380Y-54894640D01*
X77575176Y-54919144D01*
X77571576Y-54943413D01*
X77565615Y-54967211D01*
X77557350Y-54990311D01*
X77546860Y-55012489D01*
X77534247Y-55033533D01*
X77519633Y-55053238D01*
X77503157Y-55071417D01*
X77484978Y-55087893D01*
X77465273Y-55102507D01*
X77444229Y-55115120D01*
X77422051Y-55125610D01*
X77398951Y-55133875D01*
X77375153Y-55139836D01*
X77350884Y-55143436D01*
X77326380Y-55144640D01*
X76401380Y-55144640D01*
X76376876Y-55143436D01*
X76352607Y-55139836D01*
X76328809Y-55133875D01*
X76305709Y-55125610D01*
X76283531Y-55115120D01*
X76262487Y-55102507D01*
X76242782Y-55087893D01*
X76224603Y-55071417D01*
X76208127Y-55053238D01*
X76193513Y-55033533D01*
X76180900Y-55012489D01*
X76170410Y-54990311D01*
X76162145Y-54967211D01*
X76156184Y-54943413D01*
X76152584Y-54919144D01*
X76151380Y-54894640D01*
X76151380Y-53644640D01*
X76152584Y-53620136D01*
X76156184Y-53595867D01*
X76162145Y-53572069D01*
X76170410Y-53548969D01*
X76180900Y-53526791D01*
X76193513Y-53505747D01*
X76208127Y-53486042D01*
X76224603Y-53467863D01*
X76242782Y-53451387D01*
X76262487Y-53436773D01*
X76283531Y-53424160D01*
X76305709Y-53413670D01*
X76328809Y-53405405D01*
X76352607Y-53399444D01*
X76376876Y-53395844D01*
X76401380Y-53394640D01*
X77326380Y-53394640D01*
X77350884Y-53395844D01*
X77350884Y-53395844D01*
G37*
D15*
X76863880Y-54269640D03*
D14*
G36*
X80325884Y-53395844D02*
G01*
X80350153Y-53399444D01*
X80373951Y-53405405D01*
X80397051Y-53413670D01*
X80419229Y-53424160D01*
X80440273Y-53436773D01*
X80459978Y-53451387D01*
X80478157Y-53467863D01*
X80494633Y-53486042D01*
X80509247Y-53505747D01*
X80521860Y-53526791D01*
X80532350Y-53548969D01*
X80540615Y-53572069D01*
X80546576Y-53595867D01*
X80550176Y-53620136D01*
X80551380Y-53644640D01*
X80551380Y-54894640D01*
X80550176Y-54919144D01*
X80546576Y-54943413D01*
X80540615Y-54967211D01*
X80532350Y-54990311D01*
X80521860Y-55012489D01*
X80509247Y-55033533D01*
X80494633Y-55053238D01*
X80478157Y-55071417D01*
X80459978Y-55087893D01*
X80440273Y-55102507D01*
X80419229Y-55115120D01*
X80397051Y-55125610D01*
X80373951Y-55133875D01*
X80350153Y-55139836D01*
X80325884Y-55143436D01*
X80301380Y-55144640D01*
X79376380Y-55144640D01*
X79351876Y-55143436D01*
X79327607Y-55139836D01*
X79303809Y-55133875D01*
X79280709Y-55125610D01*
X79258531Y-55115120D01*
X79237487Y-55102507D01*
X79217782Y-55087893D01*
X79199603Y-55071417D01*
X79183127Y-55053238D01*
X79168513Y-55033533D01*
X79155900Y-55012489D01*
X79145410Y-54990311D01*
X79137145Y-54967211D01*
X79131184Y-54943413D01*
X79127584Y-54919144D01*
X79126380Y-54894640D01*
X79126380Y-53644640D01*
X79127584Y-53620136D01*
X79131184Y-53595867D01*
X79137145Y-53572069D01*
X79145410Y-53548969D01*
X79155900Y-53526791D01*
X79168513Y-53505747D01*
X79183127Y-53486042D01*
X79199603Y-53467863D01*
X79217782Y-53451387D01*
X79237487Y-53436773D01*
X79258531Y-53424160D01*
X79280709Y-53413670D01*
X79303809Y-53405405D01*
X79327607Y-53399444D01*
X79351876Y-53395844D01*
X79376380Y-53394640D01*
X80301380Y-53394640D01*
X80325884Y-53395844D01*
X80325884Y-53395844D01*
G37*
D15*
X79838880Y-54269640D03*
D26*
X154743280Y-84328000D03*
X151743280Y-85278000D03*
X151743280Y-83378000D03*
X154789000Y-89476580D03*
X151789000Y-90426580D03*
X151789000Y-88526580D03*
D14*
G36*
X90089644Y-72458544D02*
G01*
X90113913Y-72462144D01*
X90137711Y-72468105D01*
X90160811Y-72476370D01*
X90182989Y-72486860D01*
X90204033Y-72499473D01*
X90223738Y-72514087D01*
X90241917Y-72530563D01*
X90258393Y-72548742D01*
X90273007Y-72568447D01*
X90285620Y-72589491D01*
X90296110Y-72611669D01*
X90304375Y-72634769D01*
X90310336Y-72658567D01*
X90313936Y-72682836D01*
X90315140Y-72707340D01*
X90315140Y-73957340D01*
X90313936Y-73981844D01*
X90310336Y-74006113D01*
X90304375Y-74029911D01*
X90296110Y-74053011D01*
X90285620Y-74075189D01*
X90273007Y-74096233D01*
X90258393Y-74115938D01*
X90241917Y-74134117D01*
X90223738Y-74150593D01*
X90204033Y-74165207D01*
X90182989Y-74177820D01*
X90160811Y-74188310D01*
X90137711Y-74196575D01*
X90113913Y-74202536D01*
X90089644Y-74206136D01*
X90065140Y-74207340D01*
X89140140Y-74207340D01*
X89115636Y-74206136D01*
X89091367Y-74202536D01*
X89067569Y-74196575D01*
X89044469Y-74188310D01*
X89022291Y-74177820D01*
X89001247Y-74165207D01*
X88981542Y-74150593D01*
X88963363Y-74134117D01*
X88946887Y-74115938D01*
X88932273Y-74096233D01*
X88919660Y-74075189D01*
X88909170Y-74053011D01*
X88900905Y-74029911D01*
X88894944Y-74006113D01*
X88891344Y-73981844D01*
X88890140Y-73957340D01*
X88890140Y-72707340D01*
X88891344Y-72682836D01*
X88894944Y-72658567D01*
X88900905Y-72634769D01*
X88909170Y-72611669D01*
X88919660Y-72589491D01*
X88932273Y-72568447D01*
X88946887Y-72548742D01*
X88963363Y-72530563D01*
X88981542Y-72514087D01*
X89001247Y-72499473D01*
X89022291Y-72486860D01*
X89044469Y-72476370D01*
X89067569Y-72468105D01*
X89091367Y-72462144D01*
X89115636Y-72458544D01*
X89140140Y-72457340D01*
X90065140Y-72457340D01*
X90089644Y-72458544D01*
X90089644Y-72458544D01*
G37*
D15*
X89602640Y-73332340D03*
D14*
G36*
X87114644Y-72458544D02*
G01*
X87138913Y-72462144D01*
X87162711Y-72468105D01*
X87185811Y-72476370D01*
X87207989Y-72486860D01*
X87229033Y-72499473D01*
X87248738Y-72514087D01*
X87266917Y-72530563D01*
X87283393Y-72548742D01*
X87298007Y-72568447D01*
X87310620Y-72589491D01*
X87321110Y-72611669D01*
X87329375Y-72634769D01*
X87335336Y-72658567D01*
X87338936Y-72682836D01*
X87340140Y-72707340D01*
X87340140Y-73957340D01*
X87338936Y-73981844D01*
X87335336Y-74006113D01*
X87329375Y-74029911D01*
X87321110Y-74053011D01*
X87310620Y-74075189D01*
X87298007Y-74096233D01*
X87283393Y-74115938D01*
X87266917Y-74134117D01*
X87248738Y-74150593D01*
X87229033Y-74165207D01*
X87207989Y-74177820D01*
X87185811Y-74188310D01*
X87162711Y-74196575D01*
X87138913Y-74202536D01*
X87114644Y-74206136D01*
X87090140Y-74207340D01*
X86165140Y-74207340D01*
X86140636Y-74206136D01*
X86116367Y-74202536D01*
X86092569Y-74196575D01*
X86069469Y-74188310D01*
X86047291Y-74177820D01*
X86026247Y-74165207D01*
X86006542Y-74150593D01*
X85988363Y-74134117D01*
X85971887Y-74115938D01*
X85957273Y-74096233D01*
X85944660Y-74075189D01*
X85934170Y-74053011D01*
X85925905Y-74029911D01*
X85919944Y-74006113D01*
X85916344Y-73981844D01*
X85915140Y-73957340D01*
X85915140Y-72707340D01*
X85916344Y-72682836D01*
X85919944Y-72658567D01*
X85925905Y-72634769D01*
X85934170Y-72611669D01*
X85944660Y-72589491D01*
X85957273Y-72568447D01*
X85971887Y-72548742D01*
X85988363Y-72530563D01*
X86006542Y-72514087D01*
X86026247Y-72499473D01*
X86047291Y-72486860D01*
X86069469Y-72476370D01*
X86092569Y-72468105D01*
X86116367Y-72462144D01*
X86140636Y-72458544D01*
X86165140Y-72457340D01*
X87090140Y-72457340D01*
X87114644Y-72458544D01*
X87114644Y-72458544D01*
G37*
D15*
X86627640Y-73332340D03*
D24*
X102692200Y-48387000D03*
X102692200Y-50927000D03*
X102692200Y-53467000D03*
X102692200Y-56007000D03*
X102692200Y-58547000D03*
X100152200Y-50927000D03*
X100152200Y-53467000D03*
X100152200Y-56007000D03*
X100152200Y-61087000D03*
X97612200Y-61087000D03*
X95072200Y-61087000D03*
X92532200Y-61087000D03*
X100152200Y-58547000D03*
X97612200Y-58547000D03*
X95072200Y-58547000D03*
X92532200Y-58547000D03*
X89992200Y-58547000D03*
X89992200Y-56007000D03*
X89992200Y-53467000D03*
X89992200Y-50927000D03*
X89992200Y-48387000D03*
X92532200Y-56007000D03*
X92532200Y-53467000D03*
X92532200Y-50927000D03*
X92532200Y-48387000D03*
X100152200Y-45847000D03*
X97612200Y-45847000D03*
X92532200Y-45847000D03*
X95072200Y-45847000D03*
X102692200Y-48387000D03*
X100152200Y-48387000D03*
X95072200Y-48387000D03*
D25*
X97612200Y-48387000D03*
D27*
X123563380Y-40393620D03*
X123567380Y-41663620D03*
X123567380Y-42933620D03*
X123567380Y-44203620D03*
X123567380Y-45473620D03*
X123567380Y-46743620D03*
X123567380Y-48013620D03*
X123567380Y-49293620D03*
X123567380Y-50543620D03*
X123567380Y-51823620D03*
X123567380Y-53093620D03*
X123567380Y-54363620D03*
X123567380Y-55633620D03*
X123567380Y-56903620D03*
X123567380Y-58173620D03*
X123567380Y-59443620D03*
X109843380Y-59443620D03*
X109843380Y-58173620D03*
X109843380Y-56903620D03*
X109843380Y-55633620D03*
X109843380Y-54363620D03*
X109843380Y-53093620D03*
X109743380Y-51823620D03*
X109843380Y-50543620D03*
X109843380Y-49293620D03*
X109843380Y-48013620D03*
X109843380Y-46743620D03*
X109843380Y-45473620D03*
X109843380Y-44203620D03*
X109843380Y-42933620D03*
X109843380Y-41663620D03*
X109843380Y-40393620D03*
D14*
G36*
X123867383Y-67762562D02*
G01*
X123881944Y-67764722D01*
X123896223Y-67768299D01*
X123910083Y-67773258D01*
X123923390Y-67779552D01*
X123936016Y-67787120D01*
X123947839Y-67795888D01*
X123958746Y-67805774D01*
X123968632Y-67816681D01*
X123977400Y-67828504D01*
X123984968Y-67841130D01*
X123991262Y-67854437D01*
X123996221Y-67868297D01*
X123999798Y-67882576D01*
X124001958Y-67897137D01*
X124002680Y-67911840D01*
X124002680Y-68211840D01*
X124001958Y-68226543D01*
X123999798Y-68241104D01*
X123996221Y-68255383D01*
X123991262Y-68269243D01*
X123984968Y-68282550D01*
X123977400Y-68295176D01*
X123968632Y-68306999D01*
X123958746Y-68317906D01*
X123947839Y-68327792D01*
X123936016Y-68336560D01*
X123923390Y-68344128D01*
X123910083Y-68350422D01*
X123896223Y-68355381D01*
X123881944Y-68358958D01*
X123867383Y-68361118D01*
X123852680Y-68361840D01*
X121102680Y-68361840D01*
X121087977Y-68361118D01*
X121073416Y-68358958D01*
X121059137Y-68355381D01*
X121045277Y-68350422D01*
X121031970Y-68344128D01*
X121019344Y-68336560D01*
X121007521Y-68327792D01*
X120996614Y-68317906D01*
X120986728Y-68306999D01*
X120977960Y-68295176D01*
X120970392Y-68282550D01*
X120964098Y-68269243D01*
X120959139Y-68255383D01*
X120955562Y-68241104D01*
X120953402Y-68226543D01*
X120952680Y-68211840D01*
X120952680Y-67911840D01*
X120953402Y-67897137D01*
X120955562Y-67882576D01*
X120959139Y-67868297D01*
X120964098Y-67854437D01*
X120970392Y-67841130D01*
X120977960Y-67828504D01*
X120986728Y-67816681D01*
X120996614Y-67805774D01*
X121007521Y-67795888D01*
X121019344Y-67787120D01*
X121031970Y-67779552D01*
X121045277Y-67773258D01*
X121059137Y-67768299D01*
X121073416Y-67764722D01*
X121087977Y-67762562D01*
X121102680Y-67761840D01*
X123852680Y-67761840D01*
X123867383Y-67762562D01*
X123867383Y-67762562D01*
G37*
D28*
X122477680Y-68061840D03*
D14*
G36*
X123867383Y-69032562D02*
G01*
X123881944Y-69034722D01*
X123896223Y-69038299D01*
X123910083Y-69043258D01*
X123923390Y-69049552D01*
X123936016Y-69057120D01*
X123947839Y-69065888D01*
X123958746Y-69075774D01*
X123968632Y-69086681D01*
X123977400Y-69098504D01*
X123984968Y-69111130D01*
X123991262Y-69124437D01*
X123996221Y-69138297D01*
X123999798Y-69152576D01*
X124001958Y-69167137D01*
X124002680Y-69181840D01*
X124002680Y-69481840D01*
X124001958Y-69496543D01*
X123999798Y-69511104D01*
X123996221Y-69525383D01*
X123991262Y-69539243D01*
X123984968Y-69552550D01*
X123977400Y-69565176D01*
X123968632Y-69576999D01*
X123958746Y-69587906D01*
X123947839Y-69597792D01*
X123936016Y-69606560D01*
X123923390Y-69614128D01*
X123910083Y-69620422D01*
X123896223Y-69625381D01*
X123881944Y-69628958D01*
X123867383Y-69631118D01*
X123852680Y-69631840D01*
X121102680Y-69631840D01*
X121087977Y-69631118D01*
X121073416Y-69628958D01*
X121059137Y-69625381D01*
X121045277Y-69620422D01*
X121031970Y-69614128D01*
X121019344Y-69606560D01*
X121007521Y-69597792D01*
X120996614Y-69587906D01*
X120986728Y-69576999D01*
X120977960Y-69565176D01*
X120970392Y-69552550D01*
X120964098Y-69539243D01*
X120959139Y-69525383D01*
X120955562Y-69511104D01*
X120953402Y-69496543D01*
X120952680Y-69481840D01*
X120952680Y-69181840D01*
X120953402Y-69167137D01*
X120955562Y-69152576D01*
X120959139Y-69138297D01*
X120964098Y-69124437D01*
X120970392Y-69111130D01*
X120977960Y-69098504D01*
X120986728Y-69086681D01*
X120996614Y-69075774D01*
X121007521Y-69065888D01*
X121019344Y-69057120D01*
X121031970Y-69049552D01*
X121045277Y-69043258D01*
X121059137Y-69038299D01*
X121073416Y-69034722D01*
X121087977Y-69032562D01*
X121102680Y-69031840D01*
X123852680Y-69031840D01*
X123867383Y-69032562D01*
X123867383Y-69032562D01*
G37*
D28*
X122477680Y-69331840D03*
D14*
G36*
X123867383Y-70302562D02*
G01*
X123881944Y-70304722D01*
X123896223Y-70308299D01*
X123910083Y-70313258D01*
X123923390Y-70319552D01*
X123936016Y-70327120D01*
X123947839Y-70335888D01*
X123958746Y-70345774D01*
X123968632Y-70356681D01*
X123977400Y-70368504D01*
X123984968Y-70381130D01*
X123991262Y-70394437D01*
X123996221Y-70408297D01*
X123999798Y-70422576D01*
X124001958Y-70437137D01*
X124002680Y-70451840D01*
X124002680Y-70751840D01*
X124001958Y-70766543D01*
X123999798Y-70781104D01*
X123996221Y-70795383D01*
X123991262Y-70809243D01*
X123984968Y-70822550D01*
X123977400Y-70835176D01*
X123968632Y-70846999D01*
X123958746Y-70857906D01*
X123947839Y-70867792D01*
X123936016Y-70876560D01*
X123923390Y-70884128D01*
X123910083Y-70890422D01*
X123896223Y-70895381D01*
X123881944Y-70898958D01*
X123867383Y-70901118D01*
X123852680Y-70901840D01*
X121102680Y-70901840D01*
X121087977Y-70901118D01*
X121073416Y-70898958D01*
X121059137Y-70895381D01*
X121045277Y-70890422D01*
X121031970Y-70884128D01*
X121019344Y-70876560D01*
X121007521Y-70867792D01*
X120996614Y-70857906D01*
X120986728Y-70846999D01*
X120977960Y-70835176D01*
X120970392Y-70822550D01*
X120964098Y-70809243D01*
X120959139Y-70795383D01*
X120955562Y-70781104D01*
X120953402Y-70766543D01*
X120952680Y-70751840D01*
X120952680Y-70451840D01*
X120953402Y-70437137D01*
X120955562Y-70422576D01*
X120959139Y-70408297D01*
X120964098Y-70394437D01*
X120970392Y-70381130D01*
X120977960Y-70368504D01*
X120986728Y-70356681D01*
X120996614Y-70345774D01*
X121007521Y-70335888D01*
X121019344Y-70327120D01*
X121031970Y-70319552D01*
X121045277Y-70313258D01*
X121059137Y-70308299D01*
X121073416Y-70304722D01*
X121087977Y-70302562D01*
X121102680Y-70301840D01*
X123852680Y-70301840D01*
X123867383Y-70302562D01*
X123867383Y-70302562D01*
G37*
D28*
X122477680Y-70601840D03*
D14*
G36*
X123867383Y-71572562D02*
G01*
X123881944Y-71574722D01*
X123896223Y-71578299D01*
X123910083Y-71583258D01*
X123923390Y-71589552D01*
X123936016Y-71597120D01*
X123947839Y-71605888D01*
X123958746Y-71615774D01*
X123968632Y-71626681D01*
X123977400Y-71638504D01*
X123984968Y-71651130D01*
X123991262Y-71664437D01*
X123996221Y-71678297D01*
X123999798Y-71692576D01*
X124001958Y-71707137D01*
X124002680Y-71721840D01*
X124002680Y-72021840D01*
X124001958Y-72036543D01*
X123999798Y-72051104D01*
X123996221Y-72065383D01*
X123991262Y-72079243D01*
X123984968Y-72092550D01*
X123977400Y-72105176D01*
X123968632Y-72116999D01*
X123958746Y-72127906D01*
X123947839Y-72137792D01*
X123936016Y-72146560D01*
X123923390Y-72154128D01*
X123910083Y-72160422D01*
X123896223Y-72165381D01*
X123881944Y-72168958D01*
X123867383Y-72171118D01*
X123852680Y-72171840D01*
X121102680Y-72171840D01*
X121087977Y-72171118D01*
X121073416Y-72168958D01*
X121059137Y-72165381D01*
X121045277Y-72160422D01*
X121031970Y-72154128D01*
X121019344Y-72146560D01*
X121007521Y-72137792D01*
X120996614Y-72127906D01*
X120986728Y-72116999D01*
X120977960Y-72105176D01*
X120970392Y-72092550D01*
X120964098Y-72079243D01*
X120959139Y-72065383D01*
X120955562Y-72051104D01*
X120953402Y-72036543D01*
X120952680Y-72021840D01*
X120952680Y-71721840D01*
X120953402Y-71707137D01*
X120955562Y-71692576D01*
X120959139Y-71678297D01*
X120964098Y-71664437D01*
X120970392Y-71651130D01*
X120977960Y-71638504D01*
X120986728Y-71626681D01*
X120996614Y-71615774D01*
X121007521Y-71605888D01*
X121019344Y-71597120D01*
X121031970Y-71589552D01*
X121045277Y-71583258D01*
X121059137Y-71578299D01*
X121073416Y-71574722D01*
X121087977Y-71572562D01*
X121102680Y-71571840D01*
X123852680Y-71571840D01*
X123867383Y-71572562D01*
X123867383Y-71572562D01*
G37*
D28*
X122477680Y-71871840D03*
D14*
G36*
X123867383Y-72842562D02*
G01*
X123881944Y-72844722D01*
X123896223Y-72848299D01*
X123910083Y-72853258D01*
X123923390Y-72859552D01*
X123936016Y-72867120D01*
X123947839Y-72875888D01*
X123958746Y-72885774D01*
X123968632Y-72896681D01*
X123977400Y-72908504D01*
X123984968Y-72921130D01*
X123991262Y-72934437D01*
X123996221Y-72948297D01*
X123999798Y-72962576D01*
X124001958Y-72977137D01*
X124002680Y-72991840D01*
X124002680Y-73291840D01*
X124001958Y-73306543D01*
X123999798Y-73321104D01*
X123996221Y-73335383D01*
X123991262Y-73349243D01*
X123984968Y-73362550D01*
X123977400Y-73375176D01*
X123968632Y-73386999D01*
X123958746Y-73397906D01*
X123947839Y-73407792D01*
X123936016Y-73416560D01*
X123923390Y-73424128D01*
X123910083Y-73430422D01*
X123896223Y-73435381D01*
X123881944Y-73438958D01*
X123867383Y-73441118D01*
X123852680Y-73441840D01*
X121102680Y-73441840D01*
X121087977Y-73441118D01*
X121073416Y-73438958D01*
X121059137Y-73435381D01*
X121045277Y-73430422D01*
X121031970Y-73424128D01*
X121019344Y-73416560D01*
X121007521Y-73407792D01*
X120996614Y-73397906D01*
X120986728Y-73386999D01*
X120977960Y-73375176D01*
X120970392Y-73362550D01*
X120964098Y-73349243D01*
X120959139Y-73335383D01*
X120955562Y-73321104D01*
X120953402Y-73306543D01*
X120952680Y-73291840D01*
X120952680Y-72991840D01*
X120953402Y-72977137D01*
X120955562Y-72962576D01*
X120959139Y-72948297D01*
X120964098Y-72934437D01*
X120970392Y-72921130D01*
X120977960Y-72908504D01*
X120986728Y-72896681D01*
X120996614Y-72885774D01*
X121007521Y-72875888D01*
X121019344Y-72867120D01*
X121031970Y-72859552D01*
X121045277Y-72853258D01*
X121059137Y-72848299D01*
X121073416Y-72844722D01*
X121087977Y-72842562D01*
X121102680Y-72841840D01*
X123852680Y-72841840D01*
X123867383Y-72842562D01*
X123867383Y-72842562D01*
G37*
D28*
X122477680Y-73141840D03*
D14*
G36*
X123867383Y-74112562D02*
G01*
X123881944Y-74114722D01*
X123896223Y-74118299D01*
X123910083Y-74123258D01*
X123923390Y-74129552D01*
X123936016Y-74137120D01*
X123947839Y-74145888D01*
X123958746Y-74155774D01*
X123968632Y-74166681D01*
X123977400Y-74178504D01*
X123984968Y-74191130D01*
X123991262Y-74204437D01*
X123996221Y-74218297D01*
X123999798Y-74232576D01*
X124001958Y-74247137D01*
X124002680Y-74261840D01*
X124002680Y-74561840D01*
X124001958Y-74576543D01*
X123999798Y-74591104D01*
X123996221Y-74605383D01*
X123991262Y-74619243D01*
X123984968Y-74632550D01*
X123977400Y-74645176D01*
X123968632Y-74656999D01*
X123958746Y-74667906D01*
X123947839Y-74677792D01*
X123936016Y-74686560D01*
X123923390Y-74694128D01*
X123910083Y-74700422D01*
X123896223Y-74705381D01*
X123881944Y-74708958D01*
X123867383Y-74711118D01*
X123852680Y-74711840D01*
X121102680Y-74711840D01*
X121087977Y-74711118D01*
X121073416Y-74708958D01*
X121059137Y-74705381D01*
X121045277Y-74700422D01*
X121031970Y-74694128D01*
X121019344Y-74686560D01*
X121007521Y-74677792D01*
X120996614Y-74667906D01*
X120986728Y-74656999D01*
X120977960Y-74645176D01*
X120970392Y-74632550D01*
X120964098Y-74619243D01*
X120959139Y-74605383D01*
X120955562Y-74591104D01*
X120953402Y-74576543D01*
X120952680Y-74561840D01*
X120952680Y-74261840D01*
X120953402Y-74247137D01*
X120955562Y-74232576D01*
X120959139Y-74218297D01*
X120964098Y-74204437D01*
X120970392Y-74191130D01*
X120977960Y-74178504D01*
X120986728Y-74166681D01*
X120996614Y-74155774D01*
X121007521Y-74145888D01*
X121019344Y-74137120D01*
X121031970Y-74129552D01*
X121045277Y-74123258D01*
X121059137Y-74118299D01*
X121073416Y-74114722D01*
X121087977Y-74112562D01*
X121102680Y-74111840D01*
X123852680Y-74111840D01*
X123867383Y-74112562D01*
X123867383Y-74112562D01*
G37*
D28*
X122477680Y-74411840D03*
D14*
G36*
X123867383Y-75382562D02*
G01*
X123881944Y-75384722D01*
X123896223Y-75388299D01*
X123910083Y-75393258D01*
X123923390Y-75399552D01*
X123936016Y-75407120D01*
X123947839Y-75415888D01*
X123958746Y-75425774D01*
X123968632Y-75436681D01*
X123977400Y-75448504D01*
X123984968Y-75461130D01*
X123991262Y-75474437D01*
X123996221Y-75488297D01*
X123999798Y-75502576D01*
X124001958Y-75517137D01*
X124002680Y-75531840D01*
X124002680Y-75831840D01*
X124001958Y-75846543D01*
X123999798Y-75861104D01*
X123996221Y-75875383D01*
X123991262Y-75889243D01*
X123984968Y-75902550D01*
X123977400Y-75915176D01*
X123968632Y-75926999D01*
X123958746Y-75937906D01*
X123947839Y-75947792D01*
X123936016Y-75956560D01*
X123923390Y-75964128D01*
X123910083Y-75970422D01*
X123896223Y-75975381D01*
X123881944Y-75978958D01*
X123867383Y-75981118D01*
X123852680Y-75981840D01*
X121102680Y-75981840D01*
X121087977Y-75981118D01*
X121073416Y-75978958D01*
X121059137Y-75975381D01*
X121045277Y-75970422D01*
X121031970Y-75964128D01*
X121019344Y-75956560D01*
X121007521Y-75947792D01*
X120996614Y-75937906D01*
X120986728Y-75926999D01*
X120977960Y-75915176D01*
X120970392Y-75902550D01*
X120964098Y-75889243D01*
X120959139Y-75875383D01*
X120955562Y-75861104D01*
X120953402Y-75846543D01*
X120952680Y-75831840D01*
X120952680Y-75531840D01*
X120953402Y-75517137D01*
X120955562Y-75502576D01*
X120959139Y-75488297D01*
X120964098Y-75474437D01*
X120970392Y-75461130D01*
X120977960Y-75448504D01*
X120986728Y-75436681D01*
X120996614Y-75425774D01*
X121007521Y-75415888D01*
X121019344Y-75407120D01*
X121031970Y-75399552D01*
X121045277Y-75393258D01*
X121059137Y-75388299D01*
X121073416Y-75384722D01*
X121087977Y-75382562D01*
X121102680Y-75381840D01*
X123852680Y-75381840D01*
X123867383Y-75382562D01*
X123867383Y-75382562D01*
G37*
D28*
X122477680Y-75681840D03*
D14*
G36*
X123867383Y-76652562D02*
G01*
X123881944Y-76654722D01*
X123896223Y-76658299D01*
X123910083Y-76663258D01*
X123923390Y-76669552D01*
X123936016Y-76677120D01*
X123947839Y-76685888D01*
X123958746Y-76695774D01*
X123968632Y-76706681D01*
X123977400Y-76718504D01*
X123984968Y-76731130D01*
X123991262Y-76744437D01*
X123996221Y-76758297D01*
X123999798Y-76772576D01*
X124001958Y-76787137D01*
X124002680Y-76801840D01*
X124002680Y-77101840D01*
X124001958Y-77116543D01*
X123999798Y-77131104D01*
X123996221Y-77145383D01*
X123991262Y-77159243D01*
X123984968Y-77172550D01*
X123977400Y-77185176D01*
X123968632Y-77196999D01*
X123958746Y-77207906D01*
X123947839Y-77217792D01*
X123936016Y-77226560D01*
X123923390Y-77234128D01*
X123910083Y-77240422D01*
X123896223Y-77245381D01*
X123881944Y-77248958D01*
X123867383Y-77251118D01*
X123852680Y-77251840D01*
X121102680Y-77251840D01*
X121087977Y-77251118D01*
X121073416Y-77248958D01*
X121059137Y-77245381D01*
X121045277Y-77240422D01*
X121031970Y-77234128D01*
X121019344Y-77226560D01*
X121007521Y-77217792D01*
X120996614Y-77207906D01*
X120986728Y-77196999D01*
X120977960Y-77185176D01*
X120970392Y-77172550D01*
X120964098Y-77159243D01*
X120959139Y-77145383D01*
X120955562Y-77131104D01*
X120953402Y-77116543D01*
X120952680Y-77101840D01*
X120952680Y-76801840D01*
X120953402Y-76787137D01*
X120955562Y-76772576D01*
X120959139Y-76758297D01*
X120964098Y-76744437D01*
X120970392Y-76731130D01*
X120977960Y-76718504D01*
X120986728Y-76706681D01*
X120996614Y-76695774D01*
X121007521Y-76685888D01*
X121019344Y-76677120D01*
X121031970Y-76669552D01*
X121045277Y-76663258D01*
X121059137Y-76658299D01*
X121073416Y-76654722D01*
X121087977Y-76652562D01*
X121102680Y-76651840D01*
X123852680Y-76651840D01*
X123867383Y-76652562D01*
X123867383Y-76652562D01*
G37*
D28*
X122477680Y-76951840D03*
D14*
G36*
X123867383Y-77922562D02*
G01*
X123881944Y-77924722D01*
X123896223Y-77928299D01*
X123910083Y-77933258D01*
X123923390Y-77939552D01*
X123936016Y-77947120D01*
X123947839Y-77955888D01*
X123958746Y-77965774D01*
X123968632Y-77976681D01*
X123977400Y-77988504D01*
X123984968Y-78001130D01*
X123991262Y-78014437D01*
X123996221Y-78028297D01*
X123999798Y-78042576D01*
X124001958Y-78057137D01*
X124002680Y-78071840D01*
X124002680Y-78371840D01*
X124001958Y-78386543D01*
X123999798Y-78401104D01*
X123996221Y-78415383D01*
X123991262Y-78429243D01*
X123984968Y-78442550D01*
X123977400Y-78455176D01*
X123968632Y-78466999D01*
X123958746Y-78477906D01*
X123947839Y-78487792D01*
X123936016Y-78496560D01*
X123923390Y-78504128D01*
X123910083Y-78510422D01*
X123896223Y-78515381D01*
X123881944Y-78518958D01*
X123867383Y-78521118D01*
X123852680Y-78521840D01*
X121102680Y-78521840D01*
X121087977Y-78521118D01*
X121073416Y-78518958D01*
X121059137Y-78515381D01*
X121045277Y-78510422D01*
X121031970Y-78504128D01*
X121019344Y-78496560D01*
X121007521Y-78487792D01*
X120996614Y-78477906D01*
X120986728Y-78466999D01*
X120977960Y-78455176D01*
X120970392Y-78442550D01*
X120964098Y-78429243D01*
X120959139Y-78415383D01*
X120955562Y-78401104D01*
X120953402Y-78386543D01*
X120952680Y-78371840D01*
X120952680Y-78071840D01*
X120953402Y-78057137D01*
X120955562Y-78042576D01*
X120959139Y-78028297D01*
X120964098Y-78014437D01*
X120970392Y-78001130D01*
X120977960Y-77988504D01*
X120986728Y-77976681D01*
X120996614Y-77965774D01*
X121007521Y-77955888D01*
X121019344Y-77947120D01*
X121031970Y-77939552D01*
X121045277Y-77933258D01*
X121059137Y-77928299D01*
X121073416Y-77924722D01*
X121087977Y-77922562D01*
X121102680Y-77921840D01*
X123852680Y-77921840D01*
X123867383Y-77922562D01*
X123867383Y-77922562D01*
G37*
D28*
X122477680Y-78221840D03*
D14*
G36*
X123867383Y-79192562D02*
G01*
X123881944Y-79194722D01*
X123896223Y-79198299D01*
X123910083Y-79203258D01*
X123923390Y-79209552D01*
X123936016Y-79217120D01*
X123947839Y-79225888D01*
X123958746Y-79235774D01*
X123968632Y-79246681D01*
X123977400Y-79258504D01*
X123984968Y-79271130D01*
X123991262Y-79284437D01*
X123996221Y-79298297D01*
X123999798Y-79312576D01*
X124001958Y-79327137D01*
X124002680Y-79341840D01*
X124002680Y-79641840D01*
X124001958Y-79656543D01*
X123999798Y-79671104D01*
X123996221Y-79685383D01*
X123991262Y-79699243D01*
X123984968Y-79712550D01*
X123977400Y-79725176D01*
X123968632Y-79736999D01*
X123958746Y-79747906D01*
X123947839Y-79757792D01*
X123936016Y-79766560D01*
X123923390Y-79774128D01*
X123910083Y-79780422D01*
X123896223Y-79785381D01*
X123881944Y-79788958D01*
X123867383Y-79791118D01*
X123852680Y-79791840D01*
X121102680Y-79791840D01*
X121087977Y-79791118D01*
X121073416Y-79788958D01*
X121059137Y-79785381D01*
X121045277Y-79780422D01*
X121031970Y-79774128D01*
X121019344Y-79766560D01*
X121007521Y-79757792D01*
X120996614Y-79747906D01*
X120986728Y-79736999D01*
X120977960Y-79725176D01*
X120970392Y-79712550D01*
X120964098Y-79699243D01*
X120959139Y-79685383D01*
X120955562Y-79671104D01*
X120953402Y-79656543D01*
X120952680Y-79641840D01*
X120952680Y-79341840D01*
X120953402Y-79327137D01*
X120955562Y-79312576D01*
X120959139Y-79298297D01*
X120964098Y-79284437D01*
X120970392Y-79271130D01*
X120977960Y-79258504D01*
X120986728Y-79246681D01*
X120996614Y-79235774D01*
X121007521Y-79225888D01*
X121019344Y-79217120D01*
X121031970Y-79209552D01*
X121045277Y-79203258D01*
X121059137Y-79198299D01*
X121073416Y-79194722D01*
X121087977Y-79192562D01*
X121102680Y-79191840D01*
X123852680Y-79191840D01*
X123867383Y-79192562D01*
X123867383Y-79192562D01*
G37*
D28*
X122477680Y-79491840D03*
D14*
G36*
X113567383Y-79192562D02*
G01*
X113581944Y-79194722D01*
X113596223Y-79198299D01*
X113610083Y-79203258D01*
X113623390Y-79209552D01*
X113636016Y-79217120D01*
X113647839Y-79225888D01*
X113658746Y-79235774D01*
X113668632Y-79246681D01*
X113677400Y-79258504D01*
X113684968Y-79271130D01*
X113691262Y-79284437D01*
X113696221Y-79298297D01*
X113699798Y-79312576D01*
X113701958Y-79327137D01*
X113702680Y-79341840D01*
X113702680Y-79641840D01*
X113701958Y-79656543D01*
X113699798Y-79671104D01*
X113696221Y-79685383D01*
X113691262Y-79699243D01*
X113684968Y-79712550D01*
X113677400Y-79725176D01*
X113668632Y-79736999D01*
X113658746Y-79747906D01*
X113647839Y-79757792D01*
X113636016Y-79766560D01*
X113623390Y-79774128D01*
X113610083Y-79780422D01*
X113596223Y-79785381D01*
X113581944Y-79788958D01*
X113567383Y-79791118D01*
X113552680Y-79791840D01*
X110802680Y-79791840D01*
X110787977Y-79791118D01*
X110773416Y-79788958D01*
X110759137Y-79785381D01*
X110745277Y-79780422D01*
X110731970Y-79774128D01*
X110719344Y-79766560D01*
X110707521Y-79757792D01*
X110696614Y-79747906D01*
X110686728Y-79736999D01*
X110677960Y-79725176D01*
X110670392Y-79712550D01*
X110664098Y-79699243D01*
X110659139Y-79685383D01*
X110655562Y-79671104D01*
X110653402Y-79656543D01*
X110652680Y-79641840D01*
X110652680Y-79341840D01*
X110653402Y-79327137D01*
X110655562Y-79312576D01*
X110659139Y-79298297D01*
X110664098Y-79284437D01*
X110670392Y-79271130D01*
X110677960Y-79258504D01*
X110686728Y-79246681D01*
X110696614Y-79235774D01*
X110707521Y-79225888D01*
X110719344Y-79217120D01*
X110731970Y-79209552D01*
X110745277Y-79203258D01*
X110759137Y-79198299D01*
X110773416Y-79194722D01*
X110787977Y-79192562D01*
X110802680Y-79191840D01*
X113552680Y-79191840D01*
X113567383Y-79192562D01*
X113567383Y-79192562D01*
G37*
D28*
X112177680Y-79491840D03*
D14*
G36*
X113567383Y-77922562D02*
G01*
X113581944Y-77924722D01*
X113596223Y-77928299D01*
X113610083Y-77933258D01*
X113623390Y-77939552D01*
X113636016Y-77947120D01*
X113647839Y-77955888D01*
X113658746Y-77965774D01*
X113668632Y-77976681D01*
X113677400Y-77988504D01*
X113684968Y-78001130D01*
X113691262Y-78014437D01*
X113696221Y-78028297D01*
X113699798Y-78042576D01*
X113701958Y-78057137D01*
X113702680Y-78071840D01*
X113702680Y-78371840D01*
X113701958Y-78386543D01*
X113699798Y-78401104D01*
X113696221Y-78415383D01*
X113691262Y-78429243D01*
X113684968Y-78442550D01*
X113677400Y-78455176D01*
X113668632Y-78466999D01*
X113658746Y-78477906D01*
X113647839Y-78487792D01*
X113636016Y-78496560D01*
X113623390Y-78504128D01*
X113610083Y-78510422D01*
X113596223Y-78515381D01*
X113581944Y-78518958D01*
X113567383Y-78521118D01*
X113552680Y-78521840D01*
X110802680Y-78521840D01*
X110787977Y-78521118D01*
X110773416Y-78518958D01*
X110759137Y-78515381D01*
X110745277Y-78510422D01*
X110731970Y-78504128D01*
X110719344Y-78496560D01*
X110707521Y-78487792D01*
X110696614Y-78477906D01*
X110686728Y-78466999D01*
X110677960Y-78455176D01*
X110670392Y-78442550D01*
X110664098Y-78429243D01*
X110659139Y-78415383D01*
X110655562Y-78401104D01*
X110653402Y-78386543D01*
X110652680Y-78371840D01*
X110652680Y-78071840D01*
X110653402Y-78057137D01*
X110655562Y-78042576D01*
X110659139Y-78028297D01*
X110664098Y-78014437D01*
X110670392Y-78001130D01*
X110677960Y-77988504D01*
X110686728Y-77976681D01*
X110696614Y-77965774D01*
X110707521Y-77955888D01*
X110719344Y-77947120D01*
X110731970Y-77939552D01*
X110745277Y-77933258D01*
X110759137Y-77928299D01*
X110773416Y-77924722D01*
X110787977Y-77922562D01*
X110802680Y-77921840D01*
X113552680Y-77921840D01*
X113567383Y-77922562D01*
X113567383Y-77922562D01*
G37*
D28*
X112177680Y-78221840D03*
D14*
G36*
X113567383Y-76652562D02*
G01*
X113581944Y-76654722D01*
X113596223Y-76658299D01*
X113610083Y-76663258D01*
X113623390Y-76669552D01*
X113636016Y-76677120D01*
X113647839Y-76685888D01*
X113658746Y-76695774D01*
X113668632Y-76706681D01*
X113677400Y-76718504D01*
X113684968Y-76731130D01*
X113691262Y-76744437D01*
X113696221Y-76758297D01*
X113699798Y-76772576D01*
X113701958Y-76787137D01*
X113702680Y-76801840D01*
X113702680Y-77101840D01*
X113701958Y-77116543D01*
X113699798Y-77131104D01*
X113696221Y-77145383D01*
X113691262Y-77159243D01*
X113684968Y-77172550D01*
X113677400Y-77185176D01*
X113668632Y-77196999D01*
X113658746Y-77207906D01*
X113647839Y-77217792D01*
X113636016Y-77226560D01*
X113623390Y-77234128D01*
X113610083Y-77240422D01*
X113596223Y-77245381D01*
X113581944Y-77248958D01*
X113567383Y-77251118D01*
X113552680Y-77251840D01*
X110802680Y-77251840D01*
X110787977Y-77251118D01*
X110773416Y-77248958D01*
X110759137Y-77245381D01*
X110745277Y-77240422D01*
X110731970Y-77234128D01*
X110719344Y-77226560D01*
X110707521Y-77217792D01*
X110696614Y-77207906D01*
X110686728Y-77196999D01*
X110677960Y-77185176D01*
X110670392Y-77172550D01*
X110664098Y-77159243D01*
X110659139Y-77145383D01*
X110655562Y-77131104D01*
X110653402Y-77116543D01*
X110652680Y-77101840D01*
X110652680Y-76801840D01*
X110653402Y-76787137D01*
X110655562Y-76772576D01*
X110659139Y-76758297D01*
X110664098Y-76744437D01*
X110670392Y-76731130D01*
X110677960Y-76718504D01*
X110686728Y-76706681D01*
X110696614Y-76695774D01*
X110707521Y-76685888D01*
X110719344Y-76677120D01*
X110731970Y-76669552D01*
X110745277Y-76663258D01*
X110759137Y-76658299D01*
X110773416Y-76654722D01*
X110787977Y-76652562D01*
X110802680Y-76651840D01*
X113552680Y-76651840D01*
X113567383Y-76652562D01*
X113567383Y-76652562D01*
G37*
D28*
X112177680Y-76951840D03*
D14*
G36*
X113567383Y-75382562D02*
G01*
X113581944Y-75384722D01*
X113596223Y-75388299D01*
X113610083Y-75393258D01*
X113623390Y-75399552D01*
X113636016Y-75407120D01*
X113647839Y-75415888D01*
X113658746Y-75425774D01*
X113668632Y-75436681D01*
X113677400Y-75448504D01*
X113684968Y-75461130D01*
X113691262Y-75474437D01*
X113696221Y-75488297D01*
X113699798Y-75502576D01*
X113701958Y-75517137D01*
X113702680Y-75531840D01*
X113702680Y-75831840D01*
X113701958Y-75846543D01*
X113699798Y-75861104D01*
X113696221Y-75875383D01*
X113691262Y-75889243D01*
X113684968Y-75902550D01*
X113677400Y-75915176D01*
X113668632Y-75926999D01*
X113658746Y-75937906D01*
X113647839Y-75947792D01*
X113636016Y-75956560D01*
X113623390Y-75964128D01*
X113610083Y-75970422D01*
X113596223Y-75975381D01*
X113581944Y-75978958D01*
X113567383Y-75981118D01*
X113552680Y-75981840D01*
X110802680Y-75981840D01*
X110787977Y-75981118D01*
X110773416Y-75978958D01*
X110759137Y-75975381D01*
X110745277Y-75970422D01*
X110731970Y-75964128D01*
X110719344Y-75956560D01*
X110707521Y-75947792D01*
X110696614Y-75937906D01*
X110686728Y-75926999D01*
X110677960Y-75915176D01*
X110670392Y-75902550D01*
X110664098Y-75889243D01*
X110659139Y-75875383D01*
X110655562Y-75861104D01*
X110653402Y-75846543D01*
X110652680Y-75831840D01*
X110652680Y-75531840D01*
X110653402Y-75517137D01*
X110655562Y-75502576D01*
X110659139Y-75488297D01*
X110664098Y-75474437D01*
X110670392Y-75461130D01*
X110677960Y-75448504D01*
X110686728Y-75436681D01*
X110696614Y-75425774D01*
X110707521Y-75415888D01*
X110719344Y-75407120D01*
X110731970Y-75399552D01*
X110745277Y-75393258D01*
X110759137Y-75388299D01*
X110773416Y-75384722D01*
X110787977Y-75382562D01*
X110802680Y-75381840D01*
X113552680Y-75381840D01*
X113567383Y-75382562D01*
X113567383Y-75382562D01*
G37*
D28*
X112177680Y-75681840D03*
D14*
G36*
X113567383Y-74112562D02*
G01*
X113581944Y-74114722D01*
X113596223Y-74118299D01*
X113610083Y-74123258D01*
X113623390Y-74129552D01*
X113636016Y-74137120D01*
X113647839Y-74145888D01*
X113658746Y-74155774D01*
X113668632Y-74166681D01*
X113677400Y-74178504D01*
X113684968Y-74191130D01*
X113691262Y-74204437D01*
X113696221Y-74218297D01*
X113699798Y-74232576D01*
X113701958Y-74247137D01*
X113702680Y-74261840D01*
X113702680Y-74561840D01*
X113701958Y-74576543D01*
X113699798Y-74591104D01*
X113696221Y-74605383D01*
X113691262Y-74619243D01*
X113684968Y-74632550D01*
X113677400Y-74645176D01*
X113668632Y-74656999D01*
X113658746Y-74667906D01*
X113647839Y-74677792D01*
X113636016Y-74686560D01*
X113623390Y-74694128D01*
X113610083Y-74700422D01*
X113596223Y-74705381D01*
X113581944Y-74708958D01*
X113567383Y-74711118D01*
X113552680Y-74711840D01*
X110802680Y-74711840D01*
X110787977Y-74711118D01*
X110773416Y-74708958D01*
X110759137Y-74705381D01*
X110745277Y-74700422D01*
X110731970Y-74694128D01*
X110719344Y-74686560D01*
X110707521Y-74677792D01*
X110696614Y-74667906D01*
X110686728Y-74656999D01*
X110677960Y-74645176D01*
X110670392Y-74632550D01*
X110664098Y-74619243D01*
X110659139Y-74605383D01*
X110655562Y-74591104D01*
X110653402Y-74576543D01*
X110652680Y-74561840D01*
X110652680Y-74261840D01*
X110653402Y-74247137D01*
X110655562Y-74232576D01*
X110659139Y-74218297D01*
X110664098Y-74204437D01*
X110670392Y-74191130D01*
X110677960Y-74178504D01*
X110686728Y-74166681D01*
X110696614Y-74155774D01*
X110707521Y-74145888D01*
X110719344Y-74137120D01*
X110731970Y-74129552D01*
X110745277Y-74123258D01*
X110759137Y-74118299D01*
X110773416Y-74114722D01*
X110787977Y-74112562D01*
X110802680Y-74111840D01*
X113552680Y-74111840D01*
X113567383Y-74112562D01*
X113567383Y-74112562D01*
G37*
D28*
X112177680Y-74411840D03*
D14*
G36*
X113567383Y-72842562D02*
G01*
X113581944Y-72844722D01*
X113596223Y-72848299D01*
X113610083Y-72853258D01*
X113623390Y-72859552D01*
X113636016Y-72867120D01*
X113647839Y-72875888D01*
X113658746Y-72885774D01*
X113668632Y-72896681D01*
X113677400Y-72908504D01*
X113684968Y-72921130D01*
X113691262Y-72934437D01*
X113696221Y-72948297D01*
X113699798Y-72962576D01*
X113701958Y-72977137D01*
X113702680Y-72991840D01*
X113702680Y-73291840D01*
X113701958Y-73306543D01*
X113699798Y-73321104D01*
X113696221Y-73335383D01*
X113691262Y-73349243D01*
X113684968Y-73362550D01*
X113677400Y-73375176D01*
X113668632Y-73386999D01*
X113658746Y-73397906D01*
X113647839Y-73407792D01*
X113636016Y-73416560D01*
X113623390Y-73424128D01*
X113610083Y-73430422D01*
X113596223Y-73435381D01*
X113581944Y-73438958D01*
X113567383Y-73441118D01*
X113552680Y-73441840D01*
X110802680Y-73441840D01*
X110787977Y-73441118D01*
X110773416Y-73438958D01*
X110759137Y-73435381D01*
X110745277Y-73430422D01*
X110731970Y-73424128D01*
X110719344Y-73416560D01*
X110707521Y-73407792D01*
X110696614Y-73397906D01*
X110686728Y-73386999D01*
X110677960Y-73375176D01*
X110670392Y-73362550D01*
X110664098Y-73349243D01*
X110659139Y-73335383D01*
X110655562Y-73321104D01*
X110653402Y-73306543D01*
X110652680Y-73291840D01*
X110652680Y-72991840D01*
X110653402Y-72977137D01*
X110655562Y-72962576D01*
X110659139Y-72948297D01*
X110664098Y-72934437D01*
X110670392Y-72921130D01*
X110677960Y-72908504D01*
X110686728Y-72896681D01*
X110696614Y-72885774D01*
X110707521Y-72875888D01*
X110719344Y-72867120D01*
X110731970Y-72859552D01*
X110745277Y-72853258D01*
X110759137Y-72848299D01*
X110773416Y-72844722D01*
X110787977Y-72842562D01*
X110802680Y-72841840D01*
X113552680Y-72841840D01*
X113567383Y-72842562D01*
X113567383Y-72842562D01*
G37*
D28*
X112177680Y-73141840D03*
D14*
G36*
X113567383Y-71572562D02*
G01*
X113581944Y-71574722D01*
X113596223Y-71578299D01*
X113610083Y-71583258D01*
X113623390Y-71589552D01*
X113636016Y-71597120D01*
X113647839Y-71605888D01*
X113658746Y-71615774D01*
X113668632Y-71626681D01*
X113677400Y-71638504D01*
X113684968Y-71651130D01*
X113691262Y-71664437D01*
X113696221Y-71678297D01*
X113699798Y-71692576D01*
X113701958Y-71707137D01*
X113702680Y-71721840D01*
X113702680Y-72021840D01*
X113701958Y-72036543D01*
X113699798Y-72051104D01*
X113696221Y-72065383D01*
X113691262Y-72079243D01*
X113684968Y-72092550D01*
X113677400Y-72105176D01*
X113668632Y-72116999D01*
X113658746Y-72127906D01*
X113647839Y-72137792D01*
X113636016Y-72146560D01*
X113623390Y-72154128D01*
X113610083Y-72160422D01*
X113596223Y-72165381D01*
X113581944Y-72168958D01*
X113567383Y-72171118D01*
X113552680Y-72171840D01*
X110802680Y-72171840D01*
X110787977Y-72171118D01*
X110773416Y-72168958D01*
X110759137Y-72165381D01*
X110745277Y-72160422D01*
X110731970Y-72154128D01*
X110719344Y-72146560D01*
X110707521Y-72137792D01*
X110696614Y-72127906D01*
X110686728Y-72116999D01*
X110677960Y-72105176D01*
X110670392Y-72092550D01*
X110664098Y-72079243D01*
X110659139Y-72065383D01*
X110655562Y-72051104D01*
X110653402Y-72036543D01*
X110652680Y-72021840D01*
X110652680Y-71721840D01*
X110653402Y-71707137D01*
X110655562Y-71692576D01*
X110659139Y-71678297D01*
X110664098Y-71664437D01*
X110670392Y-71651130D01*
X110677960Y-71638504D01*
X110686728Y-71626681D01*
X110696614Y-71615774D01*
X110707521Y-71605888D01*
X110719344Y-71597120D01*
X110731970Y-71589552D01*
X110745277Y-71583258D01*
X110759137Y-71578299D01*
X110773416Y-71574722D01*
X110787977Y-71572562D01*
X110802680Y-71571840D01*
X113552680Y-71571840D01*
X113567383Y-71572562D01*
X113567383Y-71572562D01*
G37*
D28*
X112177680Y-71871840D03*
D14*
G36*
X113567383Y-70302562D02*
G01*
X113581944Y-70304722D01*
X113596223Y-70308299D01*
X113610083Y-70313258D01*
X113623390Y-70319552D01*
X113636016Y-70327120D01*
X113647839Y-70335888D01*
X113658746Y-70345774D01*
X113668632Y-70356681D01*
X113677400Y-70368504D01*
X113684968Y-70381130D01*
X113691262Y-70394437D01*
X113696221Y-70408297D01*
X113699798Y-70422576D01*
X113701958Y-70437137D01*
X113702680Y-70451840D01*
X113702680Y-70751840D01*
X113701958Y-70766543D01*
X113699798Y-70781104D01*
X113696221Y-70795383D01*
X113691262Y-70809243D01*
X113684968Y-70822550D01*
X113677400Y-70835176D01*
X113668632Y-70846999D01*
X113658746Y-70857906D01*
X113647839Y-70867792D01*
X113636016Y-70876560D01*
X113623390Y-70884128D01*
X113610083Y-70890422D01*
X113596223Y-70895381D01*
X113581944Y-70898958D01*
X113567383Y-70901118D01*
X113552680Y-70901840D01*
X110802680Y-70901840D01*
X110787977Y-70901118D01*
X110773416Y-70898958D01*
X110759137Y-70895381D01*
X110745277Y-70890422D01*
X110731970Y-70884128D01*
X110719344Y-70876560D01*
X110707521Y-70867792D01*
X110696614Y-70857906D01*
X110686728Y-70846999D01*
X110677960Y-70835176D01*
X110670392Y-70822550D01*
X110664098Y-70809243D01*
X110659139Y-70795383D01*
X110655562Y-70781104D01*
X110653402Y-70766543D01*
X110652680Y-70751840D01*
X110652680Y-70451840D01*
X110653402Y-70437137D01*
X110655562Y-70422576D01*
X110659139Y-70408297D01*
X110664098Y-70394437D01*
X110670392Y-70381130D01*
X110677960Y-70368504D01*
X110686728Y-70356681D01*
X110696614Y-70345774D01*
X110707521Y-70335888D01*
X110719344Y-70327120D01*
X110731970Y-70319552D01*
X110745277Y-70313258D01*
X110759137Y-70308299D01*
X110773416Y-70304722D01*
X110787977Y-70302562D01*
X110802680Y-70301840D01*
X113552680Y-70301840D01*
X113567383Y-70302562D01*
X113567383Y-70302562D01*
G37*
D28*
X112177680Y-70601840D03*
D14*
G36*
X113567383Y-69032562D02*
G01*
X113581944Y-69034722D01*
X113596223Y-69038299D01*
X113610083Y-69043258D01*
X113623390Y-69049552D01*
X113636016Y-69057120D01*
X113647839Y-69065888D01*
X113658746Y-69075774D01*
X113668632Y-69086681D01*
X113677400Y-69098504D01*
X113684968Y-69111130D01*
X113691262Y-69124437D01*
X113696221Y-69138297D01*
X113699798Y-69152576D01*
X113701958Y-69167137D01*
X113702680Y-69181840D01*
X113702680Y-69481840D01*
X113701958Y-69496543D01*
X113699798Y-69511104D01*
X113696221Y-69525383D01*
X113691262Y-69539243D01*
X113684968Y-69552550D01*
X113677400Y-69565176D01*
X113668632Y-69576999D01*
X113658746Y-69587906D01*
X113647839Y-69597792D01*
X113636016Y-69606560D01*
X113623390Y-69614128D01*
X113610083Y-69620422D01*
X113596223Y-69625381D01*
X113581944Y-69628958D01*
X113567383Y-69631118D01*
X113552680Y-69631840D01*
X110802680Y-69631840D01*
X110787977Y-69631118D01*
X110773416Y-69628958D01*
X110759137Y-69625381D01*
X110745277Y-69620422D01*
X110731970Y-69614128D01*
X110719344Y-69606560D01*
X110707521Y-69597792D01*
X110696614Y-69587906D01*
X110686728Y-69576999D01*
X110677960Y-69565176D01*
X110670392Y-69552550D01*
X110664098Y-69539243D01*
X110659139Y-69525383D01*
X110655562Y-69511104D01*
X110653402Y-69496543D01*
X110652680Y-69481840D01*
X110652680Y-69181840D01*
X110653402Y-69167137D01*
X110655562Y-69152576D01*
X110659139Y-69138297D01*
X110664098Y-69124437D01*
X110670392Y-69111130D01*
X110677960Y-69098504D01*
X110686728Y-69086681D01*
X110696614Y-69075774D01*
X110707521Y-69065888D01*
X110719344Y-69057120D01*
X110731970Y-69049552D01*
X110745277Y-69043258D01*
X110759137Y-69038299D01*
X110773416Y-69034722D01*
X110787977Y-69032562D01*
X110802680Y-69031840D01*
X113552680Y-69031840D01*
X113567383Y-69032562D01*
X113567383Y-69032562D01*
G37*
D28*
X112177680Y-69331840D03*
D14*
G36*
X113567383Y-67762562D02*
G01*
X113581944Y-67764722D01*
X113596223Y-67768299D01*
X113610083Y-67773258D01*
X113623390Y-67779552D01*
X113636016Y-67787120D01*
X113647839Y-67795888D01*
X113658746Y-67805774D01*
X113668632Y-67816681D01*
X113677400Y-67828504D01*
X113684968Y-67841130D01*
X113691262Y-67854437D01*
X113696221Y-67868297D01*
X113699798Y-67882576D01*
X113701958Y-67897137D01*
X113702680Y-67911840D01*
X113702680Y-68211840D01*
X113701958Y-68226543D01*
X113699798Y-68241104D01*
X113696221Y-68255383D01*
X113691262Y-68269243D01*
X113684968Y-68282550D01*
X113677400Y-68295176D01*
X113668632Y-68306999D01*
X113658746Y-68317906D01*
X113647839Y-68327792D01*
X113636016Y-68336560D01*
X113623390Y-68344128D01*
X113610083Y-68350422D01*
X113596223Y-68355381D01*
X113581944Y-68358958D01*
X113567383Y-68361118D01*
X113552680Y-68361840D01*
X110802680Y-68361840D01*
X110787977Y-68361118D01*
X110773416Y-68358958D01*
X110759137Y-68355381D01*
X110745277Y-68350422D01*
X110731970Y-68344128D01*
X110719344Y-68336560D01*
X110707521Y-68327792D01*
X110696614Y-68317906D01*
X110686728Y-68306999D01*
X110677960Y-68295176D01*
X110670392Y-68282550D01*
X110664098Y-68269243D01*
X110659139Y-68255383D01*
X110655562Y-68241104D01*
X110653402Y-68226543D01*
X110652680Y-68211840D01*
X110652680Y-67911840D01*
X110653402Y-67897137D01*
X110655562Y-67882576D01*
X110659139Y-67868297D01*
X110664098Y-67854437D01*
X110670392Y-67841130D01*
X110677960Y-67828504D01*
X110686728Y-67816681D01*
X110696614Y-67805774D01*
X110707521Y-67795888D01*
X110719344Y-67787120D01*
X110731970Y-67779552D01*
X110745277Y-67773258D01*
X110759137Y-67768299D01*
X110773416Y-67764722D01*
X110787977Y-67762562D01*
X110802680Y-67761840D01*
X113552680Y-67761840D01*
X113567383Y-67762562D01*
X113567383Y-67762562D01*
G37*
D28*
X112177680Y-68061840D03*
D14*
G36*
X152617704Y-73620204D02*
G01*
X152641973Y-73623804D01*
X152665771Y-73629765D01*
X152688871Y-73638030D01*
X152711049Y-73648520D01*
X152732093Y-73661133D01*
X152751798Y-73675747D01*
X152769977Y-73692223D01*
X152786453Y-73710402D01*
X152801067Y-73730107D01*
X152813680Y-73751151D01*
X152824170Y-73773329D01*
X152832435Y-73796429D01*
X152838396Y-73820227D01*
X152841996Y-73844496D01*
X152843200Y-73869000D01*
X152843200Y-74794000D01*
X152841996Y-74818504D01*
X152838396Y-74842773D01*
X152832435Y-74866571D01*
X152824170Y-74889671D01*
X152813680Y-74911849D01*
X152801067Y-74932893D01*
X152786453Y-74952598D01*
X152769977Y-74970777D01*
X152751798Y-74987253D01*
X152732093Y-75001867D01*
X152711049Y-75014480D01*
X152688871Y-75024970D01*
X152665771Y-75033235D01*
X152641973Y-75039196D01*
X152617704Y-75042796D01*
X152593200Y-75044000D01*
X151343200Y-75044000D01*
X151318696Y-75042796D01*
X151294427Y-75039196D01*
X151270629Y-75033235D01*
X151247529Y-75024970D01*
X151225351Y-75014480D01*
X151204307Y-75001867D01*
X151184602Y-74987253D01*
X151166423Y-74970777D01*
X151149947Y-74952598D01*
X151135333Y-74932893D01*
X151122720Y-74911849D01*
X151112230Y-74889671D01*
X151103965Y-74866571D01*
X151098004Y-74842773D01*
X151094404Y-74818504D01*
X151093200Y-74794000D01*
X151093200Y-73869000D01*
X151094404Y-73844496D01*
X151098004Y-73820227D01*
X151103965Y-73796429D01*
X151112230Y-73773329D01*
X151122720Y-73751151D01*
X151135333Y-73730107D01*
X151149947Y-73710402D01*
X151166423Y-73692223D01*
X151184602Y-73675747D01*
X151204307Y-73661133D01*
X151225351Y-73648520D01*
X151247529Y-73638030D01*
X151270629Y-73629765D01*
X151294427Y-73623804D01*
X151318696Y-73620204D01*
X151343200Y-73619000D01*
X152593200Y-73619000D01*
X152617704Y-73620204D01*
X152617704Y-73620204D01*
G37*
D15*
X151968200Y-74331500D03*
D14*
G36*
X152617704Y-76595204D02*
G01*
X152641973Y-76598804D01*
X152665771Y-76604765D01*
X152688871Y-76613030D01*
X152711049Y-76623520D01*
X152732093Y-76636133D01*
X152751798Y-76650747D01*
X152769977Y-76667223D01*
X152786453Y-76685402D01*
X152801067Y-76705107D01*
X152813680Y-76726151D01*
X152824170Y-76748329D01*
X152832435Y-76771429D01*
X152838396Y-76795227D01*
X152841996Y-76819496D01*
X152843200Y-76844000D01*
X152843200Y-77769000D01*
X152841996Y-77793504D01*
X152838396Y-77817773D01*
X152832435Y-77841571D01*
X152824170Y-77864671D01*
X152813680Y-77886849D01*
X152801067Y-77907893D01*
X152786453Y-77927598D01*
X152769977Y-77945777D01*
X152751798Y-77962253D01*
X152732093Y-77976867D01*
X152711049Y-77989480D01*
X152688871Y-77999970D01*
X152665771Y-78008235D01*
X152641973Y-78014196D01*
X152617704Y-78017796D01*
X152593200Y-78019000D01*
X151343200Y-78019000D01*
X151318696Y-78017796D01*
X151294427Y-78014196D01*
X151270629Y-78008235D01*
X151247529Y-77999970D01*
X151225351Y-77989480D01*
X151204307Y-77976867D01*
X151184602Y-77962253D01*
X151166423Y-77945777D01*
X151149947Y-77927598D01*
X151135333Y-77907893D01*
X151122720Y-77886849D01*
X151112230Y-77864671D01*
X151103965Y-77841571D01*
X151098004Y-77817773D01*
X151094404Y-77793504D01*
X151093200Y-77769000D01*
X151093200Y-76844000D01*
X151094404Y-76819496D01*
X151098004Y-76795227D01*
X151103965Y-76771429D01*
X151112230Y-76748329D01*
X151122720Y-76726151D01*
X151135333Y-76705107D01*
X151149947Y-76685402D01*
X151166423Y-76667223D01*
X151184602Y-76650747D01*
X151204307Y-76636133D01*
X151225351Y-76623520D01*
X151247529Y-76613030D01*
X151270629Y-76604765D01*
X151294427Y-76598804D01*
X151318696Y-76595204D01*
X151343200Y-76594000D01*
X152593200Y-76594000D01*
X152617704Y-76595204D01*
X152617704Y-76595204D01*
G37*
D15*
X151968200Y-77306500D03*
D14*
G36*
X152605004Y-67940764D02*
G01*
X152629273Y-67944364D01*
X152653071Y-67950325D01*
X152676171Y-67958590D01*
X152698349Y-67969080D01*
X152719393Y-67981693D01*
X152739098Y-67996307D01*
X152757277Y-68012783D01*
X152773753Y-68030962D01*
X152788367Y-68050667D01*
X152800980Y-68071711D01*
X152811470Y-68093889D01*
X152819735Y-68116989D01*
X152825696Y-68140787D01*
X152829296Y-68165056D01*
X152830500Y-68189560D01*
X152830500Y-69114560D01*
X152829296Y-69139064D01*
X152825696Y-69163333D01*
X152819735Y-69187131D01*
X152811470Y-69210231D01*
X152800980Y-69232409D01*
X152788367Y-69253453D01*
X152773753Y-69273158D01*
X152757277Y-69291337D01*
X152739098Y-69307813D01*
X152719393Y-69322427D01*
X152698349Y-69335040D01*
X152676171Y-69345530D01*
X152653071Y-69353795D01*
X152629273Y-69359756D01*
X152605004Y-69363356D01*
X152580500Y-69364560D01*
X151330500Y-69364560D01*
X151305996Y-69363356D01*
X151281727Y-69359756D01*
X151257929Y-69353795D01*
X151234829Y-69345530D01*
X151212651Y-69335040D01*
X151191607Y-69322427D01*
X151171902Y-69307813D01*
X151153723Y-69291337D01*
X151137247Y-69273158D01*
X151122633Y-69253453D01*
X151110020Y-69232409D01*
X151099530Y-69210231D01*
X151091265Y-69187131D01*
X151085304Y-69163333D01*
X151081704Y-69139064D01*
X151080500Y-69114560D01*
X151080500Y-68189560D01*
X151081704Y-68165056D01*
X151085304Y-68140787D01*
X151091265Y-68116989D01*
X151099530Y-68093889D01*
X151110020Y-68071711D01*
X151122633Y-68050667D01*
X151137247Y-68030962D01*
X151153723Y-68012783D01*
X151171902Y-67996307D01*
X151191607Y-67981693D01*
X151212651Y-67969080D01*
X151234829Y-67958590D01*
X151257929Y-67950325D01*
X151281727Y-67944364D01*
X151305996Y-67940764D01*
X151330500Y-67939560D01*
X152580500Y-67939560D01*
X152605004Y-67940764D01*
X152605004Y-67940764D01*
G37*
D15*
X151955500Y-68652060D03*
D14*
G36*
X152605004Y-70915764D02*
G01*
X152629273Y-70919364D01*
X152653071Y-70925325D01*
X152676171Y-70933590D01*
X152698349Y-70944080D01*
X152719393Y-70956693D01*
X152739098Y-70971307D01*
X152757277Y-70987783D01*
X152773753Y-71005962D01*
X152788367Y-71025667D01*
X152800980Y-71046711D01*
X152811470Y-71068889D01*
X152819735Y-71091989D01*
X152825696Y-71115787D01*
X152829296Y-71140056D01*
X152830500Y-71164560D01*
X152830500Y-72089560D01*
X152829296Y-72114064D01*
X152825696Y-72138333D01*
X152819735Y-72162131D01*
X152811470Y-72185231D01*
X152800980Y-72207409D01*
X152788367Y-72228453D01*
X152773753Y-72248158D01*
X152757277Y-72266337D01*
X152739098Y-72282813D01*
X152719393Y-72297427D01*
X152698349Y-72310040D01*
X152676171Y-72320530D01*
X152653071Y-72328795D01*
X152629273Y-72334756D01*
X152605004Y-72338356D01*
X152580500Y-72339560D01*
X151330500Y-72339560D01*
X151305996Y-72338356D01*
X151281727Y-72334756D01*
X151257929Y-72328795D01*
X151234829Y-72320530D01*
X151212651Y-72310040D01*
X151191607Y-72297427D01*
X151171902Y-72282813D01*
X151153723Y-72266337D01*
X151137247Y-72248158D01*
X151122633Y-72228453D01*
X151110020Y-72207409D01*
X151099530Y-72185231D01*
X151091265Y-72162131D01*
X151085304Y-72138333D01*
X151081704Y-72114064D01*
X151080500Y-72089560D01*
X151080500Y-71164560D01*
X151081704Y-71140056D01*
X151085304Y-71115787D01*
X151091265Y-71091989D01*
X151099530Y-71068889D01*
X151110020Y-71046711D01*
X151122633Y-71025667D01*
X151137247Y-71005962D01*
X151153723Y-70987783D01*
X151171902Y-70971307D01*
X151191607Y-70956693D01*
X151212651Y-70944080D01*
X151234829Y-70933590D01*
X151257929Y-70925325D01*
X151281727Y-70919364D01*
X151305996Y-70915764D01*
X151330500Y-70914560D01*
X152580500Y-70914560D01*
X152605004Y-70915764D01*
X152605004Y-70915764D01*
G37*
D15*
X151955500Y-71627060D03*
D14*
G36*
X148960104Y-73574484D02*
G01*
X148984373Y-73578084D01*
X149008171Y-73584045D01*
X149031271Y-73592310D01*
X149053449Y-73602800D01*
X149074493Y-73615413D01*
X149094198Y-73630027D01*
X149112377Y-73646503D01*
X149128853Y-73664682D01*
X149143467Y-73684387D01*
X149156080Y-73705431D01*
X149166570Y-73727609D01*
X149174835Y-73750709D01*
X149180796Y-73774507D01*
X149184396Y-73798776D01*
X149185600Y-73823280D01*
X149185600Y-74748280D01*
X149184396Y-74772784D01*
X149180796Y-74797053D01*
X149174835Y-74820851D01*
X149166570Y-74843951D01*
X149156080Y-74866129D01*
X149143467Y-74887173D01*
X149128853Y-74906878D01*
X149112377Y-74925057D01*
X149094198Y-74941533D01*
X149074493Y-74956147D01*
X149053449Y-74968760D01*
X149031271Y-74979250D01*
X149008171Y-74987515D01*
X148984373Y-74993476D01*
X148960104Y-74997076D01*
X148935600Y-74998280D01*
X147685600Y-74998280D01*
X147661096Y-74997076D01*
X147636827Y-74993476D01*
X147613029Y-74987515D01*
X147589929Y-74979250D01*
X147567751Y-74968760D01*
X147546707Y-74956147D01*
X147527002Y-74941533D01*
X147508823Y-74925057D01*
X147492347Y-74906878D01*
X147477733Y-74887173D01*
X147465120Y-74866129D01*
X147454630Y-74843951D01*
X147446365Y-74820851D01*
X147440404Y-74797053D01*
X147436804Y-74772784D01*
X147435600Y-74748280D01*
X147435600Y-73823280D01*
X147436804Y-73798776D01*
X147440404Y-73774507D01*
X147446365Y-73750709D01*
X147454630Y-73727609D01*
X147465120Y-73705431D01*
X147477733Y-73684387D01*
X147492347Y-73664682D01*
X147508823Y-73646503D01*
X147527002Y-73630027D01*
X147546707Y-73615413D01*
X147567751Y-73602800D01*
X147589929Y-73592310D01*
X147613029Y-73584045D01*
X147636827Y-73578084D01*
X147661096Y-73574484D01*
X147685600Y-73573280D01*
X148935600Y-73573280D01*
X148960104Y-73574484D01*
X148960104Y-73574484D01*
G37*
D15*
X148310600Y-74285780D03*
D14*
G36*
X148960104Y-76549484D02*
G01*
X148984373Y-76553084D01*
X149008171Y-76559045D01*
X149031271Y-76567310D01*
X149053449Y-76577800D01*
X149074493Y-76590413D01*
X149094198Y-76605027D01*
X149112377Y-76621503D01*
X149128853Y-76639682D01*
X149143467Y-76659387D01*
X149156080Y-76680431D01*
X149166570Y-76702609D01*
X149174835Y-76725709D01*
X149180796Y-76749507D01*
X149184396Y-76773776D01*
X149185600Y-76798280D01*
X149185600Y-77723280D01*
X149184396Y-77747784D01*
X149180796Y-77772053D01*
X149174835Y-77795851D01*
X149166570Y-77818951D01*
X149156080Y-77841129D01*
X149143467Y-77862173D01*
X149128853Y-77881878D01*
X149112377Y-77900057D01*
X149094198Y-77916533D01*
X149074493Y-77931147D01*
X149053449Y-77943760D01*
X149031271Y-77954250D01*
X149008171Y-77962515D01*
X148984373Y-77968476D01*
X148960104Y-77972076D01*
X148935600Y-77973280D01*
X147685600Y-77973280D01*
X147661096Y-77972076D01*
X147636827Y-77968476D01*
X147613029Y-77962515D01*
X147589929Y-77954250D01*
X147567751Y-77943760D01*
X147546707Y-77931147D01*
X147527002Y-77916533D01*
X147508823Y-77900057D01*
X147492347Y-77881878D01*
X147477733Y-77862173D01*
X147465120Y-77841129D01*
X147454630Y-77818951D01*
X147446365Y-77795851D01*
X147440404Y-77772053D01*
X147436804Y-77747784D01*
X147435600Y-77723280D01*
X147435600Y-76798280D01*
X147436804Y-76773776D01*
X147440404Y-76749507D01*
X147446365Y-76725709D01*
X147454630Y-76702609D01*
X147465120Y-76680431D01*
X147477733Y-76659387D01*
X147492347Y-76639682D01*
X147508823Y-76621503D01*
X147527002Y-76605027D01*
X147546707Y-76590413D01*
X147567751Y-76577800D01*
X147589929Y-76567310D01*
X147613029Y-76559045D01*
X147636827Y-76553084D01*
X147661096Y-76549484D01*
X147685600Y-76548280D01*
X148935600Y-76548280D01*
X148960104Y-76549484D01*
X148960104Y-76549484D01*
G37*
D15*
X148310600Y-77260780D03*
D14*
G36*
X148952484Y-67939824D02*
G01*
X148976753Y-67943424D01*
X149000551Y-67949385D01*
X149023651Y-67957650D01*
X149045829Y-67968140D01*
X149066873Y-67980753D01*
X149086578Y-67995367D01*
X149104757Y-68011843D01*
X149121233Y-68030022D01*
X149135847Y-68049727D01*
X149148460Y-68070771D01*
X149158950Y-68092949D01*
X149167215Y-68116049D01*
X149173176Y-68139847D01*
X149176776Y-68164116D01*
X149177980Y-68188620D01*
X149177980Y-69113620D01*
X149176776Y-69138124D01*
X149173176Y-69162393D01*
X149167215Y-69186191D01*
X149158950Y-69209291D01*
X149148460Y-69231469D01*
X149135847Y-69252513D01*
X149121233Y-69272218D01*
X149104757Y-69290397D01*
X149086578Y-69306873D01*
X149066873Y-69321487D01*
X149045829Y-69334100D01*
X149023651Y-69344590D01*
X149000551Y-69352855D01*
X148976753Y-69358816D01*
X148952484Y-69362416D01*
X148927980Y-69363620D01*
X147677980Y-69363620D01*
X147653476Y-69362416D01*
X147629207Y-69358816D01*
X147605409Y-69352855D01*
X147582309Y-69344590D01*
X147560131Y-69334100D01*
X147539087Y-69321487D01*
X147519382Y-69306873D01*
X147501203Y-69290397D01*
X147484727Y-69272218D01*
X147470113Y-69252513D01*
X147457500Y-69231469D01*
X147447010Y-69209291D01*
X147438745Y-69186191D01*
X147432784Y-69162393D01*
X147429184Y-69138124D01*
X147427980Y-69113620D01*
X147427980Y-68188620D01*
X147429184Y-68164116D01*
X147432784Y-68139847D01*
X147438745Y-68116049D01*
X147447010Y-68092949D01*
X147457500Y-68070771D01*
X147470113Y-68049727D01*
X147484727Y-68030022D01*
X147501203Y-68011843D01*
X147519382Y-67995367D01*
X147539087Y-67980753D01*
X147560131Y-67968140D01*
X147582309Y-67957650D01*
X147605409Y-67949385D01*
X147629207Y-67943424D01*
X147653476Y-67939824D01*
X147677980Y-67938620D01*
X148927980Y-67938620D01*
X148952484Y-67939824D01*
X148952484Y-67939824D01*
G37*
D15*
X148302980Y-68651120D03*
D14*
G36*
X148952484Y-70914824D02*
G01*
X148976753Y-70918424D01*
X149000551Y-70924385D01*
X149023651Y-70932650D01*
X149045829Y-70943140D01*
X149066873Y-70955753D01*
X149086578Y-70970367D01*
X149104757Y-70986843D01*
X149121233Y-71005022D01*
X149135847Y-71024727D01*
X149148460Y-71045771D01*
X149158950Y-71067949D01*
X149167215Y-71091049D01*
X149173176Y-71114847D01*
X149176776Y-71139116D01*
X149177980Y-71163620D01*
X149177980Y-72088620D01*
X149176776Y-72113124D01*
X149173176Y-72137393D01*
X149167215Y-72161191D01*
X149158950Y-72184291D01*
X149148460Y-72206469D01*
X149135847Y-72227513D01*
X149121233Y-72247218D01*
X149104757Y-72265397D01*
X149086578Y-72281873D01*
X149066873Y-72296487D01*
X149045829Y-72309100D01*
X149023651Y-72319590D01*
X149000551Y-72327855D01*
X148976753Y-72333816D01*
X148952484Y-72337416D01*
X148927980Y-72338620D01*
X147677980Y-72338620D01*
X147653476Y-72337416D01*
X147629207Y-72333816D01*
X147605409Y-72327855D01*
X147582309Y-72319590D01*
X147560131Y-72309100D01*
X147539087Y-72296487D01*
X147519382Y-72281873D01*
X147501203Y-72265397D01*
X147484727Y-72247218D01*
X147470113Y-72227513D01*
X147457500Y-72206469D01*
X147447010Y-72184291D01*
X147438745Y-72161191D01*
X147432784Y-72137393D01*
X147429184Y-72113124D01*
X147427980Y-72088620D01*
X147427980Y-71163620D01*
X147429184Y-71139116D01*
X147432784Y-71114847D01*
X147438745Y-71091049D01*
X147447010Y-71067949D01*
X147457500Y-71045771D01*
X147470113Y-71024727D01*
X147484727Y-71005022D01*
X147501203Y-70986843D01*
X147519382Y-70970367D01*
X147539087Y-70955753D01*
X147560131Y-70943140D01*
X147582309Y-70932650D01*
X147605409Y-70924385D01*
X147629207Y-70918424D01*
X147653476Y-70914824D01*
X147677980Y-70913620D01*
X148927980Y-70913620D01*
X148952484Y-70914824D01*
X148952484Y-70914824D01*
G37*
D15*
X148302980Y-71626120D03*
D14*
G36*
X127033004Y-33441604D02*
G01*
X127057273Y-33445204D01*
X127081071Y-33451165D01*
X127104171Y-33459430D01*
X127126349Y-33469920D01*
X127147393Y-33482533D01*
X127167098Y-33497147D01*
X127185277Y-33513623D01*
X127201753Y-33531802D01*
X127216367Y-33551507D01*
X127228980Y-33572551D01*
X127239470Y-33594729D01*
X127247735Y-33617829D01*
X127253696Y-33641627D01*
X127257296Y-33665896D01*
X127258500Y-33690400D01*
X127258500Y-34940400D01*
X127257296Y-34964904D01*
X127253696Y-34989173D01*
X127247735Y-35012971D01*
X127239470Y-35036071D01*
X127228980Y-35058249D01*
X127216367Y-35079293D01*
X127201753Y-35098998D01*
X127185277Y-35117177D01*
X127167098Y-35133653D01*
X127147393Y-35148267D01*
X127126349Y-35160880D01*
X127104171Y-35171370D01*
X127081071Y-35179635D01*
X127057273Y-35185596D01*
X127033004Y-35189196D01*
X127008500Y-35190400D01*
X126083500Y-35190400D01*
X126058996Y-35189196D01*
X126034727Y-35185596D01*
X126010929Y-35179635D01*
X125987829Y-35171370D01*
X125965651Y-35160880D01*
X125944607Y-35148267D01*
X125924902Y-35133653D01*
X125906723Y-35117177D01*
X125890247Y-35098998D01*
X125875633Y-35079293D01*
X125863020Y-35058249D01*
X125852530Y-35036071D01*
X125844265Y-35012971D01*
X125838304Y-34989173D01*
X125834704Y-34964904D01*
X125833500Y-34940400D01*
X125833500Y-33690400D01*
X125834704Y-33665896D01*
X125838304Y-33641627D01*
X125844265Y-33617829D01*
X125852530Y-33594729D01*
X125863020Y-33572551D01*
X125875633Y-33551507D01*
X125890247Y-33531802D01*
X125906723Y-33513623D01*
X125924902Y-33497147D01*
X125944607Y-33482533D01*
X125965651Y-33469920D01*
X125987829Y-33459430D01*
X126010929Y-33451165D01*
X126034727Y-33445204D01*
X126058996Y-33441604D01*
X126083500Y-33440400D01*
X127008500Y-33440400D01*
X127033004Y-33441604D01*
X127033004Y-33441604D01*
G37*
D15*
X126546000Y-34315400D03*
D14*
G36*
X124058004Y-33441604D02*
G01*
X124082273Y-33445204D01*
X124106071Y-33451165D01*
X124129171Y-33459430D01*
X124151349Y-33469920D01*
X124172393Y-33482533D01*
X124192098Y-33497147D01*
X124210277Y-33513623D01*
X124226753Y-33531802D01*
X124241367Y-33551507D01*
X124253980Y-33572551D01*
X124264470Y-33594729D01*
X124272735Y-33617829D01*
X124278696Y-33641627D01*
X124282296Y-33665896D01*
X124283500Y-33690400D01*
X124283500Y-34940400D01*
X124282296Y-34964904D01*
X124278696Y-34989173D01*
X124272735Y-35012971D01*
X124264470Y-35036071D01*
X124253980Y-35058249D01*
X124241367Y-35079293D01*
X124226753Y-35098998D01*
X124210277Y-35117177D01*
X124192098Y-35133653D01*
X124172393Y-35148267D01*
X124151349Y-35160880D01*
X124129171Y-35171370D01*
X124106071Y-35179635D01*
X124082273Y-35185596D01*
X124058004Y-35189196D01*
X124033500Y-35190400D01*
X123108500Y-35190400D01*
X123083996Y-35189196D01*
X123059727Y-35185596D01*
X123035929Y-35179635D01*
X123012829Y-35171370D01*
X122990651Y-35160880D01*
X122969607Y-35148267D01*
X122949902Y-35133653D01*
X122931723Y-35117177D01*
X122915247Y-35098998D01*
X122900633Y-35079293D01*
X122888020Y-35058249D01*
X122877530Y-35036071D01*
X122869265Y-35012971D01*
X122863304Y-34989173D01*
X122859704Y-34964904D01*
X122858500Y-34940400D01*
X122858500Y-33690400D01*
X122859704Y-33665896D01*
X122863304Y-33641627D01*
X122869265Y-33617829D01*
X122877530Y-33594729D01*
X122888020Y-33572551D01*
X122900633Y-33551507D01*
X122915247Y-33531802D01*
X122931723Y-33513623D01*
X122949902Y-33497147D01*
X122969607Y-33482533D01*
X122990651Y-33469920D01*
X123012829Y-33459430D01*
X123035929Y-33451165D01*
X123059727Y-33445204D01*
X123083996Y-33441604D01*
X123108500Y-33440400D01*
X124033500Y-33440400D01*
X124058004Y-33441604D01*
X124058004Y-33441604D01*
G37*
D15*
X123571000Y-34315400D03*
D14*
G36*
X121207184Y-33482244D02*
G01*
X121231453Y-33485844D01*
X121255251Y-33491805D01*
X121278351Y-33500070D01*
X121300529Y-33510560D01*
X121321573Y-33523173D01*
X121341278Y-33537787D01*
X121359457Y-33554263D01*
X121375933Y-33572442D01*
X121390547Y-33592147D01*
X121403160Y-33613191D01*
X121413650Y-33635369D01*
X121421915Y-33658469D01*
X121427876Y-33682267D01*
X121431476Y-33706536D01*
X121432680Y-33731040D01*
X121432680Y-34981040D01*
X121431476Y-35005544D01*
X121427876Y-35029813D01*
X121421915Y-35053611D01*
X121413650Y-35076711D01*
X121403160Y-35098889D01*
X121390547Y-35119933D01*
X121375933Y-35139638D01*
X121359457Y-35157817D01*
X121341278Y-35174293D01*
X121321573Y-35188907D01*
X121300529Y-35201520D01*
X121278351Y-35212010D01*
X121255251Y-35220275D01*
X121231453Y-35226236D01*
X121207184Y-35229836D01*
X121182680Y-35231040D01*
X120257680Y-35231040D01*
X120233176Y-35229836D01*
X120208907Y-35226236D01*
X120185109Y-35220275D01*
X120162009Y-35212010D01*
X120139831Y-35201520D01*
X120118787Y-35188907D01*
X120099082Y-35174293D01*
X120080903Y-35157817D01*
X120064427Y-35139638D01*
X120049813Y-35119933D01*
X120037200Y-35098889D01*
X120026710Y-35076711D01*
X120018445Y-35053611D01*
X120012484Y-35029813D01*
X120008884Y-35005544D01*
X120007680Y-34981040D01*
X120007680Y-33731040D01*
X120008884Y-33706536D01*
X120012484Y-33682267D01*
X120018445Y-33658469D01*
X120026710Y-33635369D01*
X120037200Y-33613191D01*
X120049813Y-33592147D01*
X120064427Y-33572442D01*
X120080903Y-33554263D01*
X120099082Y-33537787D01*
X120118787Y-33523173D01*
X120139831Y-33510560D01*
X120162009Y-33500070D01*
X120185109Y-33491805D01*
X120208907Y-33485844D01*
X120233176Y-33482244D01*
X120257680Y-33481040D01*
X121182680Y-33481040D01*
X121207184Y-33482244D01*
X121207184Y-33482244D01*
G37*
D15*
X120720180Y-34356040D03*
D14*
G36*
X118232184Y-33482244D02*
G01*
X118256453Y-33485844D01*
X118280251Y-33491805D01*
X118303351Y-33500070D01*
X118325529Y-33510560D01*
X118346573Y-33523173D01*
X118366278Y-33537787D01*
X118384457Y-33554263D01*
X118400933Y-33572442D01*
X118415547Y-33592147D01*
X118428160Y-33613191D01*
X118438650Y-33635369D01*
X118446915Y-33658469D01*
X118452876Y-33682267D01*
X118456476Y-33706536D01*
X118457680Y-33731040D01*
X118457680Y-34981040D01*
X118456476Y-35005544D01*
X118452876Y-35029813D01*
X118446915Y-35053611D01*
X118438650Y-35076711D01*
X118428160Y-35098889D01*
X118415547Y-35119933D01*
X118400933Y-35139638D01*
X118384457Y-35157817D01*
X118366278Y-35174293D01*
X118346573Y-35188907D01*
X118325529Y-35201520D01*
X118303351Y-35212010D01*
X118280251Y-35220275D01*
X118256453Y-35226236D01*
X118232184Y-35229836D01*
X118207680Y-35231040D01*
X117282680Y-35231040D01*
X117258176Y-35229836D01*
X117233907Y-35226236D01*
X117210109Y-35220275D01*
X117187009Y-35212010D01*
X117164831Y-35201520D01*
X117143787Y-35188907D01*
X117124082Y-35174293D01*
X117105903Y-35157817D01*
X117089427Y-35139638D01*
X117074813Y-35119933D01*
X117062200Y-35098889D01*
X117051710Y-35076711D01*
X117043445Y-35053611D01*
X117037484Y-35029813D01*
X117033884Y-35005544D01*
X117032680Y-34981040D01*
X117032680Y-33731040D01*
X117033884Y-33706536D01*
X117037484Y-33682267D01*
X117043445Y-33658469D01*
X117051710Y-33635369D01*
X117062200Y-33613191D01*
X117074813Y-33592147D01*
X117089427Y-33572442D01*
X117105903Y-33554263D01*
X117124082Y-33537787D01*
X117143787Y-33523173D01*
X117164831Y-33510560D01*
X117187009Y-33500070D01*
X117210109Y-33491805D01*
X117233907Y-33485844D01*
X117258176Y-33482244D01*
X117282680Y-33481040D01*
X118207680Y-33481040D01*
X118232184Y-33482244D01*
X118232184Y-33482244D01*
G37*
D15*
X117745180Y-34356040D03*
D14*
G36*
X115172144Y-33441604D02*
G01*
X115196413Y-33445204D01*
X115220211Y-33451165D01*
X115243311Y-33459430D01*
X115265489Y-33469920D01*
X115286533Y-33482533D01*
X115306238Y-33497147D01*
X115324417Y-33513623D01*
X115340893Y-33531802D01*
X115355507Y-33551507D01*
X115368120Y-33572551D01*
X115378610Y-33594729D01*
X115386875Y-33617829D01*
X115392836Y-33641627D01*
X115396436Y-33665896D01*
X115397640Y-33690400D01*
X115397640Y-34940400D01*
X115396436Y-34964904D01*
X115392836Y-34989173D01*
X115386875Y-35012971D01*
X115378610Y-35036071D01*
X115368120Y-35058249D01*
X115355507Y-35079293D01*
X115340893Y-35098998D01*
X115324417Y-35117177D01*
X115306238Y-35133653D01*
X115286533Y-35148267D01*
X115265489Y-35160880D01*
X115243311Y-35171370D01*
X115220211Y-35179635D01*
X115196413Y-35185596D01*
X115172144Y-35189196D01*
X115147640Y-35190400D01*
X114222640Y-35190400D01*
X114198136Y-35189196D01*
X114173867Y-35185596D01*
X114150069Y-35179635D01*
X114126969Y-35171370D01*
X114104791Y-35160880D01*
X114083747Y-35148267D01*
X114064042Y-35133653D01*
X114045863Y-35117177D01*
X114029387Y-35098998D01*
X114014773Y-35079293D01*
X114002160Y-35058249D01*
X113991670Y-35036071D01*
X113983405Y-35012971D01*
X113977444Y-34989173D01*
X113973844Y-34964904D01*
X113972640Y-34940400D01*
X113972640Y-33690400D01*
X113973844Y-33665896D01*
X113977444Y-33641627D01*
X113983405Y-33617829D01*
X113991670Y-33594729D01*
X114002160Y-33572551D01*
X114014773Y-33551507D01*
X114029387Y-33531802D01*
X114045863Y-33513623D01*
X114064042Y-33497147D01*
X114083747Y-33482533D01*
X114104791Y-33469920D01*
X114126969Y-33459430D01*
X114150069Y-33451165D01*
X114173867Y-33445204D01*
X114198136Y-33441604D01*
X114222640Y-33440400D01*
X115147640Y-33440400D01*
X115172144Y-33441604D01*
X115172144Y-33441604D01*
G37*
D15*
X114685140Y-34315400D03*
D14*
G36*
X112197144Y-33441604D02*
G01*
X112221413Y-33445204D01*
X112245211Y-33451165D01*
X112268311Y-33459430D01*
X112290489Y-33469920D01*
X112311533Y-33482533D01*
X112331238Y-33497147D01*
X112349417Y-33513623D01*
X112365893Y-33531802D01*
X112380507Y-33551507D01*
X112393120Y-33572551D01*
X112403610Y-33594729D01*
X112411875Y-33617829D01*
X112417836Y-33641627D01*
X112421436Y-33665896D01*
X112422640Y-33690400D01*
X112422640Y-34940400D01*
X112421436Y-34964904D01*
X112417836Y-34989173D01*
X112411875Y-35012971D01*
X112403610Y-35036071D01*
X112393120Y-35058249D01*
X112380507Y-35079293D01*
X112365893Y-35098998D01*
X112349417Y-35117177D01*
X112331238Y-35133653D01*
X112311533Y-35148267D01*
X112290489Y-35160880D01*
X112268311Y-35171370D01*
X112245211Y-35179635D01*
X112221413Y-35185596D01*
X112197144Y-35189196D01*
X112172640Y-35190400D01*
X111247640Y-35190400D01*
X111223136Y-35189196D01*
X111198867Y-35185596D01*
X111175069Y-35179635D01*
X111151969Y-35171370D01*
X111129791Y-35160880D01*
X111108747Y-35148267D01*
X111089042Y-35133653D01*
X111070863Y-35117177D01*
X111054387Y-35098998D01*
X111039773Y-35079293D01*
X111027160Y-35058249D01*
X111016670Y-35036071D01*
X111008405Y-35012971D01*
X111002444Y-34989173D01*
X110998844Y-34964904D01*
X110997640Y-34940400D01*
X110997640Y-33690400D01*
X110998844Y-33665896D01*
X111002444Y-33641627D01*
X111008405Y-33617829D01*
X111016670Y-33594729D01*
X111027160Y-33572551D01*
X111039773Y-33551507D01*
X111054387Y-33531802D01*
X111070863Y-33513623D01*
X111089042Y-33497147D01*
X111108747Y-33482533D01*
X111129791Y-33469920D01*
X111151969Y-33459430D01*
X111175069Y-33451165D01*
X111198867Y-33445204D01*
X111223136Y-33441604D01*
X111247640Y-33440400D01*
X112172640Y-33440400D01*
X112197144Y-33441604D01*
X112197144Y-33441604D01*
G37*
D15*
X111710140Y-34315400D03*
D14*
G36*
X109111704Y-33375564D02*
G01*
X109135973Y-33379164D01*
X109159771Y-33385125D01*
X109182871Y-33393390D01*
X109205049Y-33403880D01*
X109226093Y-33416493D01*
X109245798Y-33431107D01*
X109263977Y-33447583D01*
X109280453Y-33465762D01*
X109295067Y-33485467D01*
X109307680Y-33506511D01*
X109318170Y-33528689D01*
X109326435Y-33551789D01*
X109332396Y-33575587D01*
X109335996Y-33599856D01*
X109337200Y-33624360D01*
X109337200Y-34874360D01*
X109335996Y-34898864D01*
X109332396Y-34923133D01*
X109326435Y-34946931D01*
X109318170Y-34970031D01*
X109307680Y-34992209D01*
X109295067Y-35013253D01*
X109280453Y-35032958D01*
X109263977Y-35051137D01*
X109245798Y-35067613D01*
X109226093Y-35082227D01*
X109205049Y-35094840D01*
X109182871Y-35105330D01*
X109159771Y-35113595D01*
X109135973Y-35119556D01*
X109111704Y-35123156D01*
X109087200Y-35124360D01*
X108162200Y-35124360D01*
X108137696Y-35123156D01*
X108113427Y-35119556D01*
X108089629Y-35113595D01*
X108066529Y-35105330D01*
X108044351Y-35094840D01*
X108023307Y-35082227D01*
X108003602Y-35067613D01*
X107985423Y-35051137D01*
X107968947Y-35032958D01*
X107954333Y-35013253D01*
X107941720Y-34992209D01*
X107931230Y-34970031D01*
X107922965Y-34946931D01*
X107917004Y-34923133D01*
X107913404Y-34898864D01*
X107912200Y-34874360D01*
X107912200Y-33624360D01*
X107913404Y-33599856D01*
X107917004Y-33575587D01*
X107922965Y-33551789D01*
X107931230Y-33528689D01*
X107941720Y-33506511D01*
X107954333Y-33485467D01*
X107968947Y-33465762D01*
X107985423Y-33447583D01*
X108003602Y-33431107D01*
X108023307Y-33416493D01*
X108044351Y-33403880D01*
X108066529Y-33393390D01*
X108089629Y-33385125D01*
X108113427Y-33379164D01*
X108137696Y-33375564D01*
X108162200Y-33374360D01*
X109087200Y-33374360D01*
X109111704Y-33375564D01*
X109111704Y-33375564D01*
G37*
D15*
X108624700Y-34249360D03*
D14*
G36*
X106136704Y-33375564D02*
G01*
X106160973Y-33379164D01*
X106184771Y-33385125D01*
X106207871Y-33393390D01*
X106230049Y-33403880D01*
X106251093Y-33416493D01*
X106270798Y-33431107D01*
X106288977Y-33447583D01*
X106305453Y-33465762D01*
X106320067Y-33485467D01*
X106332680Y-33506511D01*
X106343170Y-33528689D01*
X106351435Y-33551789D01*
X106357396Y-33575587D01*
X106360996Y-33599856D01*
X106362200Y-33624360D01*
X106362200Y-34874360D01*
X106360996Y-34898864D01*
X106357396Y-34923133D01*
X106351435Y-34946931D01*
X106343170Y-34970031D01*
X106332680Y-34992209D01*
X106320067Y-35013253D01*
X106305453Y-35032958D01*
X106288977Y-35051137D01*
X106270798Y-35067613D01*
X106251093Y-35082227D01*
X106230049Y-35094840D01*
X106207871Y-35105330D01*
X106184771Y-35113595D01*
X106160973Y-35119556D01*
X106136704Y-35123156D01*
X106112200Y-35124360D01*
X105187200Y-35124360D01*
X105162696Y-35123156D01*
X105138427Y-35119556D01*
X105114629Y-35113595D01*
X105091529Y-35105330D01*
X105069351Y-35094840D01*
X105048307Y-35082227D01*
X105028602Y-35067613D01*
X105010423Y-35051137D01*
X104993947Y-35032958D01*
X104979333Y-35013253D01*
X104966720Y-34992209D01*
X104956230Y-34970031D01*
X104947965Y-34946931D01*
X104942004Y-34923133D01*
X104938404Y-34898864D01*
X104937200Y-34874360D01*
X104937200Y-33624360D01*
X104938404Y-33599856D01*
X104942004Y-33575587D01*
X104947965Y-33551789D01*
X104956230Y-33528689D01*
X104966720Y-33506511D01*
X104979333Y-33485467D01*
X104993947Y-33465762D01*
X105010423Y-33447583D01*
X105028602Y-33431107D01*
X105048307Y-33416493D01*
X105069351Y-33403880D01*
X105091529Y-33393390D01*
X105114629Y-33385125D01*
X105138427Y-33379164D01*
X105162696Y-33375564D01*
X105187200Y-33374360D01*
X106112200Y-33374360D01*
X106136704Y-33375564D01*
X106136704Y-33375564D01*
G37*
D15*
X105649700Y-34249360D03*
D14*
G36*
X133628664Y-55347444D02*
G01*
X133652933Y-55351044D01*
X133676731Y-55357005D01*
X133699831Y-55365270D01*
X133722009Y-55375760D01*
X133743053Y-55388373D01*
X133762758Y-55402987D01*
X133780937Y-55419463D01*
X133797413Y-55437642D01*
X133812027Y-55457347D01*
X133824640Y-55478391D01*
X133835130Y-55500569D01*
X133843395Y-55523669D01*
X133849356Y-55547467D01*
X133852956Y-55571736D01*
X133854160Y-55596240D01*
X133854160Y-56521240D01*
X133852956Y-56545744D01*
X133849356Y-56570013D01*
X133843395Y-56593811D01*
X133835130Y-56616911D01*
X133824640Y-56639089D01*
X133812027Y-56660133D01*
X133797413Y-56679838D01*
X133780937Y-56698017D01*
X133762758Y-56714493D01*
X133743053Y-56729107D01*
X133722009Y-56741720D01*
X133699831Y-56752210D01*
X133676731Y-56760475D01*
X133652933Y-56766436D01*
X133628664Y-56770036D01*
X133604160Y-56771240D01*
X132354160Y-56771240D01*
X132329656Y-56770036D01*
X132305387Y-56766436D01*
X132281589Y-56760475D01*
X132258489Y-56752210D01*
X132236311Y-56741720D01*
X132215267Y-56729107D01*
X132195562Y-56714493D01*
X132177383Y-56698017D01*
X132160907Y-56679838D01*
X132146293Y-56660133D01*
X132133680Y-56639089D01*
X132123190Y-56616911D01*
X132114925Y-56593811D01*
X132108964Y-56570013D01*
X132105364Y-56545744D01*
X132104160Y-56521240D01*
X132104160Y-55596240D01*
X132105364Y-55571736D01*
X132108964Y-55547467D01*
X132114925Y-55523669D01*
X132123190Y-55500569D01*
X132133680Y-55478391D01*
X132146293Y-55457347D01*
X132160907Y-55437642D01*
X132177383Y-55419463D01*
X132195562Y-55402987D01*
X132215267Y-55388373D01*
X132236311Y-55375760D01*
X132258489Y-55365270D01*
X132281589Y-55357005D01*
X132305387Y-55351044D01*
X132329656Y-55347444D01*
X132354160Y-55346240D01*
X133604160Y-55346240D01*
X133628664Y-55347444D01*
X133628664Y-55347444D01*
G37*
D15*
X132979160Y-56058740D03*
D14*
G36*
X133628664Y-58322444D02*
G01*
X133652933Y-58326044D01*
X133676731Y-58332005D01*
X133699831Y-58340270D01*
X133722009Y-58350760D01*
X133743053Y-58363373D01*
X133762758Y-58377987D01*
X133780937Y-58394463D01*
X133797413Y-58412642D01*
X133812027Y-58432347D01*
X133824640Y-58453391D01*
X133835130Y-58475569D01*
X133843395Y-58498669D01*
X133849356Y-58522467D01*
X133852956Y-58546736D01*
X133854160Y-58571240D01*
X133854160Y-59496240D01*
X133852956Y-59520744D01*
X133849356Y-59545013D01*
X133843395Y-59568811D01*
X133835130Y-59591911D01*
X133824640Y-59614089D01*
X133812027Y-59635133D01*
X133797413Y-59654838D01*
X133780937Y-59673017D01*
X133762758Y-59689493D01*
X133743053Y-59704107D01*
X133722009Y-59716720D01*
X133699831Y-59727210D01*
X133676731Y-59735475D01*
X133652933Y-59741436D01*
X133628664Y-59745036D01*
X133604160Y-59746240D01*
X132354160Y-59746240D01*
X132329656Y-59745036D01*
X132305387Y-59741436D01*
X132281589Y-59735475D01*
X132258489Y-59727210D01*
X132236311Y-59716720D01*
X132215267Y-59704107D01*
X132195562Y-59689493D01*
X132177383Y-59673017D01*
X132160907Y-59654838D01*
X132146293Y-59635133D01*
X132133680Y-59614089D01*
X132123190Y-59591911D01*
X132114925Y-59568811D01*
X132108964Y-59545013D01*
X132105364Y-59520744D01*
X132104160Y-59496240D01*
X132104160Y-58571240D01*
X132105364Y-58546736D01*
X132108964Y-58522467D01*
X132114925Y-58498669D01*
X132123190Y-58475569D01*
X132133680Y-58453391D01*
X132146293Y-58432347D01*
X132160907Y-58412642D01*
X132177383Y-58394463D01*
X132195562Y-58377987D01*
X132215267Y-58363373D01*
X132236311Y-58350760D01*
X132258489Y-58340270D01*
X132281589Y-58332005D01*
X132305387Y-58326044D01*
X132329656Y-58322444D01*
X132354160Y-58321240D01*
X133604160Y-58321240D01*
X133628664Y-58322444D01*
X133628664Y-58322444D01*
G37*
D15*
X132979160Y-59033740D03*
D14*
G36*
X133646444Y-52858904D02*
G01*
X133670713Y-52862504D01*
X133694511Y-52868465D01*
X133717611Y-52876730D01*
X133739789Y-52887220D01*
X133760833Y-52899833D01*
X133780538Y-52914447D01*
X133798717Y-52930923D01*
X133815193Y-52949102D01*
X133829807Y-52968807D01*
X133842420Y-52989851D01*
X133852910Y-53012029D01*
X133861175Y-53035129D01*
X133867136Y-53058927D01*
X133870736Y-53083196D01*
X133871940Y-53107700D01*
X133871940Y-54032700D01*
X133870736Y-54057204D01*
X133867136Y-54081473D01*
X133861175Y-54105271D01*
X133852910Y-54128371D01*
X133842420Y-54150549D01*
X133829807Y-54171593D01*
X133815193Y-54191298D01*
X133798717Y-54209477D01*
X133780538Y-54225953D01*
X133760833Y-54240567D01*
X133739789Y-54253180D01*
X133717611Y-54263670D01*
X133694511Y-54271935D01*
X133670713Y-54277896D01*
X133646444Y-54281496D01*
X133621940Y-54282700D01*
X132371940Y-54282700D01*
X132347436Y-54281496D01*
X132323167Y-54277896D01*
X132299369Y-54271935D01*
X132276269Y-54263670D01*
X132254091Y-54253180D01*
X132233047Y-54240567D01*
X132213342Y-54225953D01*
X132195163Y-54209477D01*
X132178687Y-54191298D01*
X132164073Y-54171593D01*
X132151460Y-54150549D01*
X132140970Y-54128371D01*
X132132705Y-54105271D01*
X132126744Y-54081473D01*
X132123144Y-54057204D01*
X132121940Y-54032700D01*
X132121940Y-53107700D01*
X132123144Y-53083196D01*
X132126744Y-53058927D01*
X132132705Y-53035129D01*
X132140970Y-53012029D01*
X132151460Y-52989851D01*
X132164073Y-52968807D01*
X132178687Y-52949102D01*
X132195163Y-52930923D01*
X132213342Y-52914447D01*
X132233047Y-52899833D01*
X132254091Y-52887220D01*
X132276269Y-52876730D01*
X132299369Y-52868465D01*
X132323167Y-52862504D01*
X132347436Y-52858904D01*
X132371940Y-52857700D01*
X133621940Y-52857700D01*
X133646444Y-52858904D01*
X133646444Y-52858904D01*
G37*
D15*
X132996940Y-53570200D03*
D14*
G36*
X133646444Y-49883904D02*
G01*
X133670713Y-49887504D01*
X133694511Y-49893465D01*
X133717611Y-49901730D01*
X133739789Y-49912220D01*
X133760833Y-49924833D01*
X133780538Y-49939447D01*
X133798717Y-49955923D01*
X133815193Y-49974102D01*
X133829807Y-49993807D01*
X133842420Y-50014851D01*
X133852910Y-50037029D01*
X133861175Y-50060129D01*
X133867136Y-50083927D01*
X133870736Y-50108196D01*
X133871940Y-50132700D01*
X133871940Y-51057700D01*
X133870736Y-51082204D01*
X133867136Y-51106473D01*
X133861175Y-51130271D01*
X133852910Y-51153371D01*
X133842420Y-51175549D01*
X133829807Y-51196593D01*
X133815193Y-51216298D01*
X133798717Y-51234477D01*
X133780538Y-51250953D01*
X133760833Y-51265567D01*
X133739789Y-51278180D01*
X133717611Y-51288670D01*
X133694511Y-51296935D01*
X133670713Y-51302896D01*
X133646444Y-51306496D01*
X133621940Y-51307700D01*
X132371940Y-51307700D01*
X132347436Y-51306496D01*
X132323167Y-51302896D01*
X132299369Y-51296935D01*
X132276269Y-51288670D01*
X132254091Y-51278180D01*
X132233047Y-51265567D01*
X132213342Y-51250953D01*
X132195163Y-51234477D01*
X132178687Y-51216298D01*
X132164073Y-51196593D01*
X132151460Y-51175549D01*
X132140970Y-51153371D01*
X132132705Y-51130271D01*
X132126744Y-51106473D01*
X132123144Y-51082204D01*
X132121940Y-51057700D01*
X132121940Y-50132700D01*
X132123144Y-50108196D01*
X132126744Y-50083927D01*
X132132705Y-50060129D01*
X132140970Y-50037029D01*
X132151460Y-50014851D01*
X132164073Y-49993807D01*
X132178687Y-49974102D01*
X132195163Y-49955923D01*
X132213342Y-49939447D01*
X132233047Y-49924833D01*
X132254091Y-49912220D01*
X132276269Y-49901730D01*
X132299369Y-49893465D01*
X132323167Y-49887504D01*
X132347436Y-49883904D01*
X132371940Y-49882700D01*
X133621940Y-49882700D01*
X133646444Y-49883904D01*
X133646444Y-49883904D01*
G37*
D15*
X132996940Y-50595200D03*
D14*
G36*
X81982844Y-93147444D02*
G01*
X82007113Y-93151044D01*
X82030911Y-93157005D01*
X82054011Y-93165270D01*
X82076189Y-93175760D01*
X82097233Y-93188373D01*
X82116938Y-93202987D01*
X82135117Y-93219463D01*
X82151593Y-93237642D01*
X82166207Y-93257347D01*
X82178820Y-93278391D01*
X82189310Y-93300569D01*
X82197575Y-93323669D01*
X82203536Y-93347467D01*
X82207136Y-93371736D01*
X82208340Y-93396240D01*
X82208340Y-94321240D01*
X82207136Y-94345744D01*
X82203536Y-94370013D01*
X82197575Y-94393811D01*
X82189310Y-94416911D01*
X82178820Y-94439089D01*
X82166207Y-94460133D01*
X82151593Y-94479838D01*
X82135117Y-94498017D01*
X82116938Y-94514493D01*
X82097233Y-94529107D01*
X82076189Y-94541720D01*
X82054011Y-94552210D01*
X82030911Y-94560475D01*
X82007113Y-94566436D01*
X81982844Y-94570036D01*
X81958340Y-94571240D01*
X80708340Y-94571240D01*
X80683836Y-94570036D01*
X80659567Y-94566436D01*
X80635769Y-94560475D01*
X80612669Y-94552210D01*
X80590491Y-94541720D01*
X80569447Y-94529107D01*
X80549742Y-94514493D01*
X80531563Y-94498017D01*
X80515087Y-94479838D01*
X80500473Y-94460133D01*
X80487860Y-94439089D01*
X80477370Y-94416911D01*
X80469105Y-94393811D01*
X80463144Y-94370013D01*
X80459544Y-94345744D01*
X80458340Y-94321240D01*
X80458340Y-93396240D01*
X80459544Y-93371736D01*
X80463144Y-93347467D01*
X80469105Y-93323669D01*
X80477370Y-93300569D01*
X80487860Y-93278391D01*
X80500473Y-93257347D01*
X80515087Y-93237642D01*
X80531563Y-93219463D01*
X80549742Y-93202987D01*
X80569447Y-93188373D01*
X80590491Y-93175760D01*
X80612669Y-93165270D01*
X80635769Y-93157005D01*
X80659567Y-93151044D01*
X80683836Y-93147444D01*
X80708340Y-93146240D01*
X81958340Y-93146240D01*
X81982844Y-93147444D01*
X81982844Y-93147444D01*
G37*
D15*
X81333340Y-93858740D03*
D14*
G36*
X81982844Y-90172444D02*
G01*
X82007113Y-90176044D01*
X82030911Y-90182005D01*
X82054011Y-90190270D01*
X82076189Y-90200760D01*
X82097233Y-90213373D01*
X82116938Y-90227987D01*
X82135117Y-90244463D01*
X82151593Y-90262642D01*
X82166207Y-90282347D01*
X82178820Y-90303391D01*
X82189310Y-90325569D01*
X82197575Y-90348669D01*
X82203536Y-90372467D01*
X82207136Y-90396736D01*
X82208340Y-90421240D01*
X82208340Y-91346240D01*
X82207136Y-91370744D01*
X82203536Y-91395013D01*
X82197575Y-91418811D01*
X82189310Y-91441911D01*
X82178820Y-91464089D01*
X82166207Y-91485133D01*
X82151593Y-91504838D01*
X82135117Y-91523017D01*
X82116938Y-91539493D01*
X82097233Y-91554107D01*
X82076189Y-91566720D01*
X82054011Y-91577210D01*
X82030911Y-91585475D01*
X82007113Y-91591436D01*
X81982844Y-91595036D01*
X81958340Y-91596240D01*
X80708340Y-91596240D01*
X80683836Y-91595036D01*
X80659567Y-91591436D01*
X80635769Y-91585475D01*
X80612669Y-91577210D01*
X80590491Y-91566720D01*
X80569447Y-91554107D01*
X80549742Y-91539493D01*
X80531563Y-91523017D01*
X80515087Y-91504838D01*
X80500473Y-91485133D01*
X80487860Y-91464089D01*
X80477370Y-91441911D01*
X80469105Y-91418811D01*
X80463144Y-91395013D01*
X80459544Y-91370744D01*
X80458340Y-91346240D01*
X80458340Y-90421240D01*
X80459544Y-90396736D01*
X80463144Y-90372467D01*
X80469105Y-90348669D01*
X80477370Y-90325569D01*
X80487860Y-90303391D01*
X80500473Y-90282347D01*
X80515087Y-90262642D01*
X80531563Y-90244463D01*
X80549742Y-90227987D01*
X80569447Y-90213373D01*
X80590491Y-90200760D01*
X80612669Y-90190270D01*
X80635769Y-90182005D01*
X80659567Y-90176044D01*
X80683836Y-90172444D01*
X80708340Y-90171240D01*
X81958340Y-90171240D01*
X81982844Y-90172444D01*
X81982844Y-90172444D01*
G37*
D15*
X81333340Y-90883740D03*
D14*
G36*
X144693904Y-82519484D02*
G01*
X144718173Y-82523084D01*
X144741971Y-82529045D01*
X144765071Y-82537310D01*
X144787249Y-82547800D01*
X144808293Y-82560413D01*
X144827998Y-82575027D01*
X144846177Y-82591503D01*
X144862653Y-82609682D01*
X144877267Y-82629387D01*
X144889880Y-82650431D01*
X144900370Y-82672609D01*
X144908635Y-82695709D01*
X144914596Y-82719507D01*
X144918196Y-82743776D01*
X144919400Y-82768280D01*
X144919400Y-84018280D01*
X144918196Y-84042784D01*
X144914596Y-84067053D01*
X144908635Y-84090851D01*
X144900370Y-84113951D01*
X144889880Y-84136129D01*
X144877267Y-84157173D01*
X144862653Y-84176878D01*
X144846177Y-84195057D01*
X144827998Y-84211533D01*
X144808293Y-84226147D01*
X144787249Y-84238760D01*
X144765071Y-84249250D01*
X144741971Y-84257515D01*
X144718173Y-84263476D01*
X144693904Y-84267076D01*
X144669400Y-84268280D01*
X143744400Y-84268280D01*
X143719896Y-84267076D01*
X143695627Y-84263476D01*
X143671829Y-84257515D01*
X143648729Y-84249250D01*
X143626551Y-84238760D01*
X143605507Y-84226147D01*
X143585802Y-84211533D01*
X143567623Y-84195057D01*
X143551147Y-84176878D01*
X143536533Y-84157173D01*
X143523920Y-84136129D01*
X143513430Y-84113951D01*
X143505165Y-84090851D01*
X143499204Y-84067053D01*
X143495604Y-84042784D01*
X143494400Y-84018280D01*
X143494400Y-82768280D01*
X143495604Y-82743776D01*
X143499204Y-82719507D01*
X143505165Y-82695709D01*
X143513430Y-82672609D01*
X143523920Y-82650431D01*
X143536533Y-82629387D01*
X143551147Y-82609682D01*
X143567623Y-82591503D01*
X143585802Y-82575027D01*
X143605507Y-82560413D01*
X143626551Y-82547800D01*
X143648729Y-82537310D01*
X143671829Y-82529045D01*
X143695627Y-82523084D01*
X143719896Y-82519484D01*
X143744400Y-82518280D01*
X144669400Y-82518280D01*
X144693904Y-82519484D01*
X144693904Y-82519484D01*
G37*
D15*
X144206900Y-83393280D03*
D14*
G36*
X147668904Y-82519484D02*
G01*
X147693173Y-82523084D01*
X147716971Y-82529045D01*
X147740071Y-82537310D01*
X147762249Y-82547800D01*
X147783293Y-82560413D01*
X147802998Y-82575027D01*
X147821177Y-82591503D01*
X147837653Y-82609682D01*
X147852267Y-82629387D01*
X147864880Y-82650431D01*
X147875370Y-82672609D01*
X147883635Y-82695709D01*
X147889596Y-82719507D01*
X147893196Y-82743776D01*
X147894400Y-82768280D01*
X147894400Y-84018280D01*
X147893196Y-84042784D01*
X147889596Y-84067053D01*
X147883635Y-84090851D01*
X147875370Y-84113951D01*
X147864880Y-84136129D01*
X147852267Y-84157173D01*
X147837653Y-84176878D01*
X147821177Y-84195057D01*
X147802998Y-84211533D01*
X147783293Y-84226147D01*
X147762249Y-84238760D01*
X147740071Y-84249250D01*
X147716971Y-84257515D01*
X147693173Y-84263476D01*
X147668904Y-84267076D01*
X147644400Y-84268280D01*
X146719400Y-84268280D01*
X146694896Y-84267076D01*
X146670627Y-84263476D01*
X146646829Y-84257515D01*
X146623729Y-84249250D01*
X146601551Y-84238760D01*
X146580507Y-84226147D01*
X146560802Y-84211533D01*
X146542623Y-84195057D01*
X146526147Y-84176878D01*
X146511533Y-84157173D01*
X146498920Y-84136129D01*
X146488430Y-84113951D01*
X146480165Y-84090851D01*
X146474204Y-84067053D01*
X146470604Y-84042784D01*
X146469400Y-84018280D01*
X146469400Y-82768280D01*
X146470604Y-82743776D01*
X146474204Y-82719507D01*
X146480165Y-82695709D01*
X146488430Y-82672609D01*
X146498920Y-82650431D01*
X146511533Y-82629387D01*
X146526147Y-82609682D01*
X146542623Y-82591503D01*
X146560802Y-82575027D01*
X146580507Y-82560413D01*
X146601551Y-82547800D01*
X146623729Y-82537310D01*
X146646829Y-82529045D01*
X146670627Y-82523084D01*
X146694896Y-82519484D01*
X146719400Y-82518280D01*
X147644400Y-82518280D01*
X147668904Y-82519484D01*
X147668904Y-82519484D01*
G37*
D15*
X147181900Y-83393280D03*
D14*
G36*
X144668504Y-87637584D02*
G01*
X144692773Y-87641184D01*
X144716571Y-87647145D01*
X144739671Y-87655410D01*
X144761849Y-87665900D01*
X144782893Y-87678513D01*
X144802598Y-87693127D01*
X144820777Y-87709603D01*
X144837253Y-87727782D01*
X144851867Y-87747487D01*
X144864480Y-87768531D01*
X144874970Y-87790709D01*
X144883235Y-87813809D01*
X144889196Y-87837607D01*
X144892796Y-87861876D01*
X144894000Y-87886380D01*
X144894000Y-89136380D01*
X144892796Y-89160884D01*
X144889196Y-89185153D01*
X144883235Y-89208951D01*
X144874970Y-89232051D01*
X144864480Y-89254229D01*
X144851867Y-89275273D01*
X144837253Y-89294978D01*
X144820777Y-89313157D01*
X144802598Y-89329633D01*
X144782893Y-89344247D01*
X144761849Y-89356860D01*
X144739671Y-89367350D01*
X144716571Y-89375615D01*
X144692773Y-89381576D01*
X144668504Y-89385176D01*
X144644000Y-89386380D01*
X143719000Y-89386380D01*
X143694496Y-89385176D01*
X143670227Y-89381576D01*
X143646429Y-89375615D01*
X143623329Y-89367350D01*
X143601151Y-89356860D01*
X143580107Y-89344247D01*
X143560402Y-89329633D01*
X143542223Y-89313157D01*
X143525747Y-89294978D01*
X143511133Y-89275273D01*
X143498520Y-89254229D01*
X143488030Y-89232051D01*
X143479765Y-89208951D01*
X143473804Y-89185153D01*
X143470204Y-89160884D01*
X143469000Y-89136380D01*
X143469000Y-87886380D01*
X143470204Y-87861876D01*
X143473804Y-87837607D01*
X143479765Y-87813809D01*
X143488030Y-87790709D01*
X143498520Y-87768531D01*
X143511133Y-87747487D01*
X143525747Y-87727782D01*
X143542223Y-87709603D01*
X143560402Y-87693127D01*
X143580107Y-87678513D01*
X143601151Y-87665900D01*
X143623329Y-87655410D01*
X143646429Y-87647145D01*
X143670227Y-87641184D01*
X143694496Y-87637584D01*
X143719000Y-87636380D01*
X144644000Y-87636380D01*
X144668504Y-87637584D01*
X144668504Y-87637584D01*
G37*
D15*
X144181500Y-88511380D03*
D14*
G36*
X147643504Y-87637584D02*
G01*
X147667773Y-87641184D01*
X147691571Y-87647145D01*
X147714671Y-87655410D01*
X147736849Y-87665900D01*
X147757893Y-87678513D01*
X147777598Y-87693127D01*
X147795777Y-87709603D01*
X147812253Y-87727782D01*
X147826867Y-87747487D01*
X147839480Y-87768531D01*
X147849970Y-87790709D01*
X147858235Y-87813809D01*
X147864196Y-87837607D01*
X147867796Y-87861876D01*
X147869000Y-87886380D01*
X147869000Y-89136380D01*
X147867796Y-89160884D01*
X147864196Y-89185153D01*
X147858235Y-89208951D01*
X147849970Y-89232051D01*
X147839480Y-89254229D01*
X147826867Y-89275273D01*
X147812253Y-89294978D01*
X147795777Y-89313157D01*
X147777598Y-89329633D01*
X147757893Y-89344247D01*
X147736849Y-89356860D01*
X147714671Y-89367350D01*
X147691571Y-89375615D01*
X147667773Y-89381576D01*
X147643504Y-89385176D01*
X147619000Y-89386380D01*
X146694000Y-89386380D01*
X146669496Y-89385176D01*
X146645227Y-89381576D01*
X146621429Y-89375615D01*
X146598329Y-89367350D01*
X146576151Y-89356860D01*
X146555107Y-89344247D01*
X146535402Y-89329633D01*
X146517223Y-89313157D01*
X146500747Y-89294978D01*
X146486133Y-89275273D01*
X146473520Y-89254229D01*
X146463030Y-89232051D01*
X146454765Y-89208951D01*
X146448804Y-89185153D01*
X146445204Y-89160884D01*
X146444000Y-89136380D01*
X146444000Y-87886380D01*
X146445204Y-87861876D01*
X146448804Y-87837607D01*
X146454765Y-87813809D01*
X146463030Y-87790709D01*
X146473520Y-87768531D01*
X146486133Y-87747487D01*
X146500747Y-87727782D01*
X146517223Y-87709603D01*
X146535402Y-87693127D01*
X146555107Y-87678513D01*
X146576151Y-87665900D01*
X146598329Y-87655410D01*
X146621429Y-87647145D01*
X146645227Y-87641184D01*
X146669496Y-87637584D01*
X146694000Y-87636380D01*
X147619000Y-87636380D01*
X147643504Y-87637584D01*
X147643504Y-87637584D01*
G37*
D15*
X147156500Y-88511380D03*
D14*
G36*
X90089644Y-70116664D02*
G01*
X90113913Y-70120264D01*
X90137711Y-70126225D01*
X90160811Y-70134490D01*
X90182989Y-70144980D01*
X90204033Y-70157593D01*
X90223738Y-70172207D01*
X90241917Y-70188683D01*
X90258393Y-70206862D01*
X90273007Y-70226567D01*
X90285620Y-70247611D01*
X90296110Y-70269789D01*
X90304375Y-70292889D01*
X90310336Y-70316687D01*
X90313936Y-70340956D01*
X90315140Y-70365460D01*
X90315140Y-71615460D01*
X90313936Y-71639964D01*
X90310336Y-71664233D01*
X90304375Y-71688031D01*
X90296110Y-71711131D01*
X90285620Y-71733309D01*
X90273007Y-71754353D01*
X90258393Y-71774058D01*
X90241917Y-71792237D01*
X90223738Y-71808713D01*
X90204033Y-71823327D01*
X90182989Y-71835940D01*
X90160811Y-71846430D01*
X90137711Y-71854695D01*
X90113913Y-71860656D01*
X90089644Y-71864256D01*
X90065140Y-71865460D01*
X89140140Y-71865460D01*
X89115636Y-71864256D01*
X89091367Y-71860656D01*
X89067569Y-71854695D01*
X89044469Y-71846430D01*
X89022291Y-71835940D01*
X89001247Y-71823327D01*
X88981542Y-71808713D01*
X88963363Y-71792237D01*
X88946887Y-71774058D01*
X88932273Y-71754353D01*
X88919660Y-71733309D01*
X88909170Y-71711131D01*
X88900905Y-71688031D01*
X88894944Y-71664233D01*
X88891344Y-71639964D01*
X88890140Y-71615460D01*
X88890140Y-70365460D01*
X88891344Y-70340956D01*
X88894944Y-70316687D01*
X88900905Y-70292889D01*
X88909170Y-70269789D01*
X88919660Y-70247611D01*
X88932273Y-70226567D01*
X88946887Y-70206862D01*
X88963363Y-70188683D01*
X88981542Y-70172207D01*
X89001247Y-70157593D01*
X89022291Y-70144980D01*
X89044469Y-70134490D01*
X89067569Y-70126225D01*
X89091367Y-70120264D01*
X89115636Y-70116664D01*
X89140140Y-70115460D01*
X90065140Y-70115460D01*
X90089644Y-70116664D01*
X90089644Y-70116664D01*
G37*
D15*
X89602640Y-70990460D03*
D14*
G36*
X87114644Y-70116664D02*
G01*
X87138913Y-70120264D01*
X87162711Y-70126225D01*
X87185811Y-70134490D01*
X87207989Y-70144980D01*
X87229033Y-70157593D01*
X87248738Y-70172207D01*
X87266917Y-70188683D01*
X87283393Y-70206862D01*
X87298007Y-70226567D01*
X87310620Y-70247611D01*
X87321110Y-70269789D01*
X87329375Y-70292889D01*
X87335336Y-70316687D01*
X87338936Y-70340956D01*
X87340140Y-70365460D01*
X87340140Y-71615460D01*
X87338936Y-71639964D01*
X87335336Y-71664233D01*
X87329375Y-71688031D01*
X87321110Y-71711131D01*
X87310620Y-71733309D01*
X87298007Y-71754353D01*
X87283393Y-71774058D01*
X87266917Y-71792237D01*
X87248738Y-71808713D01*
X87229033Y-71823327D01*
X87207989Y-71835940D01*
X87185811Y-71846430D01*
X87162711Y-71854695D01*
X87138913Y-71860656D01*
X87114644Y-71864256D01*
X87090140Y-71865460D01*
X86165140Y-71865460D01*
X86140636Y-71864256D01*
X86116367Y-71860656D01*
X86092569Y-71854695D01*
X86069469Y-71846430D01*
X86047291Y-71835940D01*
X86026247Y-71823327D01*
X86006542Y-71808713D01*
X85988363Y-71792237D01*
X85971887Y-71774058D01*
X85957273Y-71754353D01*
X85944660Y-71733309D01*
X85934170Y-71711131D01*
X85925905Y-71688031D01*
X85919944Y-71664233D01*
X85916344Y-71639964D01*
X85915140Y-71615460D01*
X85915140Y-70365460D01*
X85916344Y-70340956D01*
X85919944Y-70316687D01*
X85925905Y-70292889D01*
X85934170Y-70269789D01*
X85944660Y-70247611D01*
X85957273Y-70226567D01*
X85971887Y-70206862D01*
X85988363Y-70188683D01*
X86006542Y-70172207D01*
X86026247Y-70157593D01*
X86047291Y-70144980D01*
X86069469Y-70134490D01*
X86092569Y-70126225D01*
X86116367Y-70120264D01*
X86140636Y-70116664D01*
X86165140Y-70115460D01*
X87090140Y-70115460D01*
X87114644Y-70116664D01*
X87114644Y-70116664D01*
G37*
D15*
X86627640Y-70990460D03*
D22*
X130263900Y-34483040D03*
D23*
X132803900Y-34483040D03*
D22*
X152290780Y-30883860D03*
X152290780Y-33423860D03*
X149750780Y-30883860D03*
X149750780Y-33423860D03*
X147210780Y-30883860D03*
X147210780Y-33423860D03*
X144670780Y-30883860D03*
X144670780Y-33423860D03*
X142130780Y-30883860D03*
D23*
X142130780Y-33423860D03*
D22*
X83804760Y-72069960D03*
X83804760Y-74609960D03*
X83804760Y-77149960D03*
X83804760Y-79689960D03*
X83804760Y-82229960D03*
D23*
X83804760Y-84769960D03*
D22*
X166293800Y-81549240D03*
X166293800Y-79009240D03*
D23*
X166293800Y-76469240D03*
D22*
X166293800Y-71338440D03*
X166293800Y-68798440D03*
D23*
X166293800Y-66258440D03*
D29*
X77000000Y-88000000D03*
X161000000Y-88000000D03*
X161000000Y-32000000D03*
X77000000Y-32000000D03*
D24*
X132897880Y-29885640D03*
D25*
X130357880Y-29885640D03*
D24*
X126547880Y-29885640D03*
D25*
X124007880Y-29885640D03*
D24*
X120705880Y-29885640D03*
D25*
X118165880Y-29885640D03*
D24*
X114686080Y-29855160D03*
D25*
X112146080Y-29855160D03*
D24*
X108590080Y-29855160D03*
D25*
X106050080Y-29855160D03*
D14*
G36*
X94160604Y-69377524D02*
G01*
X94184873Y-69381124D01*
X94208671Y-69387085D01*
X94231771Y-69395350D01*
X94253949Y-69405840D01*
X94274993Y-69418453D01*
X94294698Y-69433067D01*
X94312877Y-69449543D01*
X94329353Y-69467722D01*
X94343967Y-69487427D01*
X94356580Y-69508471D01*
X94367070Y-69530649D01*
X94375335Y-69553749D01*
X94381296Y-69577547D01*
X94384896Y-69601816D01*
X94386100Y-69626320D01*
X94386100Y-70876320D01*
X94384896Y-70900824D01*
X94381296Y-70925093D01*
X94375335Y-70948891D01*
X94367070Y-70971991D01*
X94356580Y-70994169D01*
X94343967Y-71015213D01*
X94329353Y-71034918D01*
X94312877Y-71053097D01*
X94294698Y-71069573D01*
X94274993Y-71084187D01*
X94253949Y-71096800D01*
X94231771Y-71107290D01*
X94208671Y-71115555D01*
X94184873Y-71121516D01*
X94160604Y-71125116D01*
X94136100Y-71126320D01*
X93211100Y-71126320D01*
X93186596Y-71125116D01*
X93162327Y-71121516D01*
X93138529Y-71115555D01*
X93115429Y-71107290D01*
X93093251Y-71096800D01*
X93072207Y-71084187D01*
X93052502Y-71069573D01*
X93034323Y-71053097D01*
X93017847Y-71034918D01*
X93003233Y-71015213D01*
X92990620Y-70994169D01*
X92980130Y-70971991D01*
X92971865Y-70948891D01*
X92965904Y-70925093D01*
X92962304Y-70900824D01*
X92961100Y-70876320D01*
X92961100Y-69626320D01*
X92962304Y-69601816D01*
X92965904Y-69577547D01*
X92971865Y-69553749D01*
X92980130Y-69530649D01*
X92990620Y-69508471D01*
X93003233Y-69487427D01*
X93017847Y-69467722D01*
X93034323Y-69449543D01*
X93052502Y-69433067D01*
X93072207Y-69418453D01*
X93093251Y-69405840D01*
X93115429Y-69395350D01*
X93138529Y-69387085D01*
X93162327Y-69381124D01*
X93186596Y-69377524D01*
X93211100Y-69376320D01*
X94136100Y-69376320D01*
X94160604Y-69377524D01*
X94160604Y-69377524D01*
G37*
D15*
X93673600Y-70251320D03*
D14*
G36*
X97135604Y-69377524D02*
G01*
X97159873Y-69381124D01*
X97183671Y-69387085D01*
X97206771Y-69395350D01*
X97228949Y-69405840D01*
X97249993Y-69418453D01*
X97269698Y-69433067D01*
X97287877Y-69449543D01*
X97304353Y-69467722D01*
X97318967Y-69487427D01*
X97331580Y-69508471D01*
X97342070Y-69530649D01*
X97350335Y-69553749D01*
X97356296Y-69577547D01*
X97359896Y-69601816D01*
X97361100Y-69626320D01*
X97361100Y-70876320D01*
X97359896Y-70900824D01*
X97356296Y-70925093D01*
X97350335Y-70948891D01*
X97342070Y-70971991D01*
X97331580Y-70994169D01*
X97318967Y-71015213D01*
X97304353Y-71034918D01*
X97287877Y-71053097D01*
X97269698Y-71069573D01*
X97249993Y-71084187D01*
X97228949Y-71096800D01*
X97206771Y-71107290D01*
X97183671Y-71115555D01*
X97159873Y-71121516D01*
X97135604Y-71125116D01*
X97111100Y-71126320D01*
X96186100Y-71126320D01*
X96161596Y-71125116D01*
X96137327Y-71121516D01*
X96113529Y-71115555D01*
X96090429Y-71107290D01*
X96068251Y-71096800D01*
X96047207Y-71084187D01*
X96027502Y-71069573D01*
X96009323Y-71053097D01*
X95992847Y-71034918D01*
X95978233Y-71015213D01*
X95965620Y-70994169D01*
X95955130Y-70971991D01*
X95946865Y-70948891D01*
X95940904Y-70925093D01*
X95937304Y-70900824D01*
X95936100Y-70876320D01*
X95936100Y-69626320D01*
X95937304Y-69601816D01*
X95940904Y-69577547D01*
X95946865Y-69553749D01*
X95955130Y-69530649D01*
X95965620Y-69508471D01*
X95978233Y-69487427D01*
X95992847Y-69467722D01*
X96009323Y-69449543D01*
X96027502Y-69433067D01*
X96047207Y-69418453D01*
X96068251Y-69405840D01*
X96090429Y-69395350D01*
X96113529Y-69387085D01*
X96137327Y-69381124D01*
X96161596Y-69377524D01*
X96186100Y-69376320D01*
X97111100Y-69376320D01*
X97135604Y-69377524D01*
X97135604Y-69377524D01*
G37*
D15*
X96648600Y-70251320D03*
D14*
G36*
X98057624Y-86786684D02*
G01*
X98081893Y-86790284D01*
X98105691Y-86796245D01*
X98128791Y-86804510D01*
X98150969Y-86815000D01*
X98172013Y-86827613D01*
X98191718Y-86842227D01*
X98209897Y-86858703D01*
X98226373Y-86876882D01*
X98240987Y-86896587D01*
X98253600Y-86917631D01*
X98264090Y-86939809D01*
X98272355Y-86962909D01*
X98278316Y-86986707D01*
X98281916Y-87010976D01*
X98283120Y-87035480D01*
X98283120Y-88285480D01*
X98281916Y-88309984D01*
X98278316Y-88334253D01*
X98272355Y-88358051D01*
X98264090Y-88381151D01*
X98253600Y-88403329D01*
X98240987Y-88424373D01*
X98226373Y-88444078D01*
X98209897Y-88462257D01*
X98191718Y-88478733D01*
X98172013Y-88493347D01*
X98150969Y-88505960D01*
X98128791Y-88516450D01*
X98105691Y-88524715D01*
X98081893Y-88530676D01*
X98057624Y-88534276D01*
X98033120Y-88535480D01*
X97108120Y-88535480D01*
X97083616Y-88534276D01*
X97059347Y-88530676D01*
X97035549Y-88524715D01*
X97012449Y-88516450D01*
X96990271Y-88505960D01*
X96969227Y-88493347D01*
X96949522Y-88478733D01*
X96931343Y-88462257D01*
X96914867Y-88444078D01*
X96900253Y-88424373D01*
X96887640Y-88403329D01*
X96877150Y-88381151D01*
X96868885Y-88358051D01*
X96862924Y-88334253D01*
X96859324Y-88309984D01*
X96858120Y-88285480D01*
X96858120Y-87035480D01*
X96859324Y-87010976D01*
X96862924Y-86986707D01*
X96868885Y-86962909D01*
X96877150Y-86939809D01*
X96887640Y-86917631D01*
X96900253Y-86896587D01*
X96914867Y-86876882D01*
X96931343Y-86858703D01*
X96949522Y-86842227D01*
X96969227Y-86827613D01*
X96990271Y-86815000D01*
X97012449Y-86804510D01*
X97035549Y-86796245D01*
X97059347Y-86790284D01*
X97083616Y-86786684D01*
X97108120Y-86785480D01*
X98033120Y-86785480D01*
X98057624Y-86786684D01*
X98057624Y-86786684D01*
G37*
D15*
X97570620Y-87660480D03*
D14*
G36*
X95082624Y-86786684D02*
G01*
X95106893Y-86790284D01*
X95130691Y-86796245D01*
X95153791Y-86804510D01*
X95175969Y-86815000D01*
X95197013Y-86827613D01*
X95216718Y-86842227D01*
X95234897Y-86858703D01*
X95251373Y-86876882D01*
X95265987Y-86896587D01*
X95278600Y-86917631D01*
X95289090Y-86939809D01*
X95297355Y-86962909D01*
X95303316Y-86986707D01*
X95306916Y-87010976D01*
X95308120Y-87035480D01*
X95308120Y-88285480D01*
X95306916Y-88309984D01*
X95303316Y-88334253D01*
X95297355Y-88358051D01*
X95289090Y-88381151D01*
X95278600Y-88403329D01*
X95265987Y-88424373D01*
X95251373Y-88444078D01*
X95234897Y-88462257D01*
X95216718Y-88478733D01*
X95197013Y-88493347D01*
X95175969Y-88505960D01*
X95153791Y-88516450D01*
X95130691Y-88524715D01*
X95106893Y-88530676D01*
X95082624Y-88534276D01*
X95058120Y-88535480D01*
X94133120Y-88535480D01*
X94108616Y-88534276D01*
X94084347Y-88530676D01*
X94060549Y-88524715D01*
X94037449Y-88516450D01*
X94015271Y-88505960D01*
X93994227Y-88493347D01*
X93974522Y-88478733D01*
X93956343Y-88462257D01*
X93939867Y-88444078D01*
X93925253Y-88424373D01*
X93912640Y-88403329D01*
X93902150Y-88381151D01*
X93893885Y-88358051D01*
X93887924Y-88334253D01*
X93884324Y-88309984D01*
X93883120Y-88285480D01*
X93883120Y-87035480D01*
X93884324Y-87010976D01*
X93887924Y-86986707D01*
X93893885Y-86962909D01*
X93902150Y-86939809D01*
X93912640Y-86917631D01*
X93925253Y-86896587D01*
X93939867Y-86876882D01*
X93956343Y-86858703D01*
X93974522Y-86842227D01*
X93994227Y-86827613D01*
X94015271Y-86815000D01*
X94037449Y-86804510D01*
X94060549Y-86796245D01*
X94084347Y-86790284D01*
X94108616Y-86786684D01*
X94133120Y-86785480D01*
X95058120Y-86785480D01*
X95082624Y-86786684D01*
X95082624Y-86786684D01*
G37*
D15*
X94595620Y-87660480D03*
D14*
G36*
X109491044Y-83648784D02*
G01*
X109515313Y-83652384D01*
X109539111Y-83658345D01*
X109562211Y-83666610D01*
X109584389Y-83677100D01*
X109605433Y-83689713D01*
X109625138Y-83704327D01*
X109643317Y-83720803D01*
X109659793Y-83738982D01*
X109674407Y-83758687D01*
X109687020Y-83779731D01*
X109697510Y-83801909D01*
X109705775Y-83825009D01*
X109711736Y-83848807D01*
X109715336Y-83873076D01*
X109716540Y-83897580D01*
X109716540Y-84822580D01*
X109715336Y-84847084D01*
X109711736Y-84871353D01*
X109705775Y-84895151D01*
X109697510Y-84918251D01*
X109687020Y-84940429D01*
X109674407Y-84961473D01*
X109659793Y-84981178D01*
X109643317Y-84999357D01*
X109625138Y-85015833D01*
X109605433Y-85030447D01*
X109584389Y-85043060D01*
X109562211Y-85053550D01*
X109539111Y-85061815D01*
X109515313Y-85067776D01*
X109491044Y-85071376D01*
X109466540Y-85072580D01*
X108216540Y-85072580D01*
X108192036Y-85071376D01*
X108167767Y-85067776D01*
X108143969Y-85061815D01*
X108120869Y-85053550D01*
X108098691Y-85043060D01*
X108077647Y-85030447D01*
X108057942Y-85015833D01*
X108039763Y-84999357D01*
X108023287Y-84981178D01*
X108008673Y-84961473D01*
X107996060Y-84940429D01*
X107985570Y-84918251D01*
X107977305Y-84895151D01*
X107971344Y-84871353D01*
X107967744Y-84847084D01*
X107966540Y-84822580D01*
X107966540Y-83897580D01*
X107967744Y-83873076D01*
X107971344Y-83848807D01*
X107977305Y-83825009D01*
X107985570Y-83801909D01*
X107996060Y-83779731D01*
X108008673Y-83758687D01*
X108023287Y-83738982D01*
X108039763Y-83720803D01*
X108057942Y-83704327D01*
X108077647Y-83689713D01*
X108098691Y-83677100D01*
X108120869Y-83666610D01*
X108143969Y-83658345D01*
X108167767Y-83652384D01*
X108192036Y-83648784D01*
X108216540Y-83647580D01*
X109466540Y-83647580D01*
X109491044Y-83648784D01*
X109491044Y-83648784D01*
G37*
D15*
X108841540Y-84360080D03*
D14*
G36*
X109491044Y-80673784D02*
G01*
X109515313Y-80677384D01*
X109539111Y-80683345D01*
X109562211Y-80691610D01*
X109584389Y-80702100D01*
X109605433Y-80714713D01*
X109625138Y-80729327D01*
X109643317Y-80745803D01*
X109659793Y-80763982D01*
X109674407Y-80783687D01*
X109687020Y-80804731D01*
X109697510Y-80826909D01*
X109705775Y-80850009D01*
X109711736Y-80873807D01*
X109715336Y-80898076D01*
X109716540Y-80922580D01*
X109716540Y-81847580D01*
X109715336Y-81872084D01*
X109711736Y-81896353D01*
X109705775Y-81920151D01*
X109697510Y-81943251D01*
X109687020Y-81965429D01*
X109674407Y-81986473D01*
X109659793Y-82006178D01*
X109643317Y-82024357D01*
X109625138Y-82040833D01*
X109605433Y-82055447D01*
X109584389Y-82068060D01*
X109562211Y-82078550D01*
X109539111Y-82086815D01*
X109515313Y-82092776D01*
X109491044Y-82096376D01*
X109466540Y-82097580D01*
X108216540Y-82097580D01*
X108192036Y-82096376D01*
X108167767Y-82092776D01*
X108143969Y-82086815D01*
X108120869Y-82078550D01*
X108098691Y-82068060D01*
X108077647Y-82055447D01*
X108057942Y-82040833D01*
X108039763Y-82024357D01*
X108023287Y-82006178D01*
X108008673Y-81986473D01*
X107996060Y-81965429D01*
X107985570Y-81943251D01*
X107977305Y-81920151D01*
X107971344Y-81896353D01*
X107967744Y-81872084D01*
X107966540Y-81847580D01*
X107966540Y-80922580D01*
X107967744Y-80898076D01*
X107971344Y-80873807D01*
X107977305Y-80850009D01*
X107985570Y-80826909D01*
X107996060Y-80804731D01*
X108008673Y-80783687D01*
X108023287Y-80763982D01*
X108039763Y-80745803D01*
X108057942Y-80729327D01*
X108077647Y-80714713D01*
X108098691Y-80702100D01*
X108120869Y-80691610D01*
X108143969Y-80683345D01*
X108167767Y-80677384D01*
X108192036Y-80673784D01*
X108216540Y-80672580D01*
X109466540Y-80672580D01*
X109491044Y-80673784D01*
X109491044Y-80673784D01*
G37*
D15*
X108841540Y-81385080D03*
D14*
G36*
X151562724Y-36537864D02*
G01*
X151586993Y-36541464D01*
X151610791Y-36547425D01*
X151633891Y-36555690D01*
X151656069Y-36566180D01*
X151677113Y-36578793D01*
X151696818Y-36593407D01*
X151714997Y-36609883D01*
X151731473Y-36628062D01*
X151746087Y-36647767D01*
X151758700Y-36668811D01*
X151769190Y-36690989D01*
X151777455Y-36714089D01*
X151783416Y-36737887D01*
X151787016Y-36762156D01*
X151788220Y-36786660D01*
X151788220Y-38036660D01*
X151787016Y-38061164D01*
X151783416Y-38085433D01*
X151777455Y-38109231D01*
X151769190Y-38132331D01*
X151758700Y-38154509D01*
X151746087Y-38175553D01*
X151731473Y-38195258D01*
X151714997Y-38213437D01*
X151696818Y-38229913D01*
X151677113Y-38244527D01*
X151656069Y-38257140D01*
X151633891Y-38267630D01*
X151610791Y-38275895D01*
X151586993Y-38281856D01*
X151562724Y-38285456D01*
X151538220Y-38286660D01*
X150613220Y-38286660D01*
X150588716Y-38285456D01*
X150564447Y-38281856D01*
X150540649Y-38275895D01*
X150517549Y-38267630D01*
X150495371Y-38257140D01*
X150474327Y-38244527D01*
X150454622Y-38229913D01*
X150436443Y-38213437D01*
X150419967Y-38195258D01*
X150405353Y-38175553D01*
X150392740Y-38154509D01*
X150382250Y-38132331D01*
X150373985Y-38109231D01*
X150368024Y-38085433D01*
X150364424Y-38061164D01*
X150363220Y-38036660D01*
X150363220Y-36786660D01*
X150364424Y-36762156D01*
X150368024Y-36737887D01*
X150373985Y-36714089D01*
X150382250Y-36690989D01*
X150392740Y-36668811D01*
X150405353Y-36647767D01*
X150419967Y-36628062D01*
X150436443Y-36609883D01*
X150454622Y-36593407D01*
X150474327Y-36578793D01*
X150495371Y-36566180D01*
X150517549Y-36555690D01*
X150540649Y-36547425D01*
X150564447Y-36541464D01*
X150588716Y-36537864D01*
X150613220Y-36536660D01*
X151538220Y-36536660D01*
X151562724Y-36537864D01*
X151562724Y-36537864D01*
G37*
D15*
X151075720Y-37411660D03*
D14*
G36*
X148587724Y-36537864D02*
G01*
X148611993Y-36541464D01*
X148635791Y-36547425D01*
X148658891Y-36555690D01*
X148681069Y-36566180D01*
X148702113Y-36578793D01*
X148721818Y-36593407D01*
X148739997Y-36609883D01*
X148756473Y-36628062D01*
X148771087Y-36647767D01*
X148783700Y-36668811D01*
X148794190Y-36690989D01*
X148802455Y-36714089D01*
X148808416Y-36737887D01*
X148812016Y-36762156D01*
X148813220Y-36786660D01*
X148813220Y-38036660D01*
X148812016Y-38061164D01*
X148808416Y-38085433D01*
X148802455Y-38109231D01*
X148794190Y-38132331D01*
X148783700Y-38154509D01*
X148771087Y-38175553D01*
X148756473Y-38195258D01*
X148739997Y-38213437D01*
X148721818Y-38229913D01*
X148702113Y-38244527D01*
X148681069Y-38257140D01*
X148658891Y-38267630D01*
X148635791Y-38275895D01*
X148611993Y-38281856D01*
X148587724Y-38285456D01*
X148563220Y-38286660D01*
X147638220Y-38286660D01*
X147613716Y-38285456D01*
X147589447Y-38281856D01*
X147565649Y-38275895D01*
X147542549Y-38267630D01*
X147520371Y-38257140D01*
X147499327Y-38244527D01*
X147479622Y-38229913D01*
X147461443Y-38213437D01*
X147444967Y-38195258D01*
X147430353Y-38175553D01*
X147417740Y-38154509D01*
X147407250Y-38132331D01*
X147398985Y-38109231D01*
X147393024Y-38085433D01*
X147389424Y-38061164D01*
X147388220Y-38036660D01*
X147388220Y-36786660D01*
X147389424Y-36762156D01*
X147393024Y-36737887D01*
X147398985Y-36714089D01*
X147407250Y-36690989D01*
X147417740Y-36668811D01*
X147430353Y-36647767D01*
X147444967Y-36628062D01*
X147461443Y-36609883D01*
X147479622Y-36593407D01*
X147499327Y-36578793D01*
X147520371Y-36566180D01*
X147542549Y-36555690D01*
X147565649Y-36547425D01*
X147589447Y-36541464D01*
X147613716Y-36537864D01*
X147638220Y-36536660D01*
X148563220Y-36536660D01*
X148587724Y-36537864D01*
X148587724Y-36537864D01*
G37*
D15*
X148100720Y-37411660D03*
D14*
G36*
X98653864Y-39286144D02*
G01*
X98678133Y-39289744D01*
X98701931Y-39295705D01*
X98725031Y-39303970D01*
X98747209Y-39314460D01*
X98768253Y-39327073D01*
X98787958Y-39341687D01*
X98806137Y-39358163D01*
X98822613Y-39376342D01*
X98837227Y-39396047D01*
X98849840Y-39417091D01*
X98860330Y-39439269D01*
X98868595Y-39462369D01*
X98874556Y-39486167D01*
X98878156Y-39510436D01*
X98879360Y-39534940D01*
X98879360Y-40784940D01*
X98878156Y-40809444D01*
X98874556Y-40833713D01*
X98868595Y-40857511D01*
X98860330Y-40880611D01*
X98849840Y-40902789D01*
X98837227Y-40923833D01*
X98822613Y-40943538D01*
X98806137Y-40961717D01*
X98787958Y-40978193D01*
X98768253Y-40992807D01*
X98747209Y-41005420D01*
X98725031Y-41015910D01*
X98701931Y-41024175D01*
X98678133Y-41030136D01*
X98653864Y-41033736D01*
X98629360Y-41034940D01*
X97704360Y-41034940D01*
X97679856Y-41033736D01*
X97655587Y-41030136D01*
X97631789Y-41024175D01*
X97608689Y-41015910D01*
X97586511Y-41005420D01*
X97565467Y-40992807D01*
X97545762Y-40978193D01*
X97527583Y-40961717D01*
X97511107Y-40943538D01*
X97496493Y-40923833D01*
X97483880Y-40902789D01*
X97473390Y-40880611D01*
X97465125Y-40857511D01*
X97459164Y-40833713D01*
X97455564Y-40809444D01*
X97454360Y-40784940D01*
X97454360Y-39534940D01*
X97455564Y-39510436D01*
X97459164Y-39486167D01*
X97465125Y-39462369D01*
X97473390Y-39439269D01*
X97483880Y-39417091D01*
X97496493Y-39396047D01*
X97511107Y-39376342D01*
X97527583Y-39358163D01*
X97545762Y-39341687D01*
X97565467Y-39327073D01*
X97586511Y-39314460D01*
X97608689Y-39303970D01*
X97631789Y-39295705D01*
X97655587Y-39289744D01*
X97679856Y-39286144D01*
X97704360Y-39284940D01*
X98629360Y-39284940D01*
X98653864Y-39286144D01*
X98653864Y-39286144D01*
G37*
D15*
X98166860Y-40159940D03*
D14*
G36*
X101628864Y-39286144D02*
G01*
X101653133Y-39289744D01*
X101676931Y-39295705D01*
X101700031Y-39303970D01*
X101722209Y-39314460D01*
X101743253Y-39327073D01*
X101762958Y-39341687D01*
X101781137Y-39358163D01*
X101797613Y-39376342D01*
X101812227Y-39396047D01*
X101824840Y-39417091D01*
X101835330Y-39439269D01*
X101843595Y-39462369D01*
X101849556Y-39486167D01*
X101853156Y-39510436D01*
X101854360Y-39534940D01*
X101854360Y-40784940D01*
X101853156Y-40809444D01*
X101849556Y-40833713D01*
X101843595Y-40857511D01*
X101835330Y-40880611D01*
X101824840Y-40902789D01*
X101812227Y-40923833D01*
X101797613Y-40943538D01*
X101781137Y-40961717D01*
X101762958Y-40978193D01*
X101743253Y-40992807D01*
X101722209Y-41005420D01*
X101700031Y-41015910D01*
X101676931Y-41024175D01*
X101653133Y-41030136D01*
X101628864Y-41033736D01*
X101604360Y-41034940D01*
X100679360Y-41034940D01*
X100654856Y-41033736D01*
X100630587Y-41030136D01*
X100606789Y-41024175D01*
X100583689Y-41015910D01*
X100561511Y-41005420D01*
X100540467Y-40992807D01*
X100520762Y-40978193D01*
X100502583Y-40961717D01*
X100486107Y-40943538D01*
X100471493Y-40923833D01*
X100458880Y-40902789D01*
X100448390Y-40880611D01*
X100440125Y-40857511D01*
X100434164Y-40833713D01*
X100430564Y-40809444D01*
X100429360Y-40784940D01*
X100429360Y-39534940D01*
X100430564Y-39510436D01*
X100434164Y-39486167D01*
X100440125Y-39462369D01*
X100448390Y-39439269D01*
X100458880Y-39417091D01*
X100471493Y-39396047D01*
X100486107Y-39376342D01*
X100502583Y-39358163D01*
X100520762Y-39341687D01*
X100540467Y-39327073D01*
X100561511Y-39314460D01*
X100583689Y-39303970D01*
X100606789Y-39295705D01*
X100630587Y-39289744D01*
X100654856Y-39286144D01*
X100679360Y-39284940D01*
X101604360Y-39284940D01*
X101628864Y-39286144D01*
X101628864Y-39286144D01*
G37*
D15*
X101141860Y-40159940D03*
D14*
G36*
X161469604Y-55325244D02*
G01*
X161493873Y-55328844D01*
X161517671Y-55334805D01*
X161540771Y-55343070D01*
X161562949Y-55353560D01*
X161583993Y-55366173D01*
X161603698Y-55380787D01*
X161621877Y-55397263D01*
X161638353Y-55415442D01*
X161652967Y-55435147D01*
X161665580Y-55456191D01*
X161676070Y-55478369D01*
X161684335Y-55501469D01*
X161690296Y-55525267D01*
X161693896Y-55549536D01*
X161695100Y-55574040D01*
X161695100Y-56499040D01*
X161693896Y-56523544D01*
X161690296Y-56547813D01*
X161684335Y-56571611D01*
X161676070Y-56594711D01*
X161665580Y-56616889D01*
X161652967Y-56637933D01*
X161638353Y-56657638D01*
X161621877Y-56675817D01*
X161603698Y-56692293D01*
X161583993Y-56706907D01*
X161562949Y-56719520D01*
X161540771Y-56730010D01*
X161517671Y-56738275D01*
X161493873Y-56744236D01*
X161469604Y-56747836D01*
X161445100Y-56749040D01*
X160195100Y-56749040D01*
X160170596Y-56747836D01*
X160146327Y-56744236D01*
X160122529Y-56738275D01*
X160099429Y-56730010D01*
X160077251Y-56719520D01*
X160056207Y-56706907D01*
X160036502Y-56692293D01*
X160018323Y-56675817D01*
X160001847Y-56657638D01*
X159987233Y-56637933D01*
X159974620Y-56616889D01*
X159964130Y-56594711D01*
X159955865Y-56571611D01*
X159949904Y-56547813D01*
X159946304Y-56523544D01*
X159945100Y-56499040D01*
X159945100Y-55574040D01*
X159946304Y-55549536D01*
X159949904Y-55525267D01*
X159955865Y-55501469D01*
X159964130Y-55478369D01*
X159974620Y-55456191D01*
X159987233Y-55435147D01*
X160001847Y-55415442D01*
X160018323Y-55397263D01*
X160036502Y-55380787D01*
X160056207Y-55366173D01*
X160077251Y-55353560D01*
X160099429Y-55343070D01*
X160122529Y-55334805D01*
X160146327Y-55328844D01*
X160170596Y-55325244D01*
X160195100Y-55324040D01*
X161445100Y-55324040D01*
X161469604Y-55325244D01*
X161469604Y-55325244D01*
G37*
D15*
X160820100Y-56036540D03*
D14*
G36*
X161469604Y-52350244D02*
G01*
X161493873Y-52353844D01*
X161517671Y-52359805D01*
X161540771Y-52368070D01*
X161562949Y-52378560D01*
X161583993Y-52391173D01*
X161603698Y-52405787D01*
X161621877Y-52422263D01*
X161638353Y-52440442D01*
X161652967Y-52460147D01*
X161665580Y-52481191D01*
X161676070Y-52503369D01*
X161684335Y-52526469D01*
X161690296Y-52550267D01*
X161693896Y-52574536D01*
X161695100Y-52599040D01*
X161695100Y-53524040D01*
X161693896Y-53548544D01*
X161690296Y-53572813D01*
X161684335Y-53596611D01*
X161676070Y-53619711D01*
X161665580Y-53641889D01*
X161652967Y-53662933D01*
X161638353Y-53682638D01*
X161621877Y-53700817D01*
X161603698Y-53717293D01*
X161583993Y-53731907D01*
X161562949Y-53744520D01*
X161540771Y-53755010D01*
X161517671Y-53763275D01*
X161493873Y-53769236D01*
X161469604Y-53772836D01*
X161445100Y-53774040D01*
X160195100Y-53774040D01*
X160170596Y-53772836D01*
X160146327Y-53769236D01*
X160122529Y-53763275D01*
X160099429Y-53755010D01*
X160077251Y-53744520D01*
X160056207Y-53731907D01*
X160036502Y-53717293D01*
X160018323Y-53700817D01*
X160001847Y-53682638D01*
X159987233Y-53662933D01*
X159974620Y-53641889D01*
X159964130Y-53619711D01*
X159955865Y-53596611D01*
X159949904Y-53572813D01*
X159946304Y-53548544D01*
X159945100Y-53524040D01*
X159945100Y-52599040D01*
X159946304Y-52574536D01*
X159949904Y-52550267D01*
X159955865Y-52526469D01*
X159964130Y-52503369D01*
X159974620Y-52481191D01*
X159987233Y-52460147D01*
X160001847Y-52440442D01*
X160018323Y-52422263D01*
X160036502Y-52405787D01*
X160056207Y-52391173D01*
X160077251Y-52378560D01*
X160099429Y-52368070D01*
X160122529Y-52359805D01*
X160146327Y-52353844D01*
X160170596Y-52350244D01*
X160195100Y-52349040D01*
X161445100Y-52349040D01*
X161469604Y-52350244D01*
X161469604Y-52350244D01*
G37*
D15*
X160820100Y-53061540D03*
D14*
G36*
X129487584Y-66565744D02*
G01*
X129511853Y-66569344D01*
X129535651Y-66575305D01*
X129558751Y-66583570D01*
X129580929Y-66594060D01*
X129601973Y-66606673D01*
X129621678Y-66621287D01*
X129639857Y-66637763D01*
X129656333Y-66655942D01*
X129670947Y-66675647D01*
X129683560Y-66696691D01*
X129694050Y-66718869D01*
X129702315Y-66741969D01*
X129708276Y-66765767D01*
X129711876Y-66790036D01*
X129713080Y-66814540D01*
X129713080Y-68064540D01*
X129711876Y-68089044D01*
X129708276Y-68113313D01*
X129702315Y-68137111D01*
X129694050Y-68160211D01*
X129683560Y-68182389D01*
X129670947Y-68203433D01*
X129656333Y-68223138D01*
X129639857Y-68241317D01*
X129621678Y-68257793D01*
X129601973Y-68272407D01*
X129580929Y-68285020D01*
X129558751Y-68295510D01*
X129535651Y-68303775D01*
X129511853Y-68309736D01*
X129487584Y-68313336D01*
X129463080Y-68314540D01*
X128538080Y-68314540D01*
X128513576Y-68313336D01*
X128489307Y-68309736D01*
X128465509Y-68303775D01*
X128442409Y-68295510D01*
X128420231Y-68285020D01*
X128399187Y-68272407D01*
X128379482Y-68257793D01*
X128361303Y-68241317D01*
X128344827Y-68223138D01*
X128330213Y-68203433D01*
X128317600Y-68182389D01*
X128307110Y-68160211D01*
X128298845Y-68137111D01*
X128292884Y-68113313D01*
X128289284Y-68089044D01*
X128288080Y-68064540D01*
X128288080Y-66814540D01*
X128289284Y-66790036D01*
X128292884Y-66765767D01*
X128298845Y-66741969D01*
X128307110Y-66718869D01*
X128317600Y-66696691D01*
X128330213Y-66675647D01*
X128344827Y-66655942D01*
X128361303Y-66637763D01*
X128379482Y-66621287D01*
X128399187Y-66606673D01*
X128420231Y-66594060D01*
X128442409Y-66583570D01*
X128465509Y-66575305D01*
X128489307Y-66569344D01*
X128513576Y-66565744D01*
X128538080Y-66564540D01*
X129463080Y-66564540D01*
X129487584Y-66565744D01*
X129487584Y-66565744D01*
G37*
D15*
X129000580Y-67439540D03*
D14*
G36*
X126512584Y-66565744D02*
G01*
X126536853Y-66569344D01*
X126560651Y-66575305D01*
X126583751Y-66583570D01*
X126605929Y-66594060D01*
X126626973Y-66606673D01*
X126646678Y-66621287D01*
X126664857Y-66637763D01*
X126681333Y-66655942D01*
X126695947Y-66675647D01*
X126708560Y-66696691D01*
X126719050Y-66718869D01*
X126727315Y-66741969D01*
X126733276Y-66765767D01*
X126736876Y-66790036D01*
X126738080Y-66814540D01*
X126738080Y-68064540D01*
X126736876Y-68089044D01*
X126733276Y-68113313D01*
X126727315Y-68137111D01*
X126719050Y-68160211D01*
X126708560Y-68182389D01*
X126695947Y-68203433D01*
X126681333Y-68223138D01*
X126664857Y-68241317D01*
X126646678Y-68257793D01*
X126626973Y-68272407D01*
X126605929Y-68285020D01*
X126583751Y-68295510D01*
X126560651Y-68303775D01*
X126536853Y-68309736D01*
X126512584Y-68313336D01*
X126488080Y-68314540D01*
X125563080Y-68314540D01*
X125538576Y-68313336D01*
X125514307Y-68309736D01*
X125490509Y-68303775D01*
X125467409Y-68295510D01*
X125445231Y-68285020D01*
X125424187Y-68272407D01*
X125404482Y-68257793D01*
X125386303Y-68241317D01*
X125369827Y-68223138D01*
X125355213Y-68203433D01*
X125342600Y-68182389D01*
X125332110Y-68160211D01*
X125323845Y-68137111D01*
X125317884Y-68113313D01*
X125314284Y-68089044D01*
X125313080Y-68064540D01*
X125313080Y-66814540D01*
X125314284Y-66790036D01*
X125317884Y-66765767D01*
X125323845Y-66741969D01*
X125332110Y-66718869D01*
X125342600Y-66696691D01*
X125355213Y-66675647D01*
X125369827Y-66655942D01*
X125386303Y-66637763D01*
X125404482Y-66621287D01*
X125424187Y-66606673D01*
X125445231Y-66594060D01*
X125467409Y-66583570D01*
X125490509Y-66575305D01*
X125514307Y-66569344D01*
X125538576Y-66565744D01*
X125563080Y-66564540D01*
X126488080Y-66564540D01*
X126512584Y-66565744D01*
X126512584Y-66565744D01*
G37*
D15*
X126025580Y-67439540D03*
D14*
G36*
X130640744Y-39702704D02*
G01*
X130665013Y-39706304D01*
X130688811Y-39712265D01*
X130711911Y-39720530D01*
X130734089Y-39731020D01*
X130755133Y-39743633D01*
X130774838Y-39758247D01*
X130793017Y-39774723D01*
X130809493Y-39792902D01*
X130824107Y-39812607D01*
X130836720Y-39833651D01*
X130847210Y-39855829D01*
X130855475Y-39878929D01*
X130861436Y-39902727D01*
X130865036Y-39926996D01*
X130866240Y-39951500D01*
X130866240Y-41201500D01*
X130865036Y-41226004D01*
X130861436Y-41250273D01*
X130855475Y-41274071D01*
X130847210Y-41297171D01*
X130836720Y-41319349D01*
X130824107Y-41340393D01*
X130809493Y-41360098D01*
X130793017Y-41378277D01*
X130774838Y-41394753D01*
X130755133Y-41409367D01*
X130734089Y-41421980D01*
X130711911Y-41432470D01*
X130688811Y-41440735D01*
X130665013Y-41446696D01*
X130640744Y-41450296D01*
X130616240Y-41451500D01*
X129691240Y-41451500D01*
X129666736Y-41450296D01*
X129642467Y-41446696D01*
X129618669Y-41440735D01*
X129595569Y-41432470D01*
X129573391Y-41421980D01*
X129552347Y-41409367D01*
X129532642Y-41394753D01*
X129514463Y-41378277D01*
X129497987Y-41360098D01*
X129483373Y-41340393D01*
X129470760Y-41319349D01*
X129460270Y-41297171D01*
X129452005Y-41274071D01*
X129446044Y-41250273D01*
X129442444Y-41226004D01*
X129441240Y-41201500D01*
X129441240Y-39951500D01*
X129442444Y-39926996D01*
X129446044Y-39902727D01*
X129452005Y-39878929D01*
X129460270Y-39855829D01*
X129470760Y-39833651D01*
X129483373Y-39812607D01*
X129497987Y-39792902D01*
X129514463Y-39774723D01*
X129532642Y-39758247D01*
X129552347Y-39743633D01*
X129573391Y-39731020D01*
X129595569Y-39720530D01*
X129618669Y-39712265D01*
X129642467Y-39706304D01*
X129666736Y-39702704D01*
X129691240Y-39701500D01*
X130616240Y-39701500D01*
X130640744Y-39702704D01*
X130640744Y-39702704D01*
G37*
D15*
X130153740Y-40576500D03*
D14*
G36*
X127665744Y-39702704D02*
G01*
X127690013Y-39706304D01*
X127713811Y-39712265D01*
X127736911Y-39720530D01*
X127759089Y-39731020D01*
X127780133Y-39743633D01*
X127799838Y-39758247D01*
X127818017Y-39774723D01*
X127834493Y-39792902D01*
X127849107Y-39812607D01*
X127861720Y-39833651D01*
X127872210Y-39855829D01*
X127880475Y-39878929D01*
X127886436Y-39902727D01*
X127890036Y-39926996D01*
X127891240Y-39951500D01*
X127891240Y-41201500D01*
X127890036Y-41226004D01*
X127886436Y-41250273D01*
X127880475Y-41274071D01*
X127872210Y-41297171D01*
X127861720Y-41319349D01*
X127849107Y-41340393D01*
X127834493Y-41360098D01*
X127818017Y-41378277D01*
X127799838Y-41394753D01*
X127780133Y-41409367D01*
X127759089Y-41421980D01*
X127736911Y-41432470D01*
X127713811Y-41440735D01*
X127690013Y-41446696D01*
X127665744Y-41450296D01*
X127641240Y-41451500D01*
X126716240Y-41451500D01*
X126691736Y-41450296D01*
X126667467Y-41446696D01*
X126643669Y-41440735D01*
X126620569Y-41432470D01*
X126598391Y-41421980D01*
X126577347Y-41409367D01*
X126557642Y-41394753D01*
X126539463Y-41378277D01*
X126522987Y-41360098D01*
X126508373Y-41340393D01*
X126495760Y-41319349D01*
X126485270Y-41297171D01*
X126477005Y-41274071D01*
X126471044Y-41250273D01*
X126467444Y-41226004D01*
X126466240Y-41201500D01*
X126466240Y-39951500D01*
X126467444Y-39926996D01*
X126471044Y-39902727D01*
X126477005Y-39878929D01*
X126485270Y-39855829D01*
X126495760Y-39833651D01*
X126508373Y-39812607D01*
X126522987Y-39792902D01*
X126539463Y-39774723D01*
X126557642Y-39758247D01*
X126577347Y-39743633D01*
X126598391Y-39731020D01*
X126620569Y-39720530D01*
X126643669Y-39712265D01*
X126667467Y-39706304D01*
X126691736Y-39702704D01*
X126716240Y-39701500D01*
X127641240Y-39701500D01*
X127665744Y-39702704D01*
X127665744Y-39702704D01*
G37*
D15*
X127178740Y-40576500D03*
D14*
G36*
X165369504Y-38244744D02*
G01*
X165393773Y-38248344D01*
X165417571Y-38254305D01*
X165440671Y-38262570D01*
X165462849Y-38273060D01*
X165483893Y-38285673D01*
X165503598Y-38300287D01*
X165521777Y-38316763D01*
X165538253Y-38334942D01*
X165552867Y-38354647D01*
X165565480Y-38375691D01*
X165575970Y-38397869D01*
X165584235Y-38420969D01*
X165590196Y-38444767D01*
X165593796Y-38469036D01*
X165595000Y-38493540D01*
X165595000Y-39743540D01*
X165593796Y-39768044D01*
X165590196Y-39792313D01*
X165584235Y-39816111D01*
X165575970Y-39839211D01*
X165565480Y-39861389D01*
X165552867Y-39882433D01*
X165538253Y-39902138D01*
X165521777Y-39920317D01*
X165503598Y-39936793D01*
X165483893Y-39951407D01*
X165462849Y-39964020D01*
X165440671Y-39974510D01*
X165417571Y-39982775D01*
X165393773Y-39988736D01*
X165369504Y-39992336D01*
X165345000Y-39993540D01*
X164420000Y-39993540D01*
X164395496Y-39992336D01*
X164371227Y-39988736D01*
X164347429Y-39982775D01*
X164324329Y-39974510D01*
X164302151Y-39964020D01*
X164281107Y-39951407D01*
X164261402Y-39936793D01*
X164243223Y-39920317D01*
X164226747Y-39902138D01*
X164212133Y-39882433D01*
X164199520Y-39861389D01*
X164189030Y-39839211D01*
X164180765Y-39816111D01*
X164174804Y-39792313D01*
X164171204Y-39768044D01*
X164170000Y-39743540D01*
X164170000Y-38493540D01*
X164171204Y-38469036D01*
X164174804Y-38444767D01*
X164180765Y-38420969D01*
X164189030Y-38397869D01*
X164199520Y-38375691D01*
X164212133Y-38354647D01*
X164226747Y-38334942D01*
X164243223Y-38316763D01*
X164261402Y-38300287D01*
X164281107Y-38285673D01*
X164302151Y-38273060D01*
X164324329Y-38262570D01*
X164347429Y-38254305D01*
X164371227Y-38248344D01*
X164395496Y-38244744D01*
X164420000Y-38243540D01*
X165345000Y-38243540D01*
X165369504Y-38244744D01*
X165369504Y-38244744D01*
G37*
D15*
X164882500Y-39118540D03*
D14*
G36*
X168344504Y-38244744D02*
G01*
X168368773Y-38248344D01*
X168392571Y-38254305D01*
X168415671Y-38262570D01*
X168437849Y-38273060D01*
X168458893Y-38285673D01*
X168478598Y-38300287D01*
X168496777Y-38316763D01*
X168513253Y-38334942D01*
X168527867Y-38354647D01*
X168540480Y-38375691D01*
X168550970Y-38397869D01*
X168559235Y-38420969D01*
X168565196Y-38444767D01*
X168568796Y-38469036D01*
X168570000Y-38493540D01*
X168570000Y-39743540D01*
X168568796Y-39768044D01*
X168565196Y-39792313D01*
X168559235Y-39816111D01*
X168550970Y-39839211D01*
X168540480Y-39861389D01*
X168527867Y-39882433D01*
X168513253Y-39902138D01*
X168496777Y-39920317D01*
X168478598Y-39936793D01*
X168458893Y-39951407D01*
X168437849Y-39964020D01*
X168415671Y-39974510D01*
X168392571Y-39982775D01*
X168368773Y-39988736D01*
X168344504Y-39992336D01*
X168320000Y-39993540D01*
X167395000Y-39993540D01*
X167370496Y-39992336D01*
X167346227Y-39988736D01*
X167322429Y-39982775D01*
X167299329Y-39974510D01*
X167277151Y-39964020D01*
X167256107Y-39951407D01*
X167236402Y-39936793D01*
X167218223Y-39920317D01*
X167201747Y-39902138D01*
X167187133Y-39882433D01*
X167174520Y-39861389D01*
X167164030Y-39839211D01*
X167155765Y-39816111D01*
X167149804Y-39792313D01*
X167146204Y-39768044D01*
X167145000Y-39743540D01*
X167145000Y-38493540D01*
X167146204Y-38469036D01*
X167149804Y-38444767D01*
X167155765Y-38420969D01*
X167164030Y-38397869D01*
X167174520Y-38375691D01*
X167187133Y-38354647D01*
X167201747Y-38334942D01*
X167218223Y-38316763D01*
X167236402Y-38300287D01*
X167256107Y-38285673D01*
X167277151Y-38273060D01*
X167299329Y-38262570D01*
X167322429Y-38254305D01*
X167346227Y-38248344D01*
X167370496Y-38244744D01*
X167395000Y-38243540D01*
X168320000Y-38243540D01*
X168344504Y-38244744D01*
X168344504Y-38244744D01*
G37*
D15*
X167857500Y-39118540D03*
D14*
G36*
X168344504Y-56636884D02*
G01*
X168368773Y-56640484D01*
X168392571Y-56646445D01*
X168415671Y-56654710D01*
X168437849Y-56665200D01*
X168458893Y-56677813D01*
X168478598Y-56692427D01*
X168496777Y-56708903D01*
X168513253Y-56727082D01*
X168527867Y-56746787D01*
X168540480Y-56767831D01*
X168550970Y-56790009D01*
X168559235Y-56813109D01*
X168565196Y-56836907D01*
X168568796Y-56861176D01*
X168570000Y-56885680D01*
X168570000Y-58135680D01*
X168568796Y-58160184D01*
X168565196Y-58184453D01*
X168559235Y-58208251D01*
X168550970Y-58231351D01*
X168540480Y-58253529D01*
X168527867Y-58274573D01*
X168513253Y-58294278D01*
X168496777Y-58312457D01*
X168478598Y-58328933D01*
X168458893Y-58343547D01*
X168437849Y-58356160D01*
X168415671Y-58366650D01*
X168392571Y-58374915D01*
X168368773Y-58380876D01*
X168344504Y-58384476D01*
X168320000Y-58385680D01*
X167395000Y-58385680D01*
X167370496Y-58384476D01*
X167346227Y-58380876D01*
X167322429Y-58374915D01*
X167299329Y-58366650D01*
X167277151Y-58356160D01*
X167256107Y-58343547D01*
X167236402Y-58328933D01*
X167218223Y-58312457D01*
X167201747Y-58294278D01*
X167187133Y-58274573D01*
X167174520Y-58253529D01*
X167164030Y-58231351D01*
X167155765Y-58208251D01*
X167149804Y-58184453D01*
X167146204Y-58160184D01*
X167145000Y-58135680D01*
X167145000Y-56885680D01*
X167146204Y-56861176D01*
X167149804Y-56836907D01*
X167155765Y-56813109D01*
X167164030Y-56790009D01*
X167174520Y-56767831D01*
X167187133Y-56746787D01*
X167201747Y-56727082D01*
X167218223Y-56708903D01*
X167236402Y-56692427D01*
X167256107Y-56677813D01*
X167277151Y-56665200D01*
X167299329Y-56654710D01*
X167322429Y-56646445D01*
X167346227Y-56640484D01*
X167370496Y-56636884D01*
X167395000Y-56635680D01*
X168320000Y-56635680D01*
X168344504Y-56636884D01*
X168344504Y-56636884D01*
G37*
D15*
X167857500Y-57510680D03*
D14*
G36*
X165369504Y-56636884D02*
G01*
X165393773Y-56640484D01*
X165417571Y-56646445D01*
X165440671Y-56654710D01*
X165462849Y-56665200D01*
X165483893Y-56677813D01*
X165503598Y-56692427D01*
X165521777Y-56708903D01*
X165538253Y-56727082D01*
X165552867Y-56746787D01*
X165565480Y-56767831D01*
X165575970Y-56790009D01*
X165584235Y-56813109D01*
X165590196Y-56836907D01*
X165593796Y-56861176D01*
X165595000Y-56885680D01*
X165595000Y-58135680D01*
X165593796Y-58160184D01*
X165590196Y-58184453D01*
X165584235Y-58208251D01*
X165575970Y-58231351D01*
X165565480Y-58253529D01*
X165552867Y-58274573D01*
X165538253Y-58294278D01*
X165521777Y-58312457D01*
X165503598Y-58328933D01*
X165483893Y-58343547D01*
X165462849Y-58356160D01*
X165440671Y-58366650D01*
X165417571Y-58374915D01*
X165393773Y-58380876D01*
X165369504Y-58384476D01*
X165345000Y-58385680D01*
X164420000Y-58385680D01*
X164395496Y-58384476D01*
X164371227Y-58380876D01*
X164347429Y-58374915D01*
X164324329Y-58366650D01*
X164302151Y-58356160D01*
X164281107Y-58343547D01*
X164261402Y-58328933D01*
X164243223Y-58312457D01*
X164226747Y-58294278D01*
X164212133Y-58274573D01*
X164199520Y-58253529D01*
X164189030Y-58231351D01*
X164180765Y-58208251D01*
X164174804Y-58184453D01*
X164171204Y-58160184D01*
X164170000Y-58135680D01*
X164170000Y-56885680D01*
X164171204Y-56861176D01*
X164174804Y-56836907D01*
X164180765Y-56813109D01*
X164189030Y-56790009D01*
X164199520Y-56767831D01*
X164212133Y-56746787D01*
X164226747Y-56727082D01*
X164243223Y-56708903D01*
X164261402Y-56692427D01*
X164281107Y-56677813D01*
X164302151Y-56665200D01*
X164324329Y-56654710D01*
X164347429Y-56646445D01*
X164371227Y-56640484D01*
X164395496Y-56636884D01*
X164420000Y-56635680D01*
X165345000Y-56635680D01*
X165369504Y-56636884D01*
X165369504Y-56636884D01*
G37*
D15*
X164882500Y-57510680D03*
D14*
G36*
X165369504Y-53654924D02*
G01*
X165393773Y-53658524D01*
X165417571Y-53664485D01*
X165440671Y-53672750D01*
X165462849Y-53683240D01*
X165483893Y-53695853D01*
X165503598Y-53710467D01*
X165521777Y-53726943D01*
X165538253Y-53745122D01*
X165552867Y-53764827D01*
X165565480Y-53785871D01*
X165575970Y-53808049D01*
X165584235Y-53831149D01*
X165590196Y-53854947D01*
X165593796Y-53879216D01*
X165595000Y-53903720D01*
X165595000Y-55153720D01*
X165593796Y-55178224D01*
X165590196Y-55202493D01*
X165584235Y-55226291D01*
X165575970Y-55249391D01*
X165565480Y-55271569D01*
X165552867Y-55292613D01*
X165538253Y-55312318D01*
X165521777Y-55330497D01*
X165503598Y-55346973D01*
X165483893Y-55361587D01*
X165462849Y-55374200D01*
X165440671Y-55384690D01*
X165417571Y-55392955D01*
X165393773Y-55398916D01*
X165369504Y-55402516D01*
X165345000Y-55403720D01*
X164420000Y-55403720D01*
X164395496Y-55402516D01*
X164371227Y-55398916D01*
X164347429Y-55392955D01*
X164324329Y-55384690D01*
X164302151Y-55374200D01*
X164281107Y-55361587D01*
X164261402Y-55346973D01*
X164243223Y-55330497D01*
X164226747Y-55312318D01*
X164212133Y-55292613D01*
X164199520Y-55271569D01*
X164189030Y-55249391D01*
X164180765Y-55226291D01*
X164174804Y-55202493D01*
X164171204Y-55178224D01*
X164170000Y-55153720D01*
X164170000Y-53903720D01*
X164171204Y-53879216D01*
X164174804Y-53854947D01*
X164180765Y-53831149D01*
X164189030Y-53808049D01*
X164199520Y-53785871D01*
X164212133Y-53764827D01*
X164226747Y-53745122D01*
X164243223Y-53726943D01*
X164261402Y-53710467D01*
X164281107Y-53695853D01*
X164302151Y-53683240D01*
X164324329Y-53672750D01*
X164347429Y-53664485D01*
X164371227Y-53658524D01*
X164395496Y-53654924D01*
X164420000Y-53653720D01*
X165345000Y-53653720D01*
X165369504Y-53654924D01*
X165369504Y-53654924D01*
G37*
D15*
X164882500Y-54528720D03*
D14*
G36*
X168344504Y-53654924D02*
G01*
X168368773Y-53658524D01*
X168392571Y-53664485D01*
X168415671Y-53672750D01*
X168437849Y-53683240D01*
X168458893Y-53695853D01*
X168478598Y-53710467D01*
X168496777Y-53726943D01*
X168513253Y-53745122D01*
X168527867Y-53764827D01*
X168540480Y-53785871D01*
X168550970Y-53808049D01*
X168559235Y-53831149D01*
X168565196Y-53854947D01*
X168568796Y-53879216D01*
X168570000Y-53903720D01*
X168570000Y-55153720D01*
X168568796Y-55178224D01*
X168565196Y-55202493D01*
X168559235Y-55226291D01*
X168550970Y-55249391D01*
X168540480Y-55271569D01*
X168527867Y-55292613D01*
X168513253Y-55312318D01*
X168496777Y-55330497D01*
X168478598Y-55346973D01*
X168458893Y-55361587D01*
X168437849Y-55374200D01*
X168415671Y-55384690D01*
X168392571Y-55392955D01*
X168368773Y-55398916D01*
X168344504Y-55402516D01*
X168320000Y-55403720D01*
X167395000Y-55403720D01*
X167370496Y-55402516D01*
X167346227Y-55398916D01*
X167322429Y-55392955D01*
X167299329Y-55384690D01*
X167277151Y-55374200D01*
X167256107Y-55361587D01*
X167236402Y-55346973D01*
X167218223Y-55330497D01*
X167201747Y-55312318D01*
X167187133Y-55292613D01*
X167174520Y-55271569D01*
X167164030Y-55249391D01*
X167155765Y-55226291D01*
X167149804Y-55202493D01*
X167146204Y-55178224D01*
X167145000Y-55153720D01*
X167145000Y-53903720D01*
X167146204Y-53879216D01*
X167149804Y-53854947D01*
X167155765Y-53831149D01*
X167164030Y-53808049D01*
X167174520Y-53785871D01*
X167187133Y-53764827D01*
X167201747Y-53745122D01*
X167218223Y-53726943D01*
X167236402Y-53710467D01*
X167256107Y-53695853D01*
X167277151Y-53683240D01*
X167299329Y-53672750D01*
X167322429Y-53664485D01*
X167346227Y-53658524D01*
X167370496Y-53654924D01*
X167395000Y-53653720D01*
X168320000Y-53653720D01*
X168344504Y-53654924D01*
X168344504Y-53654924D01*
G37*
D15*
X167857500Y-54528720D03*
D14*
G36*
X168344504Y-59710284D02*
G01*
X168368773Y-59713884D01*
X168392571Y-59719845D01*
X168415671Y-59728110D01*
X168437849Y-59738600D01*
X168458893Y-59751213D01*
X168478598Y-59765827D01*
X168496777Y-59782303D01*
X168513253Y-59800482D01*
X168527867Y-59820187D01*
X168540480Y-59841231D01*
X168550970Y-59863409D01*
X168559235Y-59886509D01*
X168565196Y-59910307D01*
X168568796Y-59934576D01*
X168570000Y-59959080D01*
X168570000Y-61209080D01*
X168568796Y-61233584D01*
X168565196Y-61257853D01*
X168559235Y-61281651D01*
X168550970Y-61304751D01*
X168540480Y-61326929D01*
X168527867Y-61347973D01*
X168513253Y-61367678D01*
X168496777Y-61385857D01*
X168478598Y-61402333D01*
X168458893Y-61416947D01*
X168437849Y-61429560D01*
X168415671Y-61440050D01*
X168392571Y-61448315D01*
X168368773Y-61454276D01*
X168344504Y-61457876D01*
X168320000Y-61459080D01*
X167395000Y-61459080D01*
X167370496Y-61457876D01*
X167346227Y-61454276D01*
X167322429Y-61448315D01*
X167299329Y-61440050D01*
X167277151Y-61429560D01*
X167256107Y-61416947D01*
X167236402Y-61402333D01*
X167218223Y-61385857D01*
X167201747Y-61367678D01*
X167187133Y-61347973D01*
X167174520Y-61326929D01*
X167164030Y-61304751D01*
X167155765Y-61281651D01*
X167149804Y-61257853D01*
X167146204Y-61233584D01*
X167145000Y-61209080D01*
X167145000Y-59959080D01*
X167146204Y-59934576D01*
X167149804Y-59910307D01*
X167155765Y-59886509D01*
X167164030Y-59863409D01*
X167174520Y-59841231D01*
X167187133Y-59820187D01*
X167201747Y-59800482D01*
X167218223Y-59782303D01*
X167236402Y-59765827D01*
X167256107Y-59751213D01*
X167277151Y-59738600D01*
X167299329Y-59728110D01*
X167322429Y-59719845D01*
X167346227Y-59713884D01*
X167370496Y-59710284D01*
X167395000Y-59709080D01*
X168320000Y-59709080D01*
X168344504Y-59710284D01*
X168344504Y-59710284D01*
G37*
D15*
X167857500Y-60584080D03*
D14*
G36*
X165369504Y-59710284D02*
G01*
X165393773Y-59713884D01*
X165417571Y-59719845D01*
X165440671Y-59728110D01*
X165462849Y-59738600D01*
X165483893Y-59751213D01*
X165503598Y-59765827D01*
X165521777Y-59782303D01*
X165538253Y-59800482D01*
X165552867Y-59820187D01*
X165565480Y-59841231D01*
X165575970Y-59863409D01*
X165584235Y-59886509D01*
X165590196Y-59910307D01*
X165593796Y-59934576D01*
X165595000Y-59959080D01*
X165595000Y-61209080D01*
X165593796Y-61233584D01*
X165590196Y-61257853D01*
X165584235Y-61281651D01*
X165575970Y-61304751D01*
X165565480Y-61326929D01*
X165552867Y-61347973D01*
X165538253Y-61367678D01*
X165521777Y-61385857D01*
X165503598Y-61402333D01*
X165483893Y-61416947D01*
X165462849Y-61429560D01*
X165440671Y-61440050D01*
X165417571Y-61448315D01*
X165393773Y-61454276D01*
X165369504Y-61457876D01*
X165345000Y-61459080D01*
X164420000Y-61459080D01*
X164395496Y-61457876D01*
X164371227Y-61454276D01*
X164347429Y-61448315D01*
X164324329Y-61440050D01*
X164302151Y-61429560D01*
X164281107Y-61416947D01*
X164261402Y-61402333D01*
X164243223Y-61385857D01*
X164226747Y-61367678D01*
X164212133Y-61347973D01*
X164199520Y-61326929D01*
X164189030Y-61304751D01*
X164180765Y-61281651D01*
X164174804Y-61257853D01*
X164171204Y-61233584D01*
X164170000Y-61209080D01*
X164170000Y-59959080D01*
X164171204Y-59934576D01*
X164174804Y-59910307D01*
X164180765Y-59886509D01*
X164189030Y-59863409D01*
X164199520Y-59841231D01*
X164212133Y-59820187D01*
X164226747Y-59800482D01*
X164243223Y-59782303D01*
X164261402Y-59765827D01*
X164281107Y-59751213D01*
X164302151Y-59738600D01*
X164324329Y-59728110D01*
X164347429Y-59719845D01*
X164371227Y-59713884D01*
X164395496Y-59710284D01*
X164420000Y-59709080D01*
X165345000Y-59709080D01*
X165369504Y-59710284D01*
X165369504Y-59710284D01*
G37*
D15*
X164882500Y-60584080D03*
D14*
G36*
X168347044Y-50832984D02*
G01*
X168371313Y-50836584D01*
X168395111Y-50842545D01*
X168418211Y-50850810D01*
X168440389Y-50861300D01*
X168461433Y-50873913D01*
X168481138Y-50888527D01*
X168499317Y-50905003D01*
X168515793Y-50923182D01*
X168530407Y-50942887D01*
X168543020Y-50963931D01*
X168553510Y-50986109D01*
X168561775Y-51009209D01*
X168567736Y-51033007D01*
X168571336Y-51057276D01*
X168572540Y-51081780D01*
X168572540Y-52331780D01*
X168571336Y-52356284D01*
X168567736Y-52380553D01*
X168561775Y-52404351D01*
X168553510Y-52427451D01*
X168543020Y-52449629D01*
X168530407Y-52470673D01*
X168515793Y-52490378D01*
X168499317Y-52508557D01*
X168481138Y-52525033D01*
X168461433Y-52539647D01*
X168440389Y-52552260D01*
X168418211Y-52562750D01*
X168395111Y-52571015D01*
X168371313Y-52576976D01*
X168347044Y-52580576D01*
X168322540Y-52581780D01*
X167397540Y-52581780D01*
X167373036Y-52580576D01*
X167348767Y-52576976D01*
X167324969Y-52571015D01*
X167301869Y-52562750D01*
X167279691Y-52552260D01*
X167258647Y-52539647D01*
X167238942Y-52525033D01*
X167220763Y-52508557D01*
X167204287Y-52490378D01*
X167189673Y-52470673D01*
X167177060Y-52449629D01*
X167166570Y-52427451D01*
X167158305Y-52404351D01*
X167152344Y-52380553D01*
X167148744Y-52356284D01*
X167147540Y-52331780D01*
X167147540Y-51081780D01*
X167148744Y-51057276D01*
X167152344Y-51033007D01*
X167158305Y-51009209D01*
X167166570Y-50986109D01*
X167177060Y-50963931D01*
X167189673Y-50942887D01*
X167204287Y-50923182D01*
X167220763Y-50905003D01*
X167238942Y-50888527D01*
X167258647Y-50873913D01*
X167279691Y-50861300D01*
X167301869Y-50850810D01*
X167324969Y-50842545D01*
X167348767Y-50836584D01*
X167373036Y-50832984D01*
X167397540Y-50831780D01*
X168322540Y-50831780D01*
X168347044Y-50832984D01*
X168347044Y-50832984D01*
G37*
D15*
X167860040Y-51706780D03*
D14*
G36*
X165372044Y-50832984D02*
G01*
X165396313Y-50836584D01*
X165420111Y-50842545D01*
X165443211Y-50850810D01*
X165465389Y-50861300D01*
X165486433Y-50873913D01*
X165506138Y-50888527D01*
X165524317Y-50905003D01*
X165540793Y-50923182D01*
X165555407Y-50942887D01*
X165568020Y-50963931D01*
X165578510Y-50986109D01*
X165586775Y-51009209D01*
X165592736Y-51033007D01*
X165596336Y-51057276D01*
X165597540Y-51081780D01*
X165597540Y-52331780D01*
X165596336Y-52356284D01*
X165592736Y-52380553D01*
X165586775Y-52404351D01*
X165578510Y-52427451D01*
X165568020Y-52449629D01*
X165555407Y-52470673D01*
X165540793Y-52490378D01*
X165524317Y-52508557D01*
X165506138Y-52525033D01*
X165486433Y-52539647D01*
X165465389Y-52552260D01*
X165443211Y-52562750D01*
X165420111Y-52571015D01*
X165396313Y-52576976D01*
X165372044Y-52580576D01*
X165347540Y-52581780D01*
X164422540Y-52581780D01*
X164398036Y-52580576D01*
X164373767Y-52576976D01*
X164349969Y-52571015D01*
X164326869Y-52562750D01*
X164304691Y-52552260D01*
X164283647Y-52539647D01*
X164263942Y-52525033D01*
X164245763Y-52508557D01*
X164229287Y-52490378D01*
X164214673Y-52470673D01*
X164202060Y-52449629D01*
X164191570Y-52427451D01*
X164183305Y-52404351D01*
X164177344Y-52380553D01*
X164173744Y-52356284D01*
X164172540Y-52331780D01*
X164172540Y-51081780D01*
X164173744Y-51057276D01*
X164177344Y-51033007D01*
X164183305Y-51009209D01*
X164191570Y-50986109D01*
X164202060Y-50963931D01*
X164214673Y-50942887D01*
X164229287Y-50923182D01*
X164245763Y-50905003D01*
X164263942Y-50888527D01*
X164283647Y-50873913D01*
X164304691Y-50861300D01*
X164326869Y-50850810D01*
X164349969Y-50842545D01*
X164373767Y-50836584D01*
X164398036Y-50832984D01*
X164422540Y-50831780D01*
X165347540Y-50831780D01*
X165372044Y-50832984D01*
X165372044Y-50832984D01*
G37*
D15*
X164885040Y-51706780D03*
D14*
G36*
X165369504Y-44594744D02*
G01*
X165393773Y-44598344D01*
X165417571Y-44604305D01*
X165440671Y-44612570D01*
X165462849Y-44623060D01*
X165483893Y-44635673D01*
X165503598Y-44650287D01*
X165521777Y-44666763D01*
X165538253Y-44684942D01*
X165552867Y-44704647D01*
X165565480Y-44725691D01*
X165575970Y-44747869D01*
X165584235Y-44770969D01*
X165590196Y-44794767D01*
X165593796Y-44819036D01*
X165595000Y-44843540D01*
X165595000Y-46093540D01*
X165593796Y-46118044D01*
X165590196Y-46142313D01*
X165584235Y-46166111D01*
X165575970Y-46189211D01*
X165565480Y-46211389D01*
X165552867Y-46232433D01*
X165538253Y-46252138D01*
X165521777Y-46270317D01*
X165503598Y-46286793D01*
X165483893Y-46301407D01*
X165462849Y-46314020D01*
X165440671Y-46324510D01*
X165417571Y-46332775D01*
X165393773Y-46338736D01*
X165369504Y-46342336D01*
X165345000Y-46343540D01*
X164420000Y-46343540D01*
X164395496Y-46342336D01*
X164371227Y-46338736D01*
X164347429Y-46332775D01*
X164324329Y-46324510D01*
X164302151Y-46314020D01*
X164281107Y-46301407D01*
X164261402Y-46286793D01*
X164243223Y-46270317D01*
X164226747Y-46252138D01*
X164212133Y-46232433D01*
X164199520Y-46211389D01*
X164189030Y-46189211D01*
X164180765Y-46166111D01*
X164174804Y-46142313D01*
X164171204Y-46118044D01*
X164170000Y-46093540D01*
X164170000Y-44843540D01*
X164171204Y-44819036D01*
X164174804Y-44794767D01*
X164180765Y-44770969D01*
X164189030Y-44747869D01*
X164199520Y-44725691D01*
X164212133Y-44704647D01*
X164226747Y-44684942D01*
X164243223Y-44666763D01*
X164261402Y-44650287D01*
X164281107Y-44635673D01*
X164302151Y-44623060D01*
X164324329Y-44612570D01*
X164347429Y-44604305D01*
X164371227Y-44598344D01*
X164395496Y-44594744D01*
X164420000Y-44593540D01*
X165345000Y-44593540D01*
X165369504Y-44594744D01*
X165369504Y-44594744D01*
G37*
D15*
X164882500Y-45468540D03*
D14*
G36*
X168344504Y-44594744D02*
G01*
X168368773Y-44598344D01*
X168392571Y-44604305D01*
X168415671Y-44612570D01*
X168437849Y-44623060D01*
X168458893Y-44635673D01*
X168478598Y-44650287D01*
X168496777Y-44666763D01*
X168513253Y-44684942D01*
X168527867Y-44704647D01*
X168540480Y-44725691D01*
X168550970Y-44747869D01*
X168559235Y-44770969D01*
X168565196Y-44794767D01*
X168568796Y-44819036D01*
X168570000Y-44843540D01*
X168570000Y-46093540D01*
X168568796Y-46118044D01*
X168565196Y-46142313D01*
X168559235Y-46166111D01*
X168550970Y-46189211D01*
X168540480Y-46211389D01*
X168527867Y-46232433D01*
X168513253Y-46252138D01*
X168496777Y-46270317D01*
X168478598Y-46286793D01*
X168458893Y-46301407D01*
X168437849Y-46314020D01*
X168415671Y-46324510D01*
X168392571Y-46332775D01*
X168368773Y-46338736D01*
X168344504Y-46342336D01*
X168320000Y-46343540D01*
X167395000Y-46343540D01*
X167370496Y-46342336D01*
X167346227Y-46338736D01*
X167322429Y-46332775D01*
X167299329Y-46324510D01*
X167277151Y-46314020D01*
X167256107Y-46301407D01*
X167236402Y-46286793D01*
X167218223Y-46270317D01*
X167201747Y-46252138D01*
X167187133Y-46232433D01*
X167174520Y-46211389D01*
X167164030Y-46189211D01*
X167155765Y-46166111D01*
X167149804Y-46142313D01*
X167146204Y-46118044D01*
X167145000Y-46093540D01*
X167145000Y-44843540D01*
X167146204Y-44819036D01*
X167149804Y-44794767D01*
X167155765Y-44770969D01*
X167164030Y-44747869D01*
X167174520Y-44725691D01*
X167187133Y-44704647D01*
X167201747Y-44684942D01*
X167218223Y-44666763D01*
X167236402Y-44650287D01*
X167256107Y-44635673D01*
X167277151Y-44623060D01*
X167299329Y-44612570D01*
X167322429Y-44604305D01*
X167346227Y-44598344D01*
X167370496Y-44594744D01*
X167395000Y-44593540D01*
X168320000Y-44593540D01*
X168344504Y-44594744D01*
X168344504Y-44594744D01*
G37*
D15*
X167857500Y-45468540D03*
D14*
G36*
X168344504Y-41419744D02*
G01*
X168368773Y-41423344D01*
X168392571Y-41429305D01*
X168415671Y-41437570D01*
X168437849Y-41448060D01*
X168458893Y-41460673D01*
X168478598Y-41475287D01*
X168496777Y-41491763D01*
X168513253Y-41509942D01*
X168527867Y-41529647D01*
X168540480Y-41550691D01*
X168550970Y-41572869D01*
X168559235Y-41595969D01*
X168565196Y-41619767D01*
X168568796Y-41644036D01*
X168570000Y-41668540D01*
X168570000Y-42918540D01*
X168568796Y-42943044D01*
X168565196Y-42967313D01*
X168559235Y-42991111D01*
X168550970Y-43014211D01*
X168540480Y-43036389D01*
X168527867Y-43057433D01*
X168513253Y-43077138D01*
X168496777Y-43095317D01*
X168478598Y-43111793D01*
X168458893Y-43126407D01*
X168437849Y-43139020D01*
X168415671Y-43149510D01*
X168392571Y-43157775D01*
X168368773Y-43163736D01*
X168344504Y-43167336D01*
X168320000Y-43168540D01*
X167395000Y-43168540D01*
X167370496Y-43167336D01*
X167346227Y-43163736D01*
X167322429Y-43157775D01*
X167299329Y-43149510D01*
X167277151Y-43139020D01*
X167256107Y-43126407D01*
X167236402Y-43111793D01*
X167218223Y-43095317D01*
X167201747Y-43077138D01*
X167187133Y-43057433D01*
X167174520Y-43036389D01*
X167164030Y-43014211D01*
X167155765Y-42991111D01*
X167149804Y-42967313D01*
X167146204Y-42943044D01*
X167145000Y-42918540D01*
X167145000Y-41668540D01*
X167146204Y-41644036D01*
X167149804Y-41619767D01*
X167155765Y-41595969D01*
X167164030Y-41572869D01*
X167174520Y-41550691D01*
X167187133Y-41529647D01*
X167201747Y-41509942D01*
X167218223Y-41491763D01*
X167236402Y-41475287D01*
X167256107Y-41460673D01*
X167277151Y-41448060D01*
X167299329Y-41437570D01*
X167322429Y-41429305D01*
X167346227Y-41423344D01*
X167370496Y-41419744D01*
X167395000Y-41418540D01*
X168320000Y-41418540D01*
X168344504Y-41419744D01*
X168344504Y-41419744D01*
G37*
D15*
X167857500Y-42293540D03*
D14*
G36*
X165369504Y-41419744D02*
G01*
X165393773Y-41423344D01*
X165417571Y-41429305D01*
X165440671Y-41437570D01*
X165462849Y-41448060D01*
X165483893Y-41460673D01*
X165503598Y-41475287D01*
X165521777Y-41491763D01*
X165538253Y-41509942D01*
X165552867Y-41529647D01*
X165565480Y-41550691D01*
X165575970Y-41572869D01*
X165584235Y-41595969D01*
X165590196Y-41619767D01*
X165593796Y-41644036D01*
X165595000Y-41668540D01*
X165595000Y-42918540D01*
X165593796Y-42943044D01*
X165590196Y-42967313D01*
X165584235Y-42991111D01*
X165575970Y-43014211D01*
X165565480Y-43036389D01*
X165552867Y-43057433D01*
X165538253Y-43077138D01*
X165521777Y-43095317D01*
X165503598Y-43111793D01*
X165483893Y-43126407D01*
X165462849Y-43139020D01*
X165440671Y-43149510D01*
X165417571Y-43157775D01*
X165393773Y-43163736D01*
X165369504Y-43167336D01*
X165345000Y-43168540D01*
X164420000Y-43168540D01*
X164395496Y-43167336D01*
X164371227Y-43163736D01*
X164347429Y-43157775D01*
X164324329Y-43149510D01*
X164302151Y-43139020D01*
X164281107Y-43126407D01*
X164261402Y-43111793D01*
X164243223Y-43095317D01*
X164226747Y-43077138D01*
X164212133Y-43057433D01*
X164199520Y-43036389D01*
X164189030Y-43014211D01*
X164180765Y-42991111D01*
X164174804Y-42967313D01*
X164171204Y-42943044D01*
X164170000Y-42918540D01*
X164170000Y-41668540D01*
X164171204Y-41644036D01*
X164174804Y-41619767D01*
X164180765Y-41595969D01*
X164189030Y-41572869D01*
X164199520Y-41550691D01*
X164212133Y-41529647D01*
X164226747Y-41509942D01*
X164243223Y-41491763D01*
X164261402Y-41475287D01*
X164281107Y-41460673D01*
X164302151Y-41448060D01*
X164324329Y-41437570D01*
X164347429Y-41429305D01*
X164371227Y-41423344D01*
X164395496Y-41419744D01*
X164420000Y-41418540D01*
X165345000Y-41418540D01*
X165369504Y-41419744D01*
X165369504Y-41419744D01*
G37*
D15*
X164882500Y-42293540D03*
D30*
X91616480Y-75169260D03*
X91616480Y-75969260D03*
X91616480Y-76769260D03*
X91616480Y-77569260D03*
X91616480Y-78369260D03*
X91616480Y-79169260D03*
X91616480Y-79969260D03*
X91616480Y-80769260D03*
X91616480Y-81569260D03*
X91616480Y-82369260D03*
X91616480Y-83169260D03*
D31*
X93566480Y-85119260D03*
X94366480Y-85119260D03*
X95166480Y-85119260D03*
X95966480Y-85119260D03*
X96766480Y-85119260D03*
X97566480Y-85119260D03*
X98366480Y-85119260D03*
X99166480Y-85119260D03*
X99966480Y-85119260D03*
X100766480Y-85119260D03*
X101566480Y-85119260D03*
D30*
X103516480Y-83169260D03*
X103516480Y-82369260D03*
X103516480Y-81569260D03*
X103516480Y-80769260D03*
X103516480Y-79969260D03*
X103516480Y-79169260D03*
X103516480Y-78369260D03*
X103516480Y-77569260D03*
X103516480Y-76769260D03*
X103516480Y-75969260D03*
X103516480Y-75169260D03*
D31*
X101566480Y-73219260D03*
X100766480Y-73219260D03*
X99966480Y-73219260D03*
X99166480Y-73219260D03*
X98366480Y-73219260D03*
X97566480Y-73219260D03*
X96766480Y-73219260D03*
X95966480Y-73219260D03*
X95166480Y-73219260D03*
X94366480Y-73219260D03*
X93566480Y-73219260D03*
D32*
X76921360Y-64849140D03*
D33*
X76921360Y-58549140D03*
X74621360Y-58549140D03*
X79221360Y-58549140D03*
M02*
