M48
; DRILL file {KiCad (5.1.2-1)-1} date Sunday, 07 June 2020 at 15:36:19
; FORMAT={-:-/ absolute / metric / decimal}
; #@! TF.CreationDate,2020-06-07T15:36:19+02:00
; #@! TF.GenerationSoftware,Kicad,Pcbnew,(5.1.2-1)-1
; #@! TF.FileFunction,Plated,1,4,PTH
FMAT,2
METRIC
T1C0.400
T2C0.800
T3C0.900
T4C1.000
T5C1.016
%
G90
G05
T1
X79.855Y-77.16
X79.855Y-85.954
X79.929Y-75.971
X80.488Y-63.411
X80.965Y-83.414
X81.872Y-80.988
X82.05Y-38.138
X82.05Y-47.109
X82.855Y-45.258
X82.855Y-59.759
X82.911Y-67.229
X83.723Y-40.741
X83.723Y-52.202
X84.168Y-92.276
X84.46Y-41.961
X84.463Y-50.919
X85.173Y-54.826
X85.176Y-69.355
X85.188Y-39.055
X85.628Y-83.193
X85.778Y-78.194
X85.898Y-53.497
X85.899Y-68.461
X85.899Y-76.934
X85.899Y-79.187
X85.913Y-39.997
X86.624Y-57.3
X86.965Y-42.705
X87.348Y-49.67
X87.584Y-75.88
X87.584Y-86.345
X87.594Y-74.846
X88.026Y-73.337
X88.204Y-70.985
X88.626Y-93.421
X88.679Y-66.401
X88.806Y-91.211
X89.593Y-61.717
X89.597Y-67.735
X90.348Y-86.34
X90.348Y-90.407
X91.343Y-85.115
X91.343Y-89.667
X92.122Y-70.279
X92.214Y-91.979
X92.547Y-65.027
X92.941Y-94.272
X92.95Y-87.678
X92.95Y-88.941
X93.242Y-75.294
X93.342Y-76.777
X93.546Y-80.802
X93.782Y-92.705
X93.967Y-67.231
X94.084Y-94.31
X94.364Y-77.47
X94.364Y-83.52
X94.402Y-76.373
X95.039Y-70.228
X95.088Y-63.396
X95.093Y-78.417
X95.387Y-76.019
X95.534Y-50.089
X95.648Y-94.314
X96.106Y-79.197
X96.243Y-40.188
X96.287Y-52.185
X96.538Y-63.233
X96.837Y-64.211
X96.855Y-79.977
X97.582Y-63.094
X97.587Y-88.942
X98.366Y-75.484
X98.369Y-93.43
X98.382Y-67.107
X98.383Y-71.57
X98.897Y-43.579
X99.118Y-95.059
X99.875Y-77.488
X99.88Y-80.78
X99.887Y-68.46
X99.887Y-78.621
X100.119Y-64.249
X100.612Y-69.411
X101.171Y-74.945
X101.216Y-65.766
X101.476Y-94.788
X101.516Y-47.099
X102.385Y-94.155
X102.956Y-60.086
X103.002Y-40.175
X103.363Y-64.295
X103.378Y-72.53
X103.492Y-45.469
X104.038Y-57.229
X104.076Y-35.898
X104.12Y-61.669
X104.168Y-90.392
X104.178Y-95.067
X104.3Y-41.946
X104.3Y-48.148
X104.432Y-51.194
X104.834Y-88.253
X104.834Y-69.388
X104.844Y-64.224
X104.894Y-60.094
X104.905Y-53.411
X105.128Y-42.705
X105.141Y-46.764
X105.195Y-76.284
X105.212Y-75.194
X105.222Y-71.795
X105.382Y-81.57
X105.537Y-39.891
X105.613Y-65.778
X105.682Y-63.094
X105.687Y-52.268
X105.948Y-78.382
X106.228Y-85.862
X106.53Y-56.876
X106.53Y-65.06
X106.545Y-70.607
X106.581Y-36.954
X106.586Y-54.376
X106.728Y-87.521
X107.046Y-84.358
X107.17Y-82.127
X107.49Y-65.791
X107.49Y-68.461
X107.49Y-71.795
X107.587Y-51.919
X107.61Y-62.705
X107.648Y-53.101
X107.655Y-37.805
X107.793Y-75.006
X107.841Y-59.461
X107.998Y-79.169
X108.19Y-73.848
X108.387Y-60.333
X108.387Y-64.254
X109.112Y-73.462
X109.112Y-37.532
X109.238Y-89.703
X109.258Y-95.237
X109.845Y-78.084
X109.855Y-76.949
X109.863Y-61.107
X109.863Y-72.52
X110.668Y-93.43
X110.695Y-81.832
X110.758Y-37.461
X111.483Y-64.254
X111.63Y-85.306
X111.664Y-53.691
X111.813Y-42.854
X112.377Y-37.617
X112.387Y-41.659
X112.542Y-67.053
X112.565Y-45.992
X113.396Y-42.334
X113.525Y-55.987
X113.525Y-65.893
X114.358Y-46.764
X115.073Y-78.864
X115.1Y-55.089
X115.1Y-55.089
X115.105Y-57.036
X115.159Y-68.787
X115.159Y-73.149
X115.176Y-59.461
X115.936Y-45.029
X115.954Y-58.184
X115.969Y-71.877
X116.916Y-48.001
X117.624Y-40.934
X117.627Y-49.296
X118.34Y-79.563
X118.415Y-78.229
X118.829Y-41.676
X118.831Y-68.057
X119.027Y-60.193
X119.065Y-56.984
X119.207Y-73.401
X119.283Y-44.304
X119.39Y-79.769
X119.39Y-82.852
X119.454Y-50.513
X119.926Y-94.729
X120.0Y-38.646
X120.114Y-58.158
X120.142Y-61.846
X120.162Y-74.445
X120.165Y-87.579
X120.89Y-64.017
X121.011Y-51.836
X121.432Y-53.104
X122.776Y-66.881
X122.809Y-94.831
X123.623Y-63.857
X124.353Y-75.667
X124.503Y-92.001
X124.513Y-94.635
X125.258Y-62.705
X125.357Y-54.224
X125.41Y-55.293
X125.418Y-61.107
X125.768Y-40.394
X125.819Y-47.49
X125.847Y-45.489
X126.012Y-70.206
X126.456Y-48.499
X127.043Y-91.227
X127.043Y-94.778
X127.1Y-71.809
X127.175Y-51.834
X127.825Y-49.284
X127.825Y-73.175
X128.758Y-46.733
X128.758Y-69.327
X129.588Y-58.719
X129.7Y-49.182
X130.231Y-45.248
X130.339Y-53.556
X130.459Y-65.885
X131.064Y-47.281
X131.064Y-59.461
X131.232Y-88.984
X131.689Y-40.569
X132.568Y-67.409
X132.799Y-41.148
X132.987Y-60.856
X134.529Y-46.52
X134.529Y-54.663
X134.667Y-72.524
X135.176Y-57.821
X135.392Y-45.481
X135.997Y-61.849
X136.428Y-42.939
X136.898Y-59.606
X137.178Y-77.567
X137.231Y-44.204
X137.933Y-83.381
X138.691Y-63.857
X138.783Y-31.854
X138.806Y-40.467
X139.416Y-62.69
X139.743Y-95.227
X140.457Y-65.06
X141.44Y-37.638
X142.022Y-72.542
X142.725Y-86.263
X142.747Y-67.763
X143.472Y-65.466
X143.781Y-56.952
X144.193Y-37.409
X144.506Y-70.122
X144.546Y-77.612
X145.715Y-85.306
X145.745Y-70.013
X145.753Y-49.533
X146.581Y-76.256
X146.815Y-52.022
X147.046Y-50.523
X148.313Y-79.223
X148.349Y-63.98
X148.89Y-85.945
X149.128Y-40.49
X150.073Y-85.278
X150.081Y-90.419
X150.647Y-51.88
X152.437Y-37.397
X153.17Y-86.67
X154.092Y-68.669
X154.793Y-29.263
X155.067Y-80.556
X155.702Y-35.173
X156.714Y-32.249
X157.681Y-53.086
X157.818Y-35.898
X158.369Y-56.652
X159.131Y-39.129
X165.097Y-94.229
X166.287Y-93.43
X166.385Y-62.636
X167.846Y-34.704
X168.669Y-92.54
T2
X137.922Y-45.466
X137.922Y-48.006
X137.922Y-50.546
X137.922Y-53.086
X137.922Y-55.626
X137.922Y-58.166
X140.462Y-42.926
X140.462Y-45.466
X140.462Y-48.006
X140.462Y-50.546
X140.462Y-53.086
X140.462Y-55.626
X140.462Y-58.166
X140.462Y-60.706
X143.002Y-42.926
X143.002Y-45.466
X143.002Y-58.166
X143.002Y-60.706
X145.542Y-42.926
X145.542Y-45.466
X145.542Y-58.166
X145.542Y-60.706
X148.082Y-42.926
X148.082Y-45.466
X148.082Y-58.166
X148.082Y-60.706
X150.622Y-42.926
X150.622Y-45.466
X150.622Y-58.166
X150.622Y-60.706
X153.162Y-42.926
X153.162Y-45.466
X153.162Y-48.006
X153.162Y-50.546
X153.162Y-53.086
X153.162Y-55.626
X153.162Y-58.166
X153.162Y-60.706
X155.702Y-45.466
X155.702Y-48.006
X155.702Y-50.546
X155.702Y-53.086
X155.702Y-55.626
X155.702Y-58.166
X74.447Y-49.581
X76.947Y-49.581
T3
X100.122Y-29.886
X102.662Y-29.886
X89.992Y-48.387
X89.992Y-50.927
X89.992Y-53.467
X89.992Y-56.007
X89.992Y-58.547
X92.532Y-45.847
X92.532Y-48.387
X92.532Y-50.927
X92.532Y-53.467
X92.532Y-56.007
X92.532Y-58.547
X92.532Y-61.087
X95.072Y-45.847
X95.072Y-48.387
X95.072Y-58.547
X95.072Y-61.087
X97.612Y-45.847
X97.612Y-48.387
X97.612Y-58.547
X97.612Y-61.087
X100.152Y-45.847
X100.152Y-48.387
X100.152Y-50.927
X100.152Y-53.467
X100.152Y-56.007
X100.152Y-58.547
X100.152Y-61.087
X102.692Y-48.387
X102.692Y-48.387
X102.692Y-50.927
X102.692Y-53.467
X102.692Y-56.007
X102.692Y-58.547
X130.358Y-29.886
X132.898Y-29.886
X124.008Y-29.886
X126.548Y-29.886
X118.166Y-29.886
X120.706Y-29.886
X112.146Y-29.855
X114.686Y-29.855
X106.05Y-29.855
X108.59Y-29.855
T4
X142.131Y-30.884
X142.131Y-33.424
X144.671Y-30.884
X144.671Y-33.424
X147.211Y-30.884
X147.211Y-33.424
X149.751Y-30.884
X149.751Y-33.424
X152.291Y-30.884
X152.291Y-33.424
X83.195Y-29.195
X83.195Y-31.735
X83.195Y-34.275
X166.294Y-76.469
X166.294Y-79.009
X166.294Y-81.549
X130.264Y-34.483
X132.804Y-34.483
X86.357Y-90.914
X86.357Y-93.454
X83.805Y-72.07
X83.805Y-74.61
X83.805Y-77.15
X83.805Y-79.69
X83.805Y-82.23
X83.805Y-84.77
X166.294Y-66.258
X166.294Y-68.798
X166.294Y-71.338
T5
X157.079Y-69.101
X157.079Y-71.641
X157.079Y-74.181
X157.079Y-76.721
X159.619Y-69.101
X159.619Y-71.641
X159.619Y-74.181
X159.619Y-76.721
T2
G00X86.347Y-32.083
M15
G01X86.347Y-29.283
M16
G05
G00X93.205Y-32.083
M15
G01X93.205Y-29.283
M16
G05
T0
M30
